<svg xmlns="http://www.w3.org/2000/svg" viewBox="0 0 30 30"><defs><style>.cls-1{fill:none;stroke:#fff;stroke-miterlimit:10;}</style></defs><g id="Layer_2" data-name="Layer 2"><g id="Layer_1-2" data-name="Layer 1"><path class="cls-1" d="M15,.5A14.5,14.5,0,1,0,29.5,15,14.5,14.5,0,0,0,15,.5Zm8,11.91L12.89,21.17l-.09.06-.09.07-.13.06-.1.05-.14,0-.1,0-.24,0a1.36,1.36,0,0,1-.29,0l-.13,0-.14-.05-.12-.07-.13-.07-.1-.09-.1-.09L6.86,16.59a1.42,1.42,0,0,1-.36-1,1.39,1.39,0,0,1,.44-1,1.38,1.38,0,0,1,1.94.08l3.22,3.49,9.13-7.89A1.38,1.38,0,0,1,23,12.41Z"/></g></g></svg>