<svg xmlns="http://www.w3.org/2000/svg" viewBox="0 0 209.07 135"><defs><style>.cls-1{fill:#f2f2f2;}.cls-2{fill:#b51a04;}</style></defs><g id="Layer_2" data-name="Layer 2"><g id="Layer_1-2" data-name="Layer 1"><polygon class="cls-1" points="112.87 24.43 49.03 24.43 17.11 79.71 49.03 135 112.87 135 144.79 79.71 112.87 24.43"/><polygon class="cls-1" points="155.72 0 134.44 0 123.8 18.43 134.44 36.86 155.72 36.86 166.36 18.43 155.72 0"/><path class="cls-2" d="M2.46,101.66A7.55,7.55,0,0,1,1.6,98c0-4.19,2.42-7.63,7-7.63,2.39,0,5.24,1.21,5.76,4.13a3.83,3.83,0,0,1-.35,1.6l-.52,1.21a5.41,5.41,0,0,0-5.2-4c-2.12,0-3.19,1.81-3.19,4.27,0,2,.48,3.37,1.59,4.13h8.88v1.56a2,2,0,0,1-2,1.91H2a2,2,0,0,1-2-1.91v-1.56Z"/><path class="cls-2" d="M41.05,101.66v3.47h-.94a7.4,7.4,0,0,1-5-1.59,6.34,6.34,0,0,1-4.34,1.59H21.65c-2,0-3-.87-3-2.46v-1h3.95V84.1h1.81a2.23,2.23,0,0,1,2.22,2v15.54h3.82c1.59-.14,2.18-1,2.18-2.57v-15h1.29a2.42,2.42,0,0,1,2.7,2.75V98.5c.28,2.26,1.25,3.16,4,3.16Z"/><path class="cls-2" d="M61.11,101.66v3.47H60.2a7.07,7.07,0,0,1-5.41-1.94,6.4,6.4,0,0,1-4.72,1.94,6.87,6.87,0,0,1-5-2,7.24,7.24,0,0,1-5.52,2h-.9v-3.47H39c3.19,0,4-1.11,4.09-4.2,0-3.67,2.54-7,6.7-7,4.51,0,7,3.4,7,7.6,0,2.64,1.11,3.64,4,3.64Zm-7.85-4.09c0-2.5-1.07-4.24-3.19-4.24-2.46,0-3.57,1.74-3.57,4.69,0,2.46,1.07,4.2,3.26,4.2C52.22,102.22,53.26,100.48,53.26,97.57Z"/><path class="cls-2" d="M79.91,101.66v3.47H78.28c-1.56,0-5.34.18-8.12-1.87a10.72,10.72,0,0,1-6,1.87H60.24v-3.47H65.1a3.81,3.81,0,0,0,2.46-.55,11.06,11.06,0,0,0-5.48-4.2c0-.56.17-2,.17-3,.9-.38,2.67-1.46,4.2-2.29a9,9,0,0,1,4-1.15c4,0,6.42,2.61,8,3.47a21.49,21.49,0,0,1-5.27,7.12,4.45,4.45,0,0,0,2.36.59c2.29,0,2.29,0,2.84,0ZM70.68,99.2a22.35,22.35,0,0,0,4.13-4.58,8.53,8.53,0,0,0-4-1,9.6,9.6,0,0,0-5.14,1.84C67.56,96.32,69,98.23,70.68,99.2Z"/><path class="cls-2" d="M86.58,86.88V99.23c0,3.27-2,5.76-5.94,5.9H79.39v-3.47h.94c1.63-.14,2.22-1,2.22-2.6V84.17h1.29A2.42,2.42,0,0,1,86.58,86.88Z"/><path class="cls-2" d="M92.79,105.13a2.39,2.39,0,0,1-2.4-2.67V84.21h1.77a2.21,2.21,0,0,1,2.22,2v18.94Z"/><path class="cls-2" d="M131.16,96v3.19c0,3.27-1.94,5.8-5.93,5.9H114.16c-6.45,0-6.8-5.55-6.8-7.67,0-3.26,1-5.72,3.71-5.72h1.25c-1.45,1.25-2,3.61-2,5.17,0,1.35.07,4.75,3.4,4.75h11.17c1.63-.14,2.22-1,2.22-2.63V93.3h1.28A2.44,2.44,0,0,1,131.16,96Zm-15.51-7.15a2,2,0,1,1,2,2A2,2,0,0,1,115.65,88.89Zm6.49-2a2,2,0,1,1,0,4,2,2,0,0,1,0-4Z"/><path class="cls-2" d="M140.57,101.66v3.47h-.69c-4-.14-5.94-2.63-5.94-5.9V84.17h1.81a2.17,2.17,0,0,1,2.22,2V99.68a2.1,2.1,0,0,0,2.18,2Z"/><path class="cls-2" d="M159.55,101.66v3.47h-19.5v-3.47h3.54a6.77,6.77,0,0,1-.9-3.68c0-4.19,2.43-7.63,7-7.63,4.23,0,6.84,3.57,6.84,8.29v3ZM145.39,85.77a2,2,0,0,1,2-2,2,2,0,0,1,0,4A2,2,0,0,1,145.39,85.77Zm.73,11.76c0,4.72,4.3,4,6.87,4.13,0-.8,0-1.7,0-2.6,0-2.92-.39-5.8-3.68-5.8C147.2,93.26,146.12,95,146.12,97.53Zm4-11.76a2,2,0,0,1,2-2,2,2,0,1,1,0,4A2,2,0,0,1,150.08,85.77Z"/><path class="cls-2" d="M170.2,101.66v3.47h-.14A7.36,7.36,0,0,1,165,103.5a6.36,6.36,0,0,1-4.34,1.63h-1.8v-3.47h1.49c1.63-.14,2.25-1,2.25-2.6V93.33h1.25A2.4,2.4,0,0,1,166.56,96v2.12C166.7,100.59,167.6,101.66,170.2,101.66Zm-10.82,7.53a2,2,0,0,1,4,0,2,2,0,1,1-4,0Zm4.51,0a2,2,0,0,1,2-2,2.06,2.06,0,0,1,2,2,2,2,0,0,1-2,2A2,2,0,0,1,163.89,109.19Z"/><path class="cls-2" d="M179.88,101.66v3.47H179a6,6,0,0,1-4.51-1.63c-1.25,1.18-2.91,1.63-5.48,1.63v-3.47h.83c1.63-.17,2.26-1,2.26-2.63V84.14h1.25a2.41,2.41,0,0,1,2.7,2.71V98.16c.18,2.53.56,3.5,3.51,3.5Z"/><path class="cls-2" d="M198.69,101.66v3.47h-1.63c-1.56,0-5.34.18-8.12-1.87a10.76,10.76,0,0,1-6,1.87H179v-3.47h4.85a3.85,3.85,0,0,0,2.47-.55,11.06,11.06,0,0,0-5.48-4.2c0-.56.17-2,.17-3,.9-.38,2.67-1.46,4.2-2.29a9,9,0,0,1,4-1.15c4,0,6.42,2.61,8,3.47a21.53,21.53,0,0,1-5.28,7.12,4.49,4.49,0,0,0,2.36.59c2.29,0,2.29,0,2.85,0Zm-9.23-2.46a22.64,22.64,0,0,0,4.13-4.58,8.53,8.53,0,0,0-4-1,9.59,9.59,0,0,0-5.13,1.84C186.34,96.32,187.76,98.23,189.46,99.2Z"/><path class="cls-2" d="M207.05,96v3.19c0,3.23-1.9,5.76-5.86,5.9H198v-3.47h2.88c1.59-.17,2.22-1,2.22-2.63V93.3h1.28A2.41,2.41,0,0,1,207.05,96Zm-6.52-7.22a2,2,0,1,1,2,2A2,2,0,0,1,200.53,88.82Zm4.55,0a1.94,1.94,0,0,1,1.94-2,2,2,0,1,1,0,4A1.94,1.94,0,0,1,205.08,88.82Z"/></g></g></svg>