<svg xmlns="http://www.w3.org/2000/svg" viewBox="0 0 457.4 324"><defs><style>.cls-1{fill:#f2f2f2;}.cls-2{fill:#b51a04;}</style></defs><g id="Layer_2" data-name="Layer 2"><g id="Layer_1-2" data-name="Layer 1"><polygon class="cls-1" points="336.38 54 186.35 54 111.34 183.93 186.35 313.86 336.38 313.86 411.4 183.93 336.38 54"/><path class="cls-2" d="M146.88,59.67V117.5c0,1.7.17,5.8-.17,10.92,3.07,2.38,7.85,3.58,15.18,3.58h1.71v17.06h-4.44c-4.43,0-10.23-.17-15.18-2.9C139.2,163.39,127.26,182,96.55,182c-28.14,0-48.1-23-48.1-51,0-14.68,6-25.59,18.08-25.59h6.14c-7.16,6.31-9.55,17.74-9.55,25.41,0,17.06,12.28,33.61,30.71,33.61,20,0,33.43-10.58,33.43-46.91V46.19h6.31C142.44,46.19,146.88,51,146.88,59.67Z" transform="translate(-46.66)"/><path class="cls-2" d="M267.32,132v17.06h-4.44c-11.6,0-20.47-3.07-26.61-9.56a31.51,31.51,0,0,1-23.2,9.56c-10.23,0-18.76-3.75-24.73-9.9-6.32,6.66-15.36,9.9-27.13,9.9h-4.43V132h1.7c15.7,0,19.79-5.46,20.13-20.64,0-18.09,12.45-34.63,32.93-34.63,22.17,0,34.29,16.71,34.29,37.36,0,13,5.45,17.91,19.78,17.91Zm-38.55-20.13c0-12.28-5.29-20.81-15.7-20.81-12.11,0-17.57,8.53-17.57,23,0,12.11,5.29,20.64,16,20.64C223.65,134.73,228.77,126.2,228.77,111.87Z" transform="translate(-46.66)"/><path class="cls-2" d="M263.06,132h64.65c-2.56-10.92-10.75-38.21-31.39-38.21-9.55,0-16.2,2.55-23.71,9.55V96.86c0-11.43,3.07-20.3,27.64-20.3,33.43,0,45.72,38,45.72,67.38a78.37,78.37,0,0,1-1.37,16c-3.24-6.83-14.5-10.07-26.61-10.92H263.06Z" transform="translate(-46.66)"/><path class="cls-2" d="M86,241.41v7.16c0,6.2-1.16,23.94-20.12,23.94-11.26,0-19.24-9.21-19.24-20.4,0-5.86,2.39-10.23,7.23-10.23h2.46c-2.87,2.53-3.82,7.1-3.82,10.17,0,6.82,4.91,13.43,12.28,13.43,8,0,13.36-4.23,13.36-18.75V236H80.7C84.24,236,86,237.93,86,241.41Zm-23.26-10a3.86,3.86,0,0,1,3.89-4,4,4,0,1,1-3.89,4Z" transform="translate(-46.66)"/><path class="cls-2" d="M126.88,223.26v24.49c0,6.34-3.82,11.32-11.6,11.59H97.34c-4,0-5.79-1.7-5.79-4.91v-1.91h7.77V218h3.55c2,0,4.36,1.57,4.36,3.89v30.62h7.44c3.2-.27,4.36-2,4.36-5.18v-29.4h2.53C125.1,217.94,126.88,219.72,126.88,223.26Zm-17.33-11.93c0,1.22-.75,3.07-2.52,3.07H98V212a2.14,2.14,0,0,1,1.91-2.18h9.68Z" transform="translate(-46.66)"/><path class="cls-2" d="M140.45,259.34c-2.38,0-4.7-1.63-4.7-5.25V218.22h3.47c2,0,4.37,1.63,4.37,3.88v37.24Z" transform="translate(-46.66)"/><path class="cls-2" d="M213,259.34h-6.55a18.52,18.52,0,0,1-18,12.9c-10.77,0-19.3-7.57-19.3-20,0-6.68,3.68-9.68,7-9.68h2.18c-2,2.59-3,6.75-3,10.57,0,7,5.11,12,12.14,12,6.27,0,10-2.32,11.59-5.8-8.18-.27-19-2-19-14,0-8.25,4.78-15,13.71-15,9.69,0,13.51,8.45,13.44,16.3l-.07,5.86H213Zm-27.63-38a3.93,3.93,0,1,1,3.89,3.88A3.89,3.89,0,0,1,185.33,221.29Zm11.53,31.3c1.23,0,2.46-.07,3.48-.07,0-1.5.07-3.2.07-4.91,0-5.73-.75-11.52-7.3-11.52-4.23,0-6.34,3.47-6.34,8.39C186.77,251.84,192.15,252.59,196.86,252.59Zm-2.39-31.3a3.93,3.93,0,0,1,7.85,0,3.93,3.93,0,0,1-7.85,0Z" transform="translate(-46.66)"/><path class="cls-2" d="M233.56,252.52v6.82h-.28c-4.22,0-7.57-1.09-9.95-3.2a12.44,12.44,0,0,1-8.53,3.2h-3.55v-6.82h2.94c3.2-.27,4.43-2,4.43-5.11V236.15h2.46c3.54,0,5.32,1.78,5.32,5.32v4.17C226.67,250.41,228.44,252.52,233.56,252.52Zm-21.28,14.8a3.92,3.92,0,0,1,7.84,0,3.92,3.92,0,1,1-7.84,0Zm8.86,0a3.93,3.93,0,0,1,3.89-3.88,3.92,3.92,0,1,1,0,7.84A3.9,3.9,0,0,1,221.14,267.32Z" transform="translate(-46.66)"/><path class="cls-2" d="M253.82,252.52v6.89h-.28c-4.23,0-7.57-1.16-9.95-3.27-2.73,2.66-6.42,3.27-12.08,3.27v-6.89h2.94c3.2-.27,4.43-2,4.43-5.11V236.15h2.45c3.55,0,5.32,1.78,5.32,5.32v4.17C246.93,250.41,248.7,252.52,253.82,252.52Zm-7.23,14.53a3.83,3.83,0,0,1-3.89,3.82,3.79,3.79,0,0,1-3.89-3.82,3.86,3.86,0,0,1,3.89-3.95A3.9,3.9,0,0,1,246.59,267.05Z" transform="translate(-46.66)"/><path class="cls-2" d="M251.77,252.52h7.57c-.07-4.22-.07-31.92-.07-34.51h1.5c3.76,0,5.26,1.43,5.26,5.05v20c4.16-6.95,10.16-12.62,17.46-12.62,11.12,0,15.28,11.6,15.28,20.13,0,.61-.07,1.43-.07,2h5v6.82h-52Zm40.17,0c.07-.75.07-1.56.07-2.38,0-5.66-1.29-11.67-10.23-12.08-7.91.28-13.43,9.42-14.66,14.46Z" transform="translate(-46.66)"/><path class="cls-2" d="M324.35,252.52v6.82h-.28c-4.23,0-7.57-1.09-9.95-3.2a12.44,12.44,0,0,1-8.53,3.2H302v-6.82H305c3.2-.27,4.43-2,4.43-5.11V236.15h2.45c3.55,0,5.32,1.78,5.32,5.32v4.17C317.46,250.41,319.23,252.39,324.35,252.52Zm-19.58-25.1a3.92,3.92,0,1,1,4,3.89A3.91,3.91,0,0,1,304.77,227.42Zm8.94,0a3.92,3.92,0,1,1,3.88,3.89A3.89,3.89,0,0,1,313.71,227.42Z" transform="translate(-46.66)"/><path class="cls-2" d="M336.76,223.47v24.28c0,6.41-3.82,11.32-11.66,11.59h-2.46v-6.82h1.84c3.21-.27,4.37-2,4.37-5.11V218.15h2.52C334.92,218.15,336.76,219.92,336.76,223.47Z" transform="translate(-46.66)"/><path class="cls-2" d="M349,259.34c-2.39,0-4.71-1.63-4.71-5.25V218.22h3.48c2,0,4.37,1.63,4.37,3.88v37.24Z" transform="translate(-46.66)"/><polygon class="cls-1" points="434.51 9.29 388.73 9.29 365.84 48.94 388.73 88.58 434.51 88.58 457.4 48.94 434.51 9.29"/><polygon class="cls-2" points="322.94 0 310.3 0 303.99 10.94 310.3 21.88 322.94 21.88 329.25 10.94 322.94 0"/><polygon class="cls-2" points="121.3 289 101.09 289 90.99 306.5 101.09 324 121.3 324 131.4 306.5 121.3 289"/></g></g></svg>