<svg id="notification_4_" data-name="notification (4)" xmlns="http://www.w3.org/2000/svg" width="23.331" height="24.345" viewBox="0 0 23.331 24.345">
  <path id="Path_3" data-name="Path 3" d="M136.115,345.39a4.058,4.058,0,1,1-4.058-4.058A4.058,4.058,0,0,1,136.115,345.39Zm0,0" transform="translate(-121.914 -325.102)" fill="#ffa000"/>
  <path id="Path_4" data-name="Path 4" d="M17.253,52.732a7.084,7.084,0,0,1-5.493-9.871,7.077,7.077,0,0,0-8.717,6.908V52.6A6.8,6.8,0,0,1,.621,57.8a1.775,1.775,0,0,0,1.154,3.123H18.513a1.775,1.775,0,0,0,1.144-3.133,6.792,6.792,0,0,1-2.4-5.063Zm0,0" transform="translate(0 -40.639)" fill="#ffc107"/>
  <path id="Path_5" data-name="Path 5" d="M287.476,5.072A5.072,5.072,0,1,1,282.4,0,5.072,5.072,0,0,1,287.476,5.072Zm0,0" transform="translate(-264.145 0)" fill="#f44336"/>
</svg>
