<svg id="Group_3" data-name="Group 3" xmlns="http://www.w3.org/2000/svg" width="19.545" height="21.5" viewBox="0 0 19.545 21.5">
  <path id="Path_6" data-name="Path 6" d="M146.818,345.241a3.909,3.909,0,1,1-3.909-3.909A3.909,3.909,0,0,1,146.818,345.241Z" transform="translate(-133.136 -327.65)" fill="#dcdcdc"/>
  <path id="Path_7" data-name="Path 7" d="M30.545,58.55a1.712,1.712,0,0,1-1.71,1.711H12.711A1.712,1.712,0,0,1,11,58.55a1.776,1.776,0,0,1,.016-.232c0-.031.01-.061.015-.091s.018-.084.029-.125l.006-.022c.007-.025.015-.05.023-.075l.016-.044c.016-.043.033-.085.052-.126h0a1.742,1.742,0,0,1,.414-.559l.036-.032q.169-.143.327-.3L12,56.883c.043-.042.085-.085.126-.129l.061-.066.06-.066.06-.067c.02-.022.04-.045.059-.068.034-.039.067-.08.1-.12l.049-.06.059-.076c.018-.023.036-.046.053-.069l.051-.07a6.533,6.533,0,0,0,1.253-3.727q0-.065,0-.129V49.511a6.848,6.848,0,0,1,6.641-6.837l.1,0h.2l.1,0a6.848,6.848,0,0,1,6.641,6.837v2.725q0,.065,0,.129a6.539,6.539,0,0,0,1.565,4.123l.073.084.054.06q.087.1.18.191l.062.062q.191.191.4.366a1.712,1.712,0,0,1,.441.582h0c.019.041.036.083.052.126.006.014.011.029.016.044s.016.049.023.075c0,.007,0,.015.006.022.011.041.021.083.029.125s.011.06.015.091A1.776,1.776,0,0,1,30.545,58.55Z" transform="translate(-11 -42.67)" fill="#fff"/>
  <path id="Path_8" data-name="Path 8" d="M13.29,373.846c.016-.043.033-.085.052-.126C13.323,373.761,13.306,373.8,13.29,373.846Z" transform="translate(-13.185 -358.555)" fill="#ffc107"/>
  <path id="Path_9" data-name="Path 9" d="M14.854,361.48a1.743,1.743,0,0,0-.414.559A1.693,1.693,0,0,1,14.854,361.48Z" transform="translate(-14.282 -346.876)" fill="#ffc107"/>
  <path id="Path_10" data-name="Path 10" d="M373.706,254.3a6.549,6.549,0,0,0,1.558,4.122A6.54,6.54,0,0,1,373.7,254.3Z" transform="translate(-357.085 -244.605)" fill="#ffc107"/>
  <path id="Path_11" data-name="Path 11" d="M48.857,254.3h.006a6.533,6.533,0,0,1-1.253,3.727A6.554,6.554,0,0,0,48.857,254.3Z" transform="translate(-45.933 -244.605)" fill="#ffc107"/>
  <path id="Path_12" data-name="Path 12" d="M427.42,363.65a1.7,1.7,0,0,1,.312.46A1.731,1.731,0,0,0,427.42,363.65Z" transform="translate(-408.344 -348.946)" fill="#ffc107"/>
  <path id="Path_13" data-name="Path 13" d="M434.25,373.72c.019.041.036.083.052.126C434.286,373.8,434.269,373.761,434.25,373.72Z" transform="translate(-414.861 -358.555)" fill="#ffc107"/>
</svg>
