<svg xmlns="http://www.w3.org/2000/svg" viewBox="0 0 8.75 6.08"><defs><style>.cls-1{fill:#b51a04;}</style></defs><g id="Layer_2" data-name="Layer 2"><g id="Layer_1-2" data-name="Layer 1"><path class="cls-1" d="M2.92,6.08a.58.58,0,0,1-.19,0L2.65,6s-.08,0-.1,0L2.48,6l-.1-.06-.06,0-.08-.07-2-2.17A.93.93,0,0,1,0,3a.9.9,0,0,1,.3-.63A.9.9,0,0,1,1,2.08a.92.92,0,0,1,.63.3L3,3.89,7.23.22a.92.92,0,0,1,1.3.1.91.91,0,0,1-.1,1.29L3.39,6,3.32,6,3.24,6l-.16.05Zm.27-.6L8.11,1.23A.42.42,0,1,0,7.56.6L3,4.59,1.22,2.72a.44.44,0,0,0-.29-.14.48.48,0,0,0-.3.11A.46.46,0,0,0,.5,3a.46.46,0,0,0,.11.3L2.74,5.54l.08,0a.34.34,0,0,0,.17,0"/></g></g></svg>