<svg xmlns="http://www.w3.org/2000/svg" viewBox="0 0 42.85 53.66"><defs><style>.cls-1{fill:#fff;}.cls-2{fill:#d49729;}</style></defs><g id="Layer_2" data-name="Layer 2"><g id="Layer_1-2" data-name="Layer 1"><path class="cls-1" d="M38,0H4.81A4.82,4.82,0,0,0,0,4.81v44a4.82,4.82,0,0,0,4.81,4.81H38a4.81,4.81,0,0,0,4.81-4.81V38.41h0V4.81A4.81,4.81,0,0,0,38,0Zm1.9,48.74a1.9,1.9,0,0,1-1.89,1.9H4.81a1.9,1.9,0,0,1-1.9-1.9V38.36a1.9,1.9,0,0,1,1.9-1.9H38.05a1.9,1.9,0,0,1,1.89,1.9Zm0-12.64a2.81,2.81,0,0,0-1.77-.63H4.68a2.81,2.81,0,0,0-1.77.63V4.92A1.9,1.9,0,0,1,4.81,3H38a1.89,1.89,0,0,1,1.9,1.89Z"/><path class="cls-1" d="M34.74,7a.56.56,0,0,0-.58-.55.56.56,0,0,0-.58.55.58.58,0,0,0,1.16,0m-2.48,4.59h3.91v-1.3A1.19,1.19,0,0,0,36,9.5a1,1,0,0,0-.81-.31H32.26Zm-7.52,2.67a2.23,2.23,0,0,1-.56-.08l-.11,0,.24-.84.1,0a1,1,0,0,0,.31,0c.38,0,.51-.13.51-.89V7.8h.88v3.78h5.27V7.8h.88v.51h2.88a1.78,1.78,0,0,1,1.48.6,2.08,2.08,0,0,1,.43,1.37v2.17H26v.05a1.88,1.88,0,0,1-.37,1.43,1.17,1.17,0,0,1-.9.32Zm-1.44-.63a.57.57,0,0,0-1.13,0,.57.57,0,0,0,1.13,0m-1.59,0a.54.54,0,0,0-.56-.54.55.55,0,0,0-.56.54.56.56,0,0,0,1.12,0m-4.95,0a.58.58,0,1,0-.57.55.55.55,0,0,0,.57-.55M8.31,6.25a.56.56,0,0,0-1.12,0,.56.56,0,0,0,1.12,0m1.59,0a.57.57,0,0,0-1.13,0,.57.57,0,0,0,1.13,0M8.37,8.68a1.57,1.57,0,0,0-1.66,1.45,1.49,1.49,0,0,0,1.66,1.45h.54V8.68Zm.12,3.77a2.33,2.33,0,0,1-2.66-2.32C5.83,8.76,7,7.8,8.64,7.8h.27V7.39h.88v4.19h6V7.8h.88v3.78h5.55V7.8H23v4.65Z"/><path class="cls-1" d="M37.05,15.4h-.88v6.85h.88ZM8.89,18.47v2.9H8.35a1.5,1.5,0,0,1-1.66-1.45,1.57,1.57,0,0,1,1.66-1.45Zm20.54,0v2.9H28.12a1.67,1.67,0,0,1-.9-1.44,1.5,1.5,0,0,1,1.6-1.45Zm-12.16,2a1.6,1.6,0,1,1-1.63-1.61,1.58,1.58,0,0,1,1.63,1.61m.17,1.75H34.51V15.4h-.88v6H30.31V17.59H29.09c-1.67,0-2.75.91-2.75,2.33a2.07,2.07,0,0,0,.5,1.38l.06.07H22.72V17.59h-.88v3.78H18l0-.06a2.3,2.3,0,0,0,.13-.79,2.48,2.48,0,1,0-5,0,2.67,2.67,0,0,0,.13.79l0,.06H9.77V17.18H8.89v.41H8.63c-1.66,0-2.82,1-2.82,2.33,0,1.13.74,2.33,2.82,2.33h5.26a2.46,2.46,0,0,0,1.75.73,2.55,2.55,0,0,0,1.8-.73m12.64-5.9a.57.57,0,0,0-1.14,0,.57.57,0,0,0,1.14,0m-1.59,0a.57.57,0,0,0-1.13,0,.57.57,0,0,0,1.13,0m-4.91,7.06a.57.57,0,0,0-1.14,0A.54.54,0,0,0,23,24a.53.53,0,0,0,.57-.53m-1.59,0a.57.57,0,0,0-1.13,0,.57.57,0,0,0,1.13,0M8.29,16a.54.54,0,0,0-.56-.54.55.55,0,0,0-.56.54.56.56,0,0,0,1.12,0m1,.54A.54.54,0,0,1,8.75,16a.55.55,0,0,1,.56-.54.56.56,0,0,1,.58.54.55.55,0,0,1-.58.54"/><path class="cls-1" d="M37.05,25.2h-.88V32h.88ZM20.38,28.77h2.78a1,1,0,0,1,.81.31,1.19,1.19,0,0,1,.22.78v1.3H20.38ZM30.76,30.3a1.6,1.6,0,1,1-1.63-1.61,1.58,1.58,0,0,1,1.63,1.61m.17,1.75h3.58V25.2h-.88v6H31.49l0-.06a2.52,2.52,0,0,0,.13-.79,2.48,2.48,0,1,0-5,0,2.73,2.73,0,0,0,.13.8l0,.05H25.07v-1.3a2,2,0,0,0-.43-1.37,1.78,1.78,0,0,0-1.48-.59H20.38v-.52H19.5v3.78H17.38v-6H16.5V32H27.38a2.46,2.46,0,0,0,1.75.73,2.52,2.52,0,0,0,1.8-.73m-8.16-5.48a.56.56,0,0,0-.58-.55.56.56,0,1,0,.58.55m-8.62-.43a.56.56,0,0,0-.58-.55.56.56,0,0,0-.58.55.58.58,0,0,0,1.16,0M8.91,28.26v2.9H8.37a1.48,1.48,0,0,1-1.66-1.44,1.58,1.58,0,0,1,1.66-1.46Zm5.38,0v2.9H13a1.69,1.69,0,0,1-.91-1.45,1.5,1.5,0,0,1,1.6-1.45ZM15.17,32V27.38H14c-1.67,0-2.75.92-2.75,2.33a2.07,2.07,0,0,0,.5,1.38l.07.07h-2V27H8.91v.4H8.64c-1.66,0-2.81,1-2.81,2.34,0,1.12.74,2.32,2.81,2.32ZM8.31,25.83a.56.56,0,0,0-1.12,0,.56.56,0,0,0,1.12,0m1,.55a.54.54,0,1,1,.57-.55.54.54,0,0,1-.57.55"/><path class="cls-1" d="M11,46.19l2.25-7.56h3.14c-1,3.13-3.28,9.84-3.31,9.84H9s-2.26-6.71-3.31-9.84H8.8Z"/><polygon class="cls-1" points="37.19 38.63 26.78 38.63 27.56 40.89 30.89 40.89 30.89 48.47 33.87 48.47 33.87 40.89 37.19 40.89 37.19 38.63"/><path class="cls-2" d="M26.63,42.24l-.32-.7A30.45,30.45,0,0,0,22,45.84l-1-1.13-.36,1.22-.05.18C21,46.65,22,48.47,22,48.47a23.06,23.06,0,0,1,4.64-6.23"/><path class="cls-1" d="M21.61,40.92l1,3.44c.62-.68,1.45-1.55,2.23-2.26-.65-1.94-1.16-3.47-1.17-3.47H19.53s-2.26,6.71-3.3,9.84h3.14Z"/><path class="cls-1" d="M23.41,47l.44,1.48H27c-.38-1.15-.93-2.78-1.46-4.39A26,26,0,0,0,23.41,47"/></g></g></svg>