<svg xmlns="http://www.w3.org/2000/svg" viewBox="0 0 246.88 193.48"><defs><style>.cls-1{isolation:isolate;}.cls-2{mix-blend-mode:multiply;}.cls-3{fill:#b51a04;}.cls-4{fill:#e0e0e0;}</style></defs><g class="cls-1"><g id="Layer_2" data-name="Layer 2"><g id="Layer_1-2" data-name="Layer 1"><g class="cls-2"><path class="cls-3" d="M113.85,137.65c-2.93,0-5.78-2-5.78-6.45V87.1h4.27c2.43,0,5.37,2,5.37,4.78v45.77Z"/><path class="cls-3" d="M158.36,137.65H131.12c-3.1,0-4.61-2.51-4.61-5v-3.35h23.14c0-10.65-7.21-15.26-7.46-15.43a15,15,0,0,0-8.39-2.51,24.71,24.71,0,0,0-4.11.33l1.68-2.68c1.84-2.93,4-4.61,7.63-4.61a15.06,15.06,0,0,1,3.6.5,18.08,18.08,0,0,1,8.89,5.45,29.56,29.56,0,0,1,6.87,19ZM136.57,90.87a4.65,4.65,0,0,1,4.78-4.69,4.7,4.7,0,0,1,4.78,4.69,4.85,4.85,0,0,1-4.78,4.86A4.79,4.79,0,0,1,136.57,90.87Z"/><path class="cls-3" d="M181.08,129.27v8.38H179.4c-9.64-.33-14.33-6.37-14.33-14.25V87h4.36c2.51,0,5.36,1.92,5.36,4.86v32.61c.34,2.85,1.93,4.44,5.29,4.78Z"/><path class="cls-3" d="M232.05,129.27v8.38h-2.18c-5.7,0-10.06-1.51-13.08-4.69a15.49,15.49,0,0,1-11.4,4.69,16.57,16.57,0,0,1-12.15-4.86c-3.11,3.27-7.55,4.86-13.33,4.86h-2.18v-8.38h.83c7.72,0,9.73-2.69,9.9-10.15,0-8.88,6.12-17,16.18-17,10.89,0,16.85,8.21,16.85,18.35,0,6.38,2.68,8.81,9.72,8.81Zm-19-9.89c0-6-2.6-10.23-7.71-10.23-5.95,0-8.63,4.19-8.63,11.31,0,6,2.59,10.15,7.88,10.15C210.59,130.61,213.1,126.42,213.1,119.38Z"/><path class="cls-3" d="M246.88,93.55V123.4c0,7.88-4.69,13.92-14.33,14.25h-3v-8.38h2.27c3.94-.34,5.36-2.52,5.36-6.29V87h3.1C244.62,87,246.88,89.2,246.88,93.55Z"/><path class="cls-3" d="M18.33,183.29c0,5.68-3.3,10.19-9.4,10.19C3.26,193.48,0,189,0,183.89c0-5.62,3.26-10.18,9.35-10.18C15,173.71,18.33,178.27,18.33,183.29ZM3.68,167.66a2.5,2.5,0,0,1,2.6-2.56,2.57,2.57,0,0,1,2.65,2.56,2.6,2.6,0,0,1-2.65,2.56A2.53,2.53,0,0,1,3.68,167.66Zm.93,15.63c0,4,1.44,6.28,4.74,6.28,2.93,0,4.33-2.33,4.33-5.68,0-3.9-1.49-6.28-4.75-6.28C6.05,177.61,4.61,180,4.61,183.29Zm5-15.63a2.51,2.51,0,0,1,2.61-2.56,2.55,2.55,0,0,1,2.56,2.56,2.58,2.58,0,0,1-2.56,2.56A2.54,2.54,0,0,1,9.58,167.66Z"/><path class="cls-3" d="M45.69,188.83v4.65h-.28c-2.75,0-4.19-.23-5.91-1.86a5.12,5.12,0,0,1-3.44,1.86h-11a2.57,2.57,0,0,1-2.56-2.79v-1.86H35.36a10.21,10.21,0,0,0-4.14-8.56,8.36,8.36,0,0,0-4.66-1.4,13.52,13.52,0,0,0-2.27.19l.93-1.49A4.64,4.64,0,0,1,29.45,175a8.06,8.06,0,0,1,2,.28,10,10,0,0,1,4.93,3,16.63,16.63,0,0,1,3.26,6.24c1.16,3.44,1.39,4.28,5.53,4.28Z"/><path class="cls-3" d="M45.22,188.83h6.05v4.65H45.22Z"/><path class="cls-3" d="M50.57,188.83h6v4.65h-6Z"/><path class="cls-3" d="M55.92,188.83h6v4.65h-6Z"/><path class="cls-3" d="M61.27,188.83h6v4.65h-6Z"/><path class="cls-3" d="M66.62,188.83h6v4.65h-6Z"/><path class="cls-3" d="M72,188.83h6v4.65H72Z"/><path class="cls-3" d="M77.32,188.83h6.05v4.65H77.32Z"/><path class="cls-3" d="M82.67,188.83h6v4.65h-6Z"/><path class="cls-3" d="M88,188.83h6v4.65H88Z"/><path class="cls-3" d="M93.14,188.83h17.44c-.74-3-2.93-10.43-8.56-10.43A8.57,8.57,0,0,0,95.51,181v-1.77c0-3.11.79-5.49,7.53-5.49,8,0,11.5,8.24,12.33,15.08h4.24v4.65H93.14Z"/><path class="cls-3" d="M133.42,188.83v4.65h-.18a9.91,9.91,0,0,1-6.79-2.19,8.51,8.51,0,0,1-5.82,2.19h-2.42v-4.65h2c2.19-.19,3-1.35,3-3.49v-7.68h1.67q3.63,0,3.63,3.63v2.84C128.73,187.38,129.94,188.73,133.42,188.83Zm-13.35-17.12a2.68,2.68,0,1,1,2.7,2.65A2.67,2.67,0,0,1,120.07,171.71Zm6.1,0a2.68,2.68,0,1,1,2.65,2.65A2.66,2.66,0,0,1,126.17,171.71Z"/><path class="cls-3" d="M161.48,188.83v4.65h-1.21c-3.17,0-5.58-.84-7.26-2.61a8.58,8.58,0,0,1-6.33,2.61,9.18,9.18,0,0,1-6.74-2.7c-1.72,1.81-4.19,2.7-7.4,2.7h-1.21v-4.65h.47c4.28,0,5.39-1.49,5.49-5.63,0-4.93,3.39-9.45,9-9.45,6.05,0,9.36,4.56,9.36,10.19,0,3.54,1.48,4.89,5.39,4.89ZM151,183.34c0-3.35-1.44-5.68-4.28-5.68-3.3,0-4.79,2.33-4.79,6.28,0,3.3,1.44,5.63,4.37,5.63C149.57,189.57,151,187.24,151,183.34Z"/><path class="cls-3" d="M169.71,169v16.56c0,4.37-2.6,7.72-8,7.91h-1.68v-4.65h1.26c2.18-.19,3-1.4,3-3.49v-20H166C168.46,165.38,169.71,166.59,169.71,169Z"/><path class="cls-3" d="M178,193.48c-1.63,0-3.21-1.12-3.21-3.58V165.42h2.37a3,3,0,0,1,3,2.66v25.4Z"/></g><path class="cls-4" d="M53.88,0C81.06,0,93.37,14.87,93.37,29v9.75H92.21C85.7,30,74.09,24.85,58.06,24.85c-13.94,0-20.91,5.58-20.91,15.57,0,4.18,1.63,8.59,6.28,12.54L58.29,65.27C68.51,73.63,72,81.3,72,91.52c0,7-6.51,12.31-12.78,12.31H49.47V96.4c0-7.2-1.17-10.45-9.06-17.19L23.68,65C12.53,55.52,9.05,48.08,9.05,37.4,9.05,17.19,24.61,0,53.88,0Zm2.79,112a18,18,0,1,1,0,36,18,18,0,0,1,0-36Z"/></g></g></g></svg>