<?xml version="1.0" standalone="no"?>
<!DOCTYPE svg PUBLIC "-//W3C//DTD SVG 1.1//EN" "http://www.w3.org/Graphics/SVG/1.1/DTD/svg11.dtd" >
<svg xmlns="http://www.w3.org/2000/svg" xmlns:xlink="http://www.w3.org/1999/xlink" version="1.1">
<metadata>
Created by FontForge 20170731 at Tue Apr 27 13:16:42 2021
 By Aleksey,,,
Copyright (c) 2011 by IBRAHIM HAMDI's. All rights reserved.
</metadata>
<defs>
<font id="CoconNextArabic-Regular" horiz-adv-x="0" >
  <font-face 
    font-family="Cocon Next Arabic"
    font-weight="400"
    font-stretch="normal"
    units-per-em="2048"
    panose-1="2 10 5 3 2 1 2 2 2 4"
    ascent="1638"
    descent="-410"
    x-height="930"
    cap-height="1235"
    bbox="-371 -700 3056 1874"
    underline-thickness="102"
    underline-position="-307"
    unicode-range="U+000D-FEFC"
  />
<missing-glyph horiz-adv-x="1126" 
 />
    <glyph glyph-name="lam_alef_madda.isol" unicode="&#xfedf;&#xfe82;" horiz-adv-x="1265" arabic-form="isolated" 
d="M602 1487v-45q0 -33 -20 -62.5t-56 -29.5h-272v71q0 24 16 45t41 21h291zM963 1243q159 0 159 -160v-735q0 -149 -90 -245.5t-258 -102.5h-538q-175 0 -175 147v58h234v1036h106q48 0 89.5 -33.5t41.5 -83.5v-919h224q70 6 100.5 44t30.5 111v883h76z" />
    <glyph glyph-name="lam_alef_madda.fina" unicode="&#xfee0;&#xfe82;" horiz-adv-x="1331" arabic-form="final" 
d="M596 1487v-45q0 -32 -20.5 -62t-55.5 -30h-274v71q0 24 17 45t42 21h291zM1360 205h22v-205h-55q-190 0 -297 94q-91 -88 -256 -94h-536q-177 0 -177 145v60h234v1036h106q47 0 89 -34.5t42 -84.5v-917h226q69 6 99 43t30 108v885h76q159 0 159 -162v-688
q12 -101 64.5 -143.5t173.5 -42.5z" />
    <glyph glyph-name="lam_alef_hamza_above.isol" unicode="&#xfedf;&#xfe84;" horiz-adv-x="1265" arabic-form="isolated" 
d="M961 1243q161 0 161 -162v-733q0 -149 -90 -245.5t-258 -102.5h-538q-175 0 -175 145v60h234v1036h106q46 0 88.5 -34.5t42.5 -82.5v-919h224q70 6 100.5 44t30.5 109v885h74zM416 1401h162v-37q0 -16 -12.5 -29.5t-33.5 -13.5h-225q-20 0 -32.5 13.5t-12.5 29.5v37h62
q-9 18 -9 55q0 61 35 101t96 40q40 0 71.5 -20t39.5 -61q0 -18 -13 -47.5t-14 -34.5q-15 53 -41.5 73.5t-48.5 20.5q-43 0 -43 -66q0 -49 19 -61z" />
    <glyph glyph-name="lam_alef_hamza_above.fina" unicode="&#xfee0;&#xfe84;" horiz-adv-x="1331" arabic-form="final" 
d="M1360 205h22v-205h-55q-190 0 -297 94q-91 -88 -256 -94h-536q-177 0 -177 145v60h234v1036h106q47 0 89 -34.5t42 -84.5v-917h226q69 6 99 43t30 108v885h76q159 0 159 -162v-688q12 -101 64.5 -143.5t173.5 -42.5zM416 1401h162v-37q0 -16 -12.5 -29.5t-33.5 -13.5
h-225q-20 0 -32.5 13.5t-12.5 29.5v37h62q-9 18 -9 55q0 61 35 101t96 40q40 0 71.5 -20t39.5 -61q0 -18 -13 -47.5t-14 -34.5q-15 53 -41.5 73.5t-48.5 20.5q-43 0 -43 -66q0 -49 19 -61z" />
    <glyph glyph-name="lam_alef_hamza_below.isol" unicode="&#xfedf;&#xfe88;" horiz-adv-x="1265" arabic-form="isolated" 
d="M961 1243q161 0 161 -162v-733q0 -149 -90 -245.5t-258 -102.5h-538q-175 0 -175 145v60h234v1036h106q46 0 88.5 -34.5t42.5 -82.5v-919h222q71 6 102 43.5t31 109.5v885h74zM217 -291h162v-37q0 -16 -12.5 -29.5t-32.5 -13.5h-225q-21 0 -33.5 13.5t-12.5 29.5v37h62
q-8 16 -8 55q0 61 35 101.5t96 40.5q39 0 70.5 -20.5t39.5 -61.5q0 -18 -12.5 -48.5t-13.5 -33.5q-15 53 -41.5 73.5t-48.5 20.5q-43 0 -43 -65q0 -51 18 -62z" />
    <glyph glyph-name="lam_alef_hamza_below.fina" unicode="&#xfee0;&#xfe88;" horiz-adv-x="1331" arabic-form="final" 
d="M1360 205h22v-205h-55q-187 0 -297 96q-90 -90 -256 -96h-536q-177 0 -177 147v58h234v1036h106q47 0 89 -34.5t42 -84.5v-917h226q69 6 99 43t30 108v885h76q159 0 159 -162v-688q12 -101 64.5 -143.5t173.5 -42.5zM217 -291h162v-37q0 -16 -12.5 -29.5t-32.5 -13.5
h-225q-21 0 -33.5 13.5t-12.5 29.5v37h62q-8 16 -8 55q0 61 35 101.5t96 40.5q39 0 70.5 -20.5t39.5 -61.5q0 -18 -12.5 -48.5t-13.5 -33.5q-15 53 -41.5 73.5t-48.5 20.5q-43 0 -43 -65q0 -51 18 -62z" />
    <glyph glyph-name="lam_alef.isol" unicode="&#xfedf;&#xfe8e;" horiz-adv-x="1265" arabic-form="isolated" 
d="M961 1243q79 0 120 -41t41 -119v-735q0 -149 -90 -245.5t-258 -102.5h-538q-175 0 -175 145v60h234v1036h106q46 0 88.5 -34.5t42.5 -82.5v-919h224q70 6 100.5 44t30.5 111v883h74z" />
    <glyph glyph-name="lam_alef.fina" unicode="&#xfee0;&#xfe8e;" horiz-adv-x="1300" arabic-form="final" 
d="M1360 205h22v-205h-55q-190 0 -297 94q-91 -88 -256 -94h-536q-177 0 -177 145v60h234v1036h106q47 0 89 -34.5t42 -84.5v-917h226q69 6 99 43t30 108v885h76q159 0 159 -162v-688q12 -101 64.5 -143.5t173.5 -42.5z" />
    <glyph glyph-name="hamza.isol" unicode="&#x621;" horiz-adv-x="1122" arabic-form="isolated" 
d="M82 205h145q-51 92 -51 217q0 126 46 226.5t141 162t225 61.5q55 0 108.5 -14t102 -42.5t83.5 -76.5t46 -110q0 -45 -21 -94l-30 -72q-22 72 -63 122.5t-89 73.5t-85 32t-71 9q-91 0 -139.5 -69t-48.5 -182q0 -180 94 -244h524v-92q0 -41 -33.5 -77t-84.5 -36h-680
q-51 0 -85 36t-34 77v92z" />
    <glyph glyph-name="alef_madda.isol" unicode="&#x622;" horiz-adv-x="512" arabic-form="isolated" 
d="M362 0h-94q-59 0 -100 40.5t-41 117.5v1077h104q47 0 89 -34t42 -83v-1118zM446 1493v-49q0 -36 -21.5 -68.5t-59.5 -32.5h-302v78q0 26 18.5 49t45.5 23h319z" />
    <glyph glyph-name="alef_hamza_above.isol" unicode="&#x623;" horiz-adv-x="479" arabic-form="isolated" 
d="M360 0h-92q-59 0 -101 40.5t-42 115.5v1077h106q47 0 88 -33.5t41 -83.5v-1116zM236 1395h178v-41q0 -18 -14 -32.5t-38 -14.5h-247q-22 0 -35.5 14.5t-13.5 32.5v41h67q-8 18 -8 61q0 67 38 111.5t105 44.5q44 0 78.5 -22t44.5 -68q0 -16 -5 -31t-14 -32t-12 -27
q-16 58 -44.5 80t-53.5 22q-47 0 -47 -72q0 -53 21 -67z" />
    <glyph glyph-name="waw_hamza.isol" unicode="&#x624;" horiz-adv-x="976" arabic-form="isolated" 
d="M643 844q66 -26 113.5 -72.5t73.5 -100t41.5 -128.5t19.5 -140t4 -153q0 -32 -1 -95.5t-1 -93.5q0 -48 -15.5 -100.5t-54.5 -110.5t-98 -103t-155.5 -75t-215.5 -30q-65 0 -104 28t-39 70v76q357 8 453 184q-60 1 -111.5 5t-112.5 16t-110.5 31t-97 51.5t-79.5 75
t-51.5 105t-19.5 138.5q0 126 46 226.5t141 162t225 61.5q79 0 149 -28zM285 449q0 -64 17 -110.5t43 -72t66 -40.5t75 -19t81 -4q24 0 66.5 1t58.5 1q-1 30 -1.5 79.5t-0.5 85t-4 81.5t-11 79t-22.5 67t-38 55t-58 34.5t-81.5 13.5q-92 0 -141 -69t-49 -182zM492 1083h178
v-41q0 -18 -14 -32.5t-38 -14.5h-247q-22 0 -35.5 14.5t-13.5 32.5v41h67q-8 18 -8 62q0 67 38 111t105 44q44 0 78.5 -22t44.5 -68q0 -16 -5 -31t-14 -32t-12 -27q-16 58 -44.5 80.5t-53.5 22.5q-47 0 -47 -72q0 -54 21 -68z" />
    <glyph glyph-name="alef_hamza_below.isol" unicode="&#x625;" horiz-adv-x="479" arabic-form="isolated" 
d="M360 0h-92q-59 0 -101 40.5t-42 115.5v1079h106q47 0 88 -34t41 -83v-1118zM236 -297h178v-41q0 -18 -14 -32.5t-38 -14.5h-247q-22 0 -35.5 14.5t-13.5 32.5v41h67q-8 18 -8 61q0 67 38 111.5t105 44.5q44 0 78.5 -22t44.5 -68q0 -16 -5 -31t-14 -32t-12 -27
q-16 58 -44.5 80t-53.5 22q-47 0 -47 -71q0 -54 21 -68z" />
    <glyph glyph-name="yeh_hamza_above.isol" unicode="&#x626;" horiz-adv-x="1859" arabic-form="isolated" 
d="M313 754h179v-41q0 -19 -14 -33t-38 -14h-247q-22 0 -36 14.5t-14 32.5v41h68q-8 18 -8 61q0 67 38 111.5t105 44.5q44 0 78.5 -22t44.5 -68q0 -47 -31 -90q-16 58 -44.5 80t-53.5 22q-47 0 -47 -72q0 -54 20 -67zM700 -324q55 0 102 7t84 21.5t66.5 31.5t52 43.5t39 51
t28.5 60.5t19.5 64t13 70.5t8 72t5.5 74.5q6 67 11.5 110.5t18 100t30 92t47.5 73.5t69.5 59.5t97 36t130.5 15.5v-659h100q40 0 72 30.5t32 75.5v764h-190q-386 0 -521 -231q-67 -114 -88 -329q-3 -28 -7 -83q-14 -170 -36 -233q-38 -112 -143 -122q-11 -1 -24 -1
q-74 0 -132.5 10t-98.5 26.5t-68.5 44t-44.5 55t-25 67t-11.5 73.5t-2.5 80q0 68 17 126t41 92t48 58.5t41 34.5l17 9l-107 10q-115 0 -181.5 -93.5t-66.5 -252.5q0 -261 141 -398t416 -137z" />
    <glyph glyph-name="alef.isol" unicode="&#x627;" horiz-adv-x="481" arabic-form="isolated" 
d="M358 0h-94q-59 0 -100 40.5t-41 117.5v1077h104q47 0 89 -34t42 -83v-1118z" />
    <glyph glyph-name="beh.isol" unicode="&#x628;" horiz-adv-x="1630" arabic-form="isolated" 
d="M874 -346q-48 0 -82 34t-34 83t34 82.5t82 33.5q50 0 84.5 -33.5t34.5 -82.5t-34.5 -83t-84.5 -34zM1386 698q162 0 162 -161v-189q0 -151 -89.5 -247.5t-260.5 -100.5h-653q-78 0 -142 19t-105 48.5t-71 72t-46 82t-25 87.5t-11 79t-2 65q0 156 52 247t167 91h74
q-59 -51 -88 -138t-29 -168q0 -280 201 -280h660q70 6 100.5 44t30.5 111v338h75z" />
    <glyph glyph-name="tehmarbuta.isol" unicode="&#x629;" horiz-adv-x="1032" arabic-form="isolated" 
d="M555 870q121 0 212.5 -59.5t137 -154.5t45.5 -207q0 -195 -109.5 -322t-303.5 -127q-180 0 -287 123.5t-107 298.5q0 194 109 321t303 127zM537 698q-92 0 -141.5 -68t-49.5 -181q0 -277 209 -277q94 0 142 67.5t48 182.5q0 132 -51.5 204t-156.5 72zM680 1024
q-49 0 -82 32.5t-33 80.5q0 49 32.5 80.5t82.5 31.5q46 0 79.5 -32t33.5 -80q0 -47 -34 -80t-79 -33zM420 1024q-49 0 -82 32.5t-33 80.5q0 49 32.5 80.5t82.5 31.5q48 0 82.5 -31.5t34.5 -80.5q0 -47 -34.5 -80t-82.5 -33z" />
    <glyph glyph-name="teh.isol" unicode="&#x62a;" horiz-adv-x="1630" arabic-form="isolated" 
d="M901 958q0 51 33.5 85t81.5 34t84.5 -34.5t36.5 -84.5q0 -49 -36.5 -82.5t-84.5 -33.5t-81.5 33.5t-33.5 82.5zM1386 698q162 0 162 -161v-189q0 -151 -89.5 -247.5t-260.5 -100.5h-653q-78 0 -142 19t-105 48.5t-71 72t-46 82t-25 87.5t-11 79t-2 65q0 156 52 247
t167 91h74q-59 -51 -88 -138t-29 -168q0 -280 201 -280h660q70 6 100.5 44t30.5 111v338h75zM752 842q-50 0 -84.5 33.5t-34.5 82.5q0 51 34.5 85t84.5 34t84 -34t34 -85q0 -49 -34 -82.5t-84 -33.5z" />
    <glyph glyph-name="theh.isol" unicode="&#x62b;" horiz-adv-x="1630" arabic-form="isolated" 
d="M885 1071q-44 0 -75.5 32t-31.5 75q0 44 31.5 75t75.5 31t76 -31t32 -75q0 -43 -32 -75t-76 -32zM901 948q0 51 33.5 85t81.5 34t84.5 -34.5t36.5 -84.5q0 -49 -36.5 -83t-84.5 -34t-81.5 34t-33.5 83zM1386 698q162 0 162 -161v-189q0 -151 -89.5 -247.5t-260.5 -100.5
h-653q-78 0 -142 19t-105 48.5t-71 72t-46 82t-25 87.5t-11 79t-2 65q0 156 52 247t167 91h74q-59 -51 -88 -138t-29 -168q0 -280 201 -280h660q70 6 100.5 44t30.5 111v338h75zM752 831q-50 0 -84.5 34t-34.5 83q0 51 34.5 85t84.5 34t84 -34t34 -85q0 -49 -34 -83t-84 -34
z" />
    <glyph glyph-name="jeem.isol" unicode="&#x62c;" horiz-adv-x="1191" arabic-form="isolated" 
d="M653 -360q-49 0 -82.5 33t-33.5 83q0 48 33.5 82.5t82.5 34.5t84 -34.5t35 -82.5q0 -49 -34.5 -82.5t-84.5 -33.5zM143 -291q0 114 27.5 200.5t77 143t124 92t161 50t196.5 14.5q52 0 162 -8q-9 36 -18 67.5t-27.5 81t-38.5 89.5t-51 83.5t-65 73t-80 49t-97 19.5
q-87 0 -153.5 -26.5t-131.5 -88.5v78q0 38 4 65.5t15.5 57.5t34.5 49.5t58.5 36t90 24.5t127.5 8q116 0 211 -50.5t157 -131.5t104 -187.5t60.5 -215t18.5 -217.5q0 -121 -18 -197q-25 72 -131.5 111.5t-241.5 39.5q-102 0 -185.5 -24.5t-140.5 -83.5t-57 -145v-8v-35.5
t5.5 -46t16 -54.5t33 -52t54 -47t82 -31t114.5 -13q84 0 166.5 29t132.5 75v-71q0 -69 -51.5 -118.5t-123 -70t-151.5 -20.5q-55 0 -115 12.5t-124.5 43t-115.5 75t-83.5 116t-32.5 158.5z" />
    <glyph glyph-name="hah.isol" unicode="&#x62d;" horiz-adv-x="1191" arabic-form="isolated" 
d="M143 -291q0 143 41.5 243t121.5 155t180 78.5t235 23.5q52 0 170 -8q-9 36 -18 67.5t-27.5 81t-38.5 89.5t-51 83.5t-65 73t-80 49t-97 19.5q-87 0 -153.5 -26.5t-131.5 -88.5v78q0 38 4 65.5t15.5 57.5t34.5 49.5t58.5 36t90 24.5t127.5 8q116 0 211 -50.5t157 -131.5
t104 -187.5t60.5 -215t18.5 -217.5q0 -121 -18 -197q-13 36 -48.5 62.5t-88 41.5t-111 22t-125.5 7q-77 0 -142 -12t-121 -37.5t-88 -73t-32 -112.5v-8v-35.5t5.5 -46t16 -54.5t33 -52t54 -47t82 -31t114.5 -13q84 0 166.5 29t132.5 75v-71q0 -69 -51.5 -118.5t-123 -70
t-151.5 -20.5q-55 0 -115 12.5t-124.5 43t-115.5 75t-83.5 116t-32.5 158.5z" />
    <glyph glyph-name="khah.isol" unicode="&#x62e;" horiz-adv-x="1191" arabic-form="isolated" 
d="M143 -291q0 143 41.5 243t121.5 155t180 78.5t235 23.5q52 0 170 -8q-9 36 -18 67.5t-27.5 81t-38.5 89.5t-51 83.5t-65 73t-80 49t-97 19.5q-87 0 -153.5 -26.5t-131.5 -88.5v78q0 38 4 65.5t15.5 57.5t34.5 49.5t58.5 36t90 24.5t127.5 8q116 0 211 -50.5t157 -131.5
t104 -187.5t60.5 -215t18.5 -217.5q0 -121 -18 -197q-13 36 -48.5 62.5t-88 41.5t-111 22t-125.5 7q-77 0 -142 -12t-121 -37.5t-88 -73t-32 -112.5v-8v-35.5t5.5 -46t16 -54.5t33 -52t54 -47t82 -31t114.5 -13q84 0 166.5 29t132.5 75v-71q0 -69 -51.5 -118.5t-123 -70
t-151.5 -20.5q-55 0 -115 12.5t-124.5 43t-115.5 75t-83.5 116t-32.5 158.5zM553 1024q-49 0 -82 34.5t-33 84.5q0 49 32.5 81.5t82.5 32.5t85.5 -32.5t35.5 -81.5t-35.5 -84t-85.5 -35z" />
    <glyph glyph-name="dal.isol" unicode="&#x62f;" horiz-adv-x="952" arabic-form="isolated" 
d="M870 205v-205h-665q-54 0 -83.5 36.5t-29.5 86.5v82h565q0 73 -19 139t-42 105t-55 73.5t-44 43.5t-22 16q-96 61 -205 61q-51 0 -100 -8l41 65q36 57 79.5 85t106.5 28q39 0 88 -12q7 0 38.5 -11t86.5 -44t92 -78q168 -211 168 -463z" />
    <glyph glyph-name="thal.isol" unicode="&#x630;" horiz-adv-x="952" arabic-form="isolated" 
d="M870 205v-205h-665q-54 0 -83.5 36.5t-29.5 86.5v82h565q0 73 -19 139t-42 105t-55 73.5t-44 43.5t-22 16q-96 61 -205 61q-51 0 -100 -8l41 65q36 57 79.5 85t106.5 28q39 0 88 -12q7 0 38.5 -11t86.5 -44t92 -78q168 -211 168 -463zM455 1024q-49 0 -83 34.5t-34 84.5
q0 49 33.5 81.5t83.5 32.5q48 0 82 -32.5t34 -81.5t-34.5 -84t-81.5 -35z" />
    <glyph glyph-name="reh.isol" unicode="&#x631;" horiz-adv-x="649" arabic-form="isolated" 
d="M547 -80q0 -112 -85.5 -195t-211.5 -83q-76 0 -122 33t-46 92v86q55 -9 82 -9q97 0 126 76q20 52 19 201v26v58v495h88q85 0 117.5 -37t32.5 -126v-617z" />
    <glyph glyph-name="zain.isol" unicode="&#x632;" horiz-adv-x="638" arabic-form="isolated" 
d="M514 946q0 -49 -35.5 -84t-81.5 -35q-47 0 -81.5 35t-34.5 84q0 50 33.5 83.5t82.5 33.5q48 0 82.5 -34t34.5 -83zM537 -80q0 -112 -85.5 -195t-211.5 -83q-76 0 -122 33t-46 92v86q56 -9 82 -9q97 0 126 76q20 52 19 201v26v58v495h88q85 0 117.5 -37t32.5 -126v-617z
" />
    <glyph glyph-name="seen.isol" unicode="&#x633;" horiz-adv-x="2435" arabic-form="isolated" 
d="M2191 807q162 0 162 -160v-297q0 -151 -89.5 -246.5t-260.5 -101.5h-16q-198 0 -297 74q-8 -4 -11 -10q-98 -66 -286 -66h-152q-24 -114 -117.5 -208t-217.5 -144.5t-247 -50.5q-165 0 -298 83t-206 222.5t-73 306.5q0 137 56 222t161 85h74q-59 -52 -87 -138t-28 -167
q0 -103 45 -195t131 -150.5t193 -58.5q195 0 298 97.5t103 263.5v639h105q47 0 89 -34t42 -83v-485h178q71 7 102 45t31 110v447h74q159 0 159 -160v-168q0 -124 -14 -217q39 -57 164 -57q88 7 123 44.5t35 110.5v447h75z" />
    <glyph glyph-name="sheen.isol" unicode="&#x634;" horiz-adv-x="2422" arabic-form="isolated" 
d="M2191 807q162 0 162 -160v-297q0 -151 -89.5 -246.5t-260.5 -101.5h-16q-198 0 -297 74q-8 -4 -11 -10q-98 -66 -286 -66h-152q-24 -114 -117.5 -208t-217.5 -144.5t-247 -50.5q-165 0 -298 83t-206 222.5t-73 306.5q0 137 56 222t161 85h74q-59 -52 -87 -138t-28 -167
q0 -103 45 -195t131 -150.5t193 -58.5q195 0 298 97.5t103 263.5v639h105q47 0 89 -34t42 -83v-485h178q71 7 102 45t31 110v447h74q159 0 159 -160v-168q0 -124 -14 -217q39 -57 164 -57q88 7 123 44.5t35 110.5v447h75zM1554 1024q-48 0 -83 35t-35 84q0 48 35.5 84.5
t82.5 36.5t82 -36.5t35 -84.5q0 -49 -34.5 -84t-82.5 -35zM1819 1024q-46 0 -81.5 35t-35.5 84q0 47 35.5 84t81.5 37q47 0 83.5 -37t36.5 -84q0 -49 -36 -84t-84 -35zM1686 1257q-44 0 -75.5 32.5t-31.5 74.5q0 44 31.5 76.5t75.5 32.5q42 0 74 -32.5t32 -76.5
q0 -41 -32.5 -74t-73.5 -33z" />
    <glyph glyph-name="sad.isol" unicode="&#x635;" horiz-adv-x="2351" arabic-form="isolated" 
d="M1321 205h754q0 49 -1.5 82.5t-8 81.5t-18.5 80.5t-35.5 69.5t-56 60t-82 40t-112.5 20q-87 -5 -165.5 -51t-133 -113t-90.5 -137t-51 -133zM1812 868q96 0 175 -38.5t130.5 -100.5t86.5 -142.5t50 -162t15 -162.5q0 -113 -27.5 -187.5t-72.5 -74.5h-885
q-47 -177 -203.5 -295.5t-361.5 -118.5q-254 0 -415 155.5t-161 405.5q0 138 56 223t161 85h74q-59 -51 -87 -137.5t-28 -167.5q0 -155 102.5 -256t266.5 -101q193 0 296 99t103 266q0 1 -1 249.5t-1 266.5h45h4q35 0 50.5 -0.5t37.5 -5t31 -13.5t19 -26t13 -43t3 -64v-33
q103 170 237.5 274.5t286.5 104.5z" />
    <glyph glyph-name="dad.isol" unicode="&#x636;" horiz-adv-x="2351" arabic-form="isolated" 
d="M1321 205h754q0 49 -1.5 82.5t-8 81.5t-18.5 80.5t-35.5 69.5t-56 60t-82 40t-112.5 20q-87 -5 -165.5 -51t-133 -113t-90.5 -137t-51 -133zM1774 1020q-50 0 -84.5 35.5t-34.5 85.5q0 48 34.5 82t84.5 34q47 0 82.5 -34.5t35.5 -81.5q0 -49 -35.5 -85t-82.5 -36z
M1812 868q96 0 175 -38.5t130.5 -100.5t86.5 -142.5t50 -162t15 -162.5q0 -113 -27.5 -187.5t-72.5 -74.5h-885q-47 -177 -203.5 -295.5t-361.5 -118.5q-254 0 -415 155.5t-161 405.5q0 138 56 223t161 85h74q-59 -51 -87 -137.5t-28 -167.5q0 -155 102.5 -256t266.5 -101
q193 0 296 99t103 266q0 1 -1 249.5t-1 266.5h45h4q35 0 50.5 -0.5t37.5 -5t31 -13.5t19 -26t13 -43t3 -64v-33q103 170 237.5 274.5t286.5 104.5z" />
    <glyph glyph-name="tah.isol" unicode="&#x637;" horiz-adv-x="1513" arabic-form="isolated" 
d="M227 205h2h-16h37q-2 125 -2 1038h43q86 0 122 -33.5t36 -117.5v-600q104 170 238 274t288 104q96 0 175 -38.5t130.5 -100.5t86.5 -143t50 -162.5t15 -161.5q0 -113 -28.5 -188.5t-74.5 -75.5h-1069q-94 3 -136 39t-42 108v58h145zM1229 205q2 29 2 86q0 336 -307 348
q-69 -2 -135 -34t-115 -79t-90 -105.5t-66 -113.5t-37 -102h748z" />
    <glyph glyph-name="zah.isol" unicode="&#x638;" horiz-adv-x="1513" arabic-form="isolated" 
d="M934 1024q-50 0 -83.5 34.5t-33.5 84.5q0 48 33.5 81t83.5 33q48 0 82.5 -33.5t34.5 -80.5q0 -49 -34.5 -84t-82.5 -35zM227 205h2h-16h37q-2 125 -2 1038h43q86 0 122 -33.5t36 -117.5v-600q104 170 238 274t288 104q96 0 175 -38.5t130.5 -100.5t86.5 -143t50 -162.5
t15 -161.5q0 -113 -28.5 -188.5t-74.5 -75.5h-1069q-94 3 -136 39t-42 108v58h145zM1229 205q2 29 2 86q0 336 -307 348q-69 -2 -135 -34t-115 -79t-90 -105.5t-66 -113.5t-37 -102h748z" />
    <glyph glyph-name="ain.isol" unicode="&#x639;" horiz-adv-x="1089" arabic-form="isolated" 
d="M539 205h489v-92q0 -41 -34 -77t-85 -36h-340q-71 -5 -119.5 -24t-72 -49.5t-32.5 -62t-9 -71.5v-7v-36.5t5.5 -50t16 -61t33 -58.5t54 -53.5t82 -36t114.5 -14.5q83 0 165.5 29.5t133.5 74.5v-69q0 -71 -51.5 -120.5t-123 -70t-151.5 -20.5q-44 0 -94 11.5t-103.5 33.5
t-102 59t-87 83.5t-61.5 111t-23 137.5q0 160 44.5 258t140.5 149q-17 22 -37 58l-2 2q-51 92 -51 219q0 126 46 226.5t140.5 162t224.5 61.5q17 0 27 -2q6 0 16.5 -0.5t39.5 -5.5t56 -13t61.5 -26.5t61 -43t48.5 -64t30 -88.5q0 -47 -20 -94l-31 -72q-22 72 -63 122.5
t-88.5 73.5t-85 32t-70.5 9q-91 0 -140 -69t-49 -182q0 -186 97 -244z" />
    <glyph glyph-name="ghain.isol" unicode="&#x63a;" horiz-adv-x="1089" arabic-form="isolated" 
d="M539 205h489v-92q0 -41 -34 -77t-85 -36h-340q-71 -5 -119.5 -24t-72 -49.5t-32.5 -62t-9 -71.5v-7v-36.5t5.5 -50t16 -61t33 -58.5t54 -53.5t82 -36t114.5 -14.5q83 0 165.5 29.5t133.5 74.5v-69q0 -71 -51.5 -120.5t-123 -70t-151.5 -20.5q-44 0 -94 11.5t-103.5 33.5
t-102 59t-87 83.5t-61.5 111t-23 137.5q0 160 44.5 258t140.5 149q-17 22 -37 58l-2 2q-51 92 -51 219q0 126 46 226.5t140.5 162t224.5 61.5q17 0 27 -2q6 0 16.5 -0.5t39.5 -5.5t56 -13t61.5 -26.5t61 -43t48.5 -64t30 -88.5q0 -47 -20 -94l-31 -72q-22 72 -63 122.5
t-88.5 73.5t-85 32t-70.5 9q-91 0 -140 -69t-49 -182q0 -186 97 -244zM639 1024q-50 0 -83.5 34.5t-33.5 84.5t33 82t84 32q50 0 83.5 -32.5t33.5 -81.5q0 -50 -34 -84.5t-83 -34.5z" />
    <glyph glyph-name="feh.isol" unicode="&#x641;" horiz-adv-x="1769" arabic-form="isolated" 
d="M1282 1024q-50 0 -83.5 34t-33.5 83q0 50 34 84.5t83 34.5q51 0 85 -33.5t34 -83.5q0 -51 -34 -85t-85 -34zM1688 383v-383h-371h-772q-78 0 -142 19t-105 48.5t-71 72.5t-46 82.5t-25 87.5t-11 78.5t-2 64.5q0 156 52 247t167 91h74q-59 -51 -88 -138t-29 -168
q0 -280 201 -280h412q-60 89 -60 217q0 126 46 226.5t141 162t225 61.5q184 0 294 -137.5t110 -351.5zM1266 700q-93 0 -142 -68.5t-49 -182.5q0 -51 11 -90.5t31 -64.5t46.5 -43t57.5 -26t65 -13.5t67.5 -5t66 -0.5t61.5 -1q0 23 1 74.5t1 78.5q0 59 -3.5 102.5t-16.5 91.5
t-36 78t-64 50t-97 20z" />
    <glyph glyph-name="qaf.isol" unicode="&#x642;" horiz-adv-x="1347" arabic-form="isolated" 
d="M1286 377v-33q0 -65 -1.5 -107t-12 -127t-30.5 -143.5t-61.5 -131.5t-99.5 -118t-150 -76.5t-208 -31.5q-121 0 -227 41.5t-184.5 117.5t-123.5 190t-45 251q0 140 63 214.5t146 74.5h66q-43 -55 -66.5 -141t-23.5 -175q0 -158 102.5 -259t261.5 -101q135 0 223 48
t125 130q-59 1 -109.5 5.5t-110.5 16.5t-107.5 30t-94.5 50t-78 73.5t-50 102.5t-19 136q0 195 109 322.5t303 127.5q100 0 177 -38.5t124 -106.5t72.5 -154t29.5 -188zM674 442q0 -38 8 -69.5t21 -54.5t34 -41t41 -29.5t49 -20t52 -12.5t55 -6.5t52.5 -2.5t51 -0.5
t43.5 -0.5q0 22 1 71t1 74q0 59 -3.5 102.5t-17 91.5t-36.5 78t-64 50t-98 20q-92 0 -141 -68.5t-49 -181.5zM1024 1024q-50 0 -84.5 34t-34.5 83q0 47 35 81.5t84 34.5q47 0 82 -34.5t35 -81.5q0 -49 -34.5 -83t-82.5 -34zM748 1024q-48 0 -82.5 34t-34.5 83q0 47 35 81.5
t82 34.5q49 0 83.5 -34t34.5 -82q0 -49 -34 -83t-84 -34z" />
    <glyph glyph-name="kaf.isol" unicode="&#x643;" horiz-adv-x="1554" arabic-form="isolated" 
d="M1333 1241q160 0 160 -162v-731q0 -152 -89.5 -247t-264.5 -101h-596q-78 0 -141.5 19t-104.5 48.5t-71 72.5t-45.5 82.5t-24.5 87.5t-11 78.5t-2 64.5q0 100 20 173t70.5 119t128.5 46h74q-60 -51 -88.5 -137.5t-28.5 -168.5q0 -280 199 -280h608q71 7 102.5 45
t31.5 108v883h73zM813 727h178v-41q0 -19 -14 -33t-37 -14h-248q-22 0 -35.5 14.5t-13.5 32.5v41h68q-9 20 -9 61q0 67 38.5 111.5t105.5 44.5q44 0 78.5 -22t44.5 -68q0 -16 -5 -31t-14 -32t-12 -27q-16 58 -44.5 80t-53.5 22q-47 0 -47 -71q0 -55 20 -68z" />
    <glyph glyph-name="lam.isol" unicode="&#x644;" horiz-adv-x="1368" arabic-form="isolated" 
d="M1104 1235q79 0 119.5 -41.5t40.5 -120.5v-749q0 -51 -3.5 -99.5t-17.5 -123.5t-37.5 -138.5t-69.5 -132t-107.5 -116t-157 -78.5t-212.5 -31q-165 0 -298 83t-206 222.5t-73 306.5q0 137 56 222t161 85h74q-59 -52 -87 -138t-28 -167q0 -77 27 -149.5t74 -129
t117.5 -90.5t150.5 -34q75 0 134 16.5t110.5 56.5t85 103.5t52.5 161t19 225.5v856h76z" />
    <glyph glyph-name="meem.isol" unicode="&#x645;" horiz-adv-x="1361" arabic-form="isolated" 
d="M885 872q121 0 212.5 -60t137 -155.5t45.5 -207.5q0 -94 -27.5 -175.5t-78.5 -142.5t-130.5 -96t-177.5 -35q-109 0 -190 47q-9 -13 -25.5 -47t-31 -62t-42 -62.5t-58.5 -58.5t-80 -40.5t-107 -16.5l-23 2q-166 3 -166 146v57h146q59 0 99 20.5t59 58.5t26.5 79t7.5 96
q0 38 -4 107t-4 96q0 126 46 226.5t141 162t225 61.5zM885 172q93 0 141.5 68.5t48.5 181.5q0 134 -52 206t-157 72q-92 0 -141 -68.5t-49 -182.5q0 -133 51.5 -205t157.5 -72z" />
    <glyph glyph-name="noon.isol" unicode="&#x646;" horiz-adv-x="1368" arabic-form="isolated" 
d="M1104 700q79 0 119.5 -41.5t40.5 -119.5v-215q0 -51 -3.5 -99.5t-17.5 -123.5t-37.5 -138.5t-69.5 -132t-107.5 -116t-157 -78.5t-212.5 -31q-165 0 -298 83t-206 222.5t-73 306.5q0 137 56 222t161 85h74q-59 -52 -87 -138t-28 -167q0 -77 27 -149.5t74 -129
t117.5 -90.5t150.5 -34q75 0 134 16.5t110.5 56.5t85 103.5t52.5 161t19 225.5v321h76zM682 719q-49 0 -83 34.5t-34 84.5q0 51 33.5 84.5t83.5 33.5q51 0 86 -33.5t35 -84.5q0 -50 -35 -84.5t-86 -34.5z" />
    <glyph glyph-name="heh.isol" unicode="&#x647;" horiz-adv-x="1032" arabic-form="isolated" 
d="M555 870q121 0 212.5 -60.5t137 -156t45.5 -207.5q0 -195 -109.5 -321.5t-303.5 -126.5q-180 0 -287 123.5t-107 298.5q0 126 46 226.5t141 162t225 61.5zM537 698q-93 0 -142 -69t-49 -183q0 -276 209 -276q93 0 141.5 68.5t48.5 181.5q0 134 -51.5 206t-156.5 72z" />
    <glyph glyph-name="waw.isol" unicode="&#x648;" horiz-adv-x="978" arabic-form="isolated" 
d="M879 545q18 -92 18 -162l-4 -322q-1 -48 -16 -100t-54.5 -110.5t-97.5 -103.5t-154.5 -75t-216.5 -30q-65 0 -104 28t-39 70v76q357 8 453 184q-60 1 -111.5 5t-112.5 16t-110.5 31t-97 51.5t-79.5 75t-51.5 105t-19.5 138.5q0 126 46 226.5t141 162t225 61.5
q79 0 149 -28v2q95 -37 156.5 -119t79.5 -182zM285 449q0 -64 17 -110.5t43 -72t66 -40.5t75 -19t81 -4q24 0 66.5 1t58.5 1q-1 26 -2 78.5t-1.5 84.5t-5.5 81t-12.5 80t-23.5 66.5t-38 56t-56 34.5t-78 14q-92 0 -141 -69t-49 -182z" />
    <glyph glyph-name="alefmaksura.isol" unicode="&#x649;" horiz-adv-x="1859" arabic-form="isolated" 
d="M700 -324q-275 0 -416 137t-141 398q0 159 66.5 252.5t181.5 93.5l107 -10q-7 -3 -18 -10t-39 -33.5t-50 -59.5t-39.5 -91t-17.5 -126q0 -46 2.5 -80t11.5 -73.5t25 -67t44.5 -55t68.5 -44t98.5 -26.5t132.5 -10q50 0 86 19t56 49.5t32.5 79t18 96.5t10.5 112
q5 65 8.5 99t13.5 97t22.5 99.5t36.5 90t54 85t76 68.5t102.5 57t133.5 33.5t169 13.5h190v-764q0 -45 -32 -75.5t-72 -30.5h-100v659q-73 -1 -130.5 -15.5t-97 -36t-69.5 -59.5t-47.5 -73.5t-30 -92t-18 -100t-11.5 -110.5q-3 -45 -5.5 -74.5t-8 -72t-13 -70.5t-19.5 -64
t-28.5 -60.5t-39 -51t-52 -43.5t-66.5 -31.5t-84 -21.5t-102 -7z" />
    <glyph glyph-name="yeh.isol" unicode="&#x64a;" horiz-adv-x="1859" arabic-form="isolated" 
d="M494 -664q-49 0 -83 34.5t-34 84.5q0 49 33.5 82t83.5 33q48 0 83 -33t35 -82t-35 -84t-83 -35zM760 -664q-50 0 -84.5 35t-34.5 84t34.5 82t84.5 33t84.5 -33t34.5 -82t-34.5 -84t-84.5 -35zM700 -324q-275 0 -416 137t-141 398q0 159 66.5 252.5t181.5 93.5l107 -10
q-7 -3 -18 -10t-39 -33.5t-50 -59.5t-39.5 -91t-17.5 -126q0 -46 2.5 -80t11.5 -73.5t25 -67t44.5 -55t68.5 -44t98.5 -26.5t132.5 -10q50 0 86 19t56 49.5t32.5 79t18 96.5t10.5 112q5 65 8.5 99t13.5 97t22.5 99.5t36.5 90t54 85t76 68.5t102.5 57t133.5 33.5t169 13.5
h190v-764q0 -45 -32 -75.5t-72 -30.5h-100v659q-73 -1 -130.5 -15.5t-97 -36t-69.5 -59.5t-47.5 -73.5t-30 -92t-18 -100t-11.5 -110.5q-3 -45 -5.5 -74.5t-8 -72t-13 -70.5t-19.5 -64t-28.5 -60.5t-39 -51t-52 -43.5t-66.5 -31.5t-84 -21.5t-102 -7z" />
    <glyph glyph-name="fathatan" unicode="&#xfe70;" arabic-form="isolated" 
d="M51 -154q-118 -8 -305 -16q-9 -1 -15.5 4t-8.5 14.5t-2.5 15.5t-0.5 15q146 8 297 17q14 2 24 -12t11 -38zM68 -242q-116 -8 -306 -16q-9 -1 -15 3.5t-8 14.5t-2.5 15.5t-0.5 15.5q269 14 297 16q14 2 24 -11.5t11 -37.5z" />
    <glyph glyph-name="dammatan" unicode="&#xfe72;" arabic-form="isolated" 
d="M23 51q50 0 83 -34.5t33 -86.5q0 -42 -22 -75.5t-59.5 -52.5t-77.5 -32.5t-86.5 -18.5t-74 -7t-52.5 -2q-28 0 -34.5 6.5t-8.5 32.5l16 2q45 25 45 90q0 34 -19.5 54t-54.5 20q-37 0 -55 -27q-8 16 -8 25q0 17 19 31t52 14q55 0 87 -34.5t32 -82.5q0 -35 -31 -86
q94 7 154 23q-59 46 -59 108q0 56 35 94.5t86 38.5zM18 -162q33 0 50.5 24.5t17.5 61.5q0 38 -19.5 61t-50.5 23t-48 -22.5t-17 -57.5q0 -37 19 -63.5t48 -26.5z" />
    <glyph glyph-name="kasratan" unicode="&#xfe74;" arabic-form="isolated" 
d="M43 -49q-157 -11 -305 -17q-9 -1 -15.5 4t-8.5 14.5t-2.5 16t-0.5 15.5q269 14 297 16q14 2 24 -11.5t11 -37.5zM59 -137q-157 -11 -305 -17q-12 -1 -18.5 9.5t-7 18.5t-0.5 22q269 14 297 16q14 2 23.5 -11.5t10.5 -37.5z" />
    <glyph glyph-name="fatha" unicode="&#xfe76;" arabic-form="isolated" 
d="M47 -242q-118 -8 -305 -16q-9 -1 -15.5 4t-8.5 14.5t-2.5 15.5t-0.5 15q269 14 297 16q14 2 24 -11.5t11 -37.5z" />
    <glyph glyph-name="damma" unicode="&#xfe78;" arabic-form="isolated" 
d="M27 -164q59 3 59 86q0 40 -20.5 64t-51.5 24q-29 0 -45 -24t-16 -60q0 -41 20.5 -65.5t53.5 -24.5zM18 49q49 0 84 -31.5t35 -83.5q0 -49 -27.5 -86t-68 -56t-90 -31t-90 -14.5t-72.5 -3.5t-33 -1q-14 0 -21 4.5t-8.5 11t-2.5 21.5l38 2q127 5 195 29q-53 41 -53 106
q0 57 32.5 95t81.5 38z" />
    <glyph glyph-name="kasra" unicode="&#xfe7a;" arabic-form="isolated" 
d="M39 -49q-157 -11 -305 -17q-9 -1 -15.5 4t-8.5 14.5t-2.5 16t-0.5 15.5q269 14 297 16q14 2 24 -11.5t11 -37.5z" />
    <glyph glyph-name="shadda" unicode="&#xfe7c;" arabic-form="isolated" 
d="M-266 2l12 -147q7 -70 61 -70q18 0 32 13t14 38q0 23 -9 115q-3 27 7 36t43 9l12 -150q3 -63 57 -63q50 0 47 70l-6 100q-4 39 25 41h20l10 -160q2 -36 -19.5 -64t-68.5 -28t-88 37q-24 -35 -76 -35q-51 0 -78 32.5t-32 82.5q-8 82 -8 108q0 29 45 35z" />
    <glyph glyph-name="sukun" unicode="&#xfe7e;" arabic-form="isolated" 
d="M-94 111q67 0 103 -45t36 -105q0 -65 -46 -111.5t-108 -46.5q-64 0 -98.5 47.5t-34.5 106.5q0 69 42.5 111.5t105.5 42.5zM-90 59q-42 0 -65 -31.5t-23 -78.5q0 -44 21 -69t59 -25q37 0 56 33t19 83q0 76 -67 88z" />
    <glyph glyph-name="alef_wasla.isol" unicode="&#x671;" horiz-adv-x="532" arabic-form="isolated" 
d="M397 0h-92q-59 0 -101 40.5t-42 117.5v1081h104q48 0 89.5 -33.5t41.5 -83.5v-1122zM88 1374h-6h12v168h15q27 0 38 -9.5t11 -35.5v-29q74 119 170 119q51 0 85.5 -32.5t47 -73.5t12.5 -86q0 -84 -35 -84h-342q-55 0 -55 45v18h47zM410 1374q0 20 -0.5 30t-3 30t-8.5 31
t-16.5 23.5t-28.5 18.5t-42 6q-54 0 -91.5 -45.5t-49.5 -93.5h240z" />
    <glyph glyph-name="tteh.isol" unicode="&#x679;" horiz-adv-x="1630" arabic-form="isolated" 
d="M1386 698q162 0 162 -161v-189q0 -151 -89.5 -247.5t-260.5 -100.5h-653q-78 0 -142 19t-105 48.5t-71 72t-46 82t-25 87.5t-11 79t-2 65q0 156 52 247t167 91h74q-59 -51 -88 -138t-29 -168q0 -280 201 -280h660q70 6 100.5 44t30.5 111v338h75zM684 909h-6q3 -6 4 -6
q10 0 10 170q0 34 -0.5 73t-1 65.5t-0.5 29.5h15q27 0 38 -9.5t11 -35.5v-192q73 118 170 118q51 0 85.5 -32.5t47 -73.5t12.5 -86q0 -84 -35 -84h-342q-55 0 -55 45v18h47zM1006 909q0 20 -0.5 30t-3 30t-8.5 31.5t-16.5 24t-28.5 18.5t-42 6q-54 0 -91.5 -46t-49.5 -94
h240z" />
    <glyph glyph-name="peh.isol" unicode="&#x67e;" horiz-adv-x="1630" arabic-form="isolated" 
d="M737 -102q49 0 84 -35t35 -84t-35 -84t-84 -35q-47 0 -81.5 35t-34.5 84t34.5 84t81.5 35zM1012 -102q48 0 83 -35t35 -84t-35 -84t-83 -35t-82.5 35t-34.5 84t34.5 84t82.5 35zM879 -336q43 0 75.5 -32.5t32.5 -73.5q0 -44 -32.5 -76.5t-75.5 -32.5t-73 32.5t-30 76.5
q0 42 30.5 74t72.5 32zM1386 698q162 0 162 -161v-189q0 -149 -89.5 -244.5t-260.5 -101.5l-653 -2q-78 0 -142 19t-105 48t-71 72t-46 82.5t-25 88t-11 79t-2 64.5q0 156 52 247t167 91h74q-59 -51 -88 -137.5t-29 -166.5q0 -24 0.5 -42t5 -49.5t11.5 -54.5t22 -50.5
t36 -44.5t53 -29t73 -12h660q70 7 100.5 45t30.5 110v338h75z" />
    <glyph glyph-name="tcheh.isol" unicode="&#x686;" horiz-adv-x="1193" arabic-form="isolated" 
d="M571 -137q48 0 82.5 -35t34.5 -84q0 -47 -35 -83t-82 -36q-49 0 -83.5 35.5t-34.5 83.5q0 50 34.5 84.5t83.5 34.5zM836 -137q48 0 84 -35t36 -84q0 -47 -36.5 -83t-83.5 -36t-81 35.5t-34 83.5q0 49 34 84t81 35zM705 -369q44 0 76 -32.5t32 -75.5t-32 -76t-76 -33
q-42 0 -73.5 33t-31.5 76t31.5 75.5t73.5 32.5zM721 2q-198 0 -295.5 -75t-97.5 -259q0 -40 5 -77t20.5 -78t40 -72t67.5 -54t100 -30l-65 -25q-32 -12 -76 -12q-121 0 -199 106.5t-78 282.5q0 142 41 241t121.5 154.5t184 79t243.5 23.5q77 0 160 -6q-9 35 -18.5 67
t-27.5 81.5t-38.5 89.5t-51 83.5t-64.5 73t-80 49t-97 19.5q-87 0 -153.5 -26.5t-133.5 -88.5v78q0 47 6 79.5t25.5 65.5t55 53t97 32.5t148.5 12.5q116 0 211 -50.5t157 -131.5t104 -187.5t60.5 -215t18.5 -217.5q0 -111 -18 -197q-26 68 -129 99.5t-244 31.5z" />
    <glyph glyph-name="ddal.isol" unicode="&#x688;" horiz-adv-x="952" arabic-form="isolated" 
d="M870 205v-205h-665q-54 0 -83.5 36.5t-29.5 86.5v82h565q0 73 -19 139t-42 105t-55 73.5t-44 43.5t-22 16q-96 61 -205 61q-51 0 -100 -8l41 65q36 57 79.5 85t106.5 28q39 0 88 -12q7 0 38.5 -11t86.5 -44t92 -78q168 -211 168 -463zM297 1040h-6q3 -6 4 -6q10 0 10 170
q0 34 -0.5 73t-1 65.5t-0.5 29.5h14q27 0 38.5 -9.5t11.5 -35.5v-192q73 118 170 118q51 0 85.5 -32.5t47 -73.5t12.5 -86q0 -84 -35 -84h-342q-55 0 -55 45v18h47zM618 1040q0 25 -0.5 37t-5.5 35.5t-14.5 35.5t-29 22t-48.5 10q-54 0 -91.5 -46t-49.5 -94h239z" />
    <glyph glyph-name="uni0691" unicode="&#x691;" horiz-adv-x="649" arabic-form="isolated" 
d="M229 897h-6q3 -6 4 -6q11 0 11 170q0 34 -0.5 73t-1 65.5t-0.5 29.5h14q27 0 38 -9.5t11 -35.5v-193q74 119 170 119q51 0 85.5 -32.5t47 -73.5t12.5 -86q0 -84 -34 -84h-342q-56 0 -56 45v18h47zM551 897q0 25 -0.5 36.5t-5.5 35t-14.5 35.5t-29 22t-48.5 10
q-54 0 -92 -46t-50 -93h240zM547 -80q0 -112 -85.5 -195t-211.5 -83q-76 0 -122 33t-46 92v86q55 -9 82 -9q97 0 126 76q20 52 19 201v26v58v495h88q85 0 117.5 -37t32.5 -126v-617z" />
    <glyph glyph-name="uni0698" unicode="&#x698;" horiz-adv-x="638" arabic-form="isolated" 
d="M268 817q-49 0 -83.5 34.5t-34.5 84.5q0 49 34 83t84 34q48 0 82.5 -34t34.5 -83t-34.5 -84t-82.5 -35zM532 817q-47 0 -81.5 35t-34.5 84t34 83t82 34t83.5 -34t35.5 -83t-35.5 -84t-83.5 -35zM401 1059q-41 0 -72.5 31.5t-31.5 74.5q0 44 31 74.5t73 30.5
q43 0 76 -30.5t33 -74.5q0 -42 -33 -74t-76 -32zM537 -80q0 -112 -85.5 -195t-211.5 -83q-76 0 -122 33t-46 92v86q56 -9 82 -9q97 0 126 76q20 52 19 201v26v58v495h88q85 0 117.5 -37t32.5 -126v-617z" />
    <glyph glyph-name="veh.isol" unicode="&#x6a4;" horiz-adv-x="1769" arabic-form="isolated" 
d="M1151 1024q-48 0 -82.5 35t-34.5 84q0 46 35 82.5t82 36.5t83 -36.5t36 -82.5q0 -49 -35.5 -84t-83.5 -35zM1417 1024q-49 0 -83 34.5t-34 84.5q0 47 34.5 83t82.5 36q47 0 84 -36.5t37 -82.5q0 -49 -36.5 -84t-84.5 -35zM1284 1255q-43 0 -73.5 32.5t-30.5 74.5
q0 45 30 76.5t74 31.5q43 0 76 -32t33 -76q0 -41 -33 -74t-76 -33zM1688 383v-383h-371h-772q-78 0 -142 19t-105 48.5t-71 72.5t-46 82.5t-25 87.5t-11 78.5t-2 64.5q0 156 52 247t167 91h74q-59 -51 -88 -138t-29 -168q0 -280 201 -280h412q-60 89 -60 217q0 126 46 226.5
t141 162t225 61.5q184 0 294 -137.5t110 -351.5zM1266 700q-93 0 -142 -68.5t-49 -182.5q0 -51 11 -90.5t31 -64.5t46.5 -43t57.5 -26t65 -13.5t67.5 -5t66 -0.5t61.5 -1q0 23 1 74.5t1 78.5q0 59 -3.5 102.5t-16.5 91.5t-36 78t-64 50t-97 20z" />
    <glyph glyph-name="kheh.isol" unicode="&#x6a9;" horiz-adv-x="1720" arabic-form="isolated" 
d="M1638 1380q21 -24 21 -69q0 -53 -35 -78l-559 -420q20 0 74 -12l7 -2q7 -2 20.5 -6.5t30 -11t37.5 -17.5t41.5 -24t42.5 -32t40 -40q166 -200 166 -463v-205h-981q-78 0 -141.5 19t-104.5 48.5t-71 72.5t-45.5 82.5t-24.5 87.5t-11 78.5t-2 64.5q0 100 19.5 172.5
t69.5 119t128 46.5h74q-59 -51 -87 -137.5t-28 -168.5q0 -24 0.5 -41t4.5 -49t11 -54.5t22 -50t35.5 -44.5t52.5 -29t73 -12h793q0 70 -18.5 133.5t-40 102t-53 74.5t-43.5 46t-27 20q0 1 -1 1q-99 61 -204 61q-52 0 -101 -8l-45 61q-26 33 -26 72q0 61 57 104l774 580z" />
    <glyph glyph-name="Gaf.isol" unicode="&#x6af;" horiz-adv-x="1720" arabic-form="isolated" 
d="M1638 1380q21 -24 21 -69q0 -53 -35 -78l-559 -420q20 0 74 -12l7 -2q7 -2 20.5 -6.5t30 -11t37.5 -17.5t41.5 -24t42.5 -32t40 -40q166 -200 166 -463v-205h-981q-78 0 -141.5 19t-104.5 48.5t-71 72.5t-45.5 82.5t-24.5 87.5t-11 78.5t-2 64.5q0 100 19.5 172.5
t69.5 119t128 46.5h74q-59 -51 -87 -137.5t-28 -168.5q0 -24 0.5 -41t4.5 -49t11 -54.5t22 -50t35.5 -44.5t52.5 -29t73 -12h793q0 70 -18.5 133.5t-40 102t-53 74.5t-43.5 46t-27 20q0 1 -1 1q-99 61 -204 61q-52 0 -101 -8l-45 61q-26 33 -26 72q0 61 57 104l774 580z
M1442 1663l39 -51q18 -32 18 -58q0 -44 -45 -92q-510 -381 -784 -592q-7 11 -22 30t-22 29.5t-13.5 28.5t-6.5 37q0 43 25 62q101 77 811 606z" />
    <glyph glyph-name="ghunna.isol" unicode="&#x6ba;" horiz-adv-x="1406" arabic-form="isolated" 
d="M1165 698q79 0 119.5 -41.5t40.5 -119.5v-496q-6 -104 -96.5 -206.5t-229.5 -167t-278 -64.5q-165 0 -298.5 83t-206.5 222.5t-73 306.5q0 137 56 222t161 85h74q-59 -52 -87 -138t-28 -167q0 -77 27 -149.5t74 -129t117.5 -90.5t150.5 -34q195 0 298.5 97t103.5 263v524
h75z" />
    <glyph glyph-name="uni06BE" unicode="&#x6be;" horiz-adv-x="1220" arabic-form="isolated" 
d="M203 25l-2 -144h-72q-129 0 -129 178q0 22 5 43.5t18 46.5t41.5 40.5t68.5 15.5h98q-84 94 -84 209q0 138 86 215.5t216 77.5q80 0 141.5 -32t96 -85.5t51.5 -117t16 -134.5l-2 -133h147q12 53 12 127q0 70 -13.5 138t-46.5 136t-82 119t-126.5 83t-173.5 32
q-88 0 -154 -26t-133 -89v80q0 45 6 77t26 65t55.5 52.5t97 32t147.5 12.5q133 0 238.5 -44t173 -115.5t112 -169.5t62.5 -199t18 -211q0 -189 -47 -305h-127q-178 0 -250 57q-57 -57 -139 -57q-292 0 -352 25zM311 387q0 -7 0.5 -14.5t6 -27t14.5 -35.5t29.5 -36.5
t48.5 -34.5t73 -24t101 -10v34q0 30 0.5 60.5t-2.5 61.5t-8 59.5t-15.5 53t-26 42.5t-39.5 28.5t-55 10.5q-61 0 -94 -46t-33 -122z" />
    <glyph glyph-name="hehhamza" unicode="&#x6c0;" horiz-adv-x="1032" arabic-form="isolated" 
d="M555 870q121 0 212.5 -60.5t137 -156t45.5 -207.5q0 -195 -109.5 -321.5t-303.5 -126.5q-180 0 -287 123.5t-107 298.5q0 126 46 226.5t141 162t225 61.5zM537 698q-93 0 -142 -69t-49 -183q0 -276 209 -276q93 0 141.5 68.5t48.5 181.5q0 134 -51.5 206t-156.5 72z
M553 1083h178v-41q0 -19 -14 -33t-37 -14h-248q-22 0 -35.5 14.5t-13.5 32.5v41h68q-9 20 -9 62q0 67 38.5 111t105.5 44q44 0 78.5 -22t44.5 -68q0 -16 -5 -31t-14 -32t-12 -27q-16 58 -44.5 80.5t-53.5 22.5q-48 0 -48 -72q0 -54 21 -68z" />
    <glyph glyph-name="uni06C1" unicode="&#x6c1;" horiz-adv-x="1032" arabic-form="isolated" 
d="M555 870q121 0 212.5 -60.5t137 -156t45.5 -207.5q0 -195 -109.5 -321.5t-303.5 -126.5q-180 0 -287 123.5t-107 298.5q0 126 46 226.5t141 162t225 61.5zM537 698q-93 0 -142 -69t-49 -183q0 -276 209 -276q93 0 141.5 68.5t48.5 181.5q0 134 -51.5 206t-156.5 72z" />
    <glyph glyph-name="uni06CC" unicode="&#x6cc;" horiz-adv-x="1890" arabic-form="isolated" 
d="M1522 0v659q-73 -1 -130.5 -15.5t-97 -36t-69.5 -59.5t-47.5 -73.5t-30 -92t-18 -100t-11.5 -110.5q-5 -68 -11.5 -119t-20.5 -105t-34 -93t-51 -74.5t-72.5 -57t-99 -34.5t-129.5 -13q-275 0 -416 137t-141 398q0 159 66.5 252.5t181.5 93.5l107 -10q-7 -3 -18 -10
t-39 -33.5t-50 -59.5t-39.5 -91t-17.5 -126q0 -67 5.5 -112t27.5 -94.5t61.5 -79t111 -49.5t173.5 -21h4q65 0 105.5 27t58.5 76t25.5 110t12 136t11 147t29 150t61.5 138q136 215 516 215h190v-665h185v-205h-389z" />
    <glyph glyph-name="yehbarree" unicode="&#x6d2;" horiz-adv-x="1118" arabic-form="isolated" 
d="M1139 205v-205h-660q-118 -8 -204.5 -40.5t-114.5 -90.5q-17 81 -17 192q0 110 18 219.5t60 217t104 189.5t156.5 132.5t210.5 50.5q86 0 147.5 -12.5t97 -33t55.5 -53.5t26 -65.5t6 -78.5v-78q-67 63 -132.5 89t-152.5 26q-51 0 -97 -19t-80.5 -48.5t-65 -72t-51 -83
t-38.5 -88.5t-27.5 -81t-17.5 -67h777z" />
    <glyph glyph-name="uni06D3" unicode="&#x6d3;" horiz-adv-x="1118" arabic-form="isolated" 
d="M1139 0v205h-777q8 34 17.5 67t27.5 81t38.5 88.5t51 83t65 72t80.5 48.5t97 19q87 0 152.5 -26t132.5 -89v78q0 46 -6 78.5t-26 65.5t-55.5 53.5t-97 33t-147.5 12.5q-116 0 -210.5 -50.5t-156.5 -132.5t-104 -189.5t-60 -217t-18 -219.5q0 -111 17 -192
q28 58 114.5 90.5t204.5 40.5h660zM688 1077h178v-41q0 -19 -14 -33t-37 -14h-248q-22 0 -35.5 14.5t-13.5 32.5v41h68q-8 18 -8 62q0 67 38 111t105 44q44 0 78.5 -22t44.5 -68q0 -16 -5 -31t-14 -32t-12 -27q-16 58 -44.5 80.5t-53.5 22.5q-47 0 -47 -72q0 -55 20 -68z
" />
    <glyph glyph-name="alef_wasla.fina" unicode="&#x671;" horiz-adv-x="569" arabic-form="final" 
d="M524 205h66v-205q-432 0 -432 348v891h104q49 0 90 -34.5t41 -84.5v-796q12 -107 131 -119zM88 1374h-6h12v168h15q27 0 38 -9.5t11 -35.5v-29q74 119 170 119q51 0 85.5 -32.5t47 -73.5t12.5 -86q0 -84 -35 -84h-342q-55 0 -55 45v18h47zM410 1374q0 20 -0.5 30t-3 30
t-8.5 31t-16.5 23.5t-28.5 18.5t-42 6q-54 0 -91.5 -45.5t-49.5 -93.5h240z" />
    <glyph glyph-name="peh.fina" unicode="&#x67e;" horiz-adv-x="1755" arabic-form="final" 
d="M756 -102q48 0 83 -35t35 -84t-35 -84t-83 -35q-49 0 -83 34.5t-34 84.5t34 84.5t83 34.5zM1022 -102q48 0 83.5 -35t35.5 -84t-35.5 -84t-83.5 -35t-82.5 35t-34.5 84t34.5 84t82.5 35zM891 -336q42 0 74 -32t32 -74q0 -44 -31.5 -76.5t-74.5 -32.5q-42 0 -74.5 32.5
t-32.5 76.5q0 41 33 73.5t74 32.5zM1786 205h20v-205h-53q-189 0 -301 98q-103 -96 -254 -96l-655 -2q-78 0 -141 19t-104 48t-71.5 72t-46 82.5t-24.5 88t-11 79t-2 64.5q0 156 52 247t167 91h74q-59 -51 -88 -137.5t-29 -166.5q0 -24 0.5 -42t5 -49.5t11.5 -54.5t22 -50.5
t35.5 -44.5t52.5 -29t72 -12h662q70 7 100.5 45t30.5 110v338h75q78 0 119 -41t41 -120v-127q8 -112 60.5 -158.5t179.5 -46.5z" />
    <glyph glyph-name="peh.init" unicode="&#x67e;" horiz-adv-x="585" arabic-form="initial" 
d="M346 698q158 0 158 -161v-189q0 -149 -89 -245.5t-257 -102.5h-189v205h170q69 7 100 45t31 110v338h76zM264 -330q43 0 75 -32.5t32 -75.5t-32 -75t-75 -32t-74.5 32t-31.5 75t31.5 75.5t74.5 32.5zM127 -340q-49 0 -84 36.5t-35 84.5t35 83.5t84 35.5q47 0 82 -36
t35 -83q0 -48 -35 -84.5t-82 -36.5zM393 -340q-47 0 -82 36.5t-35 84.5q0 47 35 83t82 36q49 0 85 -35.5t36 -83.5t-36 -84.5t-85 -36.5z" />
    <glyph glyph-name="peh.medi" unicode="&#x67e;" horiz-adv-x="608" arabic-form="medial" 
d="M145 -102q48 0 82.5 -35t34.5 -86q0 -47 -35 -82t-82 -35q-49 0 -83.5 34.5t-34.5 82.5q0 51 34 86t84 35zM410 -102q47 0 82.5 -35.5t35.5 -85.5q0 -47 -36 -82t-82 -35q-47 0 -82 35t-35 82q0 51 34.5 86t82.5 35zM279 -336q43 0 75.5 -32.5t32.5 -73.5
q0 -44 -32.5 -76.5t-75.5 -32.5q-44 0 -74.5 32t-30.5 77q0 42 31 74t74 32zM424 412q6 -112 52 -159.5t163 -47.5v-205h-8q-189 0 -299 96q-93 -90 -256 -96h-107v205h88q71 6 102 43.5t31 109.5v338h74q160 0 160 -159v-125z" />
    <glyph glyph-name="uniFB67" unicode="&#x679;" horiz-adv-x="1755" arabic-form="final" 
d="M1786 205h20v-205h-53q-191 0 -301 96q-93 -90 -254 -96h-655q-78 0 -141 19t-104 48.5t-71.5 72t-46 82t-24.5 87.5t-11 79t-2 65q0 100 20 173t70.5 119t128.5 46h74q-59 -51 -88 -138t-29 -168q0 -280 199 -280h662q70 6 100.5 44t30.5 109v340h75q78 0 119 -41
t41 -120v-129q8 -112 60.5 -157.5t179.5 -45.5zM705 909h-7q3 -6 4 -6q11 0 11 170q0 34 -0.5 73t-1 65.5t-0.5 29.5h14q27 0 38 -9.5t11 -35.5v-192q73 118 170 118q51 0 85.5 -32.5t47.5 -73.5t13 -86q0 -84 -35 -84h-342q-56 0 -56 45v18h48zM1026 909q0 25 -0.5 37
t-5.5 35.5t-14.5 35.5t-29 22t-48.5 10q-54 0 -92 -46t-50 -94h240z" />
    <glyph glyph-name="uniFB68" unicode="&#x679;" horiz-adv-x="585" arabic-form="initial" 
d="M346 698q158 0 158 -161v-189q0 -149 -89 -245.5t-257 -102.5h-189v205h170q69 7 100 45t31 110v338h76zM219 870h-6q5 -7 8 3.5t4 41.5t1.5 53.5t0.5 65.5q0 34 -0.5 73t-1 65.5t-0.5 29.5h15q27 0 38 -9.5t11 -35.5v-192q73 118 170 118q51 0 85.5 -32.5t47 -73.5
t12.5 -86q0 -84 -35 -84h-342q-55 0 -55 45v18h47zM541 870q0 20 -0.5 30t-3 30t-8.5 31.5t-16.5 24t-28.5 18.5t-42 6q-54 0 -91.5 -46t-49.5 -94h240z" />
    <glyph glyph-name="uniFB69" unicode="&#x679;" horiz-adv-x="608" arabic-form="medial" 
d="M424 412q6 -109 53.5 -156.5t161.5 -50.5v-205h-8q-189 0 -299 96q-93 -90 -256 -96h-107v205h88q71 6 102 43.5t31 109.5v338h74q160 0 160 -159v-125zM139 870h-6q5 -7 8 3.5t4 41.5t1.5 53.5t0.5 65.5q0 34 -0.5 73t-1 65.5t-0.5 29.5h15q27 0 38 -9.5t11 -35.5v-192
q73 118 170 118q51 0 85.5 -32.5t47 -73.5t12.5 -86q0 -84 -35 -84h-342q-55 0 -55 45v18h47zM461 870q0 20 -0.5 30t-3 30t-8.5 31.5t-16.5 24t-28.5 18.5t-42 6q-54 0 -91.5 -46t-49.5 -94h240z" />
    <glyph glyph-name="veh.fina" unicode="&#x6a4;" horiz-adv-x="1851" arabic-form="final" 
d="M1841 205h41v-205h-72q-81 0 -147 19.5t-96 50.5l-2 -7v5q-95 -68 -248 -68h-772q-78 0 -142 19t-105 48.5t-71 72.5t-46 82.5t-25 87.5t-11 78.5t-2 64.5q0 156 52 247t167 91h74q-59 -51 -88 -138t-29 -168q0 -280 201 -280h410q-58 91 -58 217t46 226.5t141 162
t225 61.5q184 0 295.5 -138.5t108.5 -350.5l-2 -141q37 -37 155 -37zM1266 700q-93 0 -142 -68.5t-49 -182.5q0 -51 11 -90.5t31 -64.5t46.5 -43t57.5 -26t65 -13.5t67.5 -5t66 -0.5t61.5 -1q0 23 1 74.5t1 78.5q0 59 -3.5 102.5t-16.5 91.5t-36 78t-64 50t-97 20z
M1151 1024q-48 0 -83.5 35t-35.5 84q0 47 36 84t83 37t82 -36.5t35 -84.5q0 -49 -34.5 -84t-82.5 -35zM1415 1024q-46 0 -81.5 35t-35.5 84q0 47 35.5 84t81.5 37q47 0 84 -37t37 -84q0 -49 -36.5 -84t-84.5 -35zM1282 1257q-43 0 -74.5 32.5t-31.5 74.5q0 45 31 77t75 32
q42 0 74.5 -32.5t32.5 -76.5q0 -41 -33 -74t-74 -33z" />
    <glyph glyph-name="veh.init" unicode="&#x6a4;" horiz-adv-x="1042" arabic-form="initial" 
d="M961 383v-383h-971v205h209q-54 85 -54 217q0 126 46 226.5t141 162t225 61.5q184 0 294 -137.5t110 -351.5zM539 700q-93 0 -142 -68.5t-49 -182.5q0 -51 11 -90.5t31 -64.5t46.5 -43t57.5 -26t65 -13.5t67.5 -5t66.5 -0.5t61 -1q0 23 1 74.5t1 78.5q0 59 -3.5 102.5
t-16.5 91.5t-36 78t-64 50t-97 20zM424 1024q-48 0 -83.5 35t-35.5 84q0 47 36 84t83 37t82 -36.5t35 -84.5q0 -49 -34.5 -84t-82.5 -35zM688 1024q-46 0 -81.5 35t-35.5 84q0 47 35.5 84t81.5 37q47 0 84 -37t37 -84q0 -49 -36.5 -84t-84.5 -35zM555 1257q-43 0 -74.5 32.5
t-31.5 74.5q0 45 31 77t75 32q42 0 74.5 -32.5t32.5 -76.5q0 -41 -33 -74t-74 -33z" />
    <glyph glyph-name="veh.medi" unicode="&#x6a4;" horiz-adv-x="1130" arabic-form="medial" 
d="M961 205h180v-205h-1151v205h209q-54 85 -54 217q0 126 46 226.5t141 162t225 61.5q184 0 294 -137.5t110 -351.5v-178zM539 700q-93 0 -142 -68.5t-49 -182.5q0 -51 11 -90.5t31 -64.5t46.5 -43t57.5 -26t65 -13.5t67.5 -5t66.5 -0.5t61 -1q0 23 1 74.5t1 78.5
q0 59 -3.5 102.5t-16.5 91.5t-36 78t-64 50t-97 20zM424 1024q-48 0 -83.5 35t-35.5 84q0 47 36 84t83 37t82 -36.5t35 -84.5q0 -49 -34.5 -84t-82.5 -35zM688 1024q-46 0 -81.5 35t-35.5 84q0 47 35.5 84t81.5 37q47 0 84 -37t37 -84q0 -49 -36.5 -84t-84.5 -35zM555 1257
q-43 0 -74.5 32.5t-31.5 74.5q0 45 31 77t75 32q42 0 74.5 -32.5t32.5 -76.5q0 -41 -33 -74t-74 -33z" />
    <glyph glyph-name="tcheh.fina" unicode="&#x686;" horiz-adv-x="1267" arabic-form="final" 
d="M143 -291q0 115 29 203t78.5 143.5t122.5 90.5t152.5 49t176.5 14q82 0 187 -10q0 44 -18.5 103.5t-53.5 122t-79.5 116t-104 87.5t-119.5 34q-87 0 -153.5 -26.5t-131.5 -88.5v80q0 46 5.5 77.5t25 65t54.5 53.5t96.5 32.5t148.5 12.5q379 0 520 -555q20 -58 71.5 -83
t147.5 -25h21v-205h-53q-132 0 -213 59q-7 -7 -22.5 -16.5t-78.5 -26t-145 -16.5h-105q-204 -4 -289 -88t-85 -244q0 -40 5 -77t20.5 -78t40 -72t67.5 -54t100 -30l-65 -25q-32 -12 -76 -12q-121 0 -199 106.5t-78 282.5zM551 -137q49 0 84 -34.5t35 -84.5t-35 -85.5
t-84 -35.5q-48 0 -83.5 36t-35.5 85t35.5 84t83.5 35zM817 -137q48 0 83.5 -35t35.5 -84t-35.5 -85t-83.5 -36q-47 0 -82 36t-35 85t34.5 84t82.5 35zM686 -371q42 0 74.5 -32.5t32.5 -73.5q0 -44 -32 -76.5t-75 -32.5q-44 0 -75 32t-31 77q0 42 31 74t75 32z" />
    <glyph glyph-name="tcheh.init" unicode="&#x686;" horiz-adv-x="1067" arabic-form="initial" 
d="M362 -100q49 0 84 -36t35 -87q0 -47 -35 -81t-84 -34t-83.5 34t-34.5 81q0 51 34.5 87t83.5 36zM627 -100q48 0 83 -36t35 -87q0 -47 -35 -81t-83 -34q-47 0 -82 34t-35 81q0 51 34.5 87t82.5 36zM496 -346q49 0 83.5 -35t34.5 -82q0 -50 -34.5 -85.5t-83.5 -35.5
q-47 0 -81 35.5t-34 85.5q0 46 34 81.5t81 35.5zM-10 0v205h776q-8 34 -17.5 67t-27.5 81t-38.5 88.5t-51 83t-65 72t-80.5 48.5t-97 19q-87 0 -152.5 -26t-132.5 -89v78q0 46 6 78.5t26 65.5t55.5 53.5t97 33t147.5 12.5q116 0 210.5 -50.5t156.5 -132.5t104 -189.5
t60 -217t18 -219.5q0 -116 -16 -192q-28 58 -115 90.5t-205 40.5h-659z" />
    <glyph glyph-name="tcheh.medi" unicode="&#x686;" horiz-adv-x="1122" arabic-form="medial" 
d="M444 -102q48 0 82.5 -35t34.5 -86q0 -47 -35 -82t-82 -35t-82.5 35t-35.5 82q0 50 35 85.5t83 35.5zM709 -102q48 0 84 -35.5t36 -85.5q0 -47 -36 -82t-84 -35q-46 0 -81.5 35t-35.5 82q0 50 35 85.5t82 35.5zM580 -336q42 0 74 -32t32 -74q0 -44 -31.5 -76.5
t-74.5 -32.5q-44 0 -75.5 32.5t-31.5 76.5q0 42 31.5 74t75.5 32zM-10 0v205h766q-9 36 -18.5 67.5t-27.5 80.5t-38 88.5t-51 82.5t-65 72.5t-80 48.5t-97 19q-87 0 -153.5 -26.5t-133.5 -88.5v78q0 58 11 97t44 75t102.5 53.5t176.5 17.5q102 0 188 -40.5t145 -106
t103.5 -154t69.5 -178.5t37 -186h184v-205h-1163z" />
    <glyph glyph-name="ddal.fina" unicode="&#x688;" horiz-adv-x="1101" arabic-form="final" 
d="M297 1040h-6q3 -6 4 -6q10 0 10 170q0 34 -0.5 73t-1 65.5t-0.5 29.5h14q27 0 38.5 -9.5t11.5 -35.5v-192q73 118 170 118q51 0 85.5 -32.5t47 -73.5t12.5 -86q0 -84 -35 -84h-342q-55 0 -55 45v18h47zM618 1040q0 25 -0.5 37t-5.5 35.5t-14.5 35.5t-29 22t-48.5 10
q-54 0 -91.5 -46t-49.5 -94h239zM1100 205h22v-205h-12q-98 0 -152 15.5t-108 66.5q-28 -27 -44.5 -40.5t-46.5 -27.5t-61 -14h-483q-54 0 -83.5 36.5t-29.5 86.5v82h566q0 72 -19.5 138t-42.5 105t-55 74t-44 44t-22 16q-96 61 -204 61q-52 0 -101 -8l41 65q35 57 79.5 85
t107.5 28q38 0 88 -12q7 0 38.5 -11t86.5 -44t92 -78q104 -131 143 -275q12 -37 17.5 -52.5t16.5 -40.5t18 -34t21 -23.5t27.5 -18.5t35.5 -10.5t47.5 -7.5t60.5 -1z" />
    <glyph glyph-name="uniFB8B" unicode="&#x698;" horiz-adv-x="712" arabic-form="final" 
d="M397 1071q-44 0 -75 32t-31 75q0 44 31 75t75 31q45 0 77 -31t32 -75q0 -43 -32.5 -75t-76.5 -32zM418 948q0 51 33.5 85t83.5 34q48 0 83 -34.5t35 -84.5q0 -49 -35 -83t-83 -34q-49 0 -83 33.5t-34 83.5zM258 831q-48 0 -82.5 34t-34.5 83q0 50 34.5 84.5t82.5 34.5
q50 0 84.5 -34t34.5 -85q0 -49 -34.5 -83t-84.5 -34zM543 0h-17v-80q0 -113 -80.5 -195.5t-205.5 -82.5q-76 0 -122 33t-46 92v86q56 -9 84 -9q25 0 44.5 4.5t34 11t25.5 21t18 26.5t11.5 35t7 40t3 48t0.5 52t-0.5 60t-0.5 63v495h88q85 0 118.5 -37t33.5 -126v-328
q24 -4 47 -4h137v-205h-180z" />
    <glyph glyph-name="uniFB8D" unicode="&#x691;" horiz-adv-x="712" arabic-form="final" 
d="M223 897h-6q3 -6 4 -6q10 0 10 170q0 34 -0.5 73t-1 65.5t-0.5 29.5h15q27 0 38 -9.5t11 -35.5v-193q74 119 170 119q51 0 85.5 -32.5t47 -73.5t12.5 -86q0 -84 -35 -84h-342q-55 0 -55 45v18h47zM545 897q0 20 -0.5 30t-3 30t-8.5 31t-16.5 23.5t-28.5 18.5t-42 6
q-54 0 -91.5 -45.5t-49.5 -93.5h240zM543 0h-17v-80q0 -113 -80.5 -195.5t-205.5 -82.5q-76 0 -122 33t-46 92v86q56 -9 84 -9q25 0 44.5 4.5t34 11t25.5 21t18 26.5t11.5 35t7 40t3 48t0.5 52t-0.5 60t-0.5 63v495h88q85 0 118.5 -37t33.5 -126v-328q24 -4 47 -4h137v-205
h-180z" />
    <glyph glyph-name="kheh.fina" unicode="&#x6a9;" horiz-adv-x="1712" arabic-form="final" 
d="M1524 205h198v-205h-1179q-78 0 -141 19t-104 48.5t-71.5 72.5t-46 82.5t-24.5 87.5t-11 78.5t-2 64.5q0 100 20 173t70.5 119t128.5 46h74q-59 -51 -88 -138t-29 -168q0 -280 199 -280h793q0 73 -19.5 139t-42.5 105t-55 73.5t-43.5 43.5t-22.5 16q-99 61 -202 61
q-54 0 -101 -8l-47 61q-24 30 -24 72q0 61 57 104l774 580l53 -72q23 -26 23 -69q0 -51 -37 -78l-559 -420q20 0 74 -12q5 -1 14.5 -3.5t37 -13.5t53 -24.5t57.5 -38t57 -53.5q166 -198 166 -463z" />
    <glyph glyph-name="kheh.init" unicode="&#x6a9;" horiz-adv-x="1052" arabic-form="initial" 
d="M969 1380q22 -25 22 -69q0 -53 -35 -78l-561 -420q20 0 74 -12q6 0 37.5 -10.5t87 -44t94.5 -78.5q166 -198 166 -463v-205h-874v205h663q0 73 -18.5 138.5t-44 106.5t-54 72.5t-46 45t-21.5 14.5q-96 61 -205 61q-49 0 -98 -8l-47 61q-27 34 -27 72q0 59 59 104l777 580
z" />
    <glyph glyph-name="kheh.medi" unicode="&#x6a9;" horiz-adv-x="1007" arabic-form="medial" 
d="M893 1452l55 -72q21 -28 21 -69q0 -53 -35 -78q-93 -70 -279.5 -209.5t-279.5 -210.5q20 0 74 -12q6 0 26.5 -6.5t56.5 -25t75 -46t80 -75t73.5 -107t53 -147t20.5 -189.5h194v-205h-1048v205h641q0 73 -19.5 139t-42.5 105t-55 73.5t-43.5 43.5t-22.5 16q-99 61 -202 61
q-52 0 -101 -8q-5 7 -23.5 29.5t-26 33.5t-16 31t-8.5 39q0 60 58 104q171 129 774 580z" />
    <glyph glyph-name="Gaf.fina" unicode="&#x6af;" horiz-adv-x="1712" arabic-form="final" 
d="M1524 205h198v-205h-1179q-78 0 -141 19t-104 48.5t-71.5 72.5t-46 82.5t-24.5 87.5t-11 78.5t-2 64.5q0 100 20 173t70.5 119t128.5 46h74q-59 -51 -88 -138t-29 -168q0 -280 199 -280h793q0 73 -19.5 139t-42.5 105t-55 73.5t-43.5 43.5t-22.5 16q-99 61 -202 61
q-54 0 -101 -8l-47 61q-24 30 -24 72q0 61 57 104l774 580l53 -72q23 -26 23 -69q0 -51 -37 -78l-559 -420q20 0 74 -12q5 -1 14.5 -3.5t37 -13.5t53 -24.5t57.5 -38t57 -53.5q166 -198 166 -463zM1442 1663l39 -51q18 -32 18 -58q0 -44 -45 -92q-510 -381 -784 -592
q-7 11 -22 30t-22 29.5t-13.5 28.5t-6.5 37q0 43 25 62q101 77 811 606z" />
    <glyph glyph-name="Gaf.init" unicode="&#x6af;" horiz-adv-x="1032" arabic-form="initial" 
d="M754 1663l37 -51q21 -34 21.5 -61.5t-10.5 -44.5t-36 -44q-404 -302 -784 -592q-6 8 -22 28.5t-22.5 30.5t-13 28.5t-6.5 37.5q0 43 25 62q210 163 811 606zM897 1452q46 -61 60 -89.5t14 -51.5q0 -53 -35 -78l-561 -420q20 0 74 -12q6 0 37.5 -10.5t87 -44t94.5 -78.5
q166 -198 166 -463v-205h-875v205h664q0 73 -19 138.5t-44.5 106.5t-54 72.5t-45.5 44.5t-22 15q-96 61 -205 61q-49 0 -98 -8l-47 61q-27 34 -27 72q0 59 60 104z" />
    <glyph glyph-name="Gaf.medi" unicode="&#x6af;" horiz-adv-x="1017" arabic-form="medial" 
d="M754 1663l37 -51q20 -30 20 -58q0 -47 -45 -92q-404 -302 -784 -592q-6 8 -22 28.5t-22.5 30.5t-13 28.5t-6.5 37.5q0 43 25 62q210 163 811 606zM893 1452l55 -72q21 -28 21 -69q0 -53 -35 -78q-93 -70 -279.5 -209.5t-279.5 -210.5q20 0 74 -12q6 0 26.5 -6.5t56.5 -25
t75 -46t80 -75t73.5 -107t53 -147t20.5 -189.5h194v-205h-1048v205h641q0 73 -19.5 139t-42.5 105t-55 73.5t-43.5 43.5t-22.5 16q-99 61 -202 61q-52 0 -101 -8q-5 7 -23.5 29.5t-26 33.5t-16 31t-8.5 39q0 60 58 104q171 129 774 580z" />
    <glyph glyph-name="ghunna.fina" unicode="&#x6ba;" horiz-adv-x="1495" arabic-form="final" 
d="M1505 205h21v-205h-53q-86 0 -150 20q-17 -102 -109 -198t-226 -155.5t-267 -59.5q-124 0 -232.5 48.5t-184 130.5t-118.5 194t-43 237q0 139 56 224t161 85h74q-59 -52 -87 -138.5t-28 -168.5q0 -76 27 -148.5t74 -129t117.5 -91t150.5 -34.5q195 0 298.5 98t103.5 262
v524h75q79 0 119.5 -41t40.5 -118v-291q54 -45 180 -45z" />
    <glyph glyph-name="hehhamza.fina" unicode="&#x6c0;" horiz-adv-x="1169" arabic-form="final" 
d="M553 1083h178v-41q0 -19 -14 -33t-37 -14h-248q-22 0 -35.5 14.5t-13.5 32.5v41h68q-9 20 -9 62q0 67 38.5 111t105.5 44q44 0 78.5 -22t44.5 -68q0 -16 -5 -31t-14 -32t-12 -27q-16 58 -44.5 80.5t-53.5 22.5q-48 0 -48 -72q0 -54 21 -68zM1053 205h145v-205h-96
q-295 2 -377 -2q-60 1 -111.5 5.5t-113 16.5t-110 31t-96.5 51t-80 74.5t-51.5 105t-19.5 138.5q0 126 46 226.5t141 162t225 61.5q80 0 150 -28v2q65 -26 115 -75t80 -111.5t44.5 -132.5t13.5 -144l-2 -176h97zM346 446q0 -49 13 -87.5t31 -63.5t50 -43t58.5 -26.5
t68 -13.5t66 -5.5t66 -1t55.5 -0.5q0 22 1 71.5t1 75.5q0 59 -3.5 103t-17 92.5t-36.5 79t-64 51t-98 20.5q-93 0 -142 -69t-49 -183z" />
    <glyph glyph-name="hehfinaltone" unicode="&#x6c1;" horiz-adv-x="1140" arabic-form="final" 
d="M1157 182v-182h-70q-226 0 -336 108.5t-110 335.5v72q-240 -53 -408 -319l-149 120q127 189 303 296.5t389 107.5l80 -4v-236q0 -160 58 -229.5t188 -69.5h55z" />
    <glyph glyph-name="hehinitialaltone" unicode="&#x6c1;" horiz-adv-x="585" arabic-form="initial" 
d="M346 698q158 0 158 -161v-189q0 -149 -89 -245.5t-257 -102.5h-189v205h170q69 7 100 45t31 110v338h76zM135 -348q0 100 62 178t147 78h29q-28 -29 -47 -77.5t-19 -82.5q0 -40 33 -81t33 -79q0 -44 -33 -75t-80 -31q-58 0 -91.5 44t-33.5 126z" />
    <glyph glyph-name="hehmedialaltone" unicode="&#x6c1;" horiz-adv-x="1425" arabic-form="medial" 
d="M1446 205v-205h-250v-514h-192q-291 0 -432.5 154.5t-141.5 449.5q0 8 6 57q-104 -147 -305 -147h-141v205h162q126 0 202 94.5t76 253.5v215h213v-702q0 -185 88.5 -287t249.5 -111v537h465zM74 -348q0 100 62 178t147 78h28q-28 -29 -46.5 -77.5t-18.5 -82.5
q0 -40 32.5 -81t32.5 -79q0 -44 -32.5 -75t-79.5 -31q-58 0 -91.5 44t-33.5 126z" />
    <glyph glyph-name="uniFBAB" unicode="&#x6be;" horiz-adv-x="1171" arabic-form="final" 
d="M-20 0v205h192q1 52 5 96t15 97t27 94.5t44 83t65 68.5t90.5 44t118.5 17q163 0 255.5 -93t92.5 -264q0 -80 -29 -143h336v-205h-240q52 -99 52 -201q0 -198 -110 -304.5t-300 -106.5q-76 0 -138.5 19.5t-105 51.5t-74.5 79.5t-51 96t-31 110.5t-16.5 113t-5.5 111
q0 4 1 15t1 16h-194zM621 -410q109 0 159.5 47t50.5 144q0 57 -16 98t-41 64.5t-67 36.5t-82.5 16.5t-98.5 3.5q-26 0 -75.5 -1t-71.5 -1q0 -13 0.5 -55t1 -66.5t5.5 -66t14 -67.5t27 -58.5t43 -50.5t63.5 -31t87.5 -13zM561 528q-56 0 -96.5 -17t-61.5 -41t-33 -62t-15 -68
t-3 -72v-63h127h23q38 0 56.5 0.5t48.5 3t45 8.5t34.5 17.5t28.5 28.5t15.5 42.5t6.5 59.5q0 85 -41 124t-135 39z" />
    <glyph glyph-name="yehbarree.fina" unicode="&#x6d2;" horiz-adv-x="1552" arabic-form="final" 
d="M1372 -629h-1245q-4 50 -4 92q0 146 49 278.5t141 236.5t237 165.5t324 61.5h709v-205h-731q-122 0 -221 -41t-159.5 -107t-94 -143t-37.5 -155h1032v-183z" />
    <glyph glyph-name="uniFBB1" unicode="&#x6d3;" horiz-adv-x="1552" arabic-form="final" 
d="M1372 -629h-1245q-4 50 -4 92q0 146 49 278.5t141 236.5t237 165.5t324 61.5h709v-205h-731q-122 0 -221 -41t-159.5 -107t-94 -143t-37.5 -155h1032v-183zM756 414h178v-41q0 -19 -14 -33t-37 -14h-248q-22 0 -35.5 14.5t-13.5 32.5v41h67q-8 18 -8 61q0 67 38 111.5
t105 44.5q44 0 78.5 -22t44.5 -68q0 -16 -5 -31t-13.5 -32.5t-11.5 -26.5q-16 58 -45 80t-54 22q-47 0 -47 -72q0 -53 21 -67z" />
    <glyph glyph-name="alefmaksura.init" unicode="&#x649;" horiz-adv-x="595" arabic-form="initial" 
d="M356 698q158 0 158 -161v-189q0 -149 -89 -245.5t-257 -102.5h-209v205h191q69 7 100 45t31 110v338h75z" />
    <glyph glyph-name="alefmaksura.medi" unicode="&#x649;" horiz-adv-x="608" arabic-form="medial" 
d="M424 412q6 -110 54 -158.5t161 -48.5v-205h-8q-189 0 -299 96q-93 -90 -256 -96h-107v205h88q71 6 102 43.5t31 109.5v338h74q160 0 160 -159v-125z" />
    <glyph glyph-name="uniFBFD" unicode="&#x6cc;" horiz-adv-x="1492" arabic-form="final" 
d="M700 -295q-275 0 -416 137t-141 398q0 159 66.5 252.5t181.5 93.5l107 -11q-7 -5 -18 -15.5t-39 -43.5t-50 -68t-39.5 -87.5t-17.5 -104.5q0 -46 2.5 -80t11.5 -73.5t25 -67t44.5 -55t68 -44t97.5 -26.5t132 -10q47 0 81.5 13.5t55 41.5t33 59.5t19 80.5t9 91t7 104
t10.5 107q-54 22 -127 27q-41 0 -69.5 32.5t-28.5 71.5v99h14q8 0 24.5 1t24.5 1q96 0 176 -22.5t141 -65t105 -89t86 -108.5q25 -37 39.5 -56.5t36.5 -42t46 -31.5t54 -9h61v-205h-55q-124 0 -210 54t-130 151q-15 -178 -38 -255q-52 -168 -203 -220q-75 -25 -177 -25z" />
    <glyph glyph-name="uniFBFE" unicode="&#x6cc;" horiz-adv-x="595" arabic-form="initial" 
d="M356 698q158 0 158 -161v-189q0 -149 -89 -245.5t-257 -102.5h-209v205h191q69 7 100 45t31 110v338h75zM117 -360q-50 0 -84.5 34.5t-34.5 83.5t34.5 83t84.5 34q48 0 82 -34t34 -83t-34 -83.5t-82 -34.5zM383 -360q-48 0 -82.5 34.5t-34.5 83.5t34.5 83t82.5 34
q50 0 85.5 -34t35.5 -83t-35.5 -83.5t-85.5 -34.5z" />
    <glyph glyph-name="uniFBFF" unicode="&#x6cc;" horiz-adv-x="608" arabic-form="medial" 
d="M119 -358q-50 0 -84.5 33.5t-34.5 84.5q0 48 35 82.5t84 34.5q47 0 82 -35t35 -82q0 -50 -34.5 -84t-82.5 -34zM383 -358q-48 0 -82.5 34t-34.5 84q0 47 35 82t82 35q48 0 84.5 -35t36.5 -82q0 -50 -36.5 -84t-84.5 -34zM424 412q6 -110 54 -158.5t161 -48.5v-205h-8
q-189 0 -299 96q-93 -90 -256 -96h-107v205h88q71 6 102 43.5t31 109.5v338h74q160 0 160 -159v-125z" />
    <glyph glyph-name="shadda_dammatan" unicode="&#xfc5e;" arabic-form="isolated" 
d="M-256 2l12 -147q3 -32 19 -51t43 -19q17 0 31 13t14 38q0 33 -8 115q-3 28 6.5 36.5t42.5 8.5l12 -150q3 -63 57 -63q50 0 47 70l-6 100q-4 39 25 41h20l11 -160q2 -36 -19.5 -64t-68.5 -28t-88 37q-24 -35 -76 -35q-51 0 -78.5 32.5t-32.5 82.5q-8 82 -8 108q0 29 45 35
zM4 334q50 0 83.5 -34.5t33.5 -86.5q0 -50 -33 -87.5t-77 -56t-102.5 -29.5t-93.5 -13t-67 -2q-28 0 -34.5 6t-8.5 32l16 3q46 25 46 90q0 34 -19.5 53.5t-54.5 19.5q-38 0 -55 -26q-9 18 -9 24q0 17 19.5 31t52.5 14q56 0 87.5 -34.5t31.5 -81.5q0 -35 -31 -86q99 7 154 22
q-60 47 -60 109q0 56 35 94.5t86 38.5zM0 121q33 0 50.5 24.5t17.5 61.5q0 38 -19.5 61t-50.5 23t-48.5 -22.5t-17.5 -57.5q0 -37 19.5 -63.5t48.5 -26.5z" />
    <glyph glyph-name="shadda_kasratan" unicode="&#xfc5f;" arabic-form="isolated" 
d="M59 -154q-118 -8 -305 -16q-9 -1 -15 3.5t-8 14.5t-2.5 15.5t-0.5 15.5q146 8 297 17q14 2 23.5 -12t10.5 -38zM76 -242q-118 -8 -305 -16q-9 -1 -15.5 4t-8.5 14.5t-2.5 15.5t-0.5 15q269 14 297 16q14 2 24 -11.5t11 -37.5zM-252 197l12 -148q7 -69 62 -69q17 0 31 13
t14 38q0 32 -8 114q-3 28 6.5 36.5t42.5 8.5l12 -149q3 -64 57 -64q24 0 37 18.5t11 51.5l-7 100q-4 39 25 41h20l11 -159q2 -36 -19.5 -64t-68.5 -28q-48 0 -88 36q-24 -34 -76 -34q-51 0 -78.5 32t-32.5 82q-8 82 -8 109q0 29 45 35z" />
    <glyph glyph-name="shadda_fatha" unicode="&#xfc60;" arabic-form="isolated" 
d="M-262 2l12 -147q3 -32 19 -51t43 -19q17 0 31 13t14 38q0 23 -9 115q-3 27 7 36t43 9l12 -150q3 -63 57 -63q50 0 47 70l-6 100q-4 39 25 41h20l10 -160q2 -36 -19.5 -64t-68.5 -28t-88 37q-24 -35 -75 -35t-78.5 32.5t-32.5 82.5q-8 82 -8 108q0 29 45 35zM39 45
q-118 -8 -305 -16q-9 -1 -15.5 4t-8.5 14.5t-2.5 15.5t-0.5 15q269 14 297 16q14 2 24 -11.5t11 -37.5z" />
    <glyph glyph-name="shadda_damma" unicode="&#xfc61;" arabic-form="isolated" 
d="M-256 2l12 -147q3 -32 19 -51t43 -19q17 0 31 13t14 38q0 33 -8 115q-3 28 6.5 36.5t42.5 8.5l12 -150q3 -63 57 -63q50 0 47 70l-6 100q-4 39 25 41h20l11 -160q2 -36 -19.5 -64t-68.5 -28t-88 37q-24 -35 -76 -35q-51 0 -78.5 32.5t-32.5 82.5q-8 82 -8 108q0 29 45 35
zM-39 123q59 3 59 86q0 41 -20 64.5t-51 23.5q-29 0 -45.5 -24t-16.5 -60q0 -41 20.5 -65.5t53.5 -24.5zM-47 336q49 0 84 -31.5t35 -83.5q0 -49 -27.5 -86t-68 -56t-90 -31t-90 -14.5t-72.5 -3.5t-33 -1q-20 0 -25.5 8t-7.5 29l39 2q129 5 194 28q-53 41 -53 107
q0 57 33 95t82 38z" />
    <glyph glyph-name="shadda_kasra" unicode="&#xfc62;" arabic-form="isolated" 
d="M-252 100l12 -147q3 -32 19 -51t43 -19q17 0 31 13t14 38q0 33 -8 115q-3 28 6.5 36.5t42.5 8.5l12 -149q3 -64 57 -64q24 0 37 18.5t11 51.5l-7 100q-4 39 25 41h20l11 -160q2 -36 -19.5 -64t-68.5 -28t-88 37q-24 -35 -76 -35q-51 0 -78.5 32.5t-32.5 82.5
q-8 82 -8 109q0 16 10.5 23.5t34.5 10.5zM82 -242q-118 -8 -305 -16q-9 -1 -15.5 4t-8.5 14.5t-2.5 15.5t-0.5 15q269 14 297 16q14 2 24 -11.5t11 -37.5z" />
    <glyph glyph-name="shadda_alefsuperscript" unicode="&#xfc63;" arabic-form="isolated" 
d="M-104 31h-21q-13 0 -22 12t-9 35v168h23q9 0 19 -11t10 -24v-180zM-262 2l12 -147q3 -32 19 -51t43 -19q17 0 31 13t14 38q0 23 -9 115q-3 27 7 36t43 9l12 -150q3 -63 57 -63q50 0 47 70l-6 100q-4 39 25 41h20l10 -160q2 -36 -19.5 -64t-68.5 -28t-88 37
q-24 -35 -75 -35t-78.5 32.5t-32.5 82.5q-8 82 -8 108q0 29 45 35z" />
    <glyph glyph-name="alah" unicode="&#xfdf2;" horiz-adv-x="2314" arabic-form="isolated" 
d="M1165 205q77 6 110.5 43t33.5 110v879h73q160 0 160 -160v-667q4 -59 11.5 -92.5t27.5 -62t56.5 -39.5t95.5 -11h69q70 6 100.5 44t30.5 109v879h76q162 0 162 -160v-729q0 -151 -89.5 -246.5t-260.5 -101.5l-52 -2q-127 0 -193.5 22t-125.5 74q-63 -59 -155 -77.5
t-263 -18.5q-39 0 -141 1t-166 1q-582 0 -582 420q0 126 46 226.5t141 162t225 61.5q95 0 173 -40.5t128 -109t76.5 -156t25.5 -183.5l-2 -176h209zM346 446q0 -50 12.5 -89.5t31.5 -64.5t50 -42.5t59 -26t67.5 -13.5t66.5 -5.5t65.5 -0.5t55.5 -1q0 22 1 71.5t1 75.5
q0 60 -3.5 104t-17 93t-36.5 79.5t-64 51t-98 20.5q-93 0 -142 -69t-49 -183z" />
    <glyph glyph-name="alef_madda.fina" unicode="&#x622;" horiz-adv-x="503" arabic-form="final" 
d="M446 1493v-49q0 -36 -21.5 -68.5t-59.5 -32.5h-302v78q0 26 18.5 49t45.5 23h319zM498 205h26v-205h-45q-168 6 -258 102.5t-90 245.5v891h107q47 0 89 -34.5t42 -84.5v-796q12 -107 129 -119z" />
    <glyph glyph-name="alef_hamza_above.fina" unicode="&#x623;" horiz-adv-x="503" arabic-form="final" 
d="M498 205h26v-205h-45q-170 6 -258 101t-88 247v889h105q48 0 89.5 -34t41.5 -85v-794q12 -110 129 -119zM236 1395h178v-41q0 -18 -14 -32.5t-38 -14.5h-247q-22 0 -35.5 14.5t-13.5 32.5v41h67q-8 18 -8 61q0 67 38 111.5t105 44.5q44 0 78.5 -22t44.5 -68q0 -16 -5 -31
t-14 -32t-12 -27q-16 58 -44.5 80t-53.5 22q-47 0 -47 -72q0 -53 21 -67z" />
    <glyph glyph-name="waw_hamza.fina" unicode="&#x624;" horiz-adv-x="1083" arabic-form="final" 
d="M1114 205v-205h-231q-11 -49 -33.5 -94.5t-65.5 -92.5t-100 -82t-142.5 -57t-187.5 -22q-65 0 -104 28t-39 70v74q365 11 453 176q-582 9 -582 430q0 94 27 176t78 143.5t130 96.5t177 35q81 0 149 -27v2q67 -27 118 -76.5t80 -112.5t43 -131.5t13 -142.5l-2 -188h219z
M692 205q-1 30 -1.5 80t-0.5 86t-4 83t-11 80.5t-22.5 68.5t-38 56.5t-58 35.5t-81.5 14q-92 0 -141 -68.5t-49 -181.5q0 -67 19 -115.5t47.5 -75t71.5 -42t80 -19.5t85 -4q21 0 56 1t48 1zM492 1083h178v-41q0 -18 -14 -32.5t-38 -14.5h-247q-22 0 -35.5 14.5t-13.5 32.5
v41h67q-8 18 -8 62q0 67 38 111t105 44q44 0 78.5 -22t44.5 -68q0 -16 -5 -31t-14 -32t-12 -27q-16 58 -44.5 80.5t-53.5 22.5q-47 0 -47 -72q0 -54 21 -68z" />
    <glyph glyph-name="alef_hamza_below.fina" unicode="&#x625;" horiz-adv-x="473" arabic-form="final" 
d="M469 205h25v-205h-41q-171 6 -261 101.5t-90 246.5v889h107q49 0 90 -34t41 -85v-796q12 -106 129 -117zM256 -297h178v-41q0 -19 -14 -33t-37 -14h-248q-22 0 -35.5 14.5t-13.5 32.5v41h68q-9 20 -9 61q0 67 38.5 111.5t105.5 44.5q44 0 78.5 -22t44.5 -68q0 -16 -5 -31
t-14 -32t-12 -27q-16 58 -44.5 80t-53.5 22q-47 0 -47 -71q0 -55 20 -68z" />
    <glyph glyph-name="yeh_hamza_above.fina" unicode="&#x626;" horiz-adv-x="1890" arabic-form="final" 
d="M313 754h179v-41q0 -19 -14 -33t-38 -14h-247q-22 0 -36 14.5t-14 32.5v41h68q-8 18 -8 61q0 67 38 111.5t105 44.5q44 0 78.5 -22t44.5 -68q0 -48 -31 -90q-16 58 -44.5 80t-53.5 22q-47 0 -47 -72q0 -54 20 -67zM1522 0v659q-73 -1 -130.5 -15.5t-97 -36t-69.5 -59.5
t-47.5 -73.5t-30 -92t-18 -100t-11.5 -110.5q-5 -68 -11.5 -119t-20.5 -105t-34 -93t-51 -74.5t-72.5 -57t-99 -34.5t-129.5 -13q-275 0 -416 137t-141 398q0 159 66.5 252.5t181.5 93.5l107 -10q-7 -3 -18 -10t-39 -33.5t-50 -59.5t-39.5 -91t-17.5 -126q0 -67 5.5 -112
t27.5 -94.5t61.5 -79t111 -49.5t173.5 -21h4q65 0 105.5 27t58.5 76t25.5 110t12 136t11 147t29 150t61.5 138q136 215 516 215h190v-665h185v-205h-389z" />
    <glyph glyph-name="yeh_hamza_above.init" unicode="&#x626;" horiz-adv-x="585" arabic-form="initial" 
d="M346 698q158 0 158 -161v-189q0 -149 -89 -245.5t-257 -102.5h-189v205h170q69 7 100 45t31 110v338h76zM367 913h178v-41q0 -19 -14 -33t-37 -14h-248q-22 0 -35.5 14.5t-13.5 32.5v41h67q-8 18 -8 62q0 67 38 111t105 44q44 0 78.5 -22t44.5 -68q0 -48 -30 -90
q-16 58 -45 80.5t-54 22.5q-47 0 -47 -72q0 -54 21 -68z" />
    <glyph glyph-name="yeh_hamza_above.medi" unicode="&#x626;" horiz-adv-x="608" arabic-form="medial" 
d="M424 412q6 -111 53 -159t162 -48v-205h-8q-189 0 -299 96q-93 -90 -256 -96h-107v205h88q71 6 102 43.5t31 109.5v338h74q160 0 160 -159v-125zM287 922h178v-41q0 -19 -14 -33t-37 -14h-248q-22 0 -35.5 14.5t-13.5 32.5v41h67q-8 18 -8 61q0 67 38 111.5t105 44.5
q44 0 78.5 -22t44.5 -68q0 -46 -30 -91q-16 58 -45 80.5t-54 22.5q-47 0 -47 -72q0 -53 21 -67z" />
    <glyph glyph-name="alef.fina" unicode="&#x627;" horiz-adv-x="452" arabic-form="final" 
d="M449 205h24v-205h-41q-171 6 -260.5 101.5t-89.5 246.5v889h106q49 0 90 -34t41 -85v-796q12 -105 130 -117z" />
    <glyph glyph-name="beh.fina" unicode="&#x628;" horiz-adv-x="1755" arabic-form="final" 
d="M874 -348q-49 0 -82.5 33.5t-33.5 83.5q0 49 33 82.5t83 33.5t84.5 -33.5t34.5 -82.5t-34.5 -83t-84.5 -34zM1786 205h20v-205h-53q-191 0 -301 96q-93 -90 -254 -96h-655q-78 0 -141 19t-104 48.5t-71.5 72t-46 82t-24.5 87.5t-11 79t-2 65q0 100 20 173t70.5 119
t128.5 46h74q-59 -51 -88 -138t-29 -168q0 -280 199 -280h662q70 6 100.5 44t30.5 109v340h75q78 0 119 -41t41 -120v-129q8 -112 60.5 -157.5t179.5 -45.5z" />
    <glyph glyph-name="beh.init" unicode="&#x628;" horiz-adv-x="585" arabic-form="initial" 
d="M410 -229q1 -50 -35.5 -84.5t-83.5 -34.5q-48 0 -81.5 34t-33.5 85q0 48 33 82t82 34q48 0 83.5 -33.5t35.5 -82.5zM346 698q158 0 158 -161v-189q0 -149 -89 -245.5t-257 -102.5h-189v205h170q69 7 100 45t31 110v338h76z" />
    <glyph glyph-name="beh.medi" unicode="&#x628;" horiz-adv-x="608" arabic-form="medial" 
d="M305 -113q48 0 82.5 -34t34.5 -84q0 -49 -34.5 -82t-82.5 -33q-50 0 -83.5 33t-33.5 82q0 51 33.5 84.5t83.5 33.5zM424 412q6 -110 54 -158.5t161 -48.5v-207h-8q-187 0 -299 98q-58 -57 -142 -77.5t-221 -20.5v207h88q71 6 102 43.5t31 109.5v338h74q160 0 160 -159
v-125z" />
    <glyph glyph-name="tehmarbuta.fina" unicode="&#x629;" horiz-adv-x="1097" arabic-form="final" 
d="M344 1024q-48 0 -81.5 34t-33.5 85q0 47 34 80.5t81 33.5q51 0 86 -33.5t35 -80.5q0 -51 -35 -85t-86 -34zM621 1024q-48 0 -82.5 34.5t-34.5 84.5q0 47 34.5 80.5t82.5 33.5q49 0 83.5 -33.5t34.5 -80.5q0 -51 -34 -85t-84 -34zM991 205h146v-205h-96q-295 2 -377 -2
q-60 1 -111.5 5.5t-113 16.5t-110 31t-96.5 51t-80 74.5t-51.5 105t-19.5 138.5q0 126 46 226.5t141 162t225 61.5q84 0 153 -28t115 -75.5t77 -111t45 -132.5t13 -142l-2 -176h96zM285 446q0 -49 13 -87.5t31 -63.5t50 -43t58 -26.5t67.5 -13.5t66 -5.5t66 -1t55.5 -0.5
q0 22 1 71.5t1 75.5q0 59 -3.5 103t-17 92.5t-36.5 79t-64 51t-98 20.5q-92 0 -141 -69t-49 -183z" />
    <glyph glyph-name="teh.fina" unicode="&#x62a;" horiz-adv-x="1755" arabic-form="final" 
d="M905 958q0 51 33.5 85t83.5 34q48 0 83.5 -34.5t35.5 -84.5q0 -49 -35.5 -82.5t-83.5 -33.5q-50 0 -83.5 33.5t-33.5 82.5zM745 842q-48 0 -82 33.5t-34 82.5q0 50 34 84.5t82 34.5q50 0 84.5 -34t34.5 -85q0 -49 -34.5 -82.5t-84.5 -33.5zM1786 205h20v-205h-53
q-191 0 -301 96q-100 -93 -254 -96h-655q-78 0 -141 19t-104 48.5t-71.5 72t-46 82t-24.5 87.5t-11 79t-2 65q0 156 52 247t167 91h74q-59 -51 -88 -138t-29 -168q0 -280 199 -280h662q70 6 100.5 44t30.5 111v338h75q78 0 119 -41t41 -120v-127q8 -112 60.5 -158.5
t179.5 -46.5z" />
    <glyph glyph-name="teh.init" unicode="&#x62a;" horiz-adv-x="585" arabic-form="initial" 
d="M346 698q158 0 158 -161v-189q0 -149 -89 -245.5t-257 -102.5h-189v205h170q69 7 100 45t31 110v338h76zM238 846q-50 0 -84.5 34t-34.5 83t34.5 82.5t84.5 33.5q48 0 82 -33.5t34 -82.5t-34 -83t-82 -34zM502 846q-48 0 -81.5 34t-33.5 83t33.5 82.5t81.5 33.5
t84.5 -33.5t36.5 -82.5t-36.5 -83t-84.5 -34z" />
    <glyph glyph-name="teh.medi" unicode="&#x62a;" horiz-adv-x="608" arabic-form="medial" 
d="M170 842q-50 0 -84.5 33.5t-34.5 82.5q0 51 34.5 85t84.5 34q48 0 82.5 -34.5t34.5 -84.5q0 -49 -34.5 -82.5t-82.5 -33.5zM424 412q6 -109 53.5 -156.5t161.5 -50.5v-205h-8q-189 0 -299 96q-93 -90 -256 -96h-107v205h88q71 6 102 43.5t31 109.5v338h74q160 0 160 -159
v-125zM436 842q-48 0 -82.5 33.5t-34.5 82.5q0 50 34.5 84.5t82.5 34.5q50 0 84.5 -34t34.5 -85q0 -49 -34.5 -82.5t-84.5 -33.5z" />
    <glyph glyph-name="theh.fina" unicode="&#x62b;" horiz-adv-x="1755" arabic-form="final" 
d="M885 1071q-44 0 -75.5 32t-31.5 75q0 44 31.5 75t75.5 31t76 -31t32 -75q0 -43 -32 -75t-76 -32zM905 948q0 51 33.5 85t83.5 34q48 0 83.5 -34.5t35.5 -84.5q0 -49 -35.5 -83t-83.5 -34q-50 0 -83.5 33.5t-33.5 83.5zM745 831q-48 0 -82 34t-34 83q0 50 34 84.5t82 34.5
q50 0 84.5 -34t34.5 -85q0 -49 -34.5 -83t-84.5 -34zM1786 205h20v-205h-53q-191 0 -301 96q-93 -90 -254 -96h-655q-78 0 -141 19t-104 48.5t-71.5 72t-46 82t-24.5 87.5t-11 79t-2 65q0 100 20 173t70.5 119t128.5 46h74q-59 -51 -88 -138t-29 -168q0 -280 199 -280h662
q70 6 100.5 44t30.5 109v340h75q78 0 119 -41t41 -120v-129q8 -112 60.5 -157.5t179.5 -45.5z" />
    <glyph glyph-name="theh.init" unicode="&#x62b;" horiz-adv-x="585" arabic-form="initial" 
d="M346 698q158 0 158 -161v-189q0 -149 -89 -245.5t-257 -102.5h-189v205h170q69 7 100 45t31 110v338h76zM238 836q-50 0 -84.5 33.5t-34.5 82.5t34.5 83t84.5 34q48 0 82 -34t34 -83t-34 -82.5t-82 -33.5zM502 836q-48 0 -81.5 33.5t-33.5 82.5t33.5 83t81.5 34t84.5 -34
t36.5 -83t-36.5 -82.5t-84.5 -33.5zM371 1075q-44 0 -74.5 31t-30.5 74q0 44 30.5 75t74.5 31t76 -31t32 -75q0 -43 -32 -74t-76 -31z" />
    <glyph glyph-name="theh.medi" unicode="&#x62b;" horiz-adv-x="608" arabic-form="medial" 
d="M170 831q-50 0 -84.5 34t-34.5 83q0 51 34.5 85t84.5 34q48 0 82.5 -34.5t34.5 -84.5q0 -49 -34.5 -83t-82.5 -34zM303 1071q-44 0 -74 32t-30 75q0 44 30 75t74 31q42 0 75.5 -31.5t33.5 -74.5q0 -42 -33.5 -74.5t-75.5 -32.5zM424 412q6 -109 53.5 -156.5t161.5 -50.5
v-205h-8q-189 0 -299 96q-93 -90 -256 -96h-107v205h88q71 6 102 43.5t31 109.5v338h74q160 0 160 -159v-125zM436 831q-48 0 -82.5 34t-34.5 83q0 50 34.5 84.5t82.5 34.5q50 0 84.5 -34t34.5 -85q0 -49 -34.5 -83t-84.5 -34z" />
    <glyph glyph-name="jeem.fina" unicode="&#x62c;" horiz-adv-x="1267" arabic-form="final" 
d="M655 -362q-51 0 -84.5 33t-33.5 83t33.5 83.5t84.5 33.5q49 0 83 -33.5t34 -83.5q0 -49 -33.5 -82.5t-83.5 -33.5zM1298 205h21v-205h-53q-132 0 -213 59v-2q0 -6 -29.5 -19t-99 -26.5t-152.5 -13.5q-45 0 -70 2q-172 0 -269 -63t-97 -173v-8v-35.5t5.5 -46t16 -54.5
t33 -51.5t54 -47t82 -31t114.5 -12.5q85 0 168.5 29t130.5 75v-69q0 -70 -51 -119.5t-122.5 -70.5t-152.5 -21q-55 0 -114.5 12.5t-124.5 43t-115.5 75t-83.5 116t-33 158.5q0 115 27.5 202t76 143t121.5 91t156.5 49.5t188.5 14.5q54 0 176 -8q0 44 -18.5 103.5t-53.5 122
t-79.5 116t-104 87.5t-119.5 34q-87 0 -153.5 -26.5t-131.5 -88.5v80q0 46 5.5 77.5t25 65t54.5 53.5t96.5 32.5t148.5 12.5q379 0 520 -555q20 -58 71.5 -83t147.5 -25z" />
    <glyph glyph-name="jeem.init" unicode="&#x62c;" horiz-adv-x="1107" arabic-form="initial" 
d="M510 -358q-51 0 -84 33.5t-33 84.5q0 48 33.5 82.5t83.5 34.5q47 0 82 -35t35 -82q0 -50 -34.5 -84t-82.5 -34zM-10 0v205h776q-8 34 -17.5 67t-27.5 81t-38.5 88.5t-51 83t-65 72t-80.5 48.5t-97 19q-87 0 -152.5 -26t-132.5 -89v78q0 46 6 78.5t26 65.5t55.5 53.5
t97 33t147.5 12.5q116 0 210.5 -50.5t156.5 -132.5t104 -189.5t60 -217t18 -219.5q0 -116 -16 -192q-28 58 -115 90.5t-205 40.5h-659z" />
    <glyph glyph-name="jeem.medi" unicode="&#x62c;" horiz-adv-x="1122" arabic-form="medial" 
d="M465 -354q-51 0 -84 33t-33 83t33 83.5t84 33.5q48 0 82.5 -34t34.5 -83t-34.5 -82.5t-82.5 -33.5zM-10 0v205h766q-9 36 -18.5 67.5t-27.5 80.5t-38 88.5t-51 82.5t-65 72.5t-80 48.5t-97 19q-87 0 -153.5 -26.5t-133.5 -88.5v78q0 46 6 78.5t26 65t56 52.5t97.5 32.5
t148.5 12.5q102 0 188 -40.5t145 -105.5t103.5 -153.5t69.5 -178t37 -185.5h184v-205h-1163z" />
    <glyph glyph-name="hah.fina" unicode="&#x62d;" horiz-adv-x="1267" arabic-form="final" 
d="M1298 205h21v-205h-53q-132 0 -213 59v-2q0 -6 -29.5 -19t-99 -26.5t-152.5 -13.5q-45 0 -70 2q-172 0 -269 -63t-97 -173v-8v-35.5t5.5 -46t16 -54.5t33 -51.5t54 -47t82 -31t114.5 -12.5q85 0 168.5 29t130.5 75v-69q0 -70 -51 -119.5t-122.5 -70.5t-152.5 -21
q-55 0 -114.5 12.5t-124.5 43t-115.5 75t-83.5 116t-33 158.5q0 115 27.5 202t76 143t121.5 91t156.5 49.5t188.5 14.5q54 0 176 -8q0 44 -18.5 103.5t-53.5 122t-79.5 116t-104 87.5t-119.5 34q-87 0 -153.5 -26.5t-131.5 -88.5v80q0 46 5.5 77.5t25 65t54.5 53.5
t96.5 32.5t148.5 12.5q379 0 520 -555q20 -58 71.5 -83t147.5 -25z" />
    <glyph glyph-name="hah.init" unicode="&#x62d;" horiz-adv-x="1107" arabic-form="initial" 
d="M-10 0v205h776q-8 34 -17.5 67t-27.5 81t-38.5 88.5t-51 83t-65 72t-80.5 48.5t-97 19q-87 0 -152.5 -26t-132.5 -89v78q0 46 6 78.5t26 65.5t55.5 53.5t97 33t147.5 12.5q116 0 210.5 -50.5t156.5 -132.5t104 -189.5t60 -217t18 -219.5q0 -116 -16 -192
q-28 58 -115 90.5t-205 40.5h-659z" />
    <glyph glyph-name="hah.medi" unicode="&#x62d;" horiz-adv-x="1124" arabic-form="medial" 
d="M-10 0v205h768q-9 36 -18.5 67.5t-27.5 80.5t-38 88.5t-51 82.5t-65 72.5t-80 48.5t-97 19q-88 0 -154 -26t-133 -89v78q0 46 6 78t25.5 65t55 53t97 32.5t148.5 12.5q102 0 188.5 -40.5t145.5 -105.5t103.5 -154t69 -178t36.5 -185h186v-205h-1165z" />
    <glyph glyph-name="khah.fina" unicode="&#x62e;" horiz-adv-x="1267" arabic-form="final" 
d="M1298 205h21v-205h-53q-132 0 -213 59v-2q0 -6 -29.5 -19t-99 -26.5t-152.5 -13.5q-45 0 -70 2q-172 0 -269 -63t-97 -173v-8v-35.5t5.5 -46t16 -54.5t33 -51.5t54 -47t82 -31t114.5 -12.5q85 0 168.5 29t130.5 75v-69q0 -70 -51 -119.5t-122.5 -70.5t-152.5 -21
q-55 0 -114.5 12.5t-124.5 43t-115.5 75t-83.5 116t-33 158.5q0 115 27.5 202t76 143t121.5 91t156.5 49.5t188.5 14.5q54 0 176 -8q0 44 -18.5 103.5t-53.5 122t-79.5 116t-104 87.5t-119.5 34q-87 0 -153.5 -26.5t-131.5 -88.5v80q0 46 5.5 77.5t25 65t54.5 53.5
t96.5 32.5t148.5 12.5q379 0 520 -555q20 -58 71.5 -83t147.5 -25zM553 1024q-49 0 -82 34.5t-33 84.5q0 49 32.5 81.5t82.5 32.5t85.5 -32.5t35.5 -81.5t-35.5 -84t-85.5 -35z" />
    <glyph glyph-name="khah.init" unicode="&#x62e;" horiz-adv-x="1107" arabic-form="initial" 
d="M418 1024q-49 0 -82 35t-33 86q0 48 33 81.5t82 33.5t84 -34t35 -81q0 -51 -34.5 -86t-84.5 -35zM-10 0v205h776q-8 34 -17.5 67t-27.5 81t-38.5 88.5t-51 83t-65 72t-80.5 48.5t-97 19q-87 0 -152.5 -26t-132.5 -89v78q0 46 6 78.5t26 65.5t55.5 53.5t97 33t147.5 12.5
q116 0 210.5 -50.5t156.5 -132.5t104 -189.5t60 -217t18 -219.5q0 -116 -16 -192q-28 58 -115 90.5t-205 40.5h-659z" />
    <glyph glyph-name="khah.medi" unicode="&#x62e;" horiz-adv-x="1124" arabic-form="medial" 
d="M-10 0v205h768q-9 36 -18.5 67.5t-27.5 80.5t-38 88.5t-51 82.5t-65 72.5t-80 48.5t-97 19q-88 0 -154 -26t-133 -89v78q0 46 6 78t25.5 65t55 53t97 32.5t148.5 12.5q102 0 188.5 -40.5t145.5 -105.5t103.5 -154t69 -178t36.5 -185h186v-205h-1165zM414 1024
q-50 0 -82.5 34.5t-32.5 84.5t32 82t83 32q48 0 83 -32.5t35 -81.5t-35 -84t-83 -35z" />
    <glyph glyph-name="dal.fina" unicode="&#x62f;" horiz-adv-x="1101" arabic-form="final" 
d="M1100 205h22v-205h-12q-98 0 -152 15.5t-108 66.5q-28 -27 -44.5 -40.5t-46.5 -27.5t-61 -14h-483q-54 0 -83.5 36.5t-29.5 86.5v82h566q0 72 -19.5 138t-42.5 105t-55 74t-44 44t-22 16q-96 61 -204 61q-52 0 -101 -8l41 65q35 57 79.5 85t107.5 28q38 0 88 -12
q7 0 38.5 -11t86.5 -44t92 -78q104 -131 143 -275q12 -37 17.5 -52.5t16.5 -40.5t18 -34t21 -23.5t27.5 -18.5t35.5 -10.5t47.5 -7.5t60.5 -1z" />
    <glyph glyph-name="thal.fina" unicode="&#x630;" horiz-adv-x="1101" arabic-form="final" 
d="M455 1024q-49 0 -83 34.5t-34 84.5q0 49 33.5 81.5t83.5 32.5q48 0 82 -32.5t34 -81.5t-34.5 -84t-81.5 -35zM1100 205h22v-205h-12q-98 0 -152 15.5t-108 66.5q-28 -27 -44.5 -40.5t-46.5 -27.5t-61 -14h-483q-54 0 -83.5 36.5t-29.5 86.5v82h566q0 72 -19.5 138
t-42.5 105t-55 74t-44 44t-22 16q-96 61 -204 61q-52 0 -101 -8l41 65q35 57 79.5 85t107.5 28q38 0 88 -12q7 0 38.5 -11t86.5 -44t92 -78q104 -131 143 -275q12 -37 17.5 -52.5t16.5 -40.5t18 -34t21 -23.5t27.5 -18.5t35.5 -10.5t47.5 -7.5t60.5 -1z" />
    <glyph glyph-name="reh.fina" unicode="&#x631;" horiz-adv-x="733" arabic-form="final" 
d="M563 0h-16v-80q0 -113 -81 -195.5t-206 -82.5q-76 0 -122 33t-46 92v86q55 -9 84 -9q25 0 44.5 4.5t34 11t25.5 21t18 26.5t11.5 35t7 40t3 48t0.5 52t-0.5 60t-0.5 63v495h89q85 0 118 -37t33 -126v-328q24 -4 47 -4h137v-205h-180z" />
    <glyph glyph-name="zain.fina" unicode="&#x632;" horiz-adv-x="712" arabic-form="final" 
d="M350 840q-67 33 -67 108q0 48 33 82.5t83 34.5q48 0 82.5 -34t34.5 -83q0 -50 -35 -84.5t-82 -34.5q-23 0 -49 11zM543 0h-17v-80q0 -113 -80.5 -195.5t-205.5 -82.5q-76 0 -122 33t-46 92v86q56 -9 84 -9q25 0 44.5 4.5t34 11t25.5 21t18 26.5t11.5 35t7 40t3 48t0.5 52
t-0.5 60t-0.5 63v495h88q85 0 118.5 -37t33.5 -126v-328q24 -4 47 -4h137v-205h-180z" />
    <glyph glyph-name="seen.fina" unicode="&#x633;" horiz-adv-x="2560" arabic-form="final" 
d="M2486 205h94v-205h-77q-157 0 -236 90q-41 -43 -116 -65.5t-148 -24.5h-16q-198 0 -297 74q-74 -74 -297 -74h-152q-24 -114 -117 -208t-217 -144.5t-248 -50.5q-165 0 -298 83t-206 222.5t-73 306.5q0 137 56 222t161 85h74q-59 -52 -87 -138t-28 -167q0 -103 45 -195
t131 -150.5t193 -58.5q195 0 298 97.5t103 263.5v639h105q47 0 89 -34t42 -83v-485h178q71 7 102 44t31 109v449h74q159 0 159 -160v-170q0 -124 -14 -217q38 -55 164 -55q89 7 123.5 43.5t34.5 109.5v449h75q162 0 162 -160v-133q2 -23 2 -70v-108q4 -67 39 -99t92 -32z
" />
    <glyph glyph-name="seen.init" unicode="&#x633;" horiz-adv-x="1609" arabic-form="initial" 
d="M1366 807q162 0 162 -160v-297q0 -151 -89.5 -247.5t-260.5 -102.5h-19q-28 0 -63 2t-110.5 21t-121.5 53q-4 -2 -12 -10q-95 -66 -287 -66h-585v205h221v602h104q47 0 89 -34t42 -83v-485h178q71 7 102.5 45t31.5 110v447h73q160 0 160 -160v-168q0 -143 -14 -217
q39 -57 166 -57q88 7 122.5 44.5t34.5 110.5v447h76z" />
    <glyph glyph-name="seen.medi" unicode="&#x633;" horiz-adv-x="1734" arabic-form="medial" 
d="M1661 205h94v-205h-78q-156 0 -235 90q-41 -44 -115 -66t-149 -24h-17q-198 0 -297 74q-74 -74 -297 -74h-587v205h223v602h104q47 0 89 -34t42 -83v-485h178q71 7 102.5 44t31.5 109v449h73q160 0 160 -160v-170q0 -124 -14 -217q38 -55 164 -55q89 7 123 43.5t34 109.5
v449h76q162 0 162 -160q0 -89 1 -169.5t1 -141.5q4 -67 39 -99t92 -32z" />
    <glyph glyph-name="sheen.fina" unicode="&#x634;" horiz-adv-x="2560" arabic-form="final" 
d="M2486 205h94v-205h-77q-157 0 -236 90q-41 -43 -116 -65.5t-148 -24.5h-16q-198 0 -297 74q-74 -74 -297 -74h-152q-24 -114 -117 -208t-217 -144.5t-248 -50.5q-165 0 -298 83t-206 222.5t-73 306.5q0 137 56 222t161 85h74q-59 -52 -87 -138t-28 -167q0 -103 45 -195
t131 -150.5t193 -58.5q195 0 298 97.5t103 263.5v639h105q47 0 89 -34t42 -83v-485h178q71 7 102 44t31 109v449h74q159 0 159 -160v-170q0 -124 -14 -217q38 -55 164 -55q89 7 123.5 43.5t34.5 109.5v449h75q162 0 162 -160v-133q2 -23 2 -70v-108q4 -67 39 -99t92 -32z
M1554 1024q-48 0 -83 35t-35 84q0 48 35.5 84.5t82.5 36.5t82 -36.5t35 -84.5q0 -49 -34.5 -84t-82.5 -35zM1819 1024q-46 0 -81.5 35t-35.5 84q0 47 35.5 84t81.5 37q47 0 83.5 -37t36.5 -84q0 -49 -36 -84t-84 -35zM1686 1257q-44 0 -75.5 32.5t-31.5 74.5q0 44 31.5 76.5
t75.5 32.5q42 0 74 -32.5t32 -76.5q0 -41 -32.5 -74t-73.5 -33z" />
    <glyph glyph-name="sheen.init" unicode="&#x634;" horiz-adv-x="1609" arabic-form="initial" 
d="M1366 807q162 0 162 -160v-297q0 -151 -89.5 -247.5t-260.5 -102.5h-19q-28 0 -63 2t-110.5 21t-121.5 53q-4 -2 -12 -10q-95 -66 -287 -66h-585v205h221v602h104q47 0 89 -34t42 -83v-485h178q71 7 102.5 45t31.5 110v447h73q160 0 160 -160v-168q0 -143 -14 -217
q39 -57 166 -57q88 7 122.5 44.5t34.5 110.5v447h76zM729 1024q-48 0 -83.5 35t-35.5 84q0 47 36 84t83 37t82 -36.5t35 -84.5q0 -49 -34.5 -84t-82.5 -35zM993 1024q-46 0 -81 35t-35 84q0 47 35 84t81 37q47 0 84 -37t37 -84q0 -49 -36.5 -84t-84.5 -35zM860 1257
q-43 0 -74.5 32.5t-31.5 74.5q0 45 31 77t75 32q42 0 74.5 -32.5t32.5 -76.5q0 -41 -33 -74t-74 -33z" />
    <glyph glyph-name="sheen.medi" unicode="&#x634;" horiz-adv-x="1734" arabic-form="medial" 
d="M1661 205h94v-205h-78q-156 0 -235 90q-41 -44 -115 -66t-149 -24h-17q-198 0 -297 74q-74 -74 -297 -74h-587v205h223v602h104q47 0 89 -34t42 -83v-485h178q71 7 102.5 44t31.5 109v449h73q160 0 160 -160v-170q0 -124 -14 -217q38 -55 164 -55q89 7 123 43.5t34 109.5
v449h76q162 0 162 -160q0 -89 1 -169.5t1 -141.5q4 -67 39 -99t92 -32zM729 1024q-48 0 -83.5 35t-35.5 84q0 47 36 84t83 37t82 -36.5t35 -84.5q0 -49 -34.5 -84t-82.5 -35zM993 1024q-46 0 -81 35t-35 84q0 47 35 84t81 37q47 0 84 -37t37 -84q0 -49 -36.5 -84t-84.5 -35z
M860 1257q-43 0 -74.5 32.5t-31.5 74.5q0 45 31 77t75 32q42 0 74.5 -32.5t32.5 -76.5q0 -41 -33 -74t-74 -33z" />
    <glyph glyph-name="sad.fina" unicode="&#x635;" horiz-adv-x="2416" arabic-form="final" 
d="M2427 205h20v-203h-53q-98 0 -178 27q-22 -29 -47 -29h-885q-47 -178 -203.5 -296t-361.5 -118q-254 0 -415 157t-161 407q0 137 56 221t161 84h74q-59 -51 -87 -136.5t-28 -166.5q0 -155 102.5 -256t266.5 -101q193 0 295 98.5t102 266.5v516h45q36 0 52 -0.5t38.5 -5
t31.5 -13.5t19.5 -26t13.5 -43t3 -64v-35q103 171 237 275t287 104q96 0 175 -38.5t130.5 -100t86.5 -142.5t50 -162t15 -161v-31q58 -28 158 -28zM1581 588q-62 -42 -119.5 -115.5t-92.5 -143.5t-48 -124h754q0 49 -1.5 82t-8 81t-18.5 81t-35.5 70.5t-56 60.5t-82 39.5
t-112.5 19.5q-100 -3 -180 -51z" />
    <glyph glyph-name="sad.init" unicode="&#x635;" horiz-adv-x="1425" arabic-form="initial" 
d="M-20 0v205h176q0 18 -1 75t-1 91q0 78 1 190t1 115h47h4q27 0 39 -0.5t31 -2t27 -5.5t20 -11t17 -18t10.5 -27t7 -37.5t1.5 -50.5v-32q66 109 142.5 190.5t177 134.5t205.5 53q81 0 150 -27t118 -73.5t86.5 -106t59.5 -128.5t33 -137t11 -134q0 -112 -28.5 -188
t-73.5 -76h-1261zM393 205h746q0 14 1 42t1 44q0 68 -12 122.5t-43 107t-94.5 83.5t-155.5 35q-86 -3 -165 -49t-134 -114t-92 -138.5t-52 -132.5z" />
    <glyph glyph-name="sad.medi" unicode="&#x635;" horiz-adv-x="1538" arabic-form="medial" 
d="M-31 0v205h228v471h47q27 0 39.5 -0.5t32 -2t28 -5.5t21 -11t17 -18t10.5 -27t7.5 -37.5t1.5 -50.5v-35q102 170 235.5 274.5t287.5 104.5q97 0 176.5 -38.5t130.5 -100t86 -142.5t50 -162t15 -161v-59h187v-205h-1600zM1178 205q2 23 2 71q0 57 -6 102.5t-25 94.5
t-51.5 82.5t-89.5 57t-134 26.5q-69 -2 -134.5 -33.5t-114.5 -79t-90 -105.5t-66 -113t-37 -103h746z" />
    <glyph glyph-name="dad.fina" unicode="&#x636;" horiz-adv-x="2416" arabic-form="final" 
d="M1769 1022q-49 0 -81.5 34.5t-32.5 84.5q0 49 32.5 81.5t81.5 32.5q51 0 86 -32.5t35 -81.5q0 -50 -35 -84.5t-86 -34.5zM2427 205h20v-203h-53q-98 0 -178 27q-22 -29 -47 -29h-885q-47 -178 -203.5 -296t-361.5 -118q-254 0 -415 157t-161 407q0 137 56 221t161 84h74
q-59 -51 -87 -136.5t-28 -166.5q0 -155 102.5 -256t266.5 -101q193 0 295 98.5t102 266.5v516h45q36 0 52 -0.5t38.5 -5t31.5 -13.5t19.5 -26t13.5 -43t3 -64v-35q103 171 237 275t287 104q96 0 175 -38.5t130.5 -100t86.5 -142.5t50 -162t15 -161v-31q58 -28 158 -28z
M1581 588q-62 -42 -119.5 -115.5t-92.5 -143.5t-48 -124h754q0 49 -1.5 82t-8 81t-18.5 81t-35.5 70.5t-56 60.5t-82 39.5t-112.5 19.5q-100 -3 -180 -51z" />
    <glyph glyph-name="dad.init" unicode="&#x636;" horiz-adv-x="1425" arabic-form="initial" 
d="M-20 0v205h176q0 18 -1 75t-1 91q0 78 1 190t1 115h47h4q27 0 39 -0.5t31 -2t27 -5.5t20 -11t17 -18t10.5 -27t7 -37.5t1.5 -50.5v-32q66 109 142.5 190.5t177 134.5t205.5 53q81 0 150 -27t118 -73.5t86.5 -106t59.5 -128.5t33 -137t11 -134q0 -112 -28.5 -188
t-73.5 -76h-1261zM393 205h746q0 14 1 42t1 44q0 68 -12 122.5t-43 107t-94.5 83.5t-155.5 35q-86 -3 -165 -49t-134 -114t-92 -138.5t-52 -132.5zM844 1024q-49 0 -82 34.5t-33 84.5q0 48 33 81t82 33t84 -33.5t35 -80.5q0 -49 -34.5 -84t-84.5 -35z" />
    <glyph glyph-name="dad.medi" unicode="&#x636;" horiz-adv-x="1538" arabic-form="medial" 
d="M-31 0v205h228v471h47q27 0 39.5 -0.5t32 -2t28 -5.5t21 -11t17 -18t10.5 -27t7.5 -37.5t1.5 -50.5v-35q102 170 235.5 274.5t287.5 104.5q97 0 176.5 -38.5t130.5 -100t86 -142.5t50 -162t15 -161v-59h187v-205h-1600zM1178 205q2 23 2 71q0 57 -6 102.5t-25 94.5
t-51.5 82.5t-89.5 57t-134 26.5q-69 -2 -134.5 -33.5t-114.5 -79t-90 -105.5t-66 -113t-37 -103h746zM889 1022q-51 0 -85 34.5t-34 84.5q0 49 34 81.5t85 32.5q48 0 82.5 -32.5t34.5 -81.5t-34.5 -84t-82.5 -35z" />
    <glyph glyph-name="tah.fina" unicode="&#x637;" horiz-adv-x="1574" arabic-form="final" 
d="M260 0q-96 4 -137 39t-41 108v58h168q0 68 -1 536t-1 502h43q87 0 122.5 -33t35.5 -118v-600q102 169 236.5 273.5t289.5 104.5q96 0 175 -38.5t130.5 -100.5t86.5 -143t50 -162.5t15 -161.5q0 -10 -1 -30t-1 -29h176v-205h-1346zM1229 205q2 31 2 86q0 54 -7 99t-27 91
t-53 78.5t-89 54.5t-131 25q-86 -4 -165.5 -50.5t-134 -115t-91 -138t-52.5 -130.5h748z" />
    <glyph glyph-name="tah.init" unicode="&#x637;" horiz-adv-x="1390" arabic-form="initial" 
d="M-10 0v205h137q-2 125 -2 1038h43q86 0 122 -33.5t36 -117.5v-600q104 170 238 274t288 104q96 0 175 -38.5t130.5 -100.5t86.5 -143t50 -162.5t15 -161.5q0 -113 -28.5 -188.5t-74.5 -75.5h-1216zM358 205h748q2 29 2 86q0 336 -307 348q-69 -2 -134.5 -33.5t-115 -79
t-90.5 -105.5t-66 -113t-37 -103z" />
    <glyph glyph-name="tah.medi" unicode="&#x637;" horiz-adv-x="1509" arabic-form="medial" 
d="M-31 0v205h228q-2 127 -2 1036h45q85 0 121 -34.5t36 -116.5v-601q102 170 236 274.5t289 104.5q96 0 175.5 -38.5t130.5 -100t86.5 -142.5t50.5 -162t15 -161q0 -9 -1 -30t-1 -29h152v-205h-1561zM430 205h746q2 23 2 71q0 57 -6 102.5t-25.5 94.5t-52 82.5t-90 57
t-134.5 26.5q-68 -2 -133 -33.5t-114 -79t-90 -105.5t-66 -113t-37 -103z" />
    <glyph glyph-name="zah.fina" unicode="&#x638;" horiz-adv-x="1574" arabic-form="final" 
d="M938 1022q-49 0 -83 34.5t-34 84.5q0 49 33.5 81.5t83.5 32.5t83.5 -32.5t33.5 -81.5q0 -50 -34 -84.5t-83 -34.5zM260 0q-96 4 -137 39t-41 108v58h168q0 68 -1 536t-1 502h43q87 0 122.5 -33t35.5 -118v-600q102 169 236.5 273.5t289.5 104.5q96 0 175 -38.5
t130.5 -100.5t86.5 -143t50 -162.5t15 -161.5q0 -10 -1 -30t-1 -29h176v-205h-1346zM1229 205q2 31 2 86q0 54 -7 99t-27 91t-53 78.5t-89 54.5t-131 25q-86 -4 -165.5 -50.5t-134 -115t-91 -138t-52.5 -130.5h748z" />
    <glyph glyph-name="zah.init" unicode="&#x638;" horiz-adv-x="1390" arabic-form="initial" 
d="M813 1024q-49 0 -83 34.5t-34 84.5q0 47 34 80.5t83 33.5q48 0 82.5 -33.5t34.5 -80.5q0 -49 -34.5 -84t-82.5 -35zM-10 0v205h137q-2 125 -2 1038h43q86 0 122 -33.5t36 -117.5v-600q104 170 238 274t288 104q96 0 175 -38.5t130.5 -100.5t86.5 -143t50 -162.5
t15 -161.5q0 -113 -28.5 -188.5t-74.5 -75.5h-1216zM358 205h748q2 29 2 86q0 336 -307 348q-69 -2 -134.5 -33.5t-115 -79t-90.5 -105.5t-66 -113t-37 -103z" />
    <glyph glyph-name="zah.medi" unicode="&#x638;" horiz-adv-x="1509" arabic-form="medial" 
d="M-31 0v205h228q-2 127 -2 1036h45q85 0 121 -34.5t36 -116.5v-601q102 170 236 274.5t289 104.5q96 0 175.5 -38.5t130.5 -100t86.5 -142.5t50.5 -162t15 -161q0 -9 -1 -30t-1 -29h152v-205h-1561zM430 205h746q2 23 2 71q0 57 -6 102.5t-25.5 94.5t-52 82.5t-90 57
t-134.5 26.5q-68 -2 -133 -33.5t-114 -79t-90 -105.5t-66 -113t-37 -103zM883 1024q-49 0 -82 34.5t-33 84.5q0 49 32.5 81.5t82.5 32.5t85.5 -32.5t35.5 -81.5t-35.5 -84t-85.5 -35z" />
    <glyph glyph-name="ain.fina" unicode="&#x639;" horiz-adv-x="1282" arabic-form="final" 
d="M1204 205h109v-205h-117h-16q-57 0 -97 2t-110.5 11t-136 34t-119.5 64q-17 -17 -109 -60q-8 -4 -36.5 -12t-56 -16.5t-61.5 -27.5t-59 -44t-42 -68.5t-17 -97.5v-8v-35.5t5.5 -46t16 -54.5t33 -52t54 -47t82 -31t114.5 -13q84 0 167.5 30.5t131.5 76.5v-72
q0 -71 -51 -120t-122 -69t-153 -20q-55 0 -114.5 12.5t-124.5 43t-115.5 75t-83.5 115.5t-33 158q0 349 232 450q0 1 39.5 12t87 26t61.5 24q-68 95 -158.5 161t-164.5 84q0 21 5 82t5 95q23 9 64 31t95.5 53t88.5 49q6 13 90.5 41t146.5 28q82 0 162 -26t128 -57t104 -70.5
t79 -51.5q-37 -90 -124.5 -213.5t-186.5 -205.5q56 -37 141 -37q79 0 120.5 1t45.5 1zM748 350q122 104 243 273q-119 61 -233 61q-55 0 -109.5 -15t-86.5 -32t-66 -38t-41 -24q58 -28 153 -113.5t140 -111.5z" />
    <glyph glyph-name="ain.init" unicode="&#x639;" horiz-adv-x="1060" arabic-form="initial" 
d="M455 205h524v-92q0 -41 -34 -77t-85 -36h-880v205h227q-51 92 -51 217q0 126 46 226.5t140.5 162t224.5 61.5q55 0 108.5 -14t102 -42.5t83.5 -76.5t46 -110q0 -47 -20 -94l-31 -72q-22 72 -63 122.5t-88.5 73.5t-85 32t-70.5 9q-91 0 -140 -69t-49 -182q0 -179 95 -244z
" />
    <glyph glyph-name="ain.medi" unicode="&#x639;" horiz-adv-x="1140" arabic-form="medial" 
d="M1063 205h88v-205h-96q-147 0 -221 11q-156 24 -259 100q-43 -37 -145 -74t-211 -37h-229v205h286q111 0 146 33q-69 95 -159.5 162t-164.5 85q0 14 5.5 79t5.5 95q23 10 63.5 32.5t95.5 54t88 49.5q6 13 91.5 40t146.5 27q83 0 162.5 -26t127 -56t104.5 -70.5t79 -52.5
q-37 -90 -124.5 -213.5t-186.5 -205.5q57 -35 139 -35q80 0 122 1t46 1zM313 573q58 -28 153 -112.5t140 -110.5q124 102 244 271q-119 61 -234 61q-55 0 -109.5 -15t-86.5 -32t-66 -38t-41 -24z" />
    <glyph glyph-name="ghain.fina" unicode="&#x63a;" horiz-adv-x="1282" arabic-form="final" 
d="M1204 205h109v-205h-117h-16q-57 0 -97 2t-110.5 11t-136 34t-119.5 64q-17 -17 -109 -60q-8 -4 -36.5 -12t-56 -16.5t-61.5 -27.5t-59 -44t-42 -68.5t-17 -97.5v-8v-35.5t5.5 -46t16 -54.5t33 -52t54 -47t82 -31t114.5 -13q84 0 167.5 30.5t131.5 76.5v-72
q0 -71 -51 -120t-122 -69t-153 -20q-55 0 -114.5 12.5t-124.5 43t-115.5 75t-83.5 115.5t-33 158q0 349 232 450q0 1 39.5 12t87 26t61.5 24q-68 95 -158.5 161t-164.5 84q0 21 5 82t5 95q23 9 64 31t95.5 53t88.5 49q6 13 90.5 41t146.5 28q82 0 162 -26t128 -57t104 -70.5
t79 -51.5q-37 -90 -124.5 -213.5t-186.5 -205.5q56 -37 141 -37q79 0 120.5 1t45.5 1zM748 350q122 104 243 273q-119 61 -233 61q-55 0 -109.5 -15t-86.5 -32t-66 -38t-41 -24q58 -28 153 -113.5t140 -111.5zM733 1024q-50 0 -83.5 34.5t-33.5 84.5t33 82t84 32
q50 0 83.5 -32.5t33.5 -81.5q0 -50 -34 -84.5t-83 -34.5z" />
    <glyph glyph-name="ghain.init" unicode="&#x63a;" horiz-adv-x="1060" arabic-form="initial" 
d="M557 1024q-50 0 -83.5 34.5t-33.5 84.5t33 82t84 32q50 0 83.5 -32.5t33.5 -81.5q0 -50 -34 -84.5t-83 -34.5zM455 205h524v-92q0 -41 -34 -77t-85 -36h-880v205h227q-51 92 -51 217q0 126 46 226.5t140.5 162t224.5 61.5q55 0 108.5 -14t102 -42.5t83.5 -76.5t46 -110
q0 -47 -20 -94l-31 -72q-22 72 -63 122.5t-88.5 73.5t-85 32t-70.5 9q-91 0 -140 -69t-49 -182q0 -179 95 -244z" />
    <glyph glyph-name="ghain.medi" unicode="&#x63a;" horiz-adv-x="1140" arabic-form="medial" 
d="M598 1024q-50 0 -83.5 34.5t-33.5 84.5t33 82t84 32q50 0 83.5 -32.5t33.5 -81.5q0 -50 -34 -84.5t-83 -34.5zM1063 205h88v-205h-96q-147 0 -221 11q-156 24 -259 100q-43 -37 -145 -74t-211 -37h-229v205h286q111 0 146 33q-69 95 -159.5 162t-164.5 85q0 14 5.5 79
t5.5 95q23 10 63.5 32.5t95.5 54t88 49.5q6 13 91.5 40t146.5 27q83 0 162.5 -26t127 -56t104.5 -70.5t79 -52.5q-37 -90 -124.5 -213.5t-186.5 -205.5q57 -35 139 -35q80 0 122 1t46 1zM313 573q58 -28 153 -112.5t140 -110.5q124 102 244 271q-119 61 -234 61
q-55 0 -109.5 -15t-86.5 -32t-66 -38t-41 -24z" />
    <glyph glyph-name="feh.fina" unicode="&#x641;" horiz-adv-x="1851" arabic-form="final" 
d="M1282 1022q-50 0 -83.5 34t-33.5 83q0 50 34 84t83 34q51 0 85 -33t34 -83q0 -51 -34 -85t-85 -34zM1841 205h41v-205h-72q-81 0 -147 19.5t-96 50.5l-2 -7v5q-95 -68 -248 -68h-772q-78 0 -142 19t-105 48.5t-71 72.5t-46 82.5t-25 87.5t-11 78.5t-2 64.5q0 156 52 247
t167 91h74q-59 -51 -88 -138t-29 -168q0 -280 201 -280h410q-58 91 -58 217t46 226.5t141 162t225 61.5q184 0 295.5 -138.5t108.5 -350.5l-2 -141q37 -37 155 -37zM1266 700q-93 0 -142 -68.5t-49 -182.5q0 -51 11 -90.5t31 -64.5t46.5 -43t57.5 -26t65 -13.5t67.5 -5
t66 -0.5t61.5 -1q0 23 1 74.5t1 78.5q0 59 -3.5 102.5t-16.5 91.5t-36 78t-64 50t-97 20z" />
    <glyph glyph-name="feh.init" unicode="&#x641;" horiz-adv-x="1042" arabic-form="initial" 
d="M555 1024q-49 0 -83 34t-34 83q0 50 34 84.5t83 34.5q51 0 85 -33.5t34 -83.5q0 -51 -34 -85t-85 -34zM881 698q80 -125 80 -315v-383h-242h-729v205h209q-54 85 -54 217q0 126 46 226.5t141 162t225 61.5q101 0 187 -44t137 -130zM754 205q0 23 1 74.5t1 78.5
q0 59 -3.5 102.5t-16.5 91.5t-36 78t-64 50t-97 20q-93 0 -142 -68.5t-49 -182.5q0 -51 11 -90.5t31 -64.5t46.5 -43t57.5 -26t65 -13.5t67.5 -5t66.5 -0.5t61 -1z" />
    <glyph glyph-name="feh.medi" unicode="&#x641;" horiz-adv-x="1130" arabic-form="medial" 
d="M555 1022q-49 0 -83 34t-34 83q0 50 34 84t83 34q51 0 85 -33t34 -83q0 -51 -34 -85t-85 -34zM961 205h180v-205h-1151v205h209q-54 85 -54 217q0 126 46 226.5t141 162t225 61.5q184 0 294 -137.5t110 -351.5v-178zM539 700q-93 0 -142 -68.5t-49 -182.5q0 -51 11 -90.5
t31 -64.5t46.5 -43t57.5 -26t65 -13.5t67.5 -5t66.5 -0.5t61 -1q0 23 1 74.5t1 78.5q0 59 -3.5 102.5t-16.5 91.5t-36 78t-64 50t-97 20z" />
    <glyph glyph-name="qaf.fina" unicode="&#x642;" horiz-adv-x="1439" arabic-form="final" 
d="M1024 1026q-50 0 -84.5 34t-34.5 83q0 48 35 82.5t84 34.5q47 0 82 -35t35 -82q0 -49 -34.5 -83t-82.5 -34zM748 1026q-48 0 -82.5 34t-34.5 83q0 47 35 82t82 35q49 0 83.5 -34.5t34.5 -82.5q0 -49 -34 -83t-84 -34zM1460 205v-205h-196q-50 -164 -195.5 -275.5
t-345.5 -111.5q-121 0 -227 42t-184.5 118t-123.5 189.5t-45 250.5q0 140 63.5 215.5t145.5 75.5h66q-43 -57 -66.5 -143t-23.5 -175q0 -157 103 -258.5t261 -101.5q136 0 223.5 46.5t124.5 127.5q-59 2 -109.5 7t-110.5 17t-107.5 31t-94.5 51t-78 74.5t-50 103.5t-19 136
q0 126 46 226.5t141 162t225 61.5q84 0 153.5 -28.5t115 -75.5t77 -111t45 -132.5t12.5 -141.5l-2 -176h176zM674 446q0 -64 19 -110t46.5 -71t70.5 -39.5t80.5 -18.5t86.5 -4q19 0 54 1t50 1q0 22 1 71.5t1 75.5q0 59 -3.5 103t-17 92.5t-36.5 79t-64 51t-98 20.5
q-92 0 -141 -69t-49 -183z" />
    <glyph glyph-name="qaf.init" unicode="&#x642;" horiz-adv-x="1042" arabic-form="initial" 
d="M881 698q80 -125 80 -315v-383h-242h-729v205h209q-54 85 -54 217q0 126 46 226.5t141 162t225 61.5q101 0 187 -44t137 -130zM754 205q0 23 1 74.5t1 78.5q0 59 -3.5 102.5t-16.5 91.5t-36 78t-64 50t-97 20q-93 0 -142 -68.5t-49 -182.5q0 -51 11 -90.5t31 -64.5
t46.5 -43t57.5 -26t65 -13.5t67.5 -5t66.5 -0.5t61 -1zM422 1026q-50 0 -84.5 34t-34.5 83t34.5 83t84.5 34t83.5 -34t33.5 -83t-33.5 -83t-83.5 -34zM698 1026q-51 0 -84.5 33.5t-33.5 83.5t33.5 83.5t84.5 33.5q47 0 82 -34t35 -83t-35 -83t-82 -34z" />
    <glyph glyph-name="qaf.medi" unicode="&#x642;" horiz-adv-x="1130" arabic-form="medial" 
d="M424 1026q-50 0 -84.5 34t-34.5 83t34.5 83t84.5 34t83.5 -34t33.5 -83t-33.5 -83t-83.5 -34zM700 1026q-51 0 -84.5 33.5t-33.5 83.5t33.5 83.5t84.5 33.5q47 0 82 -34t35 -83t-35 -83t-82 -34zM961 205h180v-205h-1151v205h209q-54 85 -54 217q0 126 46 226.5t141 162
t225 61.5q184 0 294 -137.5t110 -351.5v-178zM539 700q-93 0 -142 -68.5t-49 -182.5q0 -51 11 -90.5t31 -64.5t46.5 -43t57.5 -26t65 -13.5t67.5 -5t66.5 -0.5t61 -1q0 23 1 74.5t1 78.5q0 59 -3.5 102.5t-16.5 91.5t-36 78t-64 50t-97 20z" />
    <glyph glyph-name="kaf.fina" unicode="&#x643;" horiz-adv-x="1712" arabic-form="final" 
d="M1733 205h20v-205h-53q-193 0 -301 96q-93 -90 -260 -96h-596q-79 0 -142.5 19.5t-104.5 48.5t-71 72.5t-45.5 82.5t-24 87.5t-10.5 78.5t-2 64q0 100 19.5 172.5t69.5 119t128 46.5h74q-59 -51 -87 -137.5t-28 -168.5q0 -24 0.5 -41t4.5 -49t11 -54.5t22 -50t35.5 -44.5
t52.5 -29t73 -12h610q132 14 132 153v883h73q160 0 160 -162v-676q9 -110 61.5 -154t178.5 -44zM813 727h178v-41q0 -19 -14 -33t-37 -14h-248q-22 0 -35.5 14.5t-13.5 32.5v41h68q-9 20 -9 61q0 67 38.5 111.5t105.5 44.5q44 0 78.5 -22t44.5 -68q0 -16 -5 -31t-14 -32
t-12 -27q-16 58 -44.5 80t-53.5 22q-47 0 -47 -71q0 -55 20 -68z" />
    <glyph glyph-name="kaf.init" unicode="&#x643;" horiz-adv-x="1050" arabic-form="initial" 
d="M969 1380q20 -23 20 -69q0 -53 -35 -78l-559 -420q20 0 74 -12l7 -2q7 -2 20.5 -6.5t30.5 -11t38 -17.5t41.5 -24t42 -32t39.5 -40q166 -200 166 -463v-205h-874v205h661q0 73 -19 139t-42 105t-55 73.5t-44 43.5t-22 16q-99 61 -205 61q-48 0 -100 -8h2l-47 61
q-27 34 -27 72q0 61 57 104l774 580z" />
    <glyph glyph-name="kaf.medi" unicode="&#x643;" horiz-adv-x="1007" arabic-form="medial" 
d="M893 1452l55 -72q21 -28 21 -69q0 -53 -35 -78q-93 -70 -279.5 -209.5t-279.5 -210.5q20 0 74 -12q6 0 26.5 -6.5t56.5 -25t75 -46t80 -75t73.5 -107t53 -147t20.5 -189.5h194v-205h-1048v205h641q0 73 -19.5 139t-42.5 105t-55 73.5t-43.5 43.5t-22.5 16q-99 61 -202 61
q-52 0 -101 -8q-5 7 -23.5 29.5t-26 33.5t-16 31t-8.5 39q0 60 58 104q171 129 774 580z" />
    <glyph glyph-name="lam.fina" unicode="&#x644;" horiz-adv-x="1443" arabic-form="final" 
d="M1104 1235q79 0 119.5 -41.5t40.5 -120.5v-694q0 -101 -2 -131q55 -43 182 -43h20v-205h-53q-119 0 -182 35q-18 -67 -45.5 -124.5t-74 -115.5t-106.5 -98.5t-148.5 -66t-195.5 -25.5q-165 0 -298 83t-206 222.5t-73 306.5q0 137 56 222t161 85h74q-59 -52 -87 -138
t-28 -167q0 -77 27 -149.5t74 -129t117.5 -90.5t150.5 -34q75 0 134 16.5t110.5 56.5t85 103.5t52.5 161t19 225.5v856h76z" />
    <glyph glyph-name="lam.init" unicode="&#x644;" horiz-adv-x="505" arabic-form="initial" 
d="M242 1237q161 0 161 -160v-729q0 -151 -89.5 -246.5t-260.5 -101.5h-73v205h55q70 6 100.5 44t30.5 109v879h76z" />
    <glyph glyph-name="lam.medi" unicode="&#x644;" horiz-adv-x="561" arabic-form="medial" 
d="M582 205h20v-205h-53q-91 0 -149.5 23t-116.5 73q-55 -52 -131.5 -74t-192.5 -22v205h49q71 7 102 45t31 110v879h74q160 0 160 -160v-667q4 -62 12 -96.5t30 -62t61 -38t104 -10.5z" />
    <glyph glyph-name="meem.fina" unicode="&#x645;" horiz-adv-x="1409" arabic-form="final" 
d="M1372 205h68v-205h-49q-168 0 -244 102q-113 -102 -281 -102q-107 0 -190 47q-8 -13 -25 -47t-31 -61.5t-42 -62.5t-59 -59t-80 -40.5t-107 -16.5l-23 2q-166 3 -166 146v57h146q59 0 99 20.5t59 58.5t26.5 79t7.5 96q0 38 -4 107t-4 96q0 126 46 226.5t141 162t225 61.5
q121 0 212.5 -60t137 -155.5t45.5 -207.5q0 -119 -39 -207q18 -24 48.5 -30.5t82.5 -6.5zM885 172q93 0 141.5 68.5t48.5 181.5q0 134 -52 206t-157 72q-92 0 -141 -68.5t-49 -182.5q0 -133 51.5 -205t157.5 -72z" />
    <glyph glyph-name="meem.init" unicode="&#x645;" horiz-adv-x="1089" arabic-form="initial" 
d="M-61 205h20q138 0 188.5 55t53.5 195q0 110 47 203.5t138.5 152.5t209.5 59q129 0 224 -61t141.5 -161t46.5 -226q0 -112 -46 -206.5t-137 -154t-211 -59.5q-178 0 -297 119q-112 -121 -325 -121h-53v205zM596 174q207 0 207 275q0 112 -49 180.5t-140 68.5
q-208 0 -208 -276q0 -113 49 -180.5t141 -67.5z" />
    <glyph glyph-name="meem.medi" unicode="&#x645;" horiz-adv-x="1224" arabic-form="medial" 
d="M1245 205h21v-205h-54q-210 0 -319 115q-112 -115 -279 -115q-181 0 -297 119q-113 -119 -325 -119h-53v205h20q138 0 188.5 54t53.5 194q0 110 46.5 203.5t138 152.5t210.5 59q129 0 224 -61t141.5 -161t46.5 -226q0 -117 54 -166t183 -49zM596 172q207 0 207 274
q0 114 -49 182t-140 68q-211 0 -211 -276q0 -113 49.5 -180.5t143.5 -67.5z" />
    <glyph glyph-name="noon.fina" unicode="&#x646;" horiz-adv-x="1443" arabic-form="final" 
d="M1104 700q79 0 119.5 -41.5t40.5 -119.5v-160q0 -101 -2 -131q55 -43 182 -43h20v-205h-53q-119 0 -182 35q-18 -67 -45.5 -124.5t-74 -115.5t-106.5 -98.5t-148.5 -66t-195.5 -25.5q-165 0 -298 83t-206 222.5t-73 306.5q0 137 56 222t161 85h74q-59 -52 -87 -138
t-28 -167q0 -77 27 -149.5t74 -129t117.5 -90.5t150.5 -34q75 0 134 16.5t110.5 56.5t85 103.5t52.5 161t19 225.5v321h76zM682 719q-49 0 -83 34.5t-34 84.5q0 51 33.5 84.5t83.5 33.5q51 0 86 -33.5t35 -84.5q0 -50 -35 -84.5t-86 -34.5z" />
    <glyph glyph-name="noon.init" unicode="&#x646;" horiz-adv-x="626" arabic-form="initial" 
d="M496 946q0 -49 -35.5 -84t-81.5 -35q-49 0 -83 34.5t-34 84.5t34 83.5t83 33.5q48 0 82.5 -34t34.5 -83zM346 698q158 0 158 -161v-189q0 -149 -89 -245.5t-257 -102.5h-189v205h170q69 7 100 45t31 110v338h76z" />
    <glyph glyph-name="noon.medi" unicode="&#x646;" horiz-adv-x="608" arabic-form="medial" 
d="M424 946q0 -48 -37 -83.5t-80 -35.5q-48 0 -82.5 35t-34.5 84q0 50 33 83.5t84 33.5q48 0 82.5 -34t34.5 -83zM424 412q6 -109 53.5 -156.5t161.5 -50.5v-205h-8q-189 0 -299 96q-93 -90 -256 -96h-107v205h88q71 6 102 43.5t31 109.5v338h74q160 0 160 -159v-125z" />
    <glyph glyph-name="heh.fina" unicode="&#x647;" horiz-adv-x="1169" arabic-form="final" 
d="M1053 205h145v-205h-96q-295 2 -377 -2q-60 1 -111.5 5.5t-113 16.5t-110 31t-96.5 51t-80 74.5t-51.5 105t-19.5 138.5q0 126 46 226.5t141 162t225 61.5q80 0 150 -28v2q65 -26 115 -75t80 -111.5t44.5 -132.5t13.5 -144l-2 -176h97zM346 446q0 -49 13 -87.5t31 -63.5
t50 -43t58.5 -26.5t68 -13.5t66 -5.5t66 -1t55.5 -0.5q0 22 1 71.5t1 75.5q0 59 -3.5 103t-17 92.5t-36.5 79t-64 51t-98 20.5q-93 0 -142 -69t-49 -183z" />
    <glyph glyph-name="heh.init" unicode="&#x647;" horiz-adv-x="1189" arabic-form="initial" 
d="M279 0h-9h-290v205h241q-84 94 -84 209q0 138 85.5 215.5t215.5 77.5q80 0 141.5 -32t96 -85.5t51.5 -117t16 -134.5l-2 -133h148q12 53 12 127q0 70 -13.5 138t-46.5 136t-82 119t-126.5 83t-173.5 32q-88 0 -154 -26t-133 -89v80q0 45 6 77t26 65t55.5 52.5t97 32
t147.5 12.5q133 0 238.5 -44t173 -115.5t112 -169.5t62.5 -199t18 -211q0 -189 -47 -305q-85 0 -113.5 0.5t-83 3t-77 8t-51.5 17t-52 28.5q-60 -31 -140.5 -44t-264.5 -13zM301 387q0 -7 0.5 -14t5.5 -27t14.5 -36t29.5 -36.5t48 -34.5t73 -24t101 -10v36q2 34 0.5 70.5
t-4 71t-12.5 66t-25 55t-41.5 37.5t-62.5 14q-61 0 -94 -46t-33 -122z" />
    <glyph glyph-name="heh.medi" unicode="&#x647;" horiz-adv-x="1259" arabic-form="medial" 
d="M1104 205h176v-205h-346h-41q-133 0 -209 55q-59 -30 -139 -42.5t-266 -12.5h-299v205h241q-84 94 -84 209q0 138 85 214.5t216 76.5q80 0 141.5 -32t96 -85.5t51.5 -117t16 -134.5l-2 -131h148q12 56 12 127q0 70 -13.5 138t-46.5 136t-82 119t-126.5 83t-173.5 32
q-88 0 -154 -26t-133 -89v80q0 45 6 77t26 65t55.5 52.5t97 32t147.5 12.5q133 0 238.5 -44t173 -115.5t112 -169.5t62.5 -199t18 -211q0 -6 -4 -100zM573 205q0 12 0.5 41.5t0.5 46t-1 46t-3.5 47t-7.5 43t-12 41t-18.5 33t-25.5 27.5t-34 16.5t-44 6.5q-61 0 -94 -46
t-33 -122q0 -10 1.5 -23t16.5 -44t40.5 -53.5t81.5 -41t132 -18.5z" />
    <glyph glyph-name="waw.fina" unicode="&#x648;" horiz-adv-x="1083" arabic-form="final" 
d="M1114 205v-205h-231q-11 -49 -34 -95t-65.5 -93t-99.5 -81.5t-142 -56.5t-188 -22q-65 0 -104 28t-39 70v74q365 11 453 176q-582 9 -582 430q0 94 27 176t78 143.5t130 96.5t177 35q90 0 160.5 -30t114.5 -78t73.5 -113.5t41.5 -130.5t13 -136l-2 -188h219zM692 205
q-1 30 -1.5 80t-0.5 86.5t-4 83.5t-11 80.5t-22.5 68t-38 56t-58 35.5t-81.5 14q-92 0 -141 -68.5t-49 -181.5q0 -67 19 -115.5t47.5 -75t71.5 -42t80 -19.5t85 -4q21 0 56 1t48 1z" />
    <glyph glyph-name="alefmaksura.fina" unicode="&#x649;" horiz-adv-x="1890" arabic-form="final" 
d="M1522 0v659q-73 -1 -130.5 -15.5t-97 -36t-69.5 -59.5t-47.5 -73.5t-30 -92t-18 -100t-11.5 -110.5q-5 -68 -11.5 -119t-20.5 -105t-34 -93t-51 -74.5t-72.5 -57t-99 -34.5t-129.5 -13q-275 0 -416 137t-141 398q0 159 66.5 252.5t181.5 93.5l107 -10q-7 -3 -18 -10
t-39 -33.5t-50 -59.5t-39.5 -91t-17.5 -126q0 -67 5.5 -112t27.5 -94.5t61.5 -79t111 -49.5t173.5 -21h4q65 0 105.5 27t58.5 76t25.5 110t12 136t11 147t29 150t61.5 138q136 215 516 215h190v-665h185v-205h-389z" />
    <glyph glyph-name="yeh.fina" unicode="&#x64a;" horiz-adv-x="1890" arabic-form="final" 
d="M1522 0v659q-73 -1 -130.5 -15.5t-97 -36t-69.5 -59.5t-47.5 -73.5t-30 -92t-18 -100t-11.5 -110.5q-5 -68 -11.5 -119t-20.5 -105t-34 -93t-51 -74.5t-72.5 -57t-99 -34.5t-129.5 -13q-275 0 -416 137t-141 398q0 159 66.5 252.5t181.5 93.5l107 -10q-7 -3 -18 -10
t-39 -33.5t-50 -59.5t-39.5 -91t-17.5 -126q0 -67 5.5 -112t27.5 -94.5t61.5 -79t111 -49.5t173.5 -21h4q65 0 105.5 27t58.5 76t25.5 110t12 136t11 147t29 150t61.5 138q136 215 516 215h190v-665h185v-205h-389zM494 -664q-49 0 -83 34.5t-34 84.5q0 49 33.5 82t83.5 33
q48 0 83 -33t35 -82t-35 -84t-83 -35zM760 -664q-50 0 -84.5 35t-34.5 84t34.5 82t84.5 33t84.5 -33t34.5 -82t-34.5 -84t-84.5 -35z" />
    <glyph glyph-name="yeh.init" unicode="&#x64a;" horiz-adv-x="595" arabic-form="initial" 
d="M356 698q158 0 158 -161v-189q0 -149 -89 -245.5t-257 -102.5h-209v205h191q69 7 100 45t31 110v338h75zM154 -360q-50 0 -84.5 34.5t-34.5 83.5t34.5 83t84.5 34q48 0 82 -34t34 -83t-34 -83.5t-82 -34.5zM420 -360q-48 0 -82.5 34.5t-34.5 83.5t34.5 83t82.5 34
q50 0 85.5 -34t35.5 -83t-35.5 -83.5t-85.5 -34.5z" />
    <glyph glyph-name="yeh.medi" unicode="&#x64a;" horiz-adv-x="608" arabic-form="medial" 
d="M119 -358q-50 0 -84.5 33.5t-34.5 84.5q0 48 35 82.5t84 34.5q47 0 82 -35t35 -82q0 -50 -34.5 -84t-82.5 -34zM383 -358q-48 0 -82.5 34t-34.5 84q0 47 35 82t82 35q48 0 84.5 -35t36.5 -82q0 -50 -36.5 -84t-84.5 -34zM424 412q6 -110 54 -158.5t161 -48.5v-205h-8
q-189 0 -299 96q-93 -90 -256 -96h-107v205h88q71 6 102 43.5t31 109.5v338h74q160 0 160 -159v-125z" />
    <glyph glyph-name=".notdef" horiz-adv-x="1126" 
 />
    <glyph glyph-name=".null" 
 />
    <glyph glyph-name="uni000D" unicode="&#xd;" 
 />
    <glyph glyph-name="space" unicode=" " horiz-adv-x="499" 
 />
    <glyph glyph-name="exclam" unicode="!" horiz-adv-x="616" 
d="M428 1108l-18 -676h-76q-66 0 -105 41.5t-39 114.5l-18 674h111q69 0 107 -40.5t38 -113.5zM471 158q0 -64 -46.5 -111t-111.5 -47t-112 47t-47 111q0 66 47 112.5t112 46.5t111.5 -46.5t46.5 -112.5z" />
    <glyph glyph-name="quotedbl" unicode="&#x22;" horiz-adv-x="933" 
d="M768 1110l-27 -291h-59q-130 0 -143 154l-27 291h113q70 0 106.5 -40.5t36.5 -113.5zM420 1110l-27 -291h-59q-131 0 -144 154l-26 291h112q70 0 107 -40.5t37 -113.5z" />
    <glyph glyph-name="numbersign" unicode="#" horiz-adv-x="1359" 
d="M1196 864q0 -57 -35 -88t-98 -31h-57l-45 -225h153v-57q0 -58 -34.5 -90.5t-98.5 -32.5h-55l-66 -340h-76q-102 0 -102 104q0 24 6 48l37 188h-193l-67 -340h-76q-54 0 -77 26t-23 78q0 18 4 50l37 186h-166v59q0 57 35 89t98 32h70l41 225h-162v56q0 58 34.5 90.5
t98.5 32.5h63l68 338h57q117 0 117 -111q0 -9 -4 -37l-37 -190h195l65 338h58q56 0 87 -28.5t31 -80.5q0 -27 -4 -43l-35 -186h156v-60zM805 745h-197l-41 -225h193z" />
    <glyph glyph-name="dollar" unicode="$" horiz-adv-x="1206" 
d="M1042 377q0 -85 -33.5 -157t-85.5 -117t-111 -71t-116 -30v-252h-57q-111 0 -111 105v145q-180 7 -257.5 76.5t-77.5 177.5v86h4q57 -57 148.5 -94t201.5 -37q134 0 189 36t55 113q0 48 -22 75.5t-84 49t-189 43.5q-332 55 -332 314q0 105 53.5 188.5t134.5 129.5t176 59
v247h72q96 0 96 -104v-137q151 -11 231.5 -69.5t80.5 -158.5v-98h-9q-109 115 -325 115q-142 0 -202 -38t-60 -108q0 -45 19 -69t80 -44.5t191 -43.5q163 -29 251.5 -115t88.5 -217z" />
    <glyph glyph-name="percent" unicode="%" horiz-adv-x="2004" 
d="M821 879q0 -186 -89.5 -306t-248.5 -120q-98 0 -172 55.5t-110.5 145t-36.5 196.5q0 186 88.5 306t247.5 120q98 0 172.5 -55.5t111.5 -145t37 -196.5zM1323 1110l-526 -1110h-45q-46 0 -74.5 24t-28.5 72q0 26 6 44t25 57l506 1063h63q36 0 61 -21t25 -59q0 -40 -12 -70
zM1841 408q0 -186 -89.5 -306t-248.5 -120q-146 0 -233.5 116.5t-87.5 280.5q0 186 88.5 305t247.5 119q98 0 173 -55.5t112.5 -144.5t37.5 -195zM616 850q0 248 -131 248q-58 0 -87 -59t-29 -160q0 -248 129 -248q58 0 88 59.5t30 159.5zM1642 385q0 248 -131 248
q-57 0 -87.5 -59.5t-30.5 -159.5q0 -248 133 -248q57 0 86.5 59.5t29.5 159.5z" />
    <glyph glyph-name="ampersand" unicode="&#x26;" horiz-adv-x="1466" 
d="M1303 117q0 -142 -123 -142q-113 0 -187 74l-63 64q-122 -136 -344 -136q-202 0 -312 102t-110 265q0 108 71.5 201.5t174.5 152.5q-119 137 -119 244q0 133 97.5 228.5t268.5 95.5q141 0 228.5 -79t87.5 -212q0 -91 -70.5 -175.5t-195.5 -154.5q129 -166 227 -258
q50 57 88 148t41 174h49q45 0 73.5 -31.5t28.5 -97.5q0 -125 -149 -328l37 -35q59 -57 104.5 -77.5t96.5 -22.5zM764 969q0 58 -31.5 88t-87.5 30q-62 0 -94.5 -34.5t-32.5 -98.5q0 -19 4.5 -37.5t15.5 -38.5t18 -31t24 -34.5t22 -30.5q85 47 123.5 90.5t38.5 96.5zM801 246
q-61 60 -148.5 156.5t-126.5 152.5q-53 -31 -90 -79.5t-37 -104.5q0 -104 55.5 -150.5t163.5 -46.5q49 0 100.5 19.5t82.5 52.5z" />
    <glyph glyph-name="quotesingle" unicode="'" horiz-adv-x="585" 
d="M420 1108l-29 -291h-59q-64 0 -101 40.5t-43 113.5l-24 291h112q69 0 106.5 -40t37.5 -114z" />
    <glyph glyph-name="parenleft" unicode="(" horiz-adv-x="759" 
d="M717 -313h-127q-31 0 -73.5 17.5t-76.5 43.5q-101 79 -188.5 292.5t-87.5 451.5q0 215 62 409.5t162 310t208 115.5h123v-10q-303 -318 -303 -789q0 -280 85 -497t216 -336v-8z" />
    <glyph glyph-name="parenright" unicode=")" horiz-adv-x="757" 
d="M41 1325h129q30 0 72.5 -17.5t74.5 -43.5q102 -80 189.5 -293t87.5 -451q0 -216 -62 -410.5t-161.5 -309.5t-206.5 -115h-123v10q301 316 301 788q0 281 -84.5 498.5t-216.5 335.5v8z" />
    <glyph glyph-name="asterisk" unicode="*" horiz-adv-x="1167" 
d="M844 883q-56 0 -139 -9q21 -26 46 -64t39.5 -57.5t48 -41.5t83.5 -35q-32 -68 -61.5 -100.5t-76.5 -32.5q-37 0 -66 16t-48.5 47t-32.5 59.5t-29.5 71.5t-27.5 66q-57 -76 -79 -138t-22 -137q-188 9 -188 136q0 41 19 76.5t40.5 55t61.5 50.5t57 47q-98 33 -180 33
q-34 0 -125 -29q15 223 155 223q45 0 76 -11.5t77.5 -45t59.5 -41.5q3 21 3 37q0 77 -15.5 140.5t-62.5 121.5q90 29 114 29q68 0 112 -34t44 -102q0 -33 -9 -67.5t-23.5 -76.5t-20.5 -66q67 13 135 63t115 121q31 -46 44 -68.5t24.5 -52.5t11.5 -57q0 -65 -46.5 -96
t-113.5 -31z" />
    <glyph glyph-name="plus" unicode="+" horiz-adv-x="1306" 
d="M1143 526q0 -46 -40 -82t-108 -36h-233v-385h-86q-48 0 -85.5 39.5t-37.5 107.5v238h-389v100q0 42 34.5 75t86.5 33h268v349h104q40 0 72.5 -34.5t32.5 -86.5v-228h381v-90z" />
    <glyph glyph-name="comma" unicode="," horiz-adv-x="634" 
d="M471 63q0 -125 -77 -221t-181 -96h-49v10q35 34 59.5 91.5t24.5 99.5q0 31 -12.5 55t-27.5 38.5t-27.5 39.5t-12.5 57q0 56 41.5 95.5t103.5 39.5q72 0 115 -55t43 -154z" />
    <glyph glyph-name="hyphen" unicode="-" horiz-adv-x="872" 
d="M709 653v-98q0 -49 -32 -75.5t-89 -26.5h-424v94q0 47 31 76.5t84 29.5h430z" />
    <glyph glyph-name="hyphen" unicode="&#xad;" horiz-adv-x="872" 
d="M709 653v-98q0 -49 -32 -75.5t-89 -26.5h-424v94q0 47 31 76.5t84 29.5h430z" />
    <glyph glyph-name="period" unicode="." horiz-adv-x="645" 
d="M481 158q0 -65 -46.5 -111.5t-110.5 -46.5q-65 0 -112.5 47t-47.5 111q0 66 47.5 112.5t112.5 46.5t111 -46.5t46 -112.5z" />
    <glyph glyph-name="slash" unicode="/" horiz-adv-x="827" 
d="M745 1143l-540 -1143h-45q-37 0 -63.5 26.5t-26.5 71.5q0 46 22 95l518 1105h64q36 0 60 -21t24 -60q0 -41 -13 -74z" />
    <glyph glyph-name="zero" unicode="0" horiz-adv-x="1159" 
d="M1057 657q0 -339 -130.5 -509.5t-346.5 -170.5t-347 164.5t-131 466.5q0 335 131.5 505.5t364.5 170.5q216 0 337.5 -168.5t121.5 -458.5zM352 659q0 -251 60.5 -355.5t185.5 -104.5q97 0 153 99.5t56 301.5q0 254 -54.5 358.5t-172.5 104.5q-103 0 -165.5 -98.5
t-62.5 -305.5z" />
    <glyph glyph-name="one" unicode="1" horiz-adv-x="704" 
d="M602 0h-100q-67 0 -109.5 42.5t-42.5 121.5v837l-123 -45q-53 -18 -94 -18q-104 0 -121 92l-12 66l229 100q94 41 140 53.5t98 12.5q59 0 97 -41t38 -93v-1128z" />
    <glyph glyph-name="two" unicode="2" horiz-adv-x="1085" 
d="M983 123q0 -57 -47 -90t-123 -33h-584q-54 0 -90.5 36t-36.5 89q0 71 49.5 147t188.5 191l295 246q86 70 86 168q0 87 -57.5 136.5t-161.5 49.5q-136 0 -222.5 -39t-150.5 -125h-8v90q0 58 23 108.5t71 93.5t133.5 68t198.5 25q181 0 301.5 -109.5t120.5 -263.5
q0 -92 -27.5 -161t-80.5 -127t-154 -136l-197 -151q-89 -72 -119 -121h592v-92z" />
    <glyph glyph-name="three" unicode="3" horiz-adv-x="1064" 
d="M963 375q0 -184 -127 -291t-369 -107q-159 0 -262 66t-103 188v101h11q127 -137 366 -137q118 0 176 47.5t58 124.5q0 88 -58 127.5t-180 42.5q-82 1 -117.5 24.5t-35.5 71.5v82q37 4 137 8q248 8 248 166q0 87 -61.5 133.5t-186.5 46.5q-107 0 -197.5 -35t-140.5 -100
h-8v106q0 40 25.5 82t72.5 78.5t124 60t169 23.5q205 0 327.5 -96t122.5 -256q0 -242 -227 -293q88 -18 162 -96t74 -168z" />
    <glyph glyph-name="four" unicode="4" horiz-adv-x="1214" 
d="M1112 408q0 -51 -26.5 -80t-77.5 -29h-95v-299h-96q-68 0 -107.5 42t-39.5 120v137h-428q-61 0 -100.5 35t-39.5 80q0 73 33 137q86 155 252.5 386t282.5 325h92q70 0 110.5 -45t40.5 -132v-579h199v-98zM670 506v500q-70 -91 -175.5 -247.5t-158.5 -252.5h334z" />
    <glyph glyph-name="five" unicode="5" horiz-adv-x="1071" 
d="M969 410q0 -202 -132.5 -317.5t-355.5 -115.5q-193 0 -286 63.5t-93 174.5v94h11q66 -58 143 -84t199 -26q135 0 195.5 49t60.5 147q0 95 -72.5 137.5t-226.5 42.5q-119 0 -295 -40v503q0 113 45.5 168.5t154.5 55.5h609v-66q0 -71 -44.5 -112.5t-127.5 -41.5h-392v-280
q107 10 166 10q188 0 314.5 -98.5t126.5 -263.5z" />
    <glyph glyph-name="six" unicode="6" horiz-adv-x="1124" 
d="M1022 428q0 -64 -15 -125.5t-50.5 -121.5t-88 -104.5t-133.5 -72t-180 -27.5q-97 0 -177.5 35.5t-143 106.5t-97.5 187.5t-35 268.5q0 347 153.5 528t416.5 181q126 0 206 -65.5t80 -163.5v-76h-12q-88 92 -266 92q-167 0 -245 -105.5t-83 -303.5q32 72 105.5 114.5
t163.5 42.5q81 0 153.5 -26t127.5 -74t87.5 -123t32.5 -168zM360 430q0 -102 55 -171t154 -69q205 0 205 218q0 99 -57 150.5t-144 51.5q-101 0 -157 -52t-56 -128z" />
    <glyph glyph-name="seven" unicode="7" horiz-adv-x="1077" 
d="M952 1139q0 -67 -108 -299q-32 -67 -97 -173.5t-111.5 -184.5t-84 -182t-37.5 -194v-106h-102q-127 0 -127 141q0 68 23 151t57 146q82 149 147.5 266t97.5 171.5t53.5 91.5t29.5 50.5t12 24.5h-599v88q0 134 138 134h571q137 0 137 -125z" />
    <glyph glyph-name="eight" unicode="8" horiz-adv-x="1099" 
d="M997 358q0 -85 -24.5 -152t-77 -119.5t-144 -81t-216.5 -28.5q-199 0 -316 100t-117 263q0 99 65.5 185t151.5 112q-91 32 -150.5 99.5t-59.5 174.5q0 169 127 271t323 102q192 0 312 -101t120 -253q0 -117 -59.5 -183.5t-151.5 -93.5q85 -31 151 -111.5t66 -183.5z
M543 1065q-85 0 -133 -45.5t-48 -112.5q0 -74 48 -118t147 -44q86 0 134 43.5t48 110.5q0 79 -48.5 122.5t-147.5 43.5zM750 367q0 79 -54.5 128.5t-152.5 49.5q-77 0 -133 -48.5t-56 -115.5q0 -91 48 -137.5t155 -46.5q95 0 144 47.5t49 122.5z" />
    <glyph glyph-name="nine" unicode="9" horiz-adv-x="1124" 
d="M1022 662q0 -341 -133 -513t-369 -172q-156 0 -253 63t-97 171v90h10q110 -106 328 -106q130 0 192.5 90.5t69.5 300.5q-25 -74 -86 -118t-147 -44q-197 0 -316 108.5t-119 286.5q0 209 124.5 337t351.5 128q444 0 444 -622zM768 819q0 129 -55 191.5t-156 62.5
q-95 0 -148 -62t-53 -163q0 -108 53 -160.5t146 -52.5q99 0 156 50t57 134z" />
    <glyph glyph-name="colon" unicode=":" horiz-adv-x="645" 
d="M481 838q0 -66 -46.5 -113t-112.5 -47q-65 0 -111.5 47t-46.5 113t46.5 111.5t111.5 45.5q66 0 112.5 -45.5t46.5 -111.5zM481 158q0 -65 -46.5 -111.5t-112.5 -46.5q-64 0 -111 47t-47 111q0 66 46.5 112.5t111.5 46.5q66 0 112.5 -46.5t46.5 -112.5z" />
    <glyph glyph-name="semicolon" unicode=";" horiz-adv-x="649" 
d="M485 836q-2 -67 -47 -113.5t-110 -46.5t-111.5 47t-46.5 113t46.5 111.5t111.5 45.5t111 -45.5t46 -111.5zM471 63q0 -125 -77 -221t-181 -96h-49v10q35 34 59.5 91.5t24.5 99.5q0 30 -12 54t-27 38.5t-27 40t-12 57.5q0 56 40.5 95.5t102.5 39.5q73 0 115.5 -54.5
t42.5 -154.5z" />
    <glyph glyph-name="semicolon" unicode="&#x37e;" horiz-adv-x="649" 
d="M485 836q-2 -67 -47 -113.5t-110 -46.5t-111.5 47t-46.5 113t46.5 111.5t111.5 45.5t111 -45.5t46 -111.5zM471 63q0 -125 -77 -221t-181 -96h-49v10q35 34 59.5 91.5t24.5 99.5q0 30 -12 54t-27 38.5t-27 40t-12 57.5q0 56 40.5 95.5t102.5 39.5q73 0 115.5 -54.5
t42.5 -154.5z" />
    <glyph glyph-name="less" unicode="&#x3c;" horiz-adv-x="1099" 
d="M997 911q0 -120 -141 -174q-70 -26 -226 -92.5t-241 -107.5q99 -54 290 -143t310 -136v-55q0 -51 -38 -74t-95 -23q-69 0 -329 129.5t-425 247.5v29q0 45 26 78t81 65q117 68 374 181t414 161v-86z" />
    <glyph glyph-name="equal" unicode="=" horiz-adv-x="1069" 
d="M842 655h-740v88q0 41 34.5 69t92.5 28h738v-88q0 -35 -37 -66t-88 -31zM842 301h-740v86q0 41 34.5 68.5t92.5 27.5h738v-88q0 -41 -36 -67.5t-89 -26.5z" />
    <glyph glyph-name="greater" unicode="&#x3e;" horiz-adv-x="1099" 
d="M102 911v86q160 -49 419 -162t372 -180q53 -30 78.5 -63.5t25.5 -79.5v-29q-162 -117 -422.5 -247t-328.5 -130q-58 0 -96.5 23t-38.5 74v55q119 47 310 136t290 143q-85 41 -241 107.5t-226 92.5q-142 54 -142 174z" />
    <glyph glyph-name="question" unicode="?" horiz-adv-x="884" 
d="M817 975q0 -72 -28.5 -127t-100.5 -117l-147 -125q-51 -43 -65.5 -72.5t-14.5 -78.5v-66h-86q-43 0 -78 32.5t-35 76.5q0 69 27.5 123t93.5 108l131 109q55 47 55 110q0 137 -184 137q-212 0 -301 -122h-10v86q0 104 90 180t258 76q186 0 290.5 -95t104.5 -235zM555 158
q0 -64 -46.5 -111t-111.5 -47t-112 47t-47 111q0 66 47 112.5t112 46.5t111.5 -46.5t46.5 -112.5z" />
    <glyph glyph-name="at" unicode="@" horiz-adv-x="1480" 
d="M1378 750q0 -206 -103.5 -335.5t-262.5 -129.5q-124 0 -162 118q-46 -60 -96.5 -89t-116.5 -29q-88 0 -158.5 85t-70.5 210q0 177 112.5 300.5t282.5 123.5q52 0 110 -24.5t97 -64t39 -77.5t-25 -160q-18 -92 -18 -156q0 -71 38 -71q56 0 108 74.5t52 217.5
q0 178 -109.5 290t-306.5 112q-101 0 -192.5 -39t-160.5 -109.5t-109.5 -175.5t-40.5 -229q0 -214 122 -334.5t320 -120.5q190 0 313 60v-60q0 -55 -25 -85.5t-102.5 -48t-220.5 -17.5q-94 0 -181.5 26t-161.5 76.5t-129.5 121t-86.5 165.5t-31 203q0 142 51 272.5
t141 229.5t223.5 157.5t289.5 58.5q251 0 411 -154.5t160 -391.5zM858 791q-32 28 -82 28q-60 0 -107.5 -64t-47.5 -157q0 -69 21 -96t48 -27q39 0 66.5 19.5t46.5 63.5t31 97t24 136z" />
    <glyph glyph-name="A" unicode="A" horiz-adv-x="1128" 
d="M1108 0h-102q-72 0 -115.5 35.5t-50.5 83.5q-21 142 -33 196h-494q-40 -168 -63 -315h-96q-60 0 -86.5 30t-26.5 89q0 91 64 315t166 463.5t190 337.5h100q66 0 119 -33t82 -82q91 -164 201.5 -506.5t144.5 -613.5zM750 512q-30 125 -85 265.5t-106 230.5
q-55 -99 -107.5 -234.5t-82.5 -261.5h381z" />
    <glyph glyph-name="B" unicode="B" horiz-adv-x="1116" 
d="M1032 383q0 -180 -122.5 -284.5t-299.5 -104.5h-135q-171 0 -257.5 75t-86.5 220v895q48 19 151 37t177 18h149q180 0 292 -88t112 -238q0 -101 -51.5 -167t-145.5 -93q91 -26 154 -107t63 -163zM764 893q0 73 -56 107t-135 34h-92q-36 0 -106 -12v-279h190
q88 0 143.5 37.5t55.5 112.5zM784 375q0 97 -50 136.5t-161 39.5h-196v-254q0 -32 31.5 -55t76.5 -23h101q97 0 147.5 41.5t50.5 114.5z" />
    <glyph glyph-name="C" unicode="C" horiz-adv-x="1091" 
d="M1006 905h-11q-37 47 -99 78.5t-121.5 43t-117.5 11.5q-168 0 -276.5 -110.5t-108.5 -288.5q0 -211 107.5 -323.5t286.5 -112.5q93 0 184.5 33.5t142.5 87.5h8v-93q0 -61 -33 -109t-87 -76t-117.5 -42t-130.5 -14q-164 0 -302 75t-222 217t-84 322q0 188 78.5 335.5
t222 230.5t329.5 83q158 0 254.5 -65.5t96.5 -188.5v-94z" />
    <glyph glyph-name="D" unicode="D" horiz-adv-x="1224" 
d="M1147 637q0 -184 -74 -332.5t-204 -231.5t-289 -83h-105q-162 0 -252 67t-90 205v930q45 17 140 32t165 15h127q110 0 211.5 -37t185.5 -108.5t134.5 -189.5t50.5 -267zM895 602q0 202 -101.5 315t-265.5 113h-53q-14 0 -37.5 -3t-39.5 -6l-17 -3v-709q0 -55 28 -79.5
t95 -24.5h43q151 0 249.5 114t98.5 283z" />
    <glyph glyph-name="E" unicode="E" horiz-adv-x="1028" 
d="M983 231v-88q0 -78 -58 -114.5t-212 -36.5h-131q-226 0 -342.5 122.5t-116.5 358.5v227q0 195 22 349q14 104 61.5 145t129.5 41h645v-84q0 -129 -166 -129h-424q-18 -135 -18 -289h475v-88q0 -60 -36.5 -86.5t-113.5 -26.5h-325v-73q0 -80 13 -129.5t46 -78t80 -38.5
t123 -10h78q147 0 270 28z" />
    <glyph glyph-name="F" unicode="F" horiz-adv-x="903" 
d="M893 1157q0 -49 -36.5 -89t-104.5 -40h-381v-305h446v-74q0 -56 -37 -89.5t-82 -33.5h-317v-526h-102q-69 0 -107.5 36t-38.5 107v901q0 110 47 150.5t160 40.5h553v-78z" />
    <glyph glyph-name="G" unicode="G" horiz-adv-x="1200" 
d="M1114 287q0 -148 -96 -229t-316 -81q-123 0 -234.5 44t-196.5 123.5t-135 198.5t-50 259q0 137 47 256t132.5 207.5t213.5 139t283 50.5q161 0 246.5 -72.5t85.5 -168.5v-86h-11q-59 52 -153 78t-197 26q-171 0 -282 -112t-111 -283q0 -114 29.5 -199t83.5 -135.5
t123.5 -75t154.5 -24.5q84 0 116 29t32 87v99q0 44 -4.5 89t-9.5 68l-5 23h127q50 0 88.5 -36t38.5 -77v-198z" />
    <glyph glyph-name="H" unicode="H" horiz-adv-x="1253" 
d="M1120 0h-100q-58 0 -100.5 44t-42.5 122v364h-498v-530h-96q-65 0 -107.5 43.5t-42.5 122.5v1069h121q52 0 87.5 -38.5t35.5 -92.5v-367h500v498h110q51 0 92 -37t41 -94v-1104z" />
    <glyph glyph-name="I" unicode="I" horiz-adv-x="524" 
d="M383 0h-94q-59 0 -104.5 43.5t-45.5 120.5v1071h111q50 0 91.5 -37.5t41.5 -93.5v-1104z" />
    <glyph glyph-name="J" unicode="J" horiz-adv-x="716" 
d="M604 332q0 -160 -92.5 -257.5t-275.5 -97.5q-99 0 -163.5 42.5t-64.5 101.5v112h8q64 -38 187 -38q81 0 116 36t35 111v893h84q166 0 166 -168v-735z" />
    <glyph glyph-name="K" unicode="K" horiz-adv-x="1116" 
d="M213 1235q84 0 124 -47.5t40 -118.5v-385q15 21 54.5 79.5t58 85.5t54.5 77.5t61 83t59 73.5t67 76q48 51 81 63.5t108 12.5h170v-10q-75 -75 -225.5 -258t-239.5 -310q21 -30 67 -99.5t73.5 -109.5t69.5 -95.5t84.5 -100.5t88.5 -82q49 -40 98 -51q-18 -68 -53 -96.5
t-107 -28.5q-45 0 -92.5 22t-79.5 58q-182 209 -397 549v-623h-82q-83 0 -122.5 48t-39.5 120v1067h80z" />
    <glyph glyph-name="L" unicode="L" horiz-adv-x="956" 
d="M946 168q0 -43 -12 -74t-40 -55.5t-79.5 -36.5t-126.5 -12h-94q-218 0 -334.5 117.5t-116.5 338.5v789h101q153 0 153 -180v-592q0 -144 47 -200t181 -56h63q146 0 258 45v-84z" />
    <glyph glyph-name="M" unicode="M" horiz-adv-x="1648" 
d="M1538 0h-92q-73 0 -116.5 41.5t-43.5 122.5q0 124 -16.5 383.5t-30.5 347.5q-47 -115 -57 -145l-172 -531q-46 -139 -103 -219h-65q-63 0 -114.5 49.5t-84.5 147.5l-176 520q-36 100 -70 180q-23 -121 -38 -410.5t-15 -486.5h-86q-70 0 -113 43.5t-43 120.5
q0 201 32 540.5t67 530.5h53q128 0 215 -55t123 -154l172 -483q56 -159 70 -236q15 73 34 127l144 438q45 139 97 234.5t95 128.5h29q105 0 168 -64.5t78 -191.5q19 -157 39 -480t20 -499z" />
    <glyph glyph-name="N" unicode="N" horiz-adv-x="1271" 
d="M1139 0h-97q-33 0 -59 5t-62 24.5t-69.5 53.5t-76 95.5t-87.5 147.5l-225 438q-31 66 -82 145v-909h-98q-59 0 -104.5 42.5t-45.5 119.5v1073h123q118 0 202.5 -62.5t147.5 -189.5l215 -434q51 -104 74 -166v852h109q49 0 92 -42.5t43 -100.5v-1092z" />
    <glyph glyph-name="O" unicode="O" horiz-adv-x="1327" 
d="M1241 637q0 -189 -68.5 -337t-204 -235.5t-319.5 -87.5q-155 0 -283 77.5t-204 220.5t-76 323q0 294 158 475.5t434 181.5q113 0 214.5 -42.5t179 -119.5t123.5 -195.5t46 -260.5zM987 602q0 215 -87.5 325.5t-246.5 110.5q-139 0 -226 -107.5t-87 -293.5
q0 -224 82.5 -334t251.5 -110q146 0 229.5 104.5t83.5 304.5z" />
    <glyph glyph-name="P" unicode="P" horiz-adv-x="1034" 
d="M1004 860q0 -193 -117.5 -307.5t-298.5 -114.5q-133 0 -207 41v-479h-98q-60 0 -105 43t-45 133v1010q55 20 157 38.5t165 18.5h139q184 0 297 -101t113 -282zM750 838q0 105 -44.5 150.5t-142.5 45.5h-80q-25 0 -102 -16v-350q75 -21 174 -21q94 0 144.5 50.5
t50.5 140.5z" />
    <glyph glyph-name="Q" unicode="Q" horiz-adv-x="1341" 
d="M545 -12q-64 13 -127.5 43.5t-123.5 83.5t-106 121.5t-74 162.5t-28 201q0 140 36 257t108 207t188.5 140.5t267.5 50.5q108 0 207 -42t177 -119t124.5 -195.5t46.5 -261.5q0 -113 -31.5 -215.5t-82.5 -173.5t-112.5 -117t-123.5 -59q66 -22 180.5 -34.5t212.5 -12.5v-78
q0 -58 -31 -88.5t-102 -30.5q-135 0 -312 47.5t-294 112.5zM987 606q0 432 -332 432q-146 0 -230.5 -109.5t-84.5 -291.5q0 -222 90 -334.5t256 -112.5q92 0 161 55.5t104.5 149.5t35.5 211z" />
    <glyph glyph-name="R" unicode="R" horiz-adv-x="1107" 
d="M1067 31q-22 -23 -45.5 -31t-73.5 -8q-134 0 -180 108l-92 224q-20 49 -40 79.5t-44 45.5t-41 20t-47 10q-117 17 -123 17v-496h-80q-81 0 -124.5 45t-43.5 121v1034q40 15 145 30t173 15h137q183 0 294 -98.5t111 -255.5q0 -125 -73 -219t-181 -109q47 -21 88 -69
t66 -105l98 -231q14 -32 29 -57.5t29.5 -45t17.5 -24.5zM559 1032h-70q-67 0 -108 -12v-326q53 -10 176 -10q79 0 132.5 44t53.5 122q0 105 -46.5 143.5t-137.5 38.5z" />
    <glyph glyph-name="S" unicode="S" horiz-adv-x="1052" 
d="M961 383q0 -186 -122 -296t-343 -110q-183 0 -280 66t-97 178v111h4q151 -133 346 -133q132 0 188 41.5t56 119.5q0 46 -18.5 72.5t-82.5 53t-192 53.5q-328 71 -328 317q0 77 32 148.5t90 127.5t146.5 89.5t194.5 33.5q103 0 179 -20t116 -54t58 -71.5t18 -79.5v-112h-6
q-111 120 -322 120q-262 0 -262 -159q0 -58 61 -95t228 -71q167 -35 251.5 -119.5t84.5 -210.5z" />
    <glyph glyph-name="T" unicode="T" horiz-adv-x="1003" 
d="M989 1157q0 -47 -44.5 -93t-102.5 -46h-228v-1018h-98q-67 0 -108 42.5t-41 123.5v852h-357v82q0 50 40.5 92.5t109.5 42.5h829v-78z" />
    <glyph glyph-name="U" unicode="U" horiz-adv-x="1220" 
d="M1116 557q0 -277 -131 -428.5t-391 -151.5q-227 0 -359.5 147t-132.5 411v700h97q65 0 108 -54t43 -173v-457q0 -175 64 -258.5t207 -83.5q128 0 186.5 83t58.5 251v692h95q73 0 114 -55t41 -166v-457z" />
    <glyph glyph-name="V" unicode="V" horiz-adv-x="1120" 
d="M915 569q-151 -368 -284 -577h-21q-121 0 -180 98q-149 239 -260 545.5t-152 599.5h142q66 0 106.5 -38t50.5 -97q32 -184 88.5 -364.5t159.5 -399.5q209 447 277 899h137q46 0 76 -28.5t30 -78.5q0 -53 -54.5 -232.5t-115.5 -326.5z" />
    <glyph glyph-name="W" unicode="W" horiz-adv-x="1722" 
d="M1565 625q-106 -336 -279 -635h-59q-75 0 -119 78q-70 125 -137.5 309t-108.5 375q-45 -205 -120.5 -405t-168.5 -357h-57q-83 0 -125 78q-136 243 -235.5 553.5t-137.5 613.5h142q60 0 100.5 -43t48.5 -98q63 -383 203 -715q76 178 140.5 410.5t95.5 398.5h81
q70 0 123 -38t70 -126q64 -321 205 -645q172 421 229 854h129q45 0 76 -31t31 -84q0 -45 -42 -201t-85 -292z" />
    <glyph glyph-name="X" unicode="X" horiz-adv-x="1245" 
d="M1214 63q-34 -39 -71.5 -58t-106.5 -19q-85 0 -155 52.5t-162 186.5l-156 228q-120 -143 -178 -248t-84 -205h-121q-46 0 -74 28t-28 68q0 42 6.5 76t28.5 85t71.5 117t126.5 150l117 127l-145 203q-101 141 -153 230t-69 151h170q51 0 108 -41.5t142 -167.5l150 -223
q148 171 204.5 259t79.5 175h93q56 0 83 -34t27 -91q0 -62 -88 -186t-262 -322l164 -239q126 -184 282 -302z" />
    <glyph glyph-name="Y" unicode="Y" horiz-adv-x="1034" 
d="M1004 1139q0 -65 -134.5 -284t-228.5 -329v-526h-104q-59 0 -104.5 42.5t-45.5 119.5v364q-107 139 -212.5 338t-164.5 371h117q66 0 109 -26.5t57 -59.5q46 -108 111 -228t124 -204q73 101 151.5 246t115.5 272h108q48 0 74.5 -26t26.5 -70z" />
    <glyph glyph-name="Z" unicode="Z" horiz-adv-x="1077" 
d="M995 127q0 -50 -37.5 -88.5t-101.5 -38.5h-618q-68 0 -112 41.5t-44 114.5q0 72 47 148t139 179l305 346q119 138 136 189h-627v67q0 150 184 150h561q166 0 166 -162q0 -56 -40.5 -132.5t-108.5 -152.5l-303 -342q-76 -85 -117 -139t-49 -90h620v-90z" />
    <glyph glyph-name="bracketleft" unicode="[" horiz-adv-x="598" 
d="M575 -307h-413v1605h307q50 0 78 -28t28 -76v-57h-231v-1282h133q43 0 70.5 -27.5t27.5 -75.5v-59z" />
    <glyph glyph-name="backslash" unicode="\" horiz-adv-x="770" 
d="M770 0h-100q-56 0 -117.5 42.5t-93.5 117.5l-451 1075h117q47 0 100.5 -35.5t77.5 -91.5z" />
    <glyph glyph-name="bracketright" unicode="]" horiz-adv-x="598" 
d="M436 -307h-413v59q0 48 27.5 75.5t70.5 27.5h133v1282h-231v57q0 48 28 76t78 28h307v-1605z" />
    <glyph glyph-name="asciicircum" unicode="^" horiz-adv-x="931" 
d="M809 754q-24 -9 -51 -9q-52 2 -95 26t-55 60q-13 40 -61 128t-90 151q-159 -239 -209 -358h-33q-42 0 -67 19t-25 50q0 39 100.5 204.5t196.5 272.5h37q40 0 108 -84.5t136 -212t108 -247.5z" />
    <glyph glyph-name="underscore" unicode="_" horiz-adv-x="1028" 
d="M1028 -518h-1028v153h1028v-153z" />
    <glyph glyph-name="grave" unicode="`" horiz-adv-x="1026" 
d="M281 1286q0 92 100 92q145 0 305 -254v-8h-80q-120 0 -222.5 51t-102.5 119z" />
    <glyph glyph-name="a" unicode="a" horiz-adv-x="937" 
d="M854 317q0 -147 -98 -240t-252 -93h-47q-165 0 -269 83.5t-104 211.5q0 134 110 212t353 78h80v13q0 96 -46.5 133t-152.5 37q-113 0 -187 -33t-108 -74h-8v74q0 41 19 79.5t57 72.5t105.5 54.5t154.5 20.5q82 0 149.5 -21t124 -67t88 -129.5t31.5 -198.5v-213zM629 315
v88h-82q-127 0 -176 -28t-49 -88q0 -54 41.5 -84.5t117.5 -30.5q148 0 148 143z" />
    <glyph glyph-name="b" unicode="b" horiz-adv-x="1122" 
d="M1036 483q0 -214 -127.5 -358.5t-333.5 -144.5q-182 0 -310 134t-128 339v847h80q70 0 111 -40t41 -119v-332q97 141 249 141q180 0 299 -131.5t119 -335.5zM797 444q0 163 -55.5 232t-166.5 69q-87 0 -145.5 -76t-58.5 -184q0 -154 60 -227.5t167 -73.5q87 0 143 73.5
t56 186.5z" />
    <glyph glyph-name="c" unicode="c" horiz-adv-x="901" 
d="M836 629h-11q-25 42 -90.5 69t-159.5 27q-103 0 -178 -71.5t-75 -174.5q0 -127 70 -204.5t186 -77.5q92 0 154.5 25t90.5 61h8v-107q0 -85 -75.5 -138.5t-200.5 -53.5q-126 0 -234.5 59.5t-173.5 166t-65 236.5q0 99 34 188t96.5 157t158 107.5t211.5 39.5
q109 0 181.5 -58.5t72.5 -142.5v-108z" />
    <glyph glyph-name="d" unicode="d" horiz-adv-x="1091" 
d="M958 428q0 -212 -108 -330t-338 -118q-181 0 -305.5 137t-124.5 329q0 233 109.5 368.5t308.5 135.5q69 0 136 -43t93 -104v497h72q79 0 118 -42t39 -115v-715zM727 438q0 165 -62 241.5t-163 76.5q-88 0 -141.5 -75t-53.5 -189q0 -143 66.5 -230.5t167.5 -87.5
q186 0 186 264z" />
    <glyph glyph-name="e" unicode="e" horiz-adv-x="985" 
d="M907 590q0 -125 -100.5 -175t-335.5 -50h-152q13 -87 86 -139t175 -52q191 0 284 88h8v-74q0 -208 -335 -208q-116 0 -219 56t-169.5 164.5t-66.5 245.5q0 229 126.5 366.5t326.5 137.5q151 0 261.5 -100t110.5 -260zM690 618q0 68 -47.5 104t-128.5 36t-135.5 -58.5
t-59.5 -140.5v-31h103q109 0 167 9t79.5 27.5t21.5 53.5z" />
    <glyph glyph-name="f" unicode="f" horiz-adv-x="651" 
d="M672 1032h-8q-61 21 -134 21q-79 0 -122 -34.5t-43 -121.5v-84h264v-63q0 -58 -50.5 -95t-113.5 -37h-100v-618h-93q-57 0 -98 39t-41 98v778q0 42 11 86t38.5 90t67.5 82t103.5 59t140.5 23t127.5 -39.5t50.5 -105.5v-78z" />
    <glyph glyph-name="g" unicode="g" horiz-adv-x="1077" 
d="M938 385q0 -35 3 -122t3 -122q0 -89 -29 -167.5t-84 -139.5t-142.5 -97t-196.5 -36q-142 0 -232 59t-90 144v104h10q43 -45 120.5 -72.5t172.5 -27.5q123 0 183.5 55.5t60.5 159.5q0 15 -2 48.5t-2 45.5v23q-15 -55 -80.5 -96.5t-159.5 -41.5q-169 0 -277 105.5
t-108 269.5q0 202 127 337.5t344 135.5q172 0 275.5 -113.5t103.5 -293.5v-158zM535 745q-90 0 -149.5 -67.5t-59.5 -171.5q0 -92 51 -151.5t133 -59.5q88 0 143.5 62.5t55.5 172.5q0 104 -48 159.5t-126 55.5z" />
    <glyph glyph-name="h" unicode="h" horiz-adv-x="1093" 
d="M961 0h-76q-73 0 -115.5 41t-42.5 115v376q0 108 -50.5 160.5t-131.5 52.5q-66 0 -117 -53.5t-51 -165.5v-526h-76q-80 0 -119 41t-39 115v1083h72q81 0 122.5 -40t41.5 -107v-267q31 48 86 86.5t115 38.5q181 0 281 -105t100 -302v-543z" />
    <glyph glyph-name="i" unicode="i" horiz-adv-x="598" 
d="M414 1130q0 -55 -41 -95t-97 -40q-55 0 -94 39.5t-39 95.5t39 95t94 39q56 0 97 -39.5t41 -94.5zM578 131q0 -75 -32 -107t-106 -32q-134 0 -205 74t-71 215v628h65q78 0 121 -43t43 -129v-434q0 -69 32.5 -96t109.5 -27h43v-49z" />
    <glyph glyph-name="j" unicode="j" horiz-adv-x="528" 
d="M395 1135q-2 -58 -40 -98t-93 -40q-56 0 -95.5 40.5t-39.5 97.5q0 55 39.5 94t95.5 39t94.5 -39t38.5 -94zM373 6q0 -143 -87.5 -225t-226.5 -82q-66 0 -107.5 30.5t-41.5 73.5v84q48 0 76.5 1.5t61.5 9.5t51 22.5t30 42t12 66.5v880h66q79 0 122.5 -41t43.5 -120v-742z
" />
    <glyph glyph-name="k" unicode="k" horiz-adv-x="1005" 
d="M217 1239q81 0 119.5 -41.5t38.5 -112.5v-553q7 9 33 43t35 45.5t32.5 42t36 45t34 40.5t37.5 43t36.5 38t39.5 39q39 36 82 49t103 13h131v-10q-46 -37 -171.5 -178.5t-205.5 -241.5q18 -22 69 -85.5t87 -105.5t73 -80q56 -58 93.5 -81t85.5 -39q-18 -59 -53.5 -87
t-102.5 -28q-39 0 -81 17.5t-71 47.5q-55 56 -118 131.5t-98.5 122.5t-106.5 142v-453l-74 -2q-79 -3 -118.5 39t-39.5 125v1075h74z" />
    <glyph glyph-name="l" unicode="l" horiz-adv-x="581" 
d="M592 131q0 -73 -39 -106t-117 -33q-143 0 -218 74t-75 215v958h66q82 0 123 -43t41 -113v-780q0 -69 36.5 -96t120.5 -27h62v-49z" />
    <glyph glyph-name="m" unicode="m" horiz-adv-x="1615" 
d="M1483 0h-58q-92 0 -133 42t-41 126v358q0 111 -45.5 165t-124.5 54q-72 0 -114.5 -49.5t-42.5 -142.5v-553h-62q-78 0 -123 44t-45 124v358q0 111 -46.5 165t-125.5 54q-69 0 -113 -52.5t-44 -145.5v-547h-62q-73 0 -120.5 45.5t-47.5 122.5v360q0 196 104.5 309
t309.5 113q172 0 282 -145q40 66 112 105.5t155 39.5q168 0 276.5 -101.5t108.5 -291.5v-557z" />
    <glyph glyph-name="n" unicode="n" horiz-adv-x="1083" 
d="M950 0h-63q-75 0 -121.5 43t-46.5 109v368q0 225 -189 225q-75 0 -121.5 -55t-46.5 -153v-537h-67q-72 0 -117 43t-45 109v401q0 60 15.5 116.5t49 107.5t81.5 89.5t118 61t154 22.5q110 0 199.5 -46.5t144.5 -141t55 -221.5v-541z" />
    <glyph glyph-name="o" unicode="o" horiz-adv-x="1060" 
d="M82 446q0 218 121.5 361t337.5 143q101 0 185.5 -39t139 -104.5t84 -150t29.5 -177.5q0 -142 -51.5 -253.5t-157 -178.5t-250.5 -67q-135 0 -236.5 66t-151.5 170.5t-50 229.5zM739 446q0 297 -219 297q-97 0 -149 -72.5t-52 -191.5q0 -293 222 -293q97 0 147.5 71
t50.5 189z" />
    <glyph glyph-name="p" unicode="p" horiz-adv-x="1099" 
d="M1018 492q0 -229 -110 -370.5t-308 -141.5q-74 0 -135 37.5t-98 99.5v-410h-72q-66 0 -114 44.5t-48 115.5v561q0 243 114 382.5t349 139.5q120 0 218 -66t151 -170.5t53 -221.5zM780 432q0 163 -54 238t-165 75q-94 0 -146.5 -74t-52.5 -196q0 -137 62.5 -214t167.5 -77
q83 0 135.5 69t52.5 179z" />
    <glyph glyph-name="q" unicode="q" horiz-adv-x="1097" 
d="M553 950q198 0 305 -124.5t107 -344.5v-774l-76 2q-152 3 -152 154v237q-28 -56 -91 -88t-134 -32q-116 0 -214 56.5t-157 162t-59 237.5q0 146 58 262.5t166 184t247 67.5zM522 745q-83 0 -147 -73t-64 -193q0 -143 58.5 -219t165.5 -76q100 0 151 65t51 206
q0 290 -215 290z" />
    <glyph glyph-name="r" unicode="r" horiz-adv-x="688" 
d="M668 705h-9q-76 26 -135 26q-159 0 -159 -199v-532h-64q-78 0 -123 38t-45 109v428q0 72 19.5 135t59 115t107 82.5t156.5 30.5q97 0 145 -45.5t48 -106.5v-81z" />
    <glyph glyph-name="s" unicode="s" horiz-adv-x="872" 
d="M793 293q0 -148 -101 -230.5t-286 -82.5q-126 0 -213 55t-87 127v104h9q40 -35 119.5 -61.5t158.5 -26.5q170 0 170 103q0 41 -38 62t-154 38q-148 20 -219.5 81t-71.5 167q0 133 109.5 227t283.5 94q146 0 221.5 -60.5t75.5 -137.5v-88h-10q-36 37 -109 61.5t-155 24.5
q-187 0 -187 -103q0 -38 35.5 -56t151.5 -36q297 -51 297 -262z" />
    <glyph glyph-name="t" unicode="t" horiz-adv-x="724" 
d="M143 891q0 93 54 170.5t120 77.5h56v-209h321v-96q0 -41 -36.5 -75t-102.5 -34h-182v-365q0 -87 37 -126t108 -39q117 0 166 32h10v-82q0 -73 -52.5 -114t-152.5 -41q-172 0 -259 89t-87 255v557z" />
    <glyph glyph-name="u" unicode="u" horiz-adv-x="1081" 
d="M948 416q0 -217 -102 -326.5t-303 -109.5q-178 0 -294 112.5t-116 308.5v529h43q191 0 191 -166v-340q0 -122 51 -181t135 -59q76 0 119 55t43 169v522h43q98 0 144 -41.5t46 -124.5v-348z" />
    <glyph glyph-name="v" unicode="v" horiz-adv-x="897" 
d="M866 819q0 -37 -42.5 -175t-128 -332t-177.5 -322h-45q-50 0 -83.5 20.5t-67.5 71.5q-99 149 -194.5 408t-109.5 440h123q54 0 91.5 -34.5t46.5 -76.5q55 -304 178 -543q67 133 121.5 307.5t80.5 346.5h99q58 0 83 -26.5t25 -84.5z" />
    <glyph glyph-name="w" unicode="w" horiz-adv-x="1400" 
d="M1370 834q0 -30 -29.5 -142.5t-76.5 -245.5q-49 -139 -107.5 -260.5t-107.5 -195.5h-39q-68 0 -134.5 87.5t-110 206.5t-67.5 246q-23 -113 -91.5 -286t-127.5 -254h-30q-48 0 -93 38t-73 85q-205 361 -265 817h123q53 0 90 -35t45 -78q50 -290 148 -502q57 124 95.5 260
t78.5 320h76q134 0 164 -131q66 -284 149 -449q112 248 174 619h96q113 0 113 -100z" />
    <glyph glyph-name="x" unicode="x" horiz-adv-x="966" 
d="M942 102q0 -52 -38.5 -84t-112.5 -32q-72 0 -128.5 42t-117.5 136l-101 153q-93 -105 -128 -171.5t-46 -149.5h-104q-40 0 -68 24.5t-28 59.5q0 78 42 149.5t138 173.5l76 82l-99 142q-68 98 -92.5 135t-48 85.5t-25.5 82.5h138q38 0 85.5 -37.5t118.5 -138.5l97 -136
q108 123 141.5 180.5t44.5 129.5h88q48 0 71 -28.5t23 -70.5q0 -101 -250 -378l103 -148q78 -113 119.5 -151t101.5 -50z" />
    <glyph glyph-name="y" unicode="y" horiz-adv-x="882" 
d="M647 199q-87 -206 -152.5 -312t-128 -147t-149.5 -41q-67 0 -114.5 40t-47.5 103v45l131 9q63 3 94.5 35.5t69.5 134.5q-91 137 -198 417.5t-132 446.5h123q49 0 88 -30.5t48 -78.5q50 -275 184 -536q60 137 113 322.5t67 322.5h100q56 0 82.5 -26t26.5 -83
q0 -64 -77.5 -284.5t-127.5 -337.5z" />
    <glyph glyph-name="z" unicode="z" horiz-adv-x="894" 
d="M813 109q0 -42 -37.5 -75.5t-81.5 -33.5h-452q-78 0 -119 33t-41 90q0 100 141 254l236 254q56 60 78 106h-455v70q0 55 38.5 89t112.5 34h422q75 0 110.5 -36t35.5 -83q0 -118 -119 -246l-233 -252q-64 -72 -87 -114h451v-90z" />
    <glyph glyph-name="braceleft" unicode="{" horiz-adv-x="673" 
d="M236 279q0 53 -27 90.5t-74 44.5l-86 14v70q0 33 20 51.5t66 25.5q52 7 74 46t22 90q0 35 -5 107t-5 108q0 85 12.5 148t42.5 116t86 80.5t138 27.5h151v-73q0 -40 -24 -65t-70 -25h-31q-25 0 -44 -8t-31.5 -19.5t-21 -32.5t-12.5 -37t-6.5 -45.5t-2.5 -45v-46.5v-12
q0 -26 4 -86t4 -94q0 -193 -158 -217v-5q162 -25 162 -217q0 -34 -6 -86.5t-6 -87.5q0 -29 0.5 -46.5t2.5 -46t6 -46t12 -38.5t19.5 -33t29 -20.5t40.5 -8.5h135v-74q0 -43 -32.5 -66.5t-73.5 -23.5h-47q-67 0 -117.5 20t-81 53t-49 83t-25 103t-6.5 120q0 39 7.5 106.5
t7.5 100.5z" />
    <glyph glyph-name="bar" unicode="|" horiz-adv-x="450" 
d="M281 -307h-37q-28 0 -51 23t-23 59v1523h35q30 0 53 -20t23 -53v-1532z" />
    <glyph glyph-name="braceright" unicode="}" horiz-adv-x="673" 
d="M438 279q0 -33 7.5 -100.5t7.5 -106.5q0 -67 -6.5 -120t-25 -103t-49 -83t-81 -53t-117.5 -20h-47q-41 0 -74 23.5t-33 66.5v74h136q23 0 40.5 8.5t29 20.5t19.5 33t12 38.5t6 46t2.5 46t0.5 46.5q0 35 -6 87.5t-6 86.5q0 192 162 217v5q-158 24 -158 217q0 34 3 94t3 86
v14q0 35 -0.5 54t-3.5 51.5t-10.5 50.5t-20 38t-33.5 29t-49 9h-30q-46 0 -70 25t-24 65v73h151q81 0 137 -27.5t86.5 -80t43 -116.5t12.5 -148q0 -36 -5.5 -108t-5.5 -107q0 -51 22.5 -90t74.5 -46q46 -7 66 -25.5t20 -51.5v-70l-86 -14q-47 -7 -74 -44.5t-27 -90.5z" />
    <glyph glyph-name="asciitilde" unicode="~" horiz-adv-x="1095" 
d="M954 588q0 -97 -64 -160t-175 -63q-36 0 -71.5 10.5t-56.5 21.5t-57 33q-80 47 -141 47q-41 0 -69.5 -35.5t-28.5 -95.5h-58q-37 0 -63.5 30.5t-26.5 86.5q0 61 22.5 108.5t59 73t76 38.5t78.5 13q47 0 96 -18.5t84 -40.5t76.5 -40.5t75.5 -18.5q51 0 74.5 30t23.5 97h72
q27 0 50 -34.5t23 -82.5z" />
    <glyph glyph-name="uni00A0" unicode="&#xa0;" horiz-adv-x="245" 
 />
    <glyph glyph-name="exclamdown" unicode="&#xa1;" horiz-adv-x="616" 
d="M410 555l18 -676q0 -73 -38 -113t-107 -40h-111l18 673q0 73 39 114.5t105 41.5h76zM471 829q0 -66 -46.5 -112.5t-111.5 -46.5t-112 46.5t-47 112.5q0 64 47 111t112 47t111.5 -46.5t46.5 -111.5z" />
    <glyph glyph-name="cent" unicode="&#xa2;" horiz-adv-x="1067" 
d="M567 1157q55 0 81 -28.5t26 -90.5v-106q86 -11 142 -63.5t56 -127.5v-114h-12q-57 96 -248 96q-101 0 -173 -71t-72 -173q0 -127 68.5 -203.5t182.5 -76.5q83 0 149 23t89 61h12v-111q0 -63 -52.5 -112t-141.5 -66v-238h-35q-58 0 -88.5 32.5t-30.5 88.5v115
q-167 27 -279 152t-112 300q0 117 44.5 217t134 171t212.5 94v231h47z" />
    <glyph glyph-name="sterling" unicode="&#xa3;" horiz-adv-x="1085" 
d="M459 211h504v-82q0 -68 -45 -98.5t-136 -30.5h-645v68q0 28 25.5 71t55.5 82.5t55.5 93.5t25.5 101q0 58 -12 102h-217v45q0 133 133 133h47q-1 8 -8.5 45t-11 64t-3.5 55q0 165 122.5 270t312.5 105q98 0 168.5 -53t70.5 -123v-92h-10q-86 53 -229 53
q-78 0 -128.5 -49.5t-50.5 -132.5q0 -72 17 -142h329v-59q0 -57 -37.5 -88t-99.5 -31h-172q8 -32 8 -82q0 -140 -69 -225z" />
    <glyph glyph-name="currency" unicode="&#xa4;" horiz-adv-x="1126" 
d="M977 274l-121 -90l-145 197q-73 -45 -162 -45q-63 0 -123 24l-131 -176l-123 88l133 164q-72 85 -72 238q0 142 82 227l-143 176l121 86l135 -182q62 33 150 33q83 0 145 -33l137 184l117 -88l-141 -178q61 -77 61 -215q0 -129 -74 -219zM748 684q0 207 -189 207
q-76 0 -127 -58t-51 -155q0 -99 44.5 -159t141.5 -60q75 0 128 61t53 164z" />
    <glyph glyph-name="yen" unicode="&#xa5;" horiz-adv-x="1077" 
d="M1020 1149q0 -50 -101.5 -191t-218.5 -274h261v-78q0 -33 -33 -57.5t-84 -24.5h-195v-147h312v-78q0 -30 -34 -56t-83 -26h-195v-217h-102q-42 0 -77.5 35.5t-35.5 87.5v94h-305v66q0 41 30.5 67.5t84.5 26.5h190v147h-305v66q0 40 30.5 67t84.5 27h145
q-265 319 -342 551h115q64 0 106 -22t56 -50q46 -93 110.5 -198t120.5 -172q65 76 147.5 206.5t126.5 235.5h101q43 0 66.5 -24.5t23.5 -61.5z" />
    <glyph glyph-name="brokenbar" unicode="&#xa6;" horiz-adv-x="509" 
d="M303 580h-37q-28 0 -50.5 23t-22.5 59v636h34q30 0 53 -20t23 -53v-645zM303 -307h-37q-28 0 -50.5 23t-22.5 59v637h34q30 0 53 -20.5t23 -53.5v-645z" />
    <glyph glyph-name="section" unicode="&#xa7;" horiz-adv-x="1099" 
d="M809 276q106 -73 106 -198q0 -154 -104 -242t-303 -88q-148 0 -231.5 61.5t-83.5 149.5v96h10q51 -55 129 -88t166 -33q178 0 178 121q0 34 -16 55.5t-76.5 52t-186.5 73.5q-118 41 -180.5 113.5t-62.5 164.5q0 71 48 132.5t120 90.5q-129 66 -129 213q0 132 114.5 217.5
t306.5 85.5q113 0 184.5 -54t71.5 -132v-92h-6q-99 96 -270 96q-81 0 -126.5 -31t-45.5 -67q0 -35 14.5 -57t59 -46.5t137.5 -58.5q70 -25 120.5 -50t98 -61.5t72 -86t24.5 -109.5q0 -75 -41 -139.5t-98 -88.5zM614 598q-126 43 -190 72q-64 -46 -64 -111q0 -31 13 -55.5
t33 -40.5t54.5 -32.5t65.5 -28t79 -29t83 -33.5q51 44 51 125q0 45 -29.5 77t-95.5 56z" />
    <glyph glyph-name="dieresis" unicode="&#xa8;" horiz-adv-x="946" 
d="M795 1233q0 -53 -38.5 -91t-90.5 -38t-90.5 38t-38.5 91q0 52 38 89.5t91 37.5t91 -37.5t38 -89.5zM410 1233q0 -53 -38 -91t-91 -38q-54 0 -91.5 38t-37.5 91t37.5 90t91.5 37q53 0 91 -37.5t38 -89.5z" />
    <glyph glyph-name="copyright" unicode="&#xa9;" horiz-adv-x="1501" 
d="M1370 598q0 -168 -83 -311t-226 -226.5t-311 -83.5t-310.5 83.5t-225.5 226.5t-83 311t83 311t225.5 226.5t310.5 83.5t311 -83.5t226 -226.5t83 -311zM1251 598q0 136 -67 251.5t-182.5 183t-251.5 67.5q-135 0 -250 -67.5t-182.5 -183t-67.5 -251.5q0 -135 67.5 -250
t182.5 -182.5t250 -67.5q136 0 251.5 67.5t182.5 182.5t67 250zM1016 727h-15q-32 37 -83 55.5t-103 18.5q-87 0 -143 -54.5t-56 -142.5q0 -107 52.5 -161t146.5 -54q53 0 103 18t79 48h15v-68q0 -51 -40.5 -88t-90.5 -52.5t-97 -15.5q-39 0 -83.5 10t-95 36t-90.5 64
t-66.5 101.5t-26.5 141.5q0 37 8 79t32.5 95.5t63 95.5t106 71t154.5 29q98 0 164 -41t66 -118v-68z" />
    <glyph glyph-name="ordfeminine" unicode="&#xaa;" horiz-adv-x="753" 
d="M616 807q0 -101 -66 -165t-169 -64h-29q-108 0 -177 57.5t-69 146.5q0 93 72.5 147t231.5 54h45q0 61 -27.5 84t-93.5 23q-72 0 -122.5 -21t-72.5 -49h-8v55q0 63 57 111.5t168 48.5q114 0 187 -66.5t73 -218.5v-143zM455 805v53h-45q-79 0 -107.5 -17.5t-28.5 -52.5
q0 -69 93 -69q45 0 66.5 20.5t21.5 65.5z" />
    <glyph glyph-name="guillemotleft" unicode="&#xab;" horiz-adv-x="821" 
d="M778 131h-41q-72 0 -116.5 20.5t-71.5 63.5l-162 258l162 262q25 40 67.5 60t120.5 20h41l-198 -342zM440 131h-41q-73 0 -116.5 20t-73.5 64l-178 258l178 262q28 40 69.5 60t120.5 20h41l-219 -342z" />
    <glyph glyph-name="logicalnot" unicode="&#xac;" horiz-adv-x="1157" 
d="M1034 799v-643h-231v409h-721v234h952z" />
    <glyph glyph-name="registered" unicode="&#xae;" horiz-adv-x="1480" 
d="M1350 598q0 -168 -83.5 -311t-226.5 -226.5t-311 -83.5t-310.5 83.5t-225 226.5t-82.5 311t82.5 311t225 226.5t310.5 83.5t311 -83.5t226.5 -226.5t83.5 -311zM1231 598q0 136 -67.5 251.5t-183 183t-251.5 67.5q-135 0 -250 -67.5t-182.5 -183t-67.5 -251.5
q0 -135 67.5 -250t182.5 -182.5t250 -67.5q136 0 251.5 67.5t183 182.5t67.5 250zM1044 297q-28 -26 -47.5 -33.5t-54.5 -7.5q-55 0 -90 27t-51.5 65.5t-32 77t-45.5 65.5t-78 27v-262h-72q-58 0 -90 31t-32 80v567q36 13 100.5 22t107.5 9h78q115 0 186.5 -59.5
t71.5 -153.5q0 -61 -34 -109t-99 -74q21 -10 38.5 -30t26 -34.5t26 -51.5t24.5 -50q10 -21 27.5 -45.5t28.5 -40t11 -20.5zM799 731q0 49 -20 67.5t-58 18.5h-41q-11 0 -35 -4v-145q20 -2 74 -2q35 0 57.5 17t22.5 48z" />
    <glyph glyph-name="macron" unicode="&#xaf;" horiz-adv-x="614" 
d="M547 1286v-80q0 -35 -33.5 -63.5t-79.5 -28.5h-366v66q0 46 35 76t96 30h348z" />
    <glyph glyph-name="macron" unicode="&#x2c9;" horiz-adv-x="614" 
d="M547 1286v-80q0 -35 -33.5 -63.5t-79.5 -28.5h-366v66q0 46 35 76t96 30h348z" />
    <glyph glyph-name="degree" unicode="&#xb0;" horiz-adv-x="774" 
d="M666 999q0 -116 -76.5 -193t-200.5 -77q-127 0 -203.5 76.5t-76.5 191.5q0 119 74.5 197t205.5 78h2q129 0 202 -76.5t73 -196.5zM502 999q0 55 -29.5 94.5t-83.5 39.5h-2q-53 0 -83 -40.5t-30 -95.5q0 -48 31.5 -86.5t81.5 -38.5q55 0 85 36.5t30 90.5z" />
    <glyph glyph-name="plusminus" unicode="&#xb1;" horiz-adv-x="1042" 
d="M940 672q0 -44 -31 -73.5t-84 -29.5h-204v-284h-76q-44 0 -75.5 34.5t-31.5 94.5v155h-329v78q0 39 33 70t79 31h217v251h90q36 0 64.5 -29t28.5 -73v-149h319v-76zM909 72q0 -27 -25.5 -49.5t-62.5 -22.5h-690v72q0 37 27 60.5t75 23.5h676v-84z" />
    <glyph glyph-name="twosuperior" unicode="&#xb2;" horiz-adv-x="811" 
d="M573 487h-360q-43 0 -73.5 26.5t-30.5 68.5q0 51 34 98t99 98l168 133q47 38 47 86q0 36 -29 58t-90 22q-75 0 -122 -19t-87 -69h-6v70q0 86 67.5 141t210.5 55q124 0 199.5 -69t75.5 -166q0 -81 -34 -129.5t-134 -118.5q-10 -7 -36 -23.5t-54 -36.5t-58 -46h332v-76
q0 -48 -30.5 -75.5t-88.5 -27.5z" />
    <glyph glyph-name="threesuperior" unicode="&#xb3;" horiz-adv-x="690" 
d="M289 475q-98 0 -166 40.5t-68 125.5v86h17q71 -74 213 -74q110 0 110 60q0 41 -24.5 58.5t-100.5 21.5q-92 7 -92 84v51l107 10q38 4 60.5 10t32 16.5t11.5 19t2 24.5q0 73 -127 73q-121 0 -190 -75h-15v90q0 67 67.5 114t192.5 47q114 0 195.5 -60.5t81.5 -162.5
q0 -108 -98 -162q43 -20 72.5 -60t29.5 -87q0 -120 -82.5 -185t-228.5 -65z" />
    <glyph glyph-name="acute" unicode="&#xb4;" horiz-adv-x="952" 
d="M651 1286q0 -68 -102.5 -119t-222.5 -51h-80v8q160 254 305 254q100 0 100 -92z" />
    <glyph glyph-name="mu" unicode="&#xb5;" horiz-adv-x="1093" 
d="M981 446q0 -219 -100 -337.5t-271 -118.5q-170 0 -239 135v-401l-88 -3q-67 -2 -109.5 40t-42.5 114v1096h47q201 0 201 -172v-344q0 -110 45.5 -181t146.5 -71q77 0 121.5 57.5t44.5 177.5v533h43q104 0 152.5 -43t48.5 -129v-353z" />
    <glyph glyph-name="mu" unicode="&#x3bc;" horiz-adv-x="1093" 
d="M981 446q0 -219 -100 -337.5t-271 -118.5q-170 0 -239 135v-401l-88 -3q-67 -2 -109.5 40t-42.5 114v1096h47q201 0 201 -172v-344q0 -110 45.5 -181t146.5 -71q77 0 121.5 57.5t44.5 177.5v533h43q104 0 152.5 -43t48.5 -129v-353z" />
    <glyph glyph-name="paragraph" unicode="&#xb6;" horiz-adv-x="983" 
d="M831 -23h-51q-48 0 -78 35t-30 109v923q0 36 -15 48t-55 12h-59v-1127h-39q-54 0 -87.5 35t-33.5 109v389h-12q-43 0 -93.5 21t-99.5 60t-82 107t-33 150q0 61 13.5 115.5t49.5 109.5t93 94t151 63.5t216 24.5q128 0 186.5 -44.5t58.5 -139.5v-1094z" />
    <glyph glyph-name="periodcentered" unicode="&#xb7;" horiz-adv-x="473" 
d="M236 352q-65 0 -107.5 43.5t-42.5 110.5q0 69 43 114.5t109 45.5t108.5 -45t42.5 -115q0 -68 -41.5 -111t-109.5 -43h-2z" />
    <glyph glyph-name="periodcentered" unicode="&#x2219;" horiz-adv-x="473" 
d="M236 352q-65 0 -107.5 43.5t-42.5 110.5q0 69 43 114.5t109 45.5t108.5 -45t42.5 -115q0 -68 -41.5 -111t-109.5 -43h-2z" />
    <glyph glyph-name="cedilla" unicode="&#xb8;" horiz-adv-x="1060" 
d="M754 -254q0 -69 -42 -116.5t-101 -67t-128 -19.5q-35 0 -66.5 4.5t-68 16t-58.5 38.5t-22 66v60h11q65 -52 192 -52q111 0 111 64q0 31 -26 44t-79 13t-119 -8q6 23 16.5 58t16 55.5t11.5 47.5t10 50h127q0 -18 -7 -80q53 0 101.5 -16.5t84.5 -57.5t36 -100z" />
    <glyph glyph-name="onesuperior" unicode="&#xb9;" horiz-adv-x="710" 
d="M473 506h-98q-51 0 -84 32.5t-33 86.5v430l-63 -21q-21 -6 -39 -6q-36 0 -63.5 19t-33.5 49l-10 55l201 84q52 22 121 22q40 0 71 -26.5t31 -71.5v-653z" />
    <glyph glyph-name="ordmasculine" unicode="&#xba;" horiz-adv-x="743" 
d="M668 915q0 -146 -79.5 -241.5t-221.5 -95.5q-131 0 -210 93t-79 222q0 147 79.5 243.5t221.5 96.5q131 0 210 -93.5t79 -224.5zM500 893q0 188 -133 188q-58 0 -89.5 -45t-31.5 -121q0 -186 133 -186q59 0 90 44.5t31 119.5z" />
    <glyph glyph-name="guillemotright" unicode="&#xbb;" horiz-adv-x="821" 
d="M84 131h-41l199 342l-199 342h41q78 0 120.5 -20t67.5 -60l162 -262l-162 -258q-28 -44 -72 -64t-116 -20zM422 131h-41l219 342l-219 342h41q79 0 120.5 -20t69.5 -60l179 -262l-179 -258q-32 -44 -74.5 -64t-115.5 -20z" />
    <glyph glyph-name="onequarter" unicode="&#xbc;" horiz-adv-x="1636" 
d="M1094 1217q0 -44 -15 -74l-538 -1143h-45q-38 0 -65.5 26.5t-27.5 71.5q0 40 25 95l518 1105h64q36 0 60 -21t24 -60zM473 506h-98q-51 0 -84 32.5t-33 86.5v430l-63 -21q-21 -6 -39 -6q-36 0 -63.5 19t-33.5 49l-10 55l201 84q52 22 121 22q40 0 71 -26.5t31 -71.5v-653
zM1470 164h-57v-164h-106q-56 0 -84.5 24.5t-28.5 79.5v60h-197q-46 0 -83 27t-37 65q0 61 64 169t145.5 201.5t136.5 129.5h67q55 0 89 -34t34 -93v-289h152v-84q0 -40 -25.5 -66t-69.5 -26zM1194 506q-67 -90 -107 -168h107v168z" />
    <glyph glyph-name="onehalf" unicode="&#xbd;" horiz-adv-x="1660" 
d="M1094 1217q0 -44 -15 -74l-538 -1143h-45q-38 0 -65.5 26.5t-27.5 71.5q0 40 25 95l518 1105h64q36 0 60 -21t24 -60zM1407 0h-360q-43 0 -73 25.5t-30 68.5q0 90 133 197l168 133q47 33 47 82q0 37 -28.5 60.5t-89.5 23.5q-75 0 -122.5 -20t-86.5 -70h-7v71
q0 85 67.5 141t209.5 56q124 0 200 -70.5t76 -167.5q0 -80 -35 -129.5t-133 -117.5q-96 -63 -149 -107h334v-76q0 -48 -31 -74t-90 -26zM375 506q-51 0 -84 32.5t-33 86.5v430l-63 -21q-21 -6 -39 -6q-36 0 -63.5 19t-33.5 49l-10 55l201 84q52 22 121 22q40 0 71 -26.5
t31 -71.5v-653h-98z" />
    <glyph glyph-name="threequarters" unicode="&#xbe;" horiz-adv-x="1634" 
d="M1583 256q0 -40 -26 -66t-68 -26h-57v-164h-107q-56 0 -84.5 24.5t-28.5 79.5v60h-196q-46 0 -83.5 27t-37.5 65q0 61 63.5 169t145 202t137.5 129h68q55 0 89 -34t34 -93v-289h151v-84zM1141 1155q0 -44 -15 -74l-510 -1081h-45q-37 0 -64.5 26.5t-27.5 71.5q0 40 25 95
l489 1044h64q36 0 60 -21.5t24 -60.5zM1212 338v168q-73 -93 -106 -168h106zM289 475q-98 0 -166 40.5t-68 125.5v86h17q71 -74 213 -74q110 0 110 60q0 41 -24.5 58.5t-100.5 21.5q-92 7 -92 84v51l107 10q38 4 60.5 10t32 16.5t11.5 19t2 24.5q0 73 -127 73
q-121 0 -190 -75h-15v90q0 67 67.5 114t192.5 47q114 0 195.5 -60.5t81.5 -162.5q0 -108 -98 -162q43 -20 72.5 -60t29.5 -87q0 -120 -82.5 -185t-228.5 -65z" />
    <glyph glyph-name="questiondown" unicode="&#xbf;" horiz-adv-x="868" 
d="M340 819q0 63 46 108.5t110 45.5q63 0 108 -45.5t45 -108.5q0 -64 -45 -109.5t-108 -45.5q-65 0 -110.5 45.5t-45.5 109.5zM451 -315q-177 0 -278 90t-101 225q0 66 28.5 120t96.5 113l137 119q47 39 61.5 68.5t14.5 75.5v67h86q44 0 78 -31.5t34 -74.5q0 -65 -26 -114
t-88 -105l-125 -111q-52 -47 -52 -102q0 -60 42.5 -92.5t127.5 -32.5q196 0 285 116h14v-86q0 -100 -86.5 -172.5t-248.5 -72.5z" />
    <glyph glyph-name="AE" unicode="&#xc6;" horiz-adv-x="1648" 
d="M1604 150q0 -86 -59.5 -125t-211.5 -39h-82q-109 0 -187.5 15t-141.5 52.5t-99 104.5t-47 166h-446q-60 -165 -101 -324h-98q-100 0 -100 86q0 13 4 41q10 69 65.5 220t131 319.5t171.5 330t175 236.5h1024v-82q0 -58 -46.5 -93.5t-121.5 -35.5h-527q22 -111 49 -287h508
v-88q0 -112 -149 -112h-342l16 -119q9 -68 21 -106t38.5 -65.5t68.5 -37.5t112 -10h104q84 0 158.5 12t112.5 27v-86zM745 522q-6 99 -32.5 261.5t-48.5 240.5q-68 -94 -138.5 -236.5t-113.5 -265.5h333z" />
    <glyph glyph-name="Eth" unicode="&#xd0;" horiz-adv-x="1206" 
d="M115 700v492q45 17 140 32t165 15h127q87 0 170 -22.5t157.5 -71t131 -118t89.5 -170t33 -220.5q0 -184 -74 -332.5t-204 -231.5t-289 -83h-104q-162 0 -252 67t-90 205v270h-133v80q0 39 24 63.5t66 24.5h43zM616 700v-79q0 -43 -25 -66t-71 -23h-158v-223
q0 -55 28 -79.5t95 -24.5h43q152 0 250.5 114t98.5 283q0 202 -101.5 315t-265.5 113h-53q-14 0 -37.5 -3t-40.5 -6l-17 -3v-318h254z" />
    <glyph glyph-name="multiply" unicode="&#xd7;" horiz-adv-x="1097" 
d="M238 104l-68 68q-31 31 -31 66q0 41 45 86l217 219l-299 301l66 65q31 31 70 31q45 -4 81 -37l222 -221l286 287l64 -66q33 -38 33 -72q0 -42 -37 -79l-209 -209l317 -320l-65 -65q-31 -31 -68 -31q-43 0 -86 43l-235 236z" />
    <glyph glyph-name="Thorn" unicode="&#xde;" horiz-adv-x="1034" 
d="M750 623q0 103 -43.5 141.5t-143.5 38.5h-80q-54 0 -102 -10v-326q86 -16 174 -16q195 0 195 172zM133 1235h113q50 0 92.5 -37.5t42.5 -93.5v-100q58 8 74 8h139q187 0 298.5 -93.5t111.5 -273.5q0 -191 -116.5 -297t-299.5 -106q-125 0 -207 28v-270h-98q-60 0 -105 43
t-45 133v1059z" />
    <glyph glyph-name="germandbls" unicode="&#xdf;" horiz-adv-x="1200" 
d="M1116 303q0 -148 -86.5 -234.5t-261.5 -86.5q-103 0 -165 46.5t-62 106.5v103h10q87 -48 188 -48q65 0 97 27.5t32 75.5q0 55 -22.5 80t-100.5 67q-92 47 -127.5 92t-35.5 123q0 125 149 213q90 54 90 119q0 60 -40.5 88.5t-135.5 28.5q-98 0 -161.5 -73.5t-63.5 -209.5
v-821h-78q-90 0 -129 41.5t-39 134.5v660q0 226 132 352.5t349 126.5q186 0 299 -83t113 -235q0 -72 -36 -124.5t-111 -92.5q-76 -40 -99.5 -62.5t-23.5 -49.5q0 -26 29 -50t130 -83q160 -90 160 -232z" />
    <glyph glyph-name="ae" unicode="&#xe6;" horiz-adv-x="1505" 
d="M1427 608q0 -132 -87.5 -179.5t-319.5 -47.5l-168 4q13 -95 75 -150t179 -55q196 0 283 84h6v-71q0 -211 -316 -211q-114 0 -205.5 47.5t-128.5 115.5q-31 -73 -104.5 -119t-177.5 -46h-47q-152 0 -243 78t-91 204q0 135 106 217t334 82h101v23q0 91 -48 129.5t-153 38.5
q-209 0 -293 -105h-6v76q0 41 18.5 79.5t56 72.5t104.5 54.5t155 20.5q107 0 189 -43t114 -119q40 75 127 119.5t184 44.5q91 0 170.5 -38.5t132.5 -118.5t53 -187zM1051 762q-82 0 -135.5 -49.5t-61.5 -124.5l-4 -35h98q14 0 37.5 -1t32.5 -1q118 0 155 16t37 66
q0 61 -42.5 95t-116.5 34zM625 313v84h-84q-127 0 -174.5 -28t-47.5 -90q0 -56 37.5 -83.5t118.5 -27.5q61 0 105.5 42t44.5 103z" />
    <glyph glyph-name="eth" unicode="&#xf0;" horiz-adv-x="1060" 
d="M979 479q0 -218 -121.5 -358.5t-337.5 -140.5q-135 0 -236.5 66t-151.5 170.5t-50 229.5q0 142 48.5 251.5t149 175t240.5 65.5q113 0 182 -72q-15 67 -63 130t-107 100l-165 -123l-12 9t-11.5 9t-9 8t-8 9t-6 9t-4.5 11t-1 12q0 19 10 37t17 25t31 24.5t26 18.5
q-54 13 -80 43t-26 65v72l69 -2q72 -2 216 -49l149 112l37 -34q14 -14 14 -33q0 -13 -4.5 -25t-9 -20t-16 -19.5t-16.5 -15.5t-20 -15.5t-18 -13.5q146 -98 215.5 -276t69.5 -455zM739 446q0 291 -219 291q-97 0 -149 -69.5t-52 -188.5q0 -293 222 -293q97 0 147.5 71
t50.5 189z" />
    <glyph glyph-name="divide" unicode="&#xf7;" horiz-adv-x="1048" 
d="M842 514h-740v88q0 41 34.5 68.5t92.5 27.5h738v-88q0 -35 -37 -65.5t-88 -30.5zM690 948q0 -64 -45 -109.5t-110 -45.5q-63 0 -108.5 45.5t-45.5 109.5q0 63 45.5 108.5t108.5 45.5q64 0 109.5 -45.5t45.5 -108.5zM690 262q0 -65 -45.5 -110.5t-109.5 -45.5
q-63 0 -108.5 46t-45.5 110q0 63 45.5 108.5t108.5 45.5q64 0 109.5 -45.5t45.5 -108.5z" />
    <glyph glyph-name="logo.001" unicode="&#xfb;" horiz-adv-x="3055" 
d="M2884 385q-88 0 -88 -47q0 -14 19 -24t77 -21q68 -14 105.5 -49t37.5 -86q0 -73 -52.5 -114.5t-137.5 -41.5q-65 0 -106.5 28.5t-41.5 75.5l4 68q29 -32 69 -53t77 -21q80 0 80 52q0 20 -20.5 31t-84.5 24q-68 14 -100.5 43.5t-32.5 83.5q0 63 50.5 108t137.5 45
q60 0 104 -25.5t44 -72.5v-47q-92 43 -141 43zM2505 397q41 44 41 78q0 14 -22.5 39t-22.5 49q0 31 19 50.5t54 19.5q32 0 54 -27.5t22 -79.5q0 -59 -30.5 -96t-82.5 -37q-8 0 -32 4zM2314 80v520h49q21 0 39.5 -15.5t18.5 -37.5v-539h-43q-30 0 -47 18.5t-17 53.5zM1982 8
h-49q-78 0 -117.5 35t-39.5 98v445q59 16 139 16h70q110 0 187 -81.5t77 -211.5q0 -136 -74 -218.5t-193 -82.5zM1968 506h-33q-26 0 -53 -6v-338q0 -58 64 -58h32q77 0 120.5 52.5t43.5 140.5q0 209 -174 209zM1595 86q0 162 -24 356q-1 -8 -9 -30.5t-8 -26.5l-6 -18
q-39 -118 -88 -248q-1 -2 -3.5 -11t-5.5 -17t-14 -30t-28 -53h-23q-51 0 -108 160q-17 57 -40 126t-38 110l-14 40q-22 -135 -27 -436h-39q-29 0 -48 21t-19 57q0 108 16.5 257t36.5 257h43q35 0 62 -17t45 -48t27.5 -55.5t19.5 -59.5l26 -88q22 -53 31 -86v2q9 -39 20 -60
q0 1 7 25.5t14 34.5h-2q32 97 76 200.5t77 151.5h29q43 0 64.5 -30t29.5 -87q27 -311 29 -475h-45q-64 0 -64 78zM989 8q-23 0 -37.5 8t-22.5 25t-11.5 32.5t-7.5 42t-9 42.5h-235q-14 -50 -35 -150h-41q-23 0 -36 14t-13 39q0 67 71 265t133 274h33q62 0 143 -181t117 -411
h-49zM874 248q-37 125 -92 237q-54 -99 -92 -237h184zM406 80v188h-250v-260h-45q-24 0 -43 19.5t-19 52.5v520h53q20 0 37 -15.5t17 -37.5v-180h250v233h51q22 0 38.5 -15t16.5 -38v-539h-41q-24 0 -44.5 19.5t-20.5 52.5zM434 709h-59q-174 0 -174 147v424q120 29 164 29
h67q89 0 144 -45.5t55 -120.5q0 -88 -62 -121q30 -21 51 -55.5t21 -65.5q0 -91 -59 -141.5t-148 -50.5zM414 1079q73 0 73 54q0 49 -69 49h-43q-23 -2 -33 -2v-101h72zM418 961h-76v-97q0 -20 33 -20h49q74 0 74 51q0 37 -18.5 51.5t-61.5 14.5zM0 801v504h68
q28 0 51.5 -21.5t23.5 -56.5v-514h-59q-31 0 -57.5 24t-26.5 64zM2908 801q0 152 -14 272q0 -2 -1 -6.5t-1 -5.5q-7 -18 -23.5 -71t-27.5 -79l-27 -92q-10 -38 -57 -106h-37q-71 0 -107 96l-82 250q-4 2 -6 10q-16 -166 -16 -356h-53q-42 0 -65.5 23t-23.5 65q0 85 16 241
t32 263h39q125 0 169 -103l76 -223q18 -45 19 -47q0 4 3.5 13t4.5 13q49 150 83.5 236.5t65.5 110.5h25q51 0 85.5 -34.5t41.5 -94.5q9 -82 19 -231t10 -232h-60q-88 0 -88 88zM2181 801v504h64q30 0 52.5 -21.5t22.5 -56.5v-514h-55q-33 0 -58.5 24t-25.5 64zM1978 803v151
h-194v-241h-58q-38 0 -61 23.5t-23 66.5v502h72q30 0 49 -21.5t19 -54.5v-152h196v228h70q28 0 52 -21.5t24 -54.5v-516h-62q-34 0 -59 24t-25 66zM1479 778q-2 34 -13 76h-198q-29 -96 -29 -141h-55q-36 0 -52 16.5t-16 50.5q0 72 68.5 264t132.5 261h51q71 0 105 -62
q43 -80 94 -241t65 -289h-61q-41 0 -65 18.5t-27 46.5zM1434 973q-15 55 -66 180q-40 -78 -70 -180h136zM1053 909l49 -106l-2 2q7 -16 16 -31.5t13.5 -24t5.5 -14.5q-13 -16 -27 -22t-45 -6q-36 0 -62.5 23t-42 55.5t-29 65.5t-30.5 56t-39 23l-41 6v-223h-49q-92 0 -92 90
v481q16 10 70 18.5t90 8.5h63q90 0 145.5 -51t55.5 -130q0 -49 -26.5 -91.5t-65.5 -63.5q23 -20 43 -66zM954 1112q0 40 -17 55t-50 15h-33q-25 -2 -35 -2v-125q20 -2 66 -2q29 0 49 16t20 43z" />
    <glyph glyph-name="thorn" unicode="&#xfe;" horiz-adv-x="1142" 
d="M377 541v-88q0 -121 67.5 -190.5t169.5 -69.5q88 0 143.5 72t55.5 188q0 170 -56.5 248.5t-174.5 78.5q-91 0 -148 -66t-57 -173zM135 510v788h70q85 0 128.5 -45t43.5 -118v-209q87 69 244 69q125 0 227.5 -69t157.5 -178.5t55 -231.5q0 -242 -114.5 -390.5
t-321.5 -148.5q-79 0 -143.5 34.5t-102.5 92.5v-411h-76q-68 0 -119 46.5t-51 121.5v588q0 12 1 31.5t1 29.5z" />
    <glyph glyph-name="OE" unicode="&#x152;" horiz-adv-x="1689" 
d="M1645 227l-3 -86q-1 -57 -22.5 -88.5t-79 -48t-164.5 -16.5h-63q-280 0 -377 174q-114 -193 -336 -193q-97 0 -188.5 43.5t-164.5 122t-117 199.5t-44 264q0 111 22 211t67 183.5t109.5 144.5t153.5 95t195 34q79 0 158 -39t124 -103q14 44 56.5 76.5t93.5 32.5h577
q0 -45 -2 -72t-11 -57.5t-26.5 -47t-48.5 -27.5t-77 -11h-355q-11 -46 -18.5 -137t-7.5 -152h434v-88q0 -113 -150 -113h-284l2 -71q4 -149 61.5 -203.5t186.5 -54.5h30q178 0 269 28zM858 602q0 173 -25 269.5t-75 134.5t-137 38q-129 0 -203 -117.5t-74 -295.5
q0 -214 80.5 -327.5t202.5 -113.5q83 0 131 33t74 123.5t26 255.5z" />
    <glyph glyph-name="oe" unicode="&#x153;" horiz-adv-x="1617" 
d="M1540 608q0 -132 -90 -186.5t-317 -54.5h-168q13 -89 81.5 -139t172.5 -50q193 0 282 86h4v-76q0 -95 -79.5 -151.5t-249.5 -56.5q-92 0 -185 42.5t-149 118.5q-105 -161 -326 -161q-191 0 -312.5 135t-121.5 334q0 226 124 363.5t331 137.5q81 0 171.5 -41t141.5 -114
q115 155 330 155q89 0 170 -39.5t135.5 -119.5t54.5 -183zM1153 762q-43 0 -77.5 -15t-54.5 -37.5t-34 -50t-19 -50t-5 -40.5v-39h98q109 0 165 9.5t76.5 29t20.5 58.5q0 60 -47.5 97.5t-122.5 37.5zM522 741q-96 0 -150.5 -71t-54.5 -189q0 -148 62.5 -220.5t165.5 -72.5
q88 0 135 70t47 207q0 144 -55 210t-150 66z" />
    <glyph glyph-name="florin" unicode="&#x192;" horiz-adv-x="1087" 
d="M1010 1032h-13q-74 29 -133 29q-127 0 -151 -178l-17 -117h244v-68q0 -45 -39.5 -77.5t-114.5 -32.5h-110l-51 -416q-9 -73 -21 -126.5t-35.5 -108t-57.5 -88t-88 -55t-126 -21.5q-83 0 -133.5 36.5t-50.5 88.5v98h10q25 -14 69 -22.5t70 -8.5q54 0 87.5 38.5t45.5 146.5
l49 438h-211v65q0 47 38 78t87 33l109 2l12 98q46 389 369 389q76 0 119 -36.5t43 -90.5v-94z" />
    <glyph glyph-name="circumflex" unicode="&#x2c6;" horiz-adv-x="1165" 
d="M864 1075l-282 131l-281 -129v58q0 65 24 103.5t83 72.5l176 100l170 -98q56 -33 83 -75t27 -110v-53z" />
    <glyph glyph-name="tilde" unicode="&#x2dc;" horiz-adv-x="763" 
d="M686 1282q0 -75 -48 -124.5t-132 -49.5q-42 0 -88.5 21.5t-86.5 43t-67 21.5q-31 0 -51 -27.5t-20 -72.5h-46q-28 0 -48.5 23.5t-20.5 66.5q0 89 56 134.5t122 45.5q42 0 87 -22.5t86 -45t73 -22.5q39 0 55 22.5t16 75.5h56q22 0 39.5 -27.5t17.5 -62.5z" />
    <glyph glyph-name="comma.arabic" unicode="&#x60c;" horiz-adv-x="532" 
d="M82 195q0 116 72 206.5t170 90.5h45v-11q-33 -31 -55.5 -84.5t-22.5 -93.5q0 -36 18.5 -61.5t37 -51.5t18.5 -63q0 -54 -39 -90.5t-97 -36.5q-67 0 -107 51t-40 144z" />
    <glyph glyph-name="uni0615" unicode="&#x615;" 
d="M18 322q45 0 79 -21.5t53 -56t28.5 -71.5t9.5 -75q0 -42 -10.5 -70t-27.5 -28h-66h-338h-14q-18 0 -30.5 15.5t-12.5 33.5v27h57h2v61v293h19q25 0 34.5 -2t16 -14t6.5 -39v-193q87 140 194 140zM113 76v33q0 125 -113 127q-42 -1 -79 -30t-57 -63.5t-28 -66.5h191h86z
" />
    <glyph glyph-name="semicolon.arabic" unicode="&#x61b;" horiz-adv-x="430" 
d="M250 233q-49 0 -83 -34t-34 -84t34 -84.5t83 -34.5q50 0 84.5 35t34.5 84t-34.5 83.5t-84.5 34.5zM123 618q0 100 62 178t147 78h28q-28 -29 -46.5 -77t-18.5 -82q0 -40 32.5 -81.5t32.5 -78.5q0 -44 -32.5 -75t-79.5 -31q-58 0 -91.5 43.5t-33.5 125.5z" />
    <glyph glyph-name="questionmark.arabic" unicode="&#x61f;" horiz-adv-x="884" 
d="M68 975q0 140 104.5 235t290.5 95q168 0 258 -76t90 -180v-86h-10q-89 122 -301 122q-91 0 -138 -35t-47 -102q0 -62 56 -110l131 -109q66 -54 93.5 -108t27.5 -123q0 -44 -35 -76.5t-78 -32.5h-86v66q0 49 -14.5 78.5t-65.5 72.5l-147 125q-72 62 -100.5 117t-28.5 127z
M330 158q0 66 46 112.5t111 46.5t112.5 -46.5t47.5 -112.5q0 -64 -47.5 -111t-112.5 -47q-64 0 -110.5 46.5t-46.5 111.5z" />
    <glyph glyph-name="kashida" unicode="&#x640;" horiz-adv-x="235" 
d="M0 0v205h266v-205h-266z" />
    <glyph glyph-name="madda" unicode="&#x653;" 
d="M182 137v-45q0 -32 -20.5 -62t-55.5 -30h-272v72q0 24 16 44.5t41 20.5h291z" />
    <glyph glyph-name="hamza_above" unicode="&#x654;" 
d="M8 80h164l-2 -37q0 -43 -43 -43h-225q-21 0 -34 13.5t-13 29.5v37h63q-5 7 -6.5 15t-2.5 22.5t-1 17.5q0 62 35.5 101.5t95.5 39.5q95 0 111 -81q0 -49 -27 -80q-13 51 -40 71.5t-50 20.5q-43 0 -43 -66q0 -47 18 -61z" />
    <glyph glyph-name="hamza_below" unicode="&#x655;" 
d="M8 -197h164l-2 -36q0 -43 -43 -43h-225q-21 0 -34 13.5t-13 29.5v36h63q-4 6 -5.5 13t-2 13t-1.5 15.5t-1 14.5q0 62 35.5 101.5t95.5 39.5q41 0 72 -19.5t39 -62.5q0 -49 -27 -80q-13 51 -40 71.5t-50 20.5q-43 0 -43 -65q0 -48 18 -62z" />
    <glyph glyph-name="alef_subscript" unicode="&#x656;" 
d="M-70 -385v385h142v-360z" />
    <glyph glyph-name="uni0658" unicode="&#x658;" horiz-adv-x="819" 
d="M539 1874h127q0 -56 -15.5 -105t-46.5 -88t-82 -61.5t-116 -22.5t-115 23t-79 62.5t-43.5 87.5t-14.5 104h125q0 -60 33.5 -99.5t95.5 -39.5q61 0 96 37t35 102z" />
    <glyph glyph-name="zero.indic" unicode="&#x660;" horiz-adv-x="518" 
d="M258 477q-57 0 -96 39.5t-39 95.5t39 96t96 40t97 -40t40 -96t-40 -95.5t-97 -39.5z" />
    <glyph glyph-name="one.indic" unicode="&#x661;" horiz-adv-x="481" 
d="M358 0h-92q-60 0 -101.5 40.5t-41.5 115.5v1104q47 0 88 -8t67 -19t45 -23t27 -20.5t8 -11.5v-1178z" />
    <glyph glyph-name="two.indic" unicode="&#x662;" horiz-adv-x="1198" 
d="M956 1001h-501q-32 0 -53 -10t-30.5 -29t-12.5 -38t-3 -47v-758q0 -51 -41 -85t-90 -34h-102v889q0 151 89.5 246.5t260.5 101.5h602v-104q0 -49 -34 -90.5t-85 -41.5z" />
    <glyph glyph-name="three.indic" unicode="&#x663;" horiz-adv-x="1470" 
d="M1186 1260q162 0 162 -160v-318q0 -152 -93 -248t-276 -102q-22 0 -50.5 2t-93 21t-110.5 53q-53 -42 -123 -59t-176 -17h-90v-432h-70q-79 0 -120.5 41t-41.5 119l-2 1100q1 0 19 0.5t31.5 0.5t37.5 -2t42 -6t38.5 -13t34 -21.5t22.5 -32.5t9 -45v-504h139
q70 7 101.5 45.5t31.5 110.5v467h74q160 0 160 -160v-291q0 -43 -1 -57.5t-6 -27t-8 -30.5q39 -57 125 -57q88 7 123 45t35 111v467h76z" />
    <glyph glyph-name="four.indic" unicode="&#x664;" horiz-adv-x="1071" 
d="M795 0h-250q-199 0 -301.5 95.5t-102.5 260.5q0 76 18 149.5t42 117.5q-78 130 -78 286q0 70 21 130t67.5 113t132 83.5t201.5 30.5h403v-70q0 -73 -34.5 -105t-118.5 -32h-320q-23 -1 -36 -2t-36.5 -7.5t-36.5 -17t-23.5 -32.5t-10.5 -52q0 -48 12.5 -115t32.5 -108h518
v-68q0 -74 -36 -105.5t-116 -31.5h-372q-39 -72 -39 -141q0 -89 34.5 -130t108.5 -44h473v-70q0 -72 -34 -103.5t-119 -31.5z" />
    <glyph glyph-name="five.indic" unicode="&#x665;" horiz-adv-x="1306" 
d="M123 580q0 68 28.5 140.5t71 133t101.5 121.5t110 105t106.5 84.5t82.5 58t45 28.5q22 -14 42.5 -28.5t76.5 -57t102 -82.5t103.5 -100t97 -115.5t67 -122.5t27.5 -127q0 -131 -33.5 -242t-98.5 -195.5t-171 -132.5t-242 -48q-126 0 -226 47.5t-162.5 128.5t-95 184.5
t-32.5 219.5zM643 1008q-4 0 -29.5 -19t-63.5 -56t-74 -82t-61.5 -106.5t-25.5 -121.5q0 -202 63 -305t216 -103q250 0 250 363q0 53 -15 105t-39.5 93.5t-54 79t-58.5 64.5t-53.5 47.5t-39.5 30.5z" />
    <glyph glyph-name="six.indic" unicode="&#x666;" horiz-adv-x="1198" 
d="M743 1022h-501q-51 0 -85 41t-34 90v104h602q171 -6 260.5 -101.5t89.5 -246.5v-909h-102q-49 0 -90 34t-41 85v778q0 28 -3 47t-12.5 38.5t-30.5 29.5t-53 10z" />
    <glyph glyph-name="seven.indic" unicode="&#x667;" horiz-adv-x="1167" 
d="M735 139q-19 -68 -60 -103.5t-89 -35.5q-49 0 -91.5 37t-62.5 102q-59 202 -167 585t-142 503q109 33 131 33q41 0 81 -31.5t56 -85.5l195 -676l190 676q33 117 137 117q18 0 39 -5t52.5 -15.5t39.5 -12.5z" />
    <glyph glyph-name="eight.indic" unicode="&#x668;" horiz-adv-x="1167" 
d="M735 1120l309 -1089l-88 -27q-21 -6 -43 -6q-47 0 -84 29t-53 88l-192 678q-19 -65 -88.5 -312.5t-104.5 -365.5q-20 -55 -58 -86t-79 -31q-18 0 -39 5t-51 15t-41 13q56 189 160 561.5t149 527.5q20 65 62 102.5t90 37.5q47 0 89 -37.5t62 -102.5z" />
    <glyph glyph-name="nine.indic" unicode="&#x669;" horiz-adv-x="1060" 
d="M891 0q-84 0 -121 38t-37 114v260h-28q-60 1 -111.5 5.5t-113 16.5t-110 31t-96.5 51t-80 74.5t-51.5 105t-19.5 138.5q0 126 46 226.5t141 162t225 61.5q105 0 185 -42.5t126 -113.5t69 -155.5t23 -177.5l-2 -795h-45zM326 860q0 -49 13 -87.5t31 -63.5t50 -43t58 -27
t68 -14t66 -5.5t66 -1t55 -0.5q0 22 1 72t1 76q0 59 -3.5 103t-17 92.5t-36.5 79t-64 51t-98 20.5q-92 0 -141 -69t-49 -183z" />
    <glyph glyph-name="percentsign.arabic" unicode="&#x66a;" horiz-adv-x="1048" 
d="M868 1110l-526 -1110h-45q-46 0 -74 24t-28 72q0 26 6 44.5t24 56.5l506 1063h64q36 0 61 -21t25 -59t-13 -70zM766 236q-49 0 -83 -34.5t-34 -84.5t34 -84.5t83 -34.5q50 0 84.5 35t34.5 84t-34.5 84t-84.5 35zM281 1237q-49 0 -83 -34.5t-34 -84.5t34 -84.5t83 -34.5
t83.5 34.5t34.5 84.5t-34.5 84.5t-83.5 34.5z" />
    <glyph glyph-name="decimal.arabic" unicode="&#x66b;" horiz-adv-x="471" 
d="M348 68q0 -116 -72 -206.5t-170 -90.5h-45v10q33 31 55.5 84.5t22.5 93.5q0 29 -11.5 51.5t-25 35.5t-25 36.5t-11.5 52.5q0 54 38.5 90.5t96.5 36.5q68 0 107.5 -50.5t39.5 -143.5z" />
    <glyph glyph-name="thousands.arabic" unicode="&#x66c;" horiz-adv-x="471" 
d="M348 936q0 -116 -72 -206.5t-170 -90.5h-45v10q33 31 55.5 84.5t22.5 93.5q0 29 -11.5 51.5t-25 36t-25 37t-11.5 52.5q0 54 38.5 90t96.5 36q68 0 107.5 -50.5t39.5 -143.5z" />
    <glyph glyph-name="fivept_star.arabic" unicode="&#x66d;" horiz-adv-x="1236" 
d="M428 72l-129 100l215 264l-332 84l54 154l296 -125v342h166l-24 -340l315 125l58 -156l-332 -82l213 -266l-129 -98l-185 293z" />
    <glyph glyph-name="alef_superscript" unicode="&#x670;" 
d="M51 0h-37q-28 0 -50.5 23t-22.5 59v389h34q30 0 53 -20.5t23 -53.5v-397z" />
    <glyph glyph-name="uni06C3" unicode="&#x6c3;" horiz-adv-x="1032" 
d="M555 870q121 0 212.5 -59.5t137 -154.5t45.5 -207q0 -195 -109.5 -322t-303.5 -127q-180 0 -287 123.5t-107 298.5q0 194 109 321t303 127zM537 698q-92 0 -141.5 -68t-49.5 -181q0 -277 209 -277q94 0 142 67.5t48 182.5q0 132 -51.5 204t-156.5 72zM668 1024
q-44 0 -74.5 29.5t-30.5 72.5q0 44 30.5 73.5t74.5 29.5q42 0 72 -29.5t30 -73.5q0 -42 -30 -72t-72 -30zM432 1024q-44 0 -74 29.5t-30 72.5q0 44 30 73.5t74 29.5t75.5 -29.5t31.5 -73.5q0 -42 -32 -72t-75 -30z" />
    <glyph glyph-name="arabicae" unicode="&#x6d5;" horiz-adv-x="1032" 
d="M555 870q121 0 212.5 -59.5t137 -154.5t45.5 -207q0 -195 -109.5 -322t-303.5 -127q-180 0 -287 123.5t-107 298.5q0 194 109 321t303 127zM537 698q-92 0 -141.5 -68t-49.5 -181q0 -277 209 -277q94 0 142 67.5t48 182.5q0 132 -51.5 204t-156.5 72z" />
    <glyph glyph-name="zero_ext.indic" unicode="&#x6f0;" horiz-adv-x="518" 
d="M276 475q-57 0 -96 39.5t-39 95.5t39 95.5t96 39.5t97.5 -39.5t40.5 -95.5t-40.5 -95.5t-97.5 -39.5z" />
    <glyph glyph-name="one_ext.indic" unicode="&#x6f1;" horiz-adv-x="481" 
d="M358 0h-92q-60 0 -101.5 40.5t-41.5 115.5v1104q47 0 88 -8t67 -19t45 -23t27 -20.5t8 -11.5v-1178z" />
    <glyph glyph-name="two_ext.indic" unicode="&#x6f2;" horiz-adv-x="1198" 
d="M956 1024h-501q-32 0 -53 -10t-30.5 -29.5t-12.5 -38.5t-3 -47v-780q0 -51 -41 -85t-90 -34h-102v911q0 151 89.5 247t260.5 102h602v-105q0 -49 -34 -90t-85 -41z" />
    <glyph glyph-name="three_ext.indic" unicode="&#x6f3;" horiz-adv-x="1470" 
d="M1186 1260q162 0 162 -160v-295q0 -155 -94 -260t-275 -111q-22 0 -50.5 2t-93 21t-110.5 53q-53 -42 -123 -59t-176 -17h-90v-434h-70q-79 0 -120.5 41t-41.5 119l-2 1100q1 0 19 0.5t31.5 0.5t37.5 -2t42 -6t38.5 -13t34 -21.5t22.5 -32.5t9 -45v-502h139
q70 7 101.5 45.5t31.5 110.5v465h74q160 0 160 -160v-289q0 -43 -1 -57.5t-6 -27t-8 -30.5q39 -57 125 -57q88 7 123 45t35 111v465h76z" />
    <glyph glyph-name="four_ext.indic" unicode="&#x6f4;" horiz-adv-x="1071" 
d="M795 0h-250q-199 0 -301.5 95.5t-102.5 260.5q0 76 18 149.5t42 117.5q-78 130 -78 286q0 70 21 130t67.5 113t132 83.5t201.5 30.5h403v-70q0 -73 -34.5 -105t-118.5 -32h-320q-23 -1 -36 -2t-36.5 -7.5t-36.5 -17t-23.5 -32.5t-10.5 -52q0 -48 12.5 -115t32.5 -108h518
v-68q0 -74 -36 -105.5t-116 -31.5h-372q-39 -72 -39 -141q0 -89 34.5 -130t108.5 -44h473v-70q0 -72 -34 -103.5t-119 -31.5z" />
    <glyph glyph-name="five_ext.indic" unicode="&#x6f5;" horiz-adv-x="1306" 
d="M123 580q0 68 28.5 140.5t71 133t101.5 121.5t110 105t106.5 84.5t82.5 58t45 28.5q22 -14 42.5 -28.5t76.5 -57t102 -82.5t103.5 -100t97 -115.5t67 -122.5t27.5 -127q0 -131 -33.5 -242t-98.5 -195.5t-171 -132.5t-242 -48q-126 0 -226 47.5t-162.5 128.5t-95 184.5
t-32.5 219.5zM643 1008q-4 0 -29.5 -19t-63.5 -56t-74 -82t-61.5 -106.5t-25.5 -121.5q0 -202 63 -305t216 -103q250 0 250 363q0 53 -15 105t-39.5 93.5t-54 79t-58.5 64.5t-53.5 47.5t-39.5 30.5z" />
    <glyph glyph-name="six_ext.indic" unicode="&#x6f6;" horiz-adv-x="1179" 
d="M743 1022h-501q-51 0 -85 41t-34 90v104h602q171 -6 260.5 -101.5t89.5 -246.5v-909h-102q-49 0 -90 34t-41 85v778q0 28 -3 47t-12.5 38.5t-30.5 29.5t-53 10z" />
    <glyph glyph-name="seven_ext.indic" unicode="&#x6f7;" horiz-adv-x="1167" 
d="M735 139q-19 -68 -60 -103.5t-89 -35.5q-49 0 -91.5 37t-62.5 102q-59 202 -167 585t-142 503q109 33 131 33q41 0 81 -31.5t56 -85.5l195 -676l190 676q33 117 137 117q18 0 39 -5t52.5 -15.5t39.5 -12.5z" />
    <glyph glyph-name="eight_ext.indic" unicode="&#x6f8;" horiz-adv-x="1167" 
d="M735 1120l309 -1089l-88 -27q-21 -6 -43 -6q-47 0 -84 29t-53 88l-192 678q-19 -65 -88.5 -312.5t-104.5 -365.5q-20 -55 -58 -86t-79 -31q-18 0 -39 5t-51 15t-41 13q56 189 160 561.5t149 527.5q20 65 62 102.5t90 37.5q47 0 89 -37.5t62 -102.5z" />
    <glyph glyph-name="nine_ext.indic" unicode="&#x6f9;" horiz-adv-x="1060" 
d="M891 0q-84 0 -121 38t-37 114v258h-28q-61 1 -111.5 5.5t-112.5 16.5t-110.5 30.5t-96.5 50.5t-80 74.5t-51.5 105t-19.5 138.5q0 126 46 227t141 162.5t225 61.5q105 0 185 -42.5t126 -113.5t69 -155.5t23 -177.5l-2 -793h-45zM326 858q0 -49 13 -87.5t31 -63.5t50 -43
t58 -27t68 -14t66 -5.5t66 -1t55 -0.5q0 22 1 72t1 76q0 59 -3.5 103t-17 92.5t-36.5 79t-64 51t-98 20.5q-92 0 -141 -69t-49 -183z" />
    <glyph glyph-name="endash" unicode="&#x2013;" horiz-adv-x="1085" 
d="M993 639v-96q0 -47 -31.5 -74t-87.5 -27h-786v93q0 45 30 74.5t81 29.5h794z" />
    <glyph glyph-name="emdash" unicode="&#x2014;" horiz-adv-x="1839" 
d="M1755 639v-96q0 -47 -31 -74t-86 -27h-1546v93q0 45 30 74.5t81 29.5h1552z" />
    <glyph glyph-name="quoteleft" unicode="&#x2018;" horiz-adv-x="491" 
d="M94 1028q0 120 75.5 214.5t178.5 94.5h47v-10q-34 -33 -58 -89t-24 -97q0 -31 12 -54.5t27 -37.5t27 -38.5t12 -56.5q0 -56 -40 -94.5t-101 -38.5q-72 0 -114 54t-42 153z" />
    <glyph glyph-name="quoteright" unicode="&#x2019;" horiz-adv-x="491" 
d="M397 1094q0 -121 -75 -215.5t-177 -94.5h-49v11q35 33 59.5 88.5t24.5 97.5q0 29 -12 53t-27 37.5t-27 38t-12 55.5q0 56 40.5 94.5t101.5 38.5q70 0 111.5 -53t41.5 -151z" />
    <glyph glyph-name="quotesinglbase" unicode="&#x201a;" horiz-adv-x="491" 
d="M391 61q0 -122 -74.5 -215.5t-177.5 -93.5h-49v10q35 32 59.5 88.5t24.5 96.5q0 30 -12 54t-27 37.5t-27 38.5t-12 56q0 56 40 94.5t100 38.5q72 0 113.5 -53.5t41.5 -151.5z" />
    <glyph glyph-name="quotedblleft" unicode="&#x201c;" horiz-adv-x="823" 
d="M442 1026q0 120 75.5 214.5t176.5 94.5h49v-10q-34 -33 -57.5 -89t-23.5 -97q0 -30 11.5 -54t26 -38t26 -38t11.5 -55q0 -57 -39.5 -96t-99.5 -39q-71 0 -113.5 54.5t-42.5 152.5zM68 1026q0 121 74.5 215t176.5 94h50v-10q-35 -32 -58.5 -88t-23.5 -98q0 -30 11.5 -54
t26 -38t26 -38t11.5 -55q0 -57 -39.5 -96t-99.5 -39q-72 0 -113.5 54.5t-41.5 152.5z" />
    <glyph glyph-name="quotedblright" unicode="&#x201d;" horiz-adv-x="825" 
d="M745 1090q0 -121 -73.5 -215.5t-177.5 -94.5h-50v11q35 33 59.5 88.5t24.5 97.5q0 31 -12 54.5t-26.5 36.5t-26.5 37.5t-12 57.5q0 55 41 94t100 39q71 0 112 -53.5t41 -152.5zM369 1090q0 -121 -75.5 -215.5t-178.5 -94.5h-47v11q34 33 58 89t24 97q0 25 -8 44.5
t-19.5 33l-23 27t-19.5 34t-8 47.5q0 55 40 94t101 39q72 0 114 -53.5t42 -152.5z" />
    <glyph glyph-name="quotedblbase" unicode="&#x201e;" horiz-adv-x="815" 
d="M834 61q0 -122 -74.5 -215.5t-177.5 -93.5h-50v10q35 32 59.5 88.5t24.5 96.5q0 30 -12 54t-26.5 37.5t-26.5 38.5t-12 56q0 56 40 94.5t101 38.5q70 0 112 -53.5t42 -151.5zM401 61q0 -122 -74 -215.5t-177 -93.5h-50v10q35 32 59.5 88.5t24.5 96.5q0 30 -12 54
t-27 37.5t-27 38.5t-12 56q0 56 40 94.5t100 38.5q72 0 113.5 -53.5t41.5 -151.5z" />
    <glyph glyph-name="dagger" unicode="&#x2020;" horiz-adv-x="931" 
d="M850 903q0 -57 -42.5 -100t-117.5 -43h-121v-1045h-63q-56 0 -100 42.5t-44 117.5v885h-280v82q0 47 35.5 86t91.5 39h153v354h82q47 0 86 -35.5t39 -91.5v-227h281v-64z" />
    <glyph glyph-name="daggerdbl" unicode="&#x2021;" horiz-adv-x="944" 
d="M721 174h-148v-481h-81q-57 0 -89 36t-32 91v354h-289v84q0 47 34 86t89 39h166v387h-289v80q0 48 34 86.5t89 38.5h166v323h96q48 0 77 -32t29 -78v-213h289v-80q0 -57 -39 -91t-102 -34h-148v-387h289v-82q0 -58 -39 -92.5t-102 -34.5z" />
    <glyph glyph-name="bullet" unicode="&#x2022;" horiz-adv-x="778" 
d="M389 862q94 0 159.5 -65t65.5 -160q0 -96 -64.5 -160.5t-160.5 -64.5q-92 0 -158.5 65t-66.5 160t66 160t159 65z" />
    <glyph glyph-name="ellipsis" unicode="&#x2026;" horiz-adv-x="1611" 
d="M1448 156q0 -64 -46.5 -110t-109.5 -46t-109 46t-46 110q0 63 46 108t109 45t109.5 -45t46.5 -108zM961 156q0 -64 -45.5 -110t-110.5 -46q-63 0 -108.5 46t-45.5 110q0 63 45.5 108t108.5 45q64 0 110 -45t46 -108zM473 156q0 -64 -45.5 -110t-108.5 -46
q-64 0 -109.5 45.5t-45.5 110.5q0 63 45.5 108t109.5 45q63 0 108.5 -45t45.5 -108z" />
    <glyph glyph-name="perthousand" unicode="&#x2030;" horiz-adv-x="2605" 
d="M743 864q0 -117 -36.5 -210t-112.5 -149t-180 -56q-96 0 -169 54.5t-109 141.5t-36 191q0 182 87 299.5t243 117.5q96 0 168.5 -54.5t108.5 -142t36 -192.5zM1233 1085l-512 -1085h-45q-46 0 -73.5 24t-27.5 70q0 37 29 99l496 1038h61q36 0 61 -20t25 -58q0 -43 -14 -68
zM2501 410q0 -182 -87 -300t-243 -118q-96 0 -168.5 55t-108.5 143t-36 193q0 118 36 210t111.5 148t179.5 56q96 0 169.5 -54.5t110 -141.5t36.5 -191zM1741 410q0 -118 -37.5 -211.5t-113.5 -150t-179 -56.5q-96 0 -169 55t-109.5 143t-36.5 193q0 117 36.5 209.5
t112.5 148.5t180 56q95 0 168.5 -54.5t110.5 -141.5t37 -191zM543 836q0 243 -127 243q-57 0 -86 -58t-29 -157q0 -241 127 -241q57 0 86 58t29 155zM2308 387q0 242 -129 242q-56 0 -86.5 -58.5t-30.5 -156.5q0 -242 129 -242q56 0 86.5 59.5t30.5 155.5zM1546 387
q0 242 -127 242q-57 0 -86.5 -58t-29.5 -157q0 -242 129 -242q56 0 85 58.5t29 156.5z" />
    <glyph glyph-name="guilsinglleft" unicode="&#x2039;" horiz-adv-x="632" 
d="M528 168h-75q-72 0 -116.5 20t-74.5 62l-178 260l178 262q27 39 69.5 58.5t121.5 19.5h75l-217 -340z" />
    <glyph glyph-name="guilsinglright" unicode="&#x203a;" horiz-adv-x="632" 
d="M180 168h-76l218 342l-218 340h76q79 0 121.5 -19.5t69.5 -58.5l178 -262l-178 -260q-30 -42 -74.5 -62t-116.5 -20z" />
    <glyph glyph-name="Euro" unicode="&#x20ac;" horiz-adv-x="1079" 
d="M979 293h10v-90q0 -82 -79.5 -154t-215.5 -72q-202 0 -331.5 119t-157.5 330h-156v55q0 38 20.5 61t53.5 23h70q-3 33 -3 56l3 49h-144v61q0 37 22.5 59.5t51.5 22.5h82q36 212 173.5 327t326.5 115q124 0 204 -68t80 -167v-82h-10q-36 47 -101.5 76.5t-140.5 29.5
q-244 0 -282 -231h385v-53q0 -40 -24 -65t-64 -25h-312q-2 -31 -2 -49l2 -56h400v-57q0 -36 -23 -59t-65 -23h-299q20 -122 87.5 -177.5t194.5 -55.5q75 0 142.5 28t101.5 72z" />
    <glyph glyph-name="trademark" unicode="&#x2122;" horiz-adv-x="1515" 
d="M1413 547h-76q-29 0 -48 7.5t-30.5 25t-17.5 38t-8.5 55.5t-3 68t-2.5 85.5t-6 97.5q-3 -9 -21.5 -72t-33.5 -112t-38 -107.5t-41 -87.5h-45q-15 0 -29 5t-26 17.5t-22 25.5t-21.5 37.5t-19.5 44t-19.5 54t-19 59t-21 68.5t-22.5 72q-15 -176 -15 -383l-69 2
q-43 2 -72 28.5t-29 71.5q0 126 15 275t37 258h47q68 0 114.5 -30t67.5 -75q34 -78 98 -278l25 79q25 78 43 127t50.5 107t62.5 72h14q67 0 105 -38.5t46 -105.5q31 -253 31 -491zM633 1112q0 -30 -29.5 -59t-71.5 -29h-77v-485h-78q-45 0 -73 22.5t-28 69.5v393h-174v68
q0 31 28 58.5t75 27.5h428v-66z" />
    <glyph glyph-name="minus" unicode="&#x2212;" horiz-adv-x="1208" 
d="M1116 725v-109q0 -54 -35 -83t-98 -29h-895v104q0 52 34 84.5t93 32.5h901z" />
    <glyph glyph-name="notequal" unicode="&#x2260;" horiz-adv-x="1069" 
d="M850 969l-64 -129h181v-88q0 -35 -37 -66t-88 -31h-144l-82 -172h351v-88q0 -41 -36 -67.5t-89 -26.5h-314l-129 -272h-45q-46 0 -74 24t-28 72q0 39 31 100l36 76h-217v86q0 41 34.5 68.5t92.5 27.5h179l81 172h-387v88q0 41 34.5 69t92.5 28h349l135 278
q42 0 95.5 -22.5t53.5 -57.5q0 -39 -12 -69z" />
    <glyph glyph-name="parenthesis_left_ornate" unicode="&#xfd3e;" horiz-adv-x="804" 
d="M340 580q0 -307 95.5 -546.5t244.5 -379.5q-232 2 -313 67q-111 89 -208.5 324.5t-97.5 493.5q0 179 41.5 350t108 295t153.5 199t175 75h143q-342 -362 -342 -878z" />
    <glyph glyph-name="parenthesis_right_ornate" unicode="&#xfd3f;" horiz-adv-x="804" 
d="M465 532q0 307 -95.5 546.5t-244.5 379.5q232 -2 313 -67q111 -89 208 -324.5t97 -493.5q0 -179 -41.5 -350t-107.5 -295t-153 -199t-175 -75h-143q342 362 342 878z" />
    <glyph glyph-name="CR" horiz-adv-x="1024" 
 />
    <glyph glyph-name="uni00AD" horiz-adv-x="675" 
d="M516 455h-430v135h430v-135z" />
    <glyph glyph-name="zero.basic" horiz-adv-x="1159" 
d="M1057 657q0 -339 -130.5 -509.5t-346.5 -170.5t-347 164.5t-131 466.5q0 335 131.5 505.5t364.5 170.5q216 0 337.5 -168.5t121.5 -458.5zM352 659q0 -251 60.5 -355.5t185.5 -104.5q97 0 153 99.5t56 301.5q0 254 -54.5 358.5t-172.5 104.5q-103 0 -165.5 -98.5
t-62.5 -305.5z" />
    <glyph glyph-name="one.basic" horiz-adv-x="704" 
d="M602 0h-100q-67 0 -109.5 42.5t-42.5 121.5v837l-123 -45q-53 -18 -94 -18q-104 0 -121 92l-12 66l229 100q94 41 140 53.5t98 12.5q59 0 97 -41t38 -93v-1128z" />
    <glyph glyph-name="two.basic" horiz-adv-x="1085" 
d="M983 123q0 -57 -47 -90t-123 -33h-584q-54 0 -90.5 36t-36.5 89q0 71 49.5 147t188.5 191l295 246q86 70 86 168q0 87 -57.5 136.5t-161.5 49.5q-136 0 -222.5 -39t-150.5 -125h-8v90q0 58 23 108.5t71 93.5t133.5 68t198.5 25q181 0 301.5 -109.5t120.5 -263.5
q0 -92 -27.5 -161t-80.5 -127t-154 -136l-197 -151q-89 -72 -119 -121h592v-92z" />
    <glyph glyph-name="three.basic" horiz-adv-x="1064" 
d="M963 375q0 -184 -127 -291t-369 -107q-159 0 -262 66t-103 188v101h11q127 -137 366 -137q118 0 176 47.5t58 124.5q0 88 -58 127.5t-180 42.5q-82 1 -117.5 24.5t-35.5 71.5v82q37 4 137 8q248 8 248 166q0 87 -61.5 133.5t-186.5 46.5q-107 0 -197.5 -35t-140.5 -100
h-8v106q0 40 25.5 82t72.5 78.5t124 60t169 23.5q205 0 327.5 -96t122.5 -256q0 -242 -227 -293q88 -18 162 -96t74 -168z" />
    <glyph glyph-name="four.basic" horiz-adv-x="1214" 
d="M1112 408q0 -51 -26.5 -80t-77.5 -29h-95v-299h-96q-68 0 -107.5 42t-39.5 120v137h-428q-61 0 -100.5 35t-39.5 80q0 73 33 137q86 155 252.5 386t282.5 325h92q70 0 110.5 -45t40.5 -132v-579h199v-98zM670 506v500q-70 -91 -175.5 -247.5t-158.5 -252.5h334z" />
    <glyph glyph-name="five.basic" horiz-adv-x="1071" 
d="M969 410q0 -202 -132.5 -317.5t-355.5 -115.5q-193 0 -286 63.5t-93 174.5v94h11q66 -58 143 -84t199 -26q135 0 195.5 49t60.5 147q0 95 -72.5 137.5t-226.5 42.5q-119 0 -295 -40v503q0 113 45.5 168.5t154.5 55.5h609v-66q0 -71 -44.5 -112.5t-127.5 -41.5h-392v-280
q107 10 166 10q188 0 314.5 -98.5t126.5 -263.5z" />
    <glyph glyph-name="six.basic" horiz-adv-x="1124" 
d="M1022 428q0 -64 -15 -125.5t-50.5 -121.5t-88 -104.5t-133.5 -72t-180 -27.5q-97 0 -177.5 35.5t-143 106.5t-97.5 187.5t-35 268.5q0 347 153.5 528t416.5 181q126 0 206 -65.5t80 -163.5v-76h-12q-88 92 -266 92q-167 0 -245 -105.5t-83 -303.5q32 72 105.5 114.5
t163.5 42.5q81 0 153.5 -26t127.5 -74t87.5 -123t32.5 -168zM360 430q0 -102 55 -171t154 -69q205 0 205 218q0 99 -57 150.5t-144 51.5q-101 0 -157 -52t-56 -128z" />
    <glyph glyph-name="seven.basic" horiz-adv-x="1077" 
d="M952 1135q0 -71 -108 -299q-32 -67 -96.5 -172.5t-111.5 -183t-84.5 -180.5t-37.5 -194v-106h-102q-127 0 -127 141q0 68 23 151t57 146q82 150 147.5 266t97.5 170.5t53.5 90.5t29.5 49t12 24h-599v88q0 134 138 134h571q137 0 137 -125z" />
    <glyph glyph-name="eight.basic" horiz-adv-x="1099" 
d="M997 358q0 -85 -24.5 -152t-77 -119.5t-144 -81t-216.5 -28.5q-199 0 -316 100t-117 263q0 99 65.5 185t151.5 112q-91 32 -150.5 99.5t-59.5 174.5q0 169 127 271t323 102q192 0 312 -101t120 -253q0 -117 -59.5 -183.5t-151.5 -93.5q85 -31 151 -111.5t66 -183.5z
M543 1065q-85 0 -133 -45.5t-48 -112.5q0 -74 48 -118t147 -44q86 0 134 43.5t48 110.5q0 79 -48.5 122.5t-147.5 43.5zM750 367q0 79 -54.5 128.5t-152.5 49.5q-77 0 -133 -48.5t-56 -115.5q0 -91 48 -137.5t155 -46.5q95 0 144 47.5t49 122.5z" />
    <glyph glyph-name="nine.basic" horiz-adv-x="1124" 
d="M1022 662q0 -341 -133 -513t-369 -172q-156 0 -253 63t-97 171v90h10q110 -106 328 -106q130 0 192.5 90.5t69.5 300.5q-25 -74 -86 -118t-147 -44q-197 0 -316 108.5t-119 286.5q0 209 124.5 337t351.5 128q444 0 444 -622zM768 819q0 129 -55 191.5t-156 62.5
q-95 0 -148 -62t-53 -163q0 -108 53 -160.5t146 -52.5q99 0 156 50t57 134z" />
    <glyph glyph-name="Euro.basic" horiz-adv-x="1126" 
d="M979 293h10v-90q0 -82 -79.5 -154t-215.5 -72q-202 0 -331.5 119t-157.5 330h-156v55q0 38 20.5 61t53.5 23h70q-3 33 -3 56l3 49h-144v61q0 37 22.5 59.5t51.5 22.5h82q36 212 173.5 327t326.5 115q124 0 204 -68t80 -167v-82h-10q-36 47 -101.5 76.5t-140.5 29.5
q-244 0 -282 -231h385v-53q0 -40 -24 -65t-64 -25h-312q-2 -31 -2 -49l2 -56h400v-57q0 -36 -23 -59t-65 -23h-299q20 -122 87.5 -177.5t194.5 -55.5q75 0 142.5 28t101.5 72z" />
    <glyph glyph-name="dollar.basic" horiz-adv-x="1126" 
d="M1042 377q0 -85 -33.5 -157t-85.5 -117t-111 -71t-116 -30v-252h-57q-111 0 -111 105v145q-180 7 -257.5 76.5t-77.5 177.5v86h4q57 -57 148.5 -94t201.5 -37q134 0 189 36t55 113q0 48 -22 75.5t-84 49t-189 43.5q-332 55 -332 314q0 105 53.5 188.5t134.5 129.5t176 59
v247h72q96 0 96 -104v-137q151 -11 231.5 -69.5t80.5 -158.5v-98h-9q-109 115 -325 115q-142 0 -202 -38t-60 -108q0 -45 19 -69t80 -44.5t191 -43.5q163 -29 251.5 -115t88.5 -217z" />
    <glyph glyph-name="cent.basic" horiz-adv-x="1126" 
d="M567 1157q55 0 81 -28.5t26 -90.5v-106q86 -11 142 -63.5t56 -127.5v-114h-12q-57 96 -248 96q-101 0 -173 -71t-72 -173q0 -127 68.5 -203.5t182.5 -76.5q83 0 149 23t89 61h12v-111q0 -63 -52.5 -112t-141.5 -66v-238h-35q-58 0 -88.5 32.5t-30.5 88.5v115
q-167 27 -279 152t-112 300q0 117 44.5 217t134 171t212.5 94v231h47z" />
    <glyph glyph-name="sterling.basic" horiz-adv-x="1126" 
d="M459 211h504v-82q0 -68 -45 -98.5t-136 -30.5h-645v68q0 28 25.5 71t55.5 82.5t55.5 93.5t25.5 101q0 58 -12 102h-217v45q0 133 133 133h47q-1 8 -8.5 45t-11 64t-3.5 55q0 165 122.5 270t312.5 105q98 0 168.5 -53t70.5 -123v-92h-10q-86 53 -229 53
q-78 0 -128.5 -49.5t-50.5 -132.5q0 -72 17 -142h329v-59q0 -57 -37.5 -88t-99.5 -31h-172q8 -32 8 -82q0 -140 -69 -225z" />
    <glyph glyph-name="florin.basic" horiz-adv-x="1126" 
d="M1010 1032h-13q-74 29 -133 29q-127 0 -151 -178l-17 -117h244v-68q0 -45 -39.5 -77.5t-114.5 -32.5h-110l-51 -416q-9 -73 -21 -126.5t-35.5 -108t-57.5 -88t-88 -55t-126 -21.5q-83 0 -133.5 36.5t-50.5 88.5v98h10q25 -14 69 -22.5t70 -8.5q54 0 87.5 38.5t45.5 146.5
l49 438h-211v65q0 47 38 78t87 33l109 2l12 98q46 389 369 389q76 0 119 -36.5t43 -90.5v-94z" />
    <glyph glyph-name="yen.basic" horiz-adv-x="1126" 
d="M1020 1149q0 -50 -101.5 -191t-218.5 -274h261v-78q0 -33 -33 -57.5t-84 -24.5h-195v-147h312v-78q0 -30 -34 -56t-83 -26h-195v-217h-102q-42 0 -77.5 35.5t-35.5 87.5v94h-305v66q0 41 30.5 67.5t84.5 26.5h190v147h-305v66q0 40 30.5 67t84.5 27h145
q-265 319 -342 551h115q64 0 106 -22t56 -50q46 -93 110.5 -198t120.5 -172q65 76 147.5 206.5t126.5 235.5h101q43 0 66.5 -24.5t23.5 -61.5z" />
    <glyph glyph-name="numbersign.basic" horiz-adv-x="1359" 
d="M1196 864q0 -57 -35 -88t-98 -31h-57l-45 -225h153v-57q0 -58 -34.5 -90.5t-98.5 -32.5h-55l-66 -340h-76q-102 0 -102 104q0 24 6 48l37 188h-193l-67 -340h-76q-54 0 -77 26t-23 78q0 18 4 50l37 186h-166v59q0 57 35 89t98 32h70l41 225h-162v56q0 58 34.5 90.5
t98.5 32.5h63l68 338h57q117 0 117 -111q0 -9 -4 -37l-37 -190h195l65 338h58q56 0 87 -28.5t31 -80.5q0 -27 -4 -43l-35 -186h156v-60zM805 745h-197l-41 -225h193z" />
    <glyph glyph-name="percent.basic" horiz-adv-x="2004" 
d="M821 879q0 -186 -89.5 -306t-248.5 -120q-98 0 -172 55.5t-110.5 145t-36.5 196.5q0 186 88.5 306t247.5 120q98 0 172.5 -55.5t111.5 -145t37 -196.5zM1323 1110l-526 -1110h-45q-46 0 -74.5 24t-28.5 72q0 26 6 44t25 57l506 1063h63q36 0 61 -21t25 -59q0 -40 -12 -70
zM1841 408q0 -186 -89.5 -306t-248.5 -120q-146 0 -233.5 116.5t-87.5 280.5q0 186 88.5 305t247.5 119q98 0 173 -55.5t112.5 -144.5t37.5 -195zM616 850q0 248 -131 248q-58 0 -87 -59t-29 -160q0 -248 129 -248q58 0 88 59.5t30 159.5zM1642 385q0 248 -131 248
q-57 0 -87.5 -59.5t-30.5 -159.5q0 -248 133 -248q57 0 86.5 59.5t29.5 159.5z" />
    <glyph glyph-name="perthousand.basic" horiz-adv-x="2605" 
d="M743 864q0 -117 -36.5 -210t-112.5 -149t-180 -56q-96 0 -169 54.5t-109 141.5t-36 191q0 182 87 299.5t243 117.5q96 0 168.5 -54.5t108.5 -142t36 -192.5zM1233 1085l-512 -1085h-45q-46 0 -73.5 24t-27.5 70q0 37 29 99l496 1038h61q36 0 61 -20t25 -58q0 -43 -14 -68
zM2501 410q0 -182 -87 -300t-243 -118q-96 0 -168.5 55t-108.5 143t-36 193q0 118 36 210t111.5 148t179.5 56q96 0 169.5 -54.5t110 -141.5t36.5 -191zM1741 410q0 -118 -37.5 -211.5t-113.5 -150t-179 -56.5q-96 0 -169 55t-109.5 143t-36.5 193q0 117 36.5 209.5
t112.5 148.5t180 56q95 0 168.5 -54.5t110.5 -141.5t37 -191zM543 836q0 243 -127 243q-57 0 -86 -58t-29 -157q0 -241 127 -241q57 0 86 58t29 155zM2308 387q0 242 -129 242q-56 0 -86.5 -58.5t-30.5 -156.5q0 -242 129 -242q56 0 86.5 59.5t30.5 155.5zM1546 387
q0 242 -127 242q-57 0 -86.5 -58t-29.5 -157q0 -242 129 -242q56 0 85 58.5t29 156.5z" />
    <glyph glyph-name="zero.onum" horiz-adv-x="1159" 
d="M1057 657q0 -339 -130.5 -509.5t-346.5 -170.5t-347 164.5t-131 466.5q0 335 131.5 505.5t364.5 170.5q216 0 337.5 -168.5t121.5 -458.5zM352 659q0 -251 60.5 -355.5t185.5 -104.5q97 0 153 99.5t56 301.5q0 254 -54.5 358.5t-172.5 104.5q-103 0 -165.5 -98.5
t-62.5 -305.5z" />
    <glyph glyph-name="one.onum" horiz-adv-x="704" 
d="M602 0h-100q-67 0 -109.5 42.5t-42.5 121.5v837l-123 -45q-53 -18 -94 -18q-104 0 -121 92l-12 66l229 100q94 41 140 53.5t98 12.5q59 0 97 -41t38 -93v-1128z" />
    <glyph glyph-name="two.onum" horiz-adv-x="1085" 
d="M983 123q0 -57 -47 -90t-123 -33h-584q-54 0 -90.5 36t-36.5 89q0 71 49.5 147t188.5 191l295 246q86 70 86 168q0 87 -57.5 136.5t-161.5 49.5q-136 0 -222.5 -39t-150.5 -125h-8v90q0 58 23 108.5t71 93.5t133.5 68t198.5 25q181 0 301.5 -109.5t120.5 -263.5
q0 -92 -27.5 -161t-80.5 -127t-154 -136l-197 -151q-89 -72 -119 -121h592v-92z" />
    <glyph glyph-name="three.onum" horiz-adv-x="1064" 
d="M963 375q0 -184 -127 -291t-369 -107q-159 0 -262 66t-103 188v101h11q127 -137 366 -137q118 0 176 47.5t58 124.5q0 88 -58 127.5t-180 42.5q-82 1 -117.5 24.5t-35.5 71.5v82q37 4 137 8q248 8 248 166q0 87 -61.5 133.5t-186.5 46.5q-107 0 -197.5 -35t-140.5 -100
h-8v106q0 40 25.5 82t72.5 78.5t124 60t169 23.5q205 0 327.5 -96t122.5 -256q0 -242 -227 -293q88 -18 162 -96t74 -168z" />
    <glyph glyph-name="four.onum" horiz-adv-x="1214" 
d="M1112 408q0 -51 -26.5 -80t-77.5 -29h-95v-299h-96q-68 0 -107.5 42t-39.5 120v137h-428q-61 0 -100.5 35t-39.5 80q0 73 33 137q86 155 252.5 386t282.5 325h92q70 0 110.5 -45t40.5 -132v-579h199v-98zM670 506v500q-70 -91 -175.5 -247.5t-158.5 -252.5h334z" />
    <glyph glyph-name="five.onum" horiz-adv-x="1071" 
d="M969 410q0 -202 -132.5 -317.5t-355.5 -115.5q-193 0 -286 63.5t-93 174.5v94h11q66 -58 143 -84t199 -26q135 0 195.5 49t60.5 147q0 95 -72.5 137.5t-226.5 42.5q-119 0 -295 -40v503q0 113 45.5 168.5t154.5 55.5h609v-66q0 -71 -44.5 -112.5t-127.5 -41.5h-392v-280
q107 10 166 10q188 0 314.5 -98.5t126.5 -263.5z" />
    <glyph glyph-name="six.onum" horiz-adv-x="1124" 
d="M1022 428q0 -64 -15 -125.5t-50.5 -121.5t-88 -104.5t-133.5 -72t-180 -27.5q-97 0 -177.5 35.5t-143 106.5t-97.5 187.5t-35 268.5q0 347 153.5 528t416.5 181q126 0 206 -65.5t80 -163.5v-76h-12q-88 92 -266 92q-167 0 -245 -105.5t-83 -303.5q32 72 105.5 114.5
t163.5 42.5q81 0 153.5 -26t127.5 -74t87.5 -123t32.5 -168zM360 430q0 -102 55 -171t154 -69q205 0 205 218q0 99 -57 150.5t-144 51.5q-101 0 -157 -52t-56 -128z" />
    <glyph glyph-name="seven.onum" horiz-adv-x="1077" 
d="M952 1137q0 -71 -108 -299q-32 -66 -97 -172.5t-111.5 -184t-84 -181.5t-37.5 -194v-106h-102q-127 0 -127 141q0 68 23 151t57 146q82 150 147.5 266t97.5 170.5t53.5 91.5t29.5 50t12 24h-599v88q0 134 138 134h571q137 0 137 -125z" />
    <glyph glyph-name="eight.onum" horiz-adv-x="1099" 
d="M997 358q0 -85 -24.5 -152t-77 -119.5t-144 -81t-216.5 -28.5q-199 0 -316 100t-117 263q0 99 65.5 185t151.5 112q-91 32 -150.5 99.5t-59.5 174.5q0 169 127 271t323 102q192 0 312 -101t120 -253q0 -117 -59.5 -183.5t-151.5 -93.5q85 -31 151 -111.5t66 -183.5z
M543 1065q-85 0 -133 -45.5t-48 -112.5q0 -74 48 -118t147 -44q86 0 134 43.5t48 110.5q0 79 -48.5 122.5t-147.5 43.5zM750 367q0 79 -54.5 128.5t-152.5 49.5q-77 0 -133 -48.5t-56 -115.5q0 -91 48 -137.5t155 -46.5q95 0 144 47.5t49 122.5z" />
    <glyph glyph-name="nine.onum" horiz-adv-x="1124" 
d="M1022 662q0 -341 -133 -513t-369 -172q-156 0 -253 63t-97 171v90h10q110 -106 328 -106q130 0 192.5 90.5t69.5 300.5q-25 -74 -86 -118t-147 -44q-197 0 -316 108.5t-119 286.5q0 209 124.5 337t351.5 128q444 0 444 -622zM768 819q0 129 -55 191.5t-156 62.5
q-95 0 -148 -62t-53 -163q0 -108 53 -160.5t146 -52.5q99 0 156 50t57 134z" />
    <glyph glyph-name="wasla" 
d="M76 322q45 0 79 -21.5t53 -56t28.5 -71.5t9.5 -75q0 -42 -11 -70t-28 -28h-66h-338h-14q-18 0 -30.5 15.5t-12.5 33.5v27h57h2v61v113h19q25 0 34.5 -2t16 -14t6.5 -39v-13q87 140 195 140zM170 76v33q0 125 -113 127q-42 -1 -78.5 -30t-56.5 -63.5t-28 -66.5h190h86z
" />
    <glyph glyph-name="hamza_medial" 
d="M35 137h274v-61q0 -29 -20 -52.5t-56 -23.5h-389q-36 0 -55.5 23.5t-19.5 52.5v61h106q-16 29 -16 99q0 104 60 171.5t167 67.5q68 0 121.5 -34t66.5 -105q0 -31 -20 -77t-23 -66q-14 49 -36 84t-45 51t-41.5 23t-34.5 7q-37 0 -55.5 -31.5t-18.5 -84.5q0 -87 35 -105z
" />
    <glyph glyph-name="xx.TahAbove" 
d="M18 322q45 0 79 -21.5t53 -56t28.5 -71.5t9.5 -75q0 -42 -10.5 -70t-27.5 -28h-66h-338h-14q-18 0 -30.5 15.5t-12.5 33.5v27h57h2v61v293h19q25 0 34.5 -2t16 -14t6.5 -39v-193q87 140 194 140zM113 76v33q0 125 -113 127q-42 -1 -79 -30t-57 -63.5t-28 -66.5h191h86z
" />
    <glyph glyph-name="shadda_fathatan" 
d="M-252 2l12 -147q3 -32 19 -51t43 -19q17 0 31 13t14 38q0 33 -8 115q-3 28 6.5 36.5t42.5 8.5l12 -150q3 -63 57 -63q24 0 37 18.5t11 51.5l-7 100q-4 39 25 41h20l11 -160q2 -36 -19.5 -64t-68.5 -28t-88 37q-24 -35 -76 -35q-51 0 -78.5 32.5t-32.5 82.5q-8 82 -8 108
q0 29 45 35zM35 135q-118 -8 -305 -16q-9 -1 -15.5 4t-8.5 14.5t-2.5 15.5t-0.5 15q269 14 297 16q14 2 24 -11.5t11 -37.5zM51 47q-118 -8 -305 -16q-9 -1 -15.5 4t-8.5 14.5t-2.5 15.5t-0.5 15q269 14 297 16q14 2 24 -11.5t11 -37.5z" />
    <glyph glyph-name="hamza_above_damma" 
d="M113 621q50 0 83 -34.5t33 -86.5q0 -42 -22 -75.5t-59.5 -53t-77.5 -32.5t-86.5 -18.5t-74 -7.5t-52.5 -2q-28 0 -34.5 6.5t-8.5 32.5l16 2q45 25 45 90q0 34 -19.5 54t-54.5 20q-37 0 -55 -27q-8 16 -8 25q0 17 19.5 31t52.5 14q55 0 86.5 -34.5t31.5 -82.5
q0 -36 -30 -86q93 7 153 23q-59 46 -59 108q0 56 35 95t86 39zM109 408q33 0 50 24.5t17 61.5q0 38 -19.5 61t-50.5 23t-48 -22.5t-17 -57.5q0 -37 19.5 -63.5t48.5 -26.5zM18 80h164l-2 -37q0 -43 -43 -43h-225q-21 0 -34 13.5t-13 29.5v37h63q-5 7 -6.5 15t-2.5 22.5
t-1 17.5q0 62 35.5 101.5t95.5 39.5q95 0 111 -81q0 -49 -27 -80q-13 51 -40 71.5t-50 20.5q-43 0 -43 -66q0 -47 18 -61z" />
    <glyph glyph-name="hamza_above_sukun" 
d="M29 618q67 0 103 -44.5t36 -104.5q0 -65 -46 -111.5t-108 -46.5q-64 0 -98.5 47.5t-34.5 106.5q0 69 42.5 111t105.5 42zM33 567q-42 0 -65 -31.5t-23 -78.5q0 -45 21 -70t59 -25q37 0 56 33.5t19 83.5q0 76 -67 88zM18 80h164l-2 -37q0 -43 -43 -43h-225q-21 0 -34 13.5
t-13 29.5v37h63q-5 7 -6.5 15t-2.5 22.5t-1 17.5q0 62 35.5 101.5t95.5 39.5q95 0 111 -81q0 -49 -27 -80q-13 51 -40 71.5t-50 20.5q-43 0 -43 -66q0 -47 18 -61z" />
    <glyph glyph-name="hamza_above_fathatan" 
d="M186 418q-157 -11 -305 -17q-12 -1 -18.5 9.5t-7 18.5t-0.5 22q269 14 297 16q14 2 23.5 -11.5t10.5 -37.5zM203 330q-157 -11 -305 -17q-9 -1 -15.5 4t-8.5 14.5t-2.5 15.5t-0.5 15q146 8 297 17q14 2 24 -11.5t11 -37.5zM18 80h164l-2 -37q0 -43 -43 -43h-225
q-21 0 -34 13.5t-13 29.5v37h63q-5 7 -6.5 15t-2.5 22.5t-1 17.5q0 62 35.5 101.5t95.5 39.5q95 0 111 -81q0 -49 -27 -80q-13 51 -40 71.5t-50 20.5q-43 0 -43 -66q0 -47 18 -61z" />
    <glyph glyph-name="hamza_above_dammatan" 
d="M63 385q60 3 60 86q0 40 -20.5 64t-51.5 24q-29 0 -45 -24t-16 -60q0 -41 20 -65.5t53 -24.5zM55 598q49 0 84 -31.5t35 -83.5q0 -49 -27.5 -86t-68 -56t-90 -31t-90 -14.5t-72.5 -3.5t-33 -1q-20 0 -25.5 8t-7.5 29l39 2q130 5 195 28q-53 41 -53 107q0 57 32.5 95
t81.5 38zM18 80h164l-2 -37q0 -43 -43 -43h-225q-21 0 -34 13.5t-13 29.5v37h63q-5 7 -6.5 15t-2.5 22.5t-1 17.5q0 62 35.5 101.5t95.5 39.5q95 0 111 -81q0 -49 -27 -80q-13 51 -40 71.5t-50 20.5q-43 0 -43 -66q0 -47 18 -61z" />
    <glyph glyph-name="hamza_above_fatha" 
d="M199 326q-157 -11 -305 -17q-9 -1 -15.5 4t-8.5 14.5t-2.5 15.5t-0.5 15q146 8 297 17q14 2 24 -11.5t11 -37.5zM18 80h164l-2 -37q0 -43 -43 -43h-225q-21 0 -34 13.5t-13 29.5v37h63q-5 7 -6.5 15t-2.5 22.5t-1 17.5q0 62 35.5 101.5t95.5 39.5q95 0 111 -81
q0 -49 -27 -80q-13 51 -40 71.5t-50 20.5q-43 0 -43 -66q0 -47 18 -61z" />
    <glyph glyph-name="hamza_below_kasratan" 
d="M193 -350q-155 -11 -306 -17q-12 -1 -18.5 9.5t-7 18.5t-0.5 22q269 14 297 16q14 2 24 -11.5t11 -37.5zM209 -438q-157 -11 -305 -17q-9 -1 -15.5 4t-8.5 14.5t-2.5 15.5t-0.5 15q146 8 297 17q14 2 24 -11.5t11 -37.5zM18 -197h164l-2 -36q0 -43 -43 -43h-225
q-21 0 -34 13.5t-13 29.5v36h63q-4 6 -5.5 13t-2 13t-1.5 15.5t-1 14.5q0 62 35.5 101.5t95.5 39.5q41 0 72 -19.5t39 -62.5q0 -49 -27 -80q-13 51 -40 71.5t-50 20.5q-43 0 -43 -65q0 -48 18 -62z" />
    <glyph glyph-name="hamza_below_kasra" 
d="M193 -174q-116 -8 -306 -16q-9 -1 -15 3.5t-8 14.5t-2.5 15.5t-0.5 15.5q269 14 297 16q14 2 24 -11.5t11 -37.5zM20 -193h164l-2 -36q0 -43 -43 -43h-225q-21 0 -34 13.5t-13 29.5v36h63q-4 6 -5.5 13t-2 13t-1.5 15.5t-1 14.5q0 62 35.5 101.5t95.5 39.5q41 0 72 -19.5
t39 -62.5q0 -49 -27 -80q-13 51 -40 71.5t-50 20.5q-43 0 -43 -65q0 -49 18 -62z" />
    <glyph glyph-name="wasle" horiz-adv-x="210" 
d="M0 0v205h240v-205h-240z" />
    <glyph glyph-name="Kashida.Narrow" horiz-adv-x="387" 
d="M0 0v205h428v-205h-428z" />
    <glyph glyph-name="kashida.long" horiz-adv-x="428" 
d="M-2 0v205h432v-205h-432z" />
    <glyph glyph-name="tooth.init" horiz-adv-x="585" 
d="M346 698q158 0 158 -161v-189q0 -149 -89 -245.5t-257 -102.5h-189v205h170q69 7 100 45t31 110v338h76z" />
    <glyph glyph-name="tooth.init.long" horiz-adv-x="585" 
d="M346 698q158 0 158 -161v-189q0 -149 -89 -245.5t-257 -102.5h-189v205h170q69 7 100 45t31 110v338h76z" />
    <glyph glyph-name="logo" horiz-adv-x="2549" 
 />
    </font>
</defs>
</svg>
