<?xml version="1.0" standalone="no"?>
<!DOCTYPE svg PUBLIC "-//W3C//DTD SVG 1.1//EN" "http://www.w3.org/Graphics/SVG/1.1/DTD/svg11.dtd" >
<svg xmlns="http://www.w3.org/2000/svg" xmlns:xlink="http://www.w3.org/1999/xlink" version="1.1">
<metadata>
Created by FontForge 20170731 at Tue Apr 27 13:16:43 2021
 By Aleksey,,,
Copyright (c) 2011 by IBRAHIM HAMDI's. All rights reserved.
</metadata>
<defs>
<font id="CoconNextArabic-Bold" horiz-adv-x="0" >
  <font-face 
    font-family="Cocon Next Arabic"
    font-weight="700"
    font-stretch="normal"
    units-per-em="2048"
    panose-1="2 10 5 3 2 1 2 2 2 4"
    ascent="1638"
    descent="-410"
    x-height="934"
    cap-height="1237"
    bbox="-477 -666 3056 1825"
    underline-thickness="102"
    underline-position="-307"
    unicode-range="U+0020-FEFC"
  />
<missing-glyph horiz-adv-x="1126" 
 />
    <glyph glyph-name="lam_alef_madda.isol" unicode="&#xfedf;&#xfe82;" horiz-adv-x="1284" arabic-form="isolated" 
d="M651 1522v-72q0 -42 -26 -79.5t-74 -37.5h-287v97q0 33 24 62.5t60 29.5h303zM961 1229q180 0 180 -178v-695q0 -154 -92 -252t-265 -104h-508q-194 0 -194 168v84h221v977h129q56 0 105 -40.5t49 -98.5v-838h178q52 3 74 32t22 85v860h101z" />
    <glyph glyph-name="lam_alef_madda.fina" unicode="&#xfee0;&#xfe82;" horiz-adv-x="1345" arabic-form="final" 
d="M645 1522v-72q0 -41 -26.5 -79t-73.5 -38h-289v97q0 33 25 62.5t61 29.5h303zM1335 252h51v-252h-81q-181 0 -279 80q-89 -74 -244 -80h-506q-194 0 -194 166v86h221v977h129q56 0 104 -41.5t48 -100.5v-835h182q51 3 72.5 30.5t21.5 82.5v864h101q180 0 180 -182v-646
q11 -78 55 -113.5t139 -35.5z" />
    <glyph glyph-name="lam_alef_hamza_above.isol" unicode="&#xfedf;&#xfe84;" horiz-adv-x="1284" arabic-form="isolated" 
d="M958 1229q183 0 183 -180v-693q0 -154 -92 -252t-265 -104h-508q-99 0 -146.5 41t-47.5 125v86h221v977h129q55 0 104.5 -41t49.5 -98v-838h178q52 3 74 31.5t22 83.5v862h98zM428 1440h184v-51q0 -22 -16.5 -39t-44.5 -17h-244q-25 0 -41 17t-16 39v51h59q-2 8 -2 35v14
q0 71 40.5 116.5t109.5 45.5q49 0 86 -23.5t47 -71.5q0 -7 -0.5 -13t-2.5 -12.5t-3 -11t-5 -11.5t-5.5 -9.5t-7 -10.5t-6.5 -9.5t-8 -10.5t-7 -10q-11 36 -24.5 58t-28.5 29.5t-22 9t-19 1.5q-35 0 -35 -61q0 -43 12 -55z" />
    <glyph glyph-name="lam_alef_hamza_above.fina" unicode="&#xfee0;&#xfe84;" horiz-adv-x="1345" arabic-form="final" 
d="M1335 252h51v-252h-81q-181 0 -279 80q-89 -74 -244 -80h-506q-194 0 -194 166v86h221v977h129q56 0 104 -41.5t48 -100.5v-835h182q51 3 72.5 30.5t21.5 82.5v864h101q180 0 180 -182v-646q11 -78 55 -113.5t139 -35.5zM428 1440h184v-51q0 -22 -16.5 -39t-44.5 -17
h-244q-25 0 -41 17t-16 39v51h59q-2 8 -2 35v14q0 71 40.5 116.5t109.5 45.5q49 0 86 -23.5t47 -71.5q0 -7 -0.5 -13t-2.5 -12.5t-3 -11t-5 -11.5t-5.5 -9.5t-7 -10.5t-6.5 -9.5t-8 -10.5t-7 -10q-11 36 -24.5 58t-28.5 29.5t-22 9t-19 1.5q-35 0 -35 -61q0 -43 12 -55z" />
    <glyph glyph-name="lam_alef_hamza_below.isol" unicode="&#xfedf;&#xfe88;" horiz-adv-x="1284" arabic-form="isolated" 
d="M958 1229q183 0 183 -180v-693q0 -154 -92 -252t-265 -104h-508q-99 0 -146.5 41t-47.5 125v86h221v977h129q55 0 104.5 -41t49.5 -98v-838h176q53 3 75.5 31.5t22.5 83.5v862h98zM268 -311h185v-51q0 -22 -17 -39t-45 -17h-244q-25 0 -41 17t-16 39v51h60q-3 12 -3 35
v14q0 71 40.5 116.5t109.5 45.5q49 0 86 -23.5t47 -71.5q0 -7 -0.5 -13t-2.5 -12.5t-3 -11t-5 -11.5t-5.5 -9.5t-7 -10.5t-6.5 -9.5t-8 -10.5t-7 -10q-11 36 -24.5 58t-28.5 29.5t-22 9t-19 1.5q-35 0 -35 -61q0 -43 12 -55z" />
    <glyph glyph-name="lam_alef_hamza_below.fina" unicode="&#xfee0;&#xfe88;" horiz-adv-x="1345" arabic-form="final" 
d="M1335 252h51v-252h-81q-179 0 -279 82q-88 -76 -244 -82h-506q-194 0 -194 168v84h221v977h129q56 0 104 -41.5t48 -100.5v-835h182q51 3 72.5 30.5t21.5 82.5v864h101q180 0 180 -182v-646q11 -78 55 -113.5t139 -35.5zM268 -311h185v-51q0 -22 -17 -39t-45 -17h-244
q-25 0 -41 17t-16 39v51h60q-3 12 -3 35v14q0 71 40.5 116.5t109.5 45.5q49 0 86 -23.5t47 -71.5q0 -7 -0.5 -13t-2.5 -12.5t-3 -11t-5 -11.5t-5.5 -9.5t-7 -10.5t-6.5 -9.5t-8 -10.5t-7 -10q-11 36 -24.5 58t-28.5 29.5t-22 9t-19 1.5q-35 0 -35 -61q0 -43 12 -55z" />
    <glyph glyph-name="lam_alef.isol" unicode="&#xfedf;&#xfe8e;" horiz-adv-x="1284" arabic-form="isolated" 
d="M958 1229q183 0 183 -178v-695q0 -154 -92 -252t-265 -104h-508q-194 0 -194 166v86h221v977h129q55 0 104.5 -41t49.5 -98v-838h178q52 3 74 32t22 85v860h98z" />
    <glyph glyph-name="lam_alef.fina" unicode="&#xfee0;&#xfe8e;" horiz-adv-x="1345" arabic-form="final" 
d="M1335 252h51v-252h-81q-181 0 -279 80q-89 -74 -244 -80h-506q-194 0 -194 166v86h221v977h129q56 0 104 -41.5t48 -100.5v-835h182q51 3 72.5 30.5t21.5 82.5v864h101q180 0 180 -182v-646q11 -78 55 -113.5t139 -35.5z" />
    <glyph glyph-name="hamza.isol" unicode="&#x621;" horiz-adv-x="1087" arabic-form="isolated" 
d="M72 252h121q-33 73 -33 174q0 127 47 229t143 164t228 62q57 0 112 -15t105 -44t86 -79.5t47 -115.5q0 -58 -23 -105l-59 -137q-21 68 -52.5 119.5t-62 80t-65 46t-59 23t-46.5 5.5q-71 0 -110 -57t-39 -149q0 -150 67 -201h516v-117q0 -49 -40.5 -92t-100.5 -43h-641
q-61 0 -101 42.5t-40 92.5v117z" />
    <glyph glyph-name="alef_madda.isol" unicode="&#x622;" horiz-adv-x="581" arabic-form="isolated" 
d="M422 0h-119q-67 0 -114.5 45.5t-47.5 132.5v1049h127q56 0 105 -41.5t49 -98.5v-1087zM500 1532v-74q0 -44 -28.5 -84.5t-78.5 -40.5h-311v103q0 36 25.5 66t62.5 30h330z" />
    <glyph glyph-name="alef_hamza_above.isol" unicode="&#x623;" horiz-adv-x="524" arabic-form="isolated" 
d="M260 1440h182v-49q0 -22 -16.5 -40t-42.5 -18h-246q-24 0 -39.5 18t-15.5 40v49h57q-2 8 -2 49q0 71 41 116.5t111 45.5q49 0 85 -23t46 -72q0 -30 -9 -48t-34 -50q-11 36 -24.5 58t-28.5 29.5t-22 9t-19 1.5q-35 0 -35 -61q0 -43 12 -55zM414 0h-115q-68 0 -116 45
t-48 131v1053h129q56 0 103 -40t47 -99v-1090z" />
    <glyph glyph-name="waw_hamza.isol" unicode="&#x624;" horiz-adv-x="980" arabic-form="isolated" 
d="M881 549q18 -88 18 -160l-4 -303q-1 -48 -16 -100.5t-54 -111.5t-97 -105t-154.5 -76.5t-215.5 -30.5q-74 0 -118.5 34.5t-44.5 86.5v100q147 3 249 37t152 82q-81 4 -147.5 15.5t-139.5 40.5t-122.5 73.5t-82 120t-32.5 174.5q0 127 46.5 229t142.5 164t228 62
q73 0 152 -27q96 -38 159 -121.5t81 -183.5zM477 1092h182v-52q0 -22 -16.5 -39.5t-42.5 -17.5h-244q-25 0 -41 17.5t-16 39.5v52h61q-4 16 -4 34v15q0 70 40 116t110 46q49 0 86 -24t45 -73q0 -15 -2.5 -27t-11 -26.5t-12 -19t-17.5 -23.5q-11 35 -24.5 57t-28.5 29
t-22 8.5t-19 1.5q-35 0 -35 -59q0 -43 12 -55zM322 453q0 -66 20 -108.5t57.5 -61.5t73 -25t86.5 -6h86v45q-1 48 -1.5 73t-4 70t-10 70t-19 57.5t-30 49.5t-45 29.5t-62.5 12.5q-73 0 -112 -56.5t-39 -149.5z" />
    <glyph glyph-name="alef_hamza_below.isol" unicode="&#x625;" horiz-adv-x="524" arabic-form="isolated" 
d="M414 0h-117q-70 0 -118 46t-48 132v1049h131q56 0 104 -42t48 -100v-1085zM260 -303h182v-51q0 -21 -16.5 -38.5t-42.5 -17.5h-246q-23 0 -39 18t-16 38v51h57q-2 8 -2 35v14q0 71 41 116.5t111 45.5q49 0 85 -23t46 -71q0 -15 -4 -28.5t-7.5 -20.5t-15 -24t-16.5 -26
q-11 36 -24.5 58t-28.5 30t-22 9.5t-19 1.5q-35 0 -35 -62q0 -43 12 -55z" />
    <glyph glyph-name="yeh_hamza_above.isol" unicode="&#x626;" horiz-adv-x="1830" arabic-form="isolated" 
d="M1536 0h-88v623q-56 -3 -101 -18t-76.5 -37t-55.5 -56t-39 -67t-25.5 -80t-16 -85.5t-10.5 -91.5q-7 -89 -20 -156t-42.5 -133.5t-74 -109t-117 -68.5t-168.5 -26q-274 0 -414.5 135.5t-140.5 396.5q0 163 71 260t192 97l116 -11q-53 -59 -97 -147.5t-44 -181.5
q0 -58 5 -96.5t24 -81.5t53.5 -68t97.5 -42.5t152 -18.5q99 0 132 94q19 52 29 198q1 6 1 9q13 277 100 424q147 217 510 217h209v-701q0 -87 -47 -132.5t-115 -45.5zM322 784h182v-51q0 -22 -17 -39.5t-45 -17.5h-243q-25 0 -40.5 17.5t-15.5 39.5v51h58q-2 8 -2 35v15
q0 70 40.5 115.5t110.5 45.5q48 0 84.5 -23.5t46.5 -72.5q0 -35 -26 -72q-2 -3 -9.5 -12t-9.5 -12q-11 35 -24 57t-28 29t-21.5 8.5t-18.5 1.5q-35 0 -35 -59q0 -43 13 -56z" />
    <glyph glyph-name="alef.isol" unicode="&#x627;" horiz-adv-x="452" arabic-form="isolated" 
d="M360 0h-116q-68 0 -115 45.5t-47 132.5v1051h127q55 0 103 -41t48 -98v-1090z" />
    <glyph glyph-name="beh.isol" unicode="&#x628;" horiz-adv-x="1597" arabic-form="isolated" 
d="M1323 715q182 0 182 -183v-176q0 -155 -92.5 -253.5t-267.5 -102.5h-615q-80 0 -144.5 19t-106 48.5t-72 72.5t-46.5 82.5t-25 88t-11 79.5t-2 65q0 348 235 348h146q-79 -69 -118.5 -157.5t-39.5 -158.5q0 -235 160 -235h620q52 3 74.5 32t22.5 85v346h100zM854 -375
q-58 0 -98.5 40.5t-40.5 98.5q0 57 40.5 97.5t98.5 40.5t99.5 -40.5t41.5 -97.5q0 -58 -41 -98.5t-100 -40.5z" />
    <glyph glyph-name="tehmarbuta.isol" unicode="&#x629;" horiz-adv-x="1011" arabic-form="isolated" 
d="M539 879q92 0 169 -35t127 -94.5t77.5 -136t27.5 -160.5q0 -197 -110.5 -325t-307.5 -128q-123 0 -215.5 60t-138 155.5t-45.5 210.5q0 127 46.5 228.5t142 163t227.5 61.5zM522 657q-73 0 -112 -56t-39 -148q0 -234 168 -234q74 0 112.5 56.5t38.5 150.5q0 231 -168 231
zM381 963q-57 0 -99 41.5t-42 99.5q0 57 42 100t99 43q55 0 97 -43t42 -100q0 -58 -41.5 -99.5t-97.5 -41.5zM690 963q-56 0 -97.5 41.5t-41.5 99.5q0 57 42 100t97 43q57 0 100.5 -43t43.5 -100q0 -58 -43 -99.5t-101 -41.5z" />
    <glyph glyph-name="teh.isol" unicode="&#x62a;" horiz-adv-x="1597" arabic-form="isolated" 
d="M1323 715q182 0 182 -183v-176q0 -155 -92.5 -253.5t-267.5 -102.5h-615q-80 0 -144.5 19t-106 48.5t-72 72.5t-46.5 82.5t-25 88t-11 79.5t-2 65q0 348 235 348h146q-79 -69 -118.5 -157.5t-39.5 -158.5q0 -235 160 -235h620q52 3 74.5 32t22.5 85v346h100zM709 821
q-57 0 -99.5 42t-42.5 100q0 57 42.5 100t99.5 43q55 0 97 -43t42 -100q0 -58 -41.5 -100t-97.5 -42zM1018 821q-56 0 -97.5 42t-41.5 100q0 57 42 100t97 43q57 0 100 -43t43 -100q0 -58 -43 -100t-100 -42z" />
    <glyph glyph-name="theh.isol" unicode="&#x62b;" horiz-adv-x="1597" arabic-form="isolated" 
d="M1323 715q182 0 182 -183v-176q0 -155 -92.5 -253.5t-267.5 -102.5h-615q-80 0 -144.5 19t-106 48.5t-72 72.5t-46.5 82.5t-25 88t-11 79.5t-2 65q0 348 235 348h146q-79 -69 -118.5 -157.5t-39.5 -158.5q0 -235 160 -235h620q52 3 74.5 32t22.5 85v346h100zM709 821
q-57 0 -99.5 42t-42.5 100q0 57 42.5 100t99.5 43q55 0 97 -43t42 -100q0 -58 -41.5 -100t-97.5 -42zM1018 821q-56 0 -97.5 42t-41.5 100q0 57 42 100t97 43q57 0 100 -43t43 -100q0 -58 -43 -100t-100 -42zM862 1083q-53 0 -91 38.5t-38 90.5q0 54 37.5 92.5t91.5 38.5
q52 0 90.5 -38.5t38.5 -92.5q0 -51 -39 -90t-90 -39z" />
    <glyph glyph-name="jeem.isol" unicode="&#x62c;" horiz-adv-x="1224" arabic-form="isolated" 
d="M631 -340q-57 0 -97 40.5t-40 98.5q0 57 40 98.5t97 41.5q58 0 99.5 -41.5t41.5 -98.5q0 -58 -41 -98.5t-100 -40.5zM123 -246q0 95 19 171t53 129t83 93t108.5 61.5t129 34t145 12t156.5 -4.5q-13 48 -28.5 90.5t-43.5 98t-60.5 94t-81 65.5t-103.5 27q-77 0 -145.5 -33
t-151.5 -113v142q0 113 89 184.5t251 71.5q96 0 178.5 -34.5t141.5 -94t104 -136.5t71.5 -166.5t40 -178.5t13.5 -177q0 -116 -41 -289q-24 71 -82 118t-126.5 65t-148.5 18q-66 0 -122.5 -9.5t-105 -31t-76.5 -60t-28 -91.5q0 -73 15 -112q49 -130 244 -130
q74 0 160.5 37.5t150.5 97.5v-133q0 -57 -30.5 -102t-80.5 -71t-107.5 -39t-117.5 -13q-55 0 -115.5 12.5t-125 43t-115.5 75.5t-84 117.5t-33 160.5z" />
    <glyph glyph-name="hah.isol" unicode="&#x62d;" horiz-adv-x="1224" arabic-form="isolated" 
d="M123 -246q0 95 19 171t53 129t83 93t108.5 61.5t129 34t145 12t156.5 -4.5q-13 48 -28.5 90.5t-43.5 98t-60.5 94t-81 65.5t-103.5 27q-77 0 -145.5 -33t-151.5 -113v142q0 113 89 184.5t251 71.5q96 0 178.5 -34.5t141.5 -94t104 -136.5t71.5 -166.5t40 -178.5
t13.5 -177q0 -116 -41 -289q-24 71 -82 118t-126.5 65t-148.5 18q-66 0 -122.5 -9.5t-105 -31t-76.5 -60t-28 -91.5q0 -73 15 -112q49 -130 244 -130q74 0 160.5 37.5t150.5 97.5v-133q0 -57 -30.5 -102t-80.5 -71t-107.5 -39t-117.5 -13q-55 0 -115.5 12.5t-125 43
t-115.5 75.5t-84 117.5t-33 160.5z" />
    <glyph glyph-name="khah.isol" unicode="&#x62e;" horiz-adv-x="1224" arabic-form="isolated" 
d="M123 -246q0 95 19 171t53 129t83 93t108.5 61.5t129 34t145 12t156.5 -4.5q-13 48 -28.5 90.5t-43.5 98t-60.5 94t-81 65.5t-103.5 27q-77 0 -145.5 -33t-151.5 -113v142q0 113 89 184.5t251 71.5q96 0 178.5 -34.5t141.5 -94t104 -136.5t71.5 -166.5t40 -178.5
t13.5 -177q0 -116 -41 -289q-24 71 -82 118t-126.5 65t-148.5 18q-66 0 -122.5 -9.5t-105 -31t-76.5 -60t-28 -91.5q0 -73 15 -112q49 -130 244 -130q74 0 160.5 37.5t150.5 97.5v-133q0 -57 -30.5 -102t-80.5 -71t-107.5 -39t-117.5 -13q-55 0 -115.5 12.5t-125 43
t-115.5 75.5t-84 117.5t-33 160.5zM539 965q-58 0 -98 41t-40 100q0 60 39.5 98.5t98.5 38.5t101 -39t42 -98q0 -58 -42 -99.5t-101 -41.5z" />
    <glyph glyph-name="dal.isol" unicode="&#x62f;" horiz-adv-x="966" arabic-form="isolated" 
d="M885 221v-221h-658q-64 0 -99.5 42.5t-35.5 102.5v107h533q-10 144 -101.5 249t-234.5 105q-51 0 -152 -16l72 115q37 60 84 90t117 30q82 0 167 -41t142 -108q21 -27 30.5 -39t40 -62.5t47.5 -94.5t32.5 -115t15.5 -144z" />
    <glyph glyph-name="thal.isol" unicode="&#x630;" horiz-adv-x="966" arabic-form="isolated" 
d="M885 221v-221h-658q-64 0 -99.5 42.5t-35.5 102.5v107h533q-10 144 -101.5 249t-234.5 105q-51 0 -152 -16l72 115q37 60 84 90t117 30q82 0 167 -41t142 -108q21 -27 30.5 -39t40 -62.5t47.5 -94.5t32.5 -115t15.5 -144zM463 965q-58 0 -98.5 41t-40.5 100t40 98t99 39
q58 0 98.5 -39t40.5 -98q0 -58 -41 -99.5t-98 -41.5z" />
    <glyph glyph-name="reh.isol" unicode="&#x631;" horiz-adv-x="688" arabic-form="isolated" 
d="M586 -47q0 -117 -88 -204t-219 -87q-84 0 -135.5 39t-51.5 106v111q77 -12 105 -12q70 0 90 32t20 111v666h111q94 0 131 -41t37 -139v-582z" />
    <glyph glyph-name="zain.isol" unicode="&#x632;" horiz-adv-x="677" arabic-form="isolated" 
d="M418 819q-56 0 -96.5 41.5t-40.5 100.5q0 57 39 97t98 40q57 0 98 -40t41 -97q0 -60 -41 -101t-98 -41zM575 -47q0 -117 -88 -204t-219 -87q-84 0 -135 39t-51 106v111q76 -12 104 -12q70 0 90.5 32.5t20.5 110.5v666h111q94 0 130.5 -41t36.5 -139v-582z" />
    <glyph glyph-name="seen.isol" unicode="&#x633;" horiz-adv-x="2402" arabic-form="isolated" 
d="M2140 819q180 0 180 -180v-281q0 -156 -91.5 -253t-266.5 -103h-16q-176 0 -279 61q-104 -63 -281 -63h-118q-32 -107 -124.5 -195.5t-211.5 -137t-236 -48.5q-164 0 -296 82t-204.5 220.5t-72.5 303.5q0 144 59.5 232t173.5 88h146q-80 -70 -118 -158t-38 -160
q0 -138 90.5 -244t227.5 -106q170 0 260 83.5t90 225.5v633h127q56 0 104.5 -41t48.5 -98v-428h136q54 4 77 32.5t23 84.5v450h98q180 0 180 -180v-158q0 -104 -12 -198q31 -31 121 -31q68 4 95.5 33t27.5 84v450h100z" />
    <glyph glyph-name="sheen.isol" unicode="&#x634;" horiz-adv-x="2402" arabic-form="isolated" 
d="M2140 819q180 0 180 -180v-281q0 -156 -91.5 -253t-266.5 -103h-16q-176 0 -279 61q-104 -63 -281 -63h-118q-32 -107 -124.5 -195.5t-211.5 -137t-236 -48.5q-164 0 -296 82t-204.5 220.5t-72.5 303.5q0 144 59.5 232t173.5 88h146q-80 -70 -118 -158t-38 -160
q0 -138 90.5 -244t227.5 -106q170 0 260 83.5t90 225.5v633h127q56 0 104.5 -41t48.5 -98v-428h136q54 4 77 32.5t23 84.5v450h98q180 0 180 -180v-158q0 -104 -12 -198q31 -31 121 -31q68 4 95.5 33t27.5 84v450h100zM1511 965q-57 0 -99 41.5t-42 99.5q0 57 42 100t99 43
q56 0 98 -43t42 -100q0 -58 -42 -99.5t-98 -41.5zM1821 965q-56 0 -98 41.5t-42 99.5q0 57 42 100t98 43q57 0 100 -43t43 -100q0 -58 -42.5 -99.5t-100.5 -41.5zM1665 1227q-53 0 -91 38.5t-38 90.5q0 54 37.5 92.5t91.5 38.5q51 0 90 -38.5t39 -92.5q0 -51 -39 -90
t-90 -39z" />
    <glyph glyph-name="sad.isol" unicode="&#x635;" horiz-adv-x="2265" arabic-form="isolated" 
d="M1300 252h644q-1 51 -7 96t-24 93t-46.5 82t-77 56t-112.5 23q-56 -1 -109.5 -25t-94.5 -60.5t-76.5 -83.5t-59 -92.5t-37.5 -88.5zM1724 877q97 0 176.5 -38.5t131 -100t86.5 -141.5t50 -160.5t15 -160.5q0 -120 -33.5 -198t-89.5 -78h-813q-54 -169 -205.5 -279
t-347.5 -110q-253 0 -412 154.5t-159 402.5q0 144 59.5 231.5t173.5 87.5h146q-80 -68 -118 -156t-38 -161q0 -134 88.5 -220.5t231.5 -86.5q168 0 257 85t89 230v127q0 60 -0.5 152.5t-1 161.5t-0.5 73h71h39.5t32.5 -1.5t29.5 -4t22.5 -7.5t19.5 -13t13.5 -19.5t11.5 -27
t5.5 -35.5q98 134 217.5 213.5t251.5 79.5z" />
    <glyph glyph-name="dad.isol" unicode="&#x636;" horiz-adv-x="2265" arabic-form="isolated" 
d="M1300 252h644q-1 51 -7 96t-24 93t-46.5 82t-77 56t-112.5 23q-56 -1 -109.5 -25t-94.5 -60.5t-76.5 -83.5t-59 -92.5t-37.5 -88.5zM1688 961q-60 0 -101 42t-41 101q0 57 41 98t101 41q57 0 99 -41t42 -98q0 -58 -42 -100.5t-99 -42.5zM1724 877q97 0 176.5 -38.5
t131 -100t86.5 -141.5t50 -160.5t15 -160.5q0 -120 -33.5 -198t-89.5 -78h-813q-54 -169 -205.5 -279t-347.5 -110q-253 0 -412 154.5t-159 402.5q0 144 59.5 231.5t173.5 87.5h146q-80 -68 -118 -156t-38 -161q0 -134 88.5 -220.5t231.5 -86.5q168 0 257 85t89 230v127
q0 60 -0.5 152.5t-1 161.5t-0.5 73h71h39.5t32.5 -1.5t29.5 -4t22.5 -7.5t19.5 -13t13.5 -19.5t11.5 -27t5.5 -35.5q98 134 217.5 213.5t251.5 79.5z" />
    <glyph glyph-name="tah.isol" unicode="&#x637;" horiz-adv-x="1536" arabic-form="isolated" 
d="M123 168v84h158v977h67q98 0 138 -37.5t40 -132.5v-469q211 289 467 289q97 0 176.5 -38.5t131.5 -100t87.5 -141.5t50.5 -160.5t15 -159.5q0 -120 -35 -199.5t-92 -79.5h-1008q-104 3 -150 44t-46 124zM946 602q-69 -4 -133.5 -39.5t-111.5 -89.5t-80 -110t-52 -111h637
v51q0 287 -260 299z" />
    <glyph glyph-name="zah.isol" unicode="&#x638;" horiz-adv-x="1536" arabic-form="isolated" 
d="M954 965q-59 0 -98 41t-39 100q0 58 39 97.5t98 39.5q57 0 98.5 -40t41.5 -97q0 -58 -41.5 -99.5t-98.5 -41.5zM123 168v84h158v977h67q98 0 138 -37.5t40 -132.5v-469q211 289 467 289q97 0 176.5 -38.5t131.5 -100t87.5 -141.5t50.5 -160.5t15 -159.5
q0 -120 -35 -199.5t-92 -79.5h-1008q-104 3 -150 44t-46 124zM946 602q-69 -4 -133.5 -39.5t-111.5 -89.5t-80 -110t-52 -111h637v51q0 287 -260 299z" />
    <glyph glyph-name="ain.isol" unicode="&#x639;" horiz-adv-x="1097" arabic-form="isolated" 
d="M535 252h481v-117q0 -49 -41 -92t-101 -43h-319q-193 -18 -193 -166q0 -85 20 -135q57 -134 239 -135q73 0 160.5 38t150.5 97v-131q0 -58 -30.5 -103.5t-80.5 -71.5t-107 -39t-118 -13q-53 0 -114.5 16t-125.5 51t-115.5 85t-84.5 125t-33 163q0 282 160 391
q-3 6 -9.5 16.5t-9.5 16.5q-53 95 -53 221q0 127 47 229t143 164t228 62q81 0 150 -25.5t123.5 -84t76.5 -144.5q0 -58 -23 -105l-59 -137q-21 68 -52.5 119.5t-62 80t-65 46t-59 23t-46.5 5.5q-73 0 -111 -56.5t-38 -149.5q0 -150 72 -201z" />
    <glyph glyph-name="ghain.isol" unicode="&#x63a;" horiz-adv-x="1097" arabic-form="isolated" 
d="M535 252h481v-117q0 -49 -41 -92t-101 -43h-319q-193 -18 -193 -166q0 -85 20 -135q57 -134 239 -135q73 0 160.5 38t150.5 97v-131q0 -58 -30.5 -103.5t-80.5 -71.5t-107 -39t-118 -13q-53 0 -114.5 16t-125.5 51t-115.5 85t-84.5 125t-33 163q0 282 160 391
q-3 6 -9.5 16.5t-9.5 16.5q-53 95 -53 221q0 127 47 229t143 164t228 62q81 0 150 -25.5t123.5 -84t76.5 -144.5q0 -58 -23 -105l-59 -137q-21 68 -52.5 119.5t-62 80t-65 46t-59 23t-46.5 5.5q-73 0 -111 -56.5t-38 -149.5q0 -150 72 -201zM627 965q-60 0 -100 41t-40 100
q0 60 40 98.5t100 38.5q59 0 99 -39t40 -98t-40.5 -100t-98.5 -41z" />
    <glyph glyph-name="feh.isol" unicode="&#x641;" horiz-adv-x="1718" arabic-form="isolated" 
d="M1225 965q-59 0 -99.5 40.5t-40.5 98.5q0 59 41 100t99 41q61 0 101 -40t40 -99q0 -60 -40 -100.5t-101 -40.5zM1636 389v-389h-1106q-80 0 -144.5 19.5t-106 49t-72 72.5t-46.5 82.5t-25 88t-11 79t-2 64.5q0 348 235 348h146q-79 -69 -118.5 -157.5t-39.5 -158.5
q0 -235 160 -235h340q-37 79 -37 174q0 127 47 229t143 164t228 62q186 0 297.5 -138.5t111.5 -353.5zM1208 659q-73 0 -111 -56t-38 -150q0 -33 6.5 -60t15.5 -46.5t26 -35t32 -25t39.5 -16.5t41 -10.5t45 -5.5t43.5 -2h44h32v115q0 42 -2 73.5t-8 67.5t-18 61t-31 46.5
t-48.5 32.5t-68.5 11z" />
    <glyph glyph-name="qaf.isol" unicode="&#x642;" horiz-adv-x="1396" arabic-form="isolated" 
d="M1079 963q-57 0 -98 40.5t-41 98.5q0 57 41 98t98 41t98.5 -41t41.5 -98q0 -58 -41.5 -98.5t-98.5 -40.5zM778 963q-57 0 -98 40.5t-41 98.5q0 57 41 98t98 41q58 0 100 -41t42 -98q0 -58 -41.5 -98.5t-100.5 -40.5zM926 870q101 0 179.5 -38.5t126.5 -106.5t73.5 -154
t29.5 -188q0 -72 -1.5 -116.5t-12 -133t-30 -147t-61 -132.5t-99 -118t-149 -75.5t-206.5 -31.5q-158 0 -283.5 48t-205.5 131.5t-122 192.5t-42 235q0 144 60 231.5t173 87.5h148q-82 -70 -120 -157.5t-38 -159.5q0 -38 12 -81.5t42 -92.5t74 -87.5t114.5 -64t156.5 -25.5
q91 5 160.5 29.5t120.5 83.5q-80 4 -145.5 15t-137.5 39.5t-120.5 72t-80.5 118t-32 173.5v12q2 32 4.5 55.5t13 73t26.5 86t48 81.5t73.5 74.5t106 49.5t144.5 20zM1087 252v104q0 64 -6 109.5t-23 91.5t-54.5 70t-94.5 24q-73 0 -112 -57t-39 -150q0 -40 12 -71.5
t28.5 -51t46.5 -34t52.5 -21t61.5 -10t59 -4t57 -0.5h12z" />
    <glyph glyph-name="kaf.isol" unicode="&#x643;" horiz-adv-x="1536" arabic-form="isolated" 
d="M795 754h182v-52q0 -22 -17 -38.5t-45 -16.5h-243q-25 0 -40.5 16.5t-15.5 38.5v52h58q-2 8 -2 49q0 71 40.5 116.5t110.5 45.5q48 0 84.5 -23.5t46.5 -71.5q0 -36 -26 -73q-2 -3 -9.5 -12.5t-9.5 -12.5q-10 36 -23 58t-28 29.5t-22 9t-19 1.5q-35 0 -35 -61
q0 -42 13 -55zM1274 1229q180 0 180 -182v-691q0 -156 -92 -253t-270 -103h-564q-79 0 -143.5 19.5t-105.5 49t-71.5 72.5t-46.5 82.5t-25 88t-11 79t-2 64.5q0 160 56 254t179 94h152q-84 -70 -123 -157t-39 -159q0 -235 158 -235h569q54 4 77.5 32.5t23.5 82.5v862h98z
" />
    <glyph glyph-name="lam.isol" unicode="&#x644;" horiz-adv-x="1376" arabic-form="isolated" 
d="M1114 1229q180 0 180 -182v-713q0 -50 -3 -97.5t-17 -121.5t-37.5 -136.5t-69 -130t-106.5 -114t-155 -77t-210 -30.5q-164 0 -296 82t-204.5 220.5t-72.5 303.5q0 144 60 232t173 88h148q-82 -70 -120 -157.5t-38 -159.5q0 -90 39.5 -170t114 -131.5t166.5 -51.5
q82 0 143 24.5t108.5 81t72 156.5t24.5 242v842h100z" />
    <glyph glyph-name="meem.isol" unicode="&#x645;" horiz-adv-x="1333" arabic-form="isolated" 
d="M850 881q92 0 169 -35.5t127 -95t77.5 -136.5t27.5 -161q0 -197 -110 -325t-307 -128q-92 0 -170 37q-10 -20 -13 -25q-17 -36 -31.5 -61.5t-43.5 -61.5t-60.5 -58.5t-80 -39t-105.5 -16.5l-23 2q-184 3 -184 166v82h166q46 0 77.5 17t46.5 48.5t21 65.5t6 80
q0 34 -4 104q0 14 -1 44.5t-1 41.5q0 127 46.5 229t142 164t227.5 62zM850 219q74 0 112.5 57t38.5 150q0 233 -167 233q-73 0 -112.5 -56.5t-39.5 -149.5q0 -234 168 -234z" />
    <glyph glyph-name="noon.isol" unicode="&#x646;" horiz-adv-x="1376" arabic-form="isolated" 
d="M1114 715q180 0 180 -183v-198q0 -50 -3 -97.5t-17 -121.5t-37.5 -136.5t-69 -130t-106.5 -114t-155 -77t-210 -30.5q-164 0 -296 82t-204.5 220.5t-72.5 303.5q0 144 60 232t173 88h148q-82 -70 -120 -157.5t-38 -159.5q0 -90 39.5 -170t114 -131.5t166.5 -51.5
q82 0 143 24.5t108.5 81t72 156.5t24.5 242v328h100zM717 715q-57 0 -98 41.5t-41 99.5q0 59 40.5 99t98.5 40q60 0 101.5 -39.5t41.5 -99.5q0 -59 -41.5 -100t-101.5 -41z" />
    <glyph glyph-name="heh.isol" unicode="&#x647;" horiz-adv-x="1011" arabic-form="isolated" 
d="M539 879q92 0 169 -35.5t127 -95t77.5 -136.5t27.5 -161q0 -197 -110.5 -325t-307.5 -128q-123 0 -215.5 60t-138 155.5t-45.5 210.5q0 127 46.5 229t142 164t227.5 62zM522 657q-73 0 -112 -56t-39 -150q0 -232 168 -232q74 0 112.5 56t38.5 149q0 233 -168 233z" />
    <glyph glyph-name="waw.isol" unicode="&#x648;" horiz-adv-x="980" arabic-form="isolated" 
d="M881 549q18 -88 18 -160l-4 -303q-1 -48 -16 -100.5t-54 -111.5t-97 -105t-154.5 -76.5t-215.5 -30.5q-74 0 -118.5 34.5t-44.5 86.5v100q147 3 249 37t152 82q-81 4 -147.5 15.5t-139.5 40.5t-122.5 73.5t-82 120t-32.5 174.5q0 127 46.5 229t142.5 164t228 62
q73 0 152 -27q96 -38 159 -121.5t81 -183.5zM322 453q0 -66 20 -108.5t57.5 -61.5t73 -25t86.5 -6h86v45q-1 48 -1.5 73t-4 70t-10 70t-19 57.5t-30 49.5t-45 29.5t-62.5 12.5q-73 0 -112 -56.5t-39 -149.5z" />
    <glyph glyph-name="alefmaksura.isol" unicode="&#x649;" horiz-adv-x="1826" arabic-form="isolated" 
d="M1532 0h-88v623q-56 -3 -101 -18t-76.5 -37t-55.5 -56t-39 -67t-25.5 -80t-16 -85.5t-10.5 -91.5q-7 -89 -20 -156t-42.5 -133.5t-74 -109t-117 -68.5t-168.5 -26q-274 0 -414.5 135.5t-140.5 396.5q0 163 71 260t192 97l116 -11q-53 -59 -97 -147.5t-44 -181.5
q0 -58 5 -96.5t24 -81.5t53.5 -68t97.5 -42.5t152 -18.5q41 0 69.5 17t44 36.5t25.5 66.5t13 74.5t8 94.5q1 8 1 12q13 275 101 424q147 217 510 217h209v-701q0 -87 -47 -132.5t-115 -45.5z" />
    <glyph glyph-name="yeh.isol" unicode="&#x64a;" horiz-adv-x="1826" arabic-form="isolated" 
d="M1532 0h-88v623q-56 -3 -101 -18t-76.5 -37t-55.5 -56t-39 -67t-25.5 -80t-16 -85.5t-10.5 -91.5q-7 -89 -20 -156t-42.5 -133.5t-74 -109t-117 -68.5t-168.5 -26q-274 0 -414.5 135.5t-140.5 396.5q0 163 71 260t192 97l116 -11q-53 -59 -97 -147.5t-44 -181.5
q0 -58 5 -96.5t24 -81.5t53.5 -68t97.5 -42.5t152 -18.5q41 0 69.5 17t44 36.5t25.5 66.5t13 74.5t8 94.5q1 8 1 12q13 275 101 424q147 217 510 217h209v-701q0 -87 -47 -132.5t-115 -45.5zM815 -666q-58 0 -99.5 41.5t-41.5 98.5q0 59 41 98t100 39t100 -39t41 -98
q0 -57 -41.5 -98.5t-99.5 -41.5zM504 -666q-58 0 -98.5 41.5t-40.5 98.5q0 59 40 98t99 39q57 0 98 -39t41 -98q0 -57 -41.5 -98.5t-97.5 -41.5z" />
    <glyph glyph-name="fathatan" unicode="&#xfe70;" arabic-form="isolated" 
d="M86 -205l2 -55q-59 -2 -161.5 -8t-153.5 -8q-20 -1 -33 9.5t-17.5 31t-6 35t-1.5 34.5q45 1 154 7t154 7q59 3 63 -53zM86 -59l2 -56q-59 -2 -161.5 -8t-153.5 -8q-20 -1 -33 9.5t-17.5 31.5t-6 35.5t-1.5 34.5q45 1 154 7t154 7q59 3 63 -53z" />
    <glyph glyph-name="dammatan" unicode="&#xfe72;" arabic-form="isolated" 
d="M-6 72q58 0 98.5 -39t40.5 -101q0 -42 -19.5 -75.5t-48 -54.5t-70.5 -37t-78 -23.5t-79 -12t-65 -5t-45 -0.5q-34 0 -47.5 20.5t-18.5 73.5h35q10 5 18.5 22.5t8.5 36.5q0 18 -12.5 28.5t-33.5 10.5q-16 0 -43 -51q-41 41 -41 80q0 29 26.5 49t68.5 20q66 0 103.5 -41.5
t37.5 -97.5q0 -25 -8 -49q3 1 26.5 3.5t32.5 4.5q-28 46 -28 84q0 65 41.5 109.5t99.5 44.5zM-2 -127q31 3 31 47q0 25 -11 40t-30 15q-14 0 -22.5 -13.5t-8.5 -33.5q0 -24 11.5 -39.5t29.5 -15.5z" />
    <glyph glyph-name="kasratan" unicode="&#xfe74;" arabic-form="isolated" 
d="M86 -199l2 -55q-59 -2 -161.5 -8t-153.5 -8q-20 -1 -33 9.5t-17.5 31t-6 35t-1.5 34.5q45 1 154 7.5t154 7.5q59 3 63 -54zM86 -53l2 -56q-59 -2 -161.5 -8t-153.5 -8q-20 -1 -33 9.5t-17.5 31.5t-6 35.5t-1.5 34.5q45 1 154 7t154 7q59 3 63 -53z" />
    <glyph glyph-name="fatha" unicode="&#xfe76;" arabic-form="isolated" 
d="M86 -123l2 -55q-58 -2 -161 -8.5t-154 -8.5q-20 -1 -33 9.5t-17.5 31.5t-6 35.5t-1.5 34.5q45 1 154 7t154 7q59 3 63 -53z" />
    <glyph glyph-name="damma" unicode="&#xfe78;" arabic-form="isolated" 
d="M23 -129q26 5 26 51q0 25 -10.5 40t-26.5 15q-30 0 -30 -51q0 -26 11.5 -40.5t29.5 -14.5zM16 72q59 0 99.5 -38.5t40.5 -99.5q0 -42 -17.5 -75.5t-41.5 -54.5t-64 -37t-70.5 -23.5t-75.5 -12.5t-65.5 -5.5t-52.5 -1.5q-35 0 -46 20t-16 74l68 2q93 5 129 12
q-25 35 -25 86q0 66 38.5 110t98.5 44z" />
    <glyph glyph-name="kasra" unicode="&#xfe7a;" arabic-form="isolated" 
d="M86 -53l2 -56q-59 -2 -161.5 -8t-153.5 -8q-20 -1 -33 9.5t-17.5 31.5t-6 35.5t-1.5 34.5q45 1 154 7t154 7q59 3 63 -53z" />
    <glyph glyph-name="shadda" unicode="&#xfe7c;" arabic-form="isolated" 
d="M-225 23l12 -164q3 -35 25 -35q16 0 16 29q0 13 -3 47.5t-3 50.5q0 42 14.5 56t50.5 16h37l15 -168q4 -31 24 -31q17 0 17 35q-1 11 -5 44t-4 50q0 45 30 59t71 -2l16 -162q4 -43 -26.5 -83.5t-90.5 -40.5q-48 0 -82 24q-23 -20 -67 -20q-56 0 -91.5 35.5t-43.5 97.5
q-11 91 -11 102q0 65 99 60z" />
    <glyph glyph-name="sukun" unicode="&#xfe7e;" arabic-form="isolated" 
d="M-70 96q75 0 116.5 -51t41.5 -119q0 -73 -52 -124.5t-122 -51.5q-74 0 -115 53t-41 119q0 78 50 126t122 48zM-76 -10q-47 -6 -47 -74q0 -61 45 -61q43 0 43 82q0 47 -41 53z" />
    <glyph glyph-name="alef_wasla.isol" unicode="&#x671;" horiz-adv-x="628" arabic-form="isolated" 
d="M477 0h-117q-67 0 -115 45.5t-48 132.5v1051h127q56 0 104.5 -40t48.5 -99v-1090zM82 1405v47h51v158h43q47 0 66 -25q61 68 139 68q44 0 78 -20.5t52 -53.5t27 -67.5t9 -69.5q0 -49 -16 -79t-46 -30h-321q-82 0 -82 72zM367 1526q-30 0 -53.5 -22t-37.5 -52h154
q-4 74 -63 74z" />
    <glyph glyph-name="tteh.isol" unicode="&#x679;" horiz-adv-x="1597" arabic-form="isolated" 
d="M1323 715q182 0 182 -183v-176q0 -155 -92.5 -253.5t-267.5 -102.5h-615q-80 0 -144.5 19t-106 48.5t-72 72.5t-46.5 82.5t-25 88t-11 79.5t-2 65q0 348 235 348h146q-79 -69 -118.5 -157.5t-39.5 -158.5q0 -235 160 -235h620q52 3 74.5 32t22.5 85v346h100zM655 891v45
h50v260v53h43q41 0 58 -15.5t17 -55.5v-99q62 58 131 58q44 0 77.5 -20t52 -52.5t27.5 -68t9 -70.5q0 -48 -16 -77.5t-45 -29.5h-324q-80 0 -80 72zM938 1010q-56 0 -90 -74h153q-4 74 -63 74z" />
    <glyph glyph-name="peh.isol" unicode="&#x67e;" horiz-adv-x="1597" arabic-form="isolated" 
d="M1323 717q182 0 182 -182v-179q0 -154 -92.5 -252t-267.5 -104h-615q-80 0 -144.5 19t-106 48.5t-72 72.5t-46.5 83t-25 88.5t-11 79t-2 64.5q0 348 235 348h146q-79 -69 -118.5 -157t-39.5 -159q0 -235 160 -235h618q53 4 76 33t23 84v348h100zM711 -100
q-57 0 -99.5 -42t-42.5 -100q0 -57 42.5 -100t99.5 -43q55 0 97 43t42 100q0 58 -41.5 100t-97.5 42zM1020 -100q-56 0 -97.5 -42t-41.5 -100q0 -57 42 -100t97 -43q57 0 100 43t43 100q0 58 -43 100t-100 42zM864 -362q-53 0 -91 -39t-38 -91q0 -54 37.5 -92.5t91.5 -38.5
q52 0 90.5 38.5t38.5 92.5q0 51 -39 90.5t-90 39.5z" />
    <glyph glyph-name="tcheh.isol" unicode="&#x686;" horiz-adv-x="1175" arabic-form="isolated" 
d="M696 2q-172 0 -257 -65t-85 -222q0 -34 4.5 -65t18.5 -66.5t36 -62t60.5 -46.5t89.5 -26q-57 -90 -151 -90q-126 0 -207.5 108t-81.5 287q0 115 27.5 201.5t76 142.5t123 91t161 49t196.5 14q9 0 54.5 1t57.5 -1q-13 48 -27.5 90t-42.5 97t-60.5 93.5t-81.5 65.5t-105 27
q-77 0 -145 -32.5t-154 -111.5v140q0 63 11 104t45 79t105 56.5t181 18.5q96 0 178.5 -34.5t141.5 -94t104 -136.5t71.5 -166.5t40 -178.5t13.5 -177q0 -101 -39 -287q-26 69 -85 115t-127.5 64t-146.5 18zM551 -100q56 0 96.5 -42t40.5 -102q0 -56 -41 -96.5t-96 -40.5
q-57 0 -99 41t-42 96q0 60 42 102t99 42zM860 -100q58 0 101 -42.5t43 -101.5q0 -55 -43.5 -96t-100.5 -41q-56 0 -97.5 41t-41.5 96q0 59 41.5 101.5t97.5 42.5zM705 -360q52 0 90.5 -39t38.5 -90q0 -54 -38.5 -94t-90.5 -40q-54 0 -92 40t-38 94q0 52 38.5 90.5t91.5 38.5
z" />
    <glyph glyph-name="ddal.isol" unicode="&#x688;" horiz-adv-x="966" arabic-form="isolated" 
d="M223 1034v45h49q1 35 1 82.5t-0.5 102t-0.5 75.5v54h43q41 0 58.5 -16t17.5 -56v-98q60 57 131 57q44 0 77.5 -20t52 -52.5t27.5 -68t9 -70.5q0 -48 -16 -77t-45 -29h-324q-80 0 -80 71zM506 1153q-56 0 -90 -74h153q-4 74 -63 74zM885 221v-221h-658q-64 0 -99.5 42.5
t-35.5 102.5v107h533q-10 144 -101.5 249t-234.5 105q-51 0 -152 -16l72 115q37 60 84 90t117 30q82 0 167 -41t142 -108q21 -27 30.5 -39t40 -62.5t47.5 -94.5t32.5 -115t15.5 -144z" />
    <glyph glyph-name="uni0691" unicode="&#x691;" horiz-adv-x="763" arabic-form="isolated" 
d="M197 891v45h47q2 78 2 260v53h43q41 0 58.5 -15.5t17.5 -55.5v-99q62 58 131 58q44 0 77.5 -20t52 -52.5t27.5 -68t9 -70.5q0 -48 -16.5 -77.5t-45.5 -29.5h-324q-79 0 -79 72zM479 1010q-56 0 -90 -74h154q-4 74 -64 74zM575 -47q0 -117 -88 -204t-219 -87
q-84 0 -135 39t-51 106v111q76 -12 104 -12q70 0 90.5 32.5t20.5 110.5v666h111q94 0 130.5 -41t36.5 -139v-582z" />
    <glyph glyph-name="uni0698" unicode="&#x698;" horiz-adv-x="806" arabic-form="isolated" 
d="M252 821q-57 0 -99 42t-42 100q0 57 42 100t99 43q55 0 97 -43t42 -100q0 -58 -41.5 -100t-97.5 -42zM561 821q-56 0 -97.5 42t-41.5 100q0 57 42 100t97 43q57 0 100.5 -43t43.5 -100q0 -58 -43 -100t-101 -42zM406 1083q-53 0 -91.5 38.5t-38.5 90.5q0 54 38 92.5
t92 38.5q52 0 90.5 -38.5t38.5 -92.5q0 -51 -39 -90t-90 -39zM575 -47q0 -117 -88 -204t-219 -87q-84 0 -135 39t-51 106v111q76 -12 104 -12q70 0 90.5 32.5t20.5 110.5v666h111q94 0 130.5 -41t36.5 -139v-582z" />
    <glyph glyph-name="veh.isol" unicode="&#x6a4;" horiz-adv-x="1718" arabic-form="isolated" 
d="M1636 389v-389h-1106q-80 0 -144.5 19.5t-106 49t-72 72.5t-46.5 82.5t-25 88t-11 79t-2 64.5q0 348 235 348h146q-79 -69 -118.5 -157.5t-39.5 -158.5q0 -235 160 -235h340q-37 79 -37 174q0 127 47 229t143 164t228 62q186 0 297.5 -138.5t111.5 -353.5zM1208 659
q-73 0 -111 -56t-38 -150q0 -33 6.5 -60t15.5 -46.5t26 -35t32 -25t39.5 -16.5t41 -10.5t45 -5.5t43.5 -2h44h32v115q0 42 -2 73.5t-8 67.5t-18 61t-31 46.5t-48.5 32.5t-68.5 11zM1073 963q-57 0 -99 41.5t-42 99.5q0 57 42 100t99 43q55 0 97 -43t42 -100
q0 -58 -41.5 -99.5t-97.5 -41.5zM1382 963q-56 0 -97.5 41.5t-41.5 99.5q0 57 42 100t97 43q57 0 100.5 -43t43.5 -100q0 -58 -43 -99.5t-101 -41.5zM1227 1225q-53 0 -91 38.5t-38 90.5q0 54 37.5 92.5t91.5 38.5q51 0 90 -38.5t39 -92.5q0 -51 -39 -90t-90 -39z" />
    <glyph glyph-name="kheh.isol" unicode="&#x6a9;" horiz-adv-x="1681" arabic-form="isolated" 
d="M1585 1348q25 -28 25 -84q0 -62 -43 -97l-473 -354q93 -23 167 -82.5t120.5 -141.5t72 -175.5t29.5 -192.5v-221h-955q-79 0 -143.5 19.5t-105.5 49t-71.5 72.5t-46.5 82.5t-25 88t-11 79t-2 64.5q0 160 56 254t179 94h146q-80 -68 -118 -156.5t-38 -159.5q0 -24 1 -41.5
t5 -49t14.5 -53.5t27 -44.5t45 -34.5t65.5 -12h719q-2 41 -12 79.5t-24.5 68t-30.5 54t-33 43t-29.5 30t-23.5 19.5l-11 9q-86 51 -172 51q-55 0 -109 -10l-51 72q-33 42 -33 86q0 30 17 62.5t49 57.5l754 564z" />
    <glyph glyph-name="Gaf.isol" unicode="&#x6af;" horiz-adv-x="1681" arabic-form="isolated" 
d="M1585 1348q25 -28 25 -84q0 -62 -43 -97l-473 -354q93 -23 167 -82.5t120.5 -141.5t72 -175.5t29.5 -192.5v-221h-955q-79 0 -143.5 19.5t-105.5 49t-71.5 72.5t-46.5 82.5t-25 88t-11 79t-2 64.5q0 160 56 254t179 94h146q-80 -68 -118 -156.5t-38 -159.5q0 -24 1 -41.5
t5 -49t14.5 -53.5t27 -44.5t45 -34.5t65.5 -12h719q-2 41 -12 79.5t-24.5 68t-30.5 54t-33 43t-29.5 30t-23.5 19.5l-11 9q-86 51 -172 51q-55 0 -109 -10l-51 72q-33 42 -33 86q0 30 17 62.5t49 57.5l754 564zM1354 1673l53 -71q25 -41 25 -70q0 -57 -48 -105
q-383 -287 -770 -581q-3 4 -18 24.5t-18 24.5q-46 57 -46 109q0 54 35 81q340 263 787 588z" />
    <glyph glyph-name="ghunna.isol" unicode="&#x6ba;" horiz-adv-x="1376" arabic-form="isolated" 
d="M1116 715q178 0 178 -183v-466q-5 -105 -94.5 -208t-227.5 -168t-276 -65q-164 0 -296 82t-204.5 220.5t-72.5 303.5q0 144 60 232t173 88h148q-82 -70 -120 -157.5t-38 -160.5q0 -90 39.5 -170t114 -131t166.5 -51q169 0 259.5 85t90.5 227v522h100z" />
    <glyph glyph-name="uni06BE" unicode="&#x6be;" horiz-adv-x="1316" arabic-form="isolated" 
d="M371 14l-2 -127h-97q-66 0 -107.5 47t-41.5 150q0 19 3 38.5t13 44t25.5 42.5t44.5 30.5t67 12.5h35q-49 78 -49 168q0 144 88 223.5t223 79.5q67 0 121.5 -21.5t91 -58t61 -85t35 -101.5t9.5 -109q0 -21 -1 -49t-1 -47h86q6 43 6 90q0 62 -11.5 122t-40.5 120t-72 105.5
t-111 73.5t-152 28q-78 0 -146.5 -32.5t-152.5 -111.5v141q0 47 6 81t26.5 69t56.5 56t99.5 34.5t151.5 13.5q95 0 176.5 -22.5t142 -61.5t108.5 -94.5t80 -118.5t53.5 -136t30.5 -145t9 -147q0 -185 -55 -317h-140q-151 0 -231 45q-52 -45 -135 -45h-15q-202 0 -288 14z
M473 393v-10.5t4 -19.5t10.5 -27t21 -27.5t35 -26.5t54 -19.5t74.5 -10.5v2q0 36 0.5 73t-5.5 72t-16 62.5t-32 44t-54 16.5q-45 0 -68.5 -35t-23.5 -94z" />
    <glyph glyph-name="hehhamza" unicode="&#x6c0;" horiz-adv-x="1011" arabic-form="isolated" 
d="M539 879q92 0 169 -35.5t127 -95t77.5 -136.5t27.5 -161q0 -197 -110.5 -325t-307.5 -128q-123 0 -215.5 60t-138 155.5t-45.5 210.5q0 127 46.5 229t142 164t227.5 62zM522 657q-73 0 -112 -56t-39 -150q0 -232 168 -232q74 0 112.5 56t38.5 149q0 233 -168 233z
M530 1071h183v-51q0 -22 -17 -39.5t-45 -17.5h-243q-24 0 -40 18t-16 39v51h58q-2 8 -2 35v14q0 70 40.5 116t110.5 46q49 0 85 -23.5t46 -72.5q0 -6 -0.5 -12t-2.5 -12.5t-3.5 -10.5t-5 -11l-5 -10t-7 -10.5t-6.5 -9t-7.5 -10.5t-7.5 -10q-10 35 -23 57t-28 29t-22 8.5
t-19 1.5q-21 0 -31 -23t-7 -50.5t15 -41.5z" />
    <glyph glyph-name="uni06C1" unicode="&#x6c1;" horiz-adv-x="1011" arabic-form="isolated" 
d="M539 879q92 0 169 -35.5t127 -95t77.5 -136.5t27.5 -161q0 -197 -110.5 -325t-307.5 -128q-123 0 -215.5 60t-138 155.5t-45.5 210.5q0 127 46.5 229t142 164t227.5 62zM522 657q-73 0 -112 -56t-39 -150q0 -232 168 -232q74 0 112.5 56t38.5 149q0 233 -168 233z" />
    <glyph glyph-name="uni06CC" unicode="&#x6cc;" horiz-adv-x="1826" arabic-form="isolated" 
d="M1423 0v623q-56 -3 -100.5 -18.5t-76 -37t-56 -55.5t-39 -67t-25.5 -80t-16 -85.5t-10 -91.5q-7 -89 -20 -156t-42.5 -133.5t-74 -109t-117 -68.5t-168.5 -26q-274 0 -414.5 135.5t-140.5 396.5q0 163 70.5 260t191.5 97l117 -11q-54 -60 -98 -148t-44 -181
q0 -58 5 -96.5t24 -81.5t53.5 -68t97.5 -42.5t152 -18.5q99 0 132 94q19 52 29 198q1 6 1 9q13 277 100 424q147 217 510 217h209v-627h174v-252h-424z" />
    <glyph glyph-name="yehbarree" unicode="&#x6d2;" horiz-adv-x="1107" arabic-form="isolated" 
d="M1118 252v-252h-649q-104 -8 -187.5 -53t-125.5 -131q-33 141 -33 270q0 90 13 179.5t39.5 179.5t71 167.5t102.5 137.5t140.5 94.5t178.5 34.5q165 0 253.5 -72.5t88.5 -185.5v-140q-84 78 -152.5 111t-144.5 33q-56 0 -104.5 -27t-81.5 -66t-61 -93t-43 -97t-28 -90
h723z" />
    <glyph glyph-name="uni06D3" unicode="&#x6d3;" horiz-adv-x="1107" arabic-form="isolated" 
d="M662 1083h184v-51q0 -22 -17 -39.5t-45 -17.5h-243q-25 0 -41.5 17.5t-16.5 39.5v51h60q-2 8 -2 35v15q0 70 40 115.5t109 45.5q49 0 86 -23.5t47 -72.5q0 -6 -0.5 -12t-2.5 -12.5t-3.5 -10.5t-5 -11l-5 -10t-7 -10.5t-6.5 -9t-7.5 -10.5t-7.5 -10q-11 35 -24.5 57
t-28.5 29t-22 8.5t-19 1.5q-21 0 -30.5 -23t-6.5 -50.5t15 -41.5zM1118 0v252h-723q13 47 28 90t43 97t61 93t81.5 66t104.5 27q76 0 144.5 -33t152.5 -111v140q0 113 -88.5 185.5t-253.5 72.5q-96 0 -178.5 -34.5t-140.5 -94.5t-102.5 -137.5t-71 -167.5t-39.5 -179.5
t-13 -179.5q0 -129 33 -270q42 86 125.5 131t187.5 53h649z" />
    <glyph glyph-name="alef_wasla.fina" unicode="&#x671;" horiz-adv-x="626" arabic-form="final" 
d="M647 252v-252q-465 0 -465 356v873h127q57 0 105.5 -41.5t48.5 -100.5v-753q5 -35 29.5 -57t66.5 -25h88zM72 1405v47h51v158h41q49 0 65 -25q65 68 142 68q44 0 78 -20.5t52 -53.5t27 -67.5t9 -69.5q0 -49 -16 -79t-46 -30h-321q-82 0 -82 72zM356 1526q-54 0 -92 -74
h156q-4 74 -64 74z" />
    <glyph glyph-name="peh.fina" unicode="&#x67e;" horiz-adv-x="1728" arabic-form="final" 
d="M1702 252h47v-252h-78q-175 0 -285 84q-101 -84 -239 -84h-619q-79 0 -143 19t-105 48.5t-72 72.5t-46.5 83t-25 88t-11.5 79t-2 65q0 161 56 254.5t179 93.5h148q-79 -69 -118.5 -157t-39.5 -159q0 -235 158 -235h620q53 4 76 33t23 84v348h100q178 0 178 -182v-117
q6 -91 50 -128.5t149 -37.5zM711 -100q-57 0 -99.5 -42t-42.5 -100q0 -57 42.5 -100t99.5 -43q55 0 97 43t42 100q0 58 -41.5 100t-97.5 42zM1020 -100q-56 0 -97.5 -42t-41.5 -100q0 -57 42 -100t97 -43q57 0 100 43t43 100q0 58 -43 100t-100 42zM864 -362q-53 0 -91 -39
t-38 -91q0 -54 37.5 -92.5t91.5 -38.5q52 0 90.5 38.5t38.5 92.5q0 51 -39 90.5t-90 39.5z" />
    <glyph glyph-name="peh.init" unicode="&#x67e;" horiz-adv-x="643" arabic-form="initial" 
d="M365 715q176 0 176 -183v-176q0 -154 -90.5 -252t-264.5 -104h-206v252h186q98 8 98 117v346h101zM137 -100q56 0 96.5 -42t40.5 -102q0 -56 -41 -96.5t-96 -40.5q-57 0 -99 41t-42 96q0 60 42 102t99 42zM446 -100q58 0 101 -42.5t43 -101.5q0 -55 -43.5 -96t-100.5 -41
q-56 0 -97.5 41t-41.5 96q0 59 41.5 101.5t97.5 42.5zM291 -360q52 0 90.5 -39t38.5 -90q0 -54 -38.5 -94t-90.5 -40q-54 0 -91.5 40t-37.5 94q0 52 38 90.5t91 38.5z" />
    <glyph glyph-name="peh.medi" unicode="&#x67e;" horiz-adv-x="667" arabic-form="medial" 
d="M487 535v-115q3 -91 46 -129.5t155 -38.5v-252h-35q-180 0 -280 82q-92 -76 -244 -82h-129v252h111q53 3 75.5 31t22.5 84v348h98q180 0 180 -180zM152 -100q56 0 96.5 -42t40.5 -102q0 -56 -40.5 -96.5t-96.5 -40.5q-57 0 -99.5 41t-42.5 96q0 60 42 102t100 42z
M461 -100q58 0 100.5 -42.5t42.5 -101.5q0 -55 -43 -96t-100 -41q-56 0 -97.5 41t-41.5 96q0 59 41.5 101.5t97.5 42.5zM305 -360q52 0 90.5 -39t38.5 -90q0 -54 -38.5 -94t-90.5 -40q-54 0 -91.5 40t-37.5 94q0 52 38 90.5t91 38.5z" />
    <glyph glyph-name="uniFB67" unicode="&#x679;" horiz-adv-x="1728" arabic-form="final" 
d="M1702 252h47v-252h-78q-182 0 -282 82q-92 -76 -242 -82h-619q-79 0 -143 19t-105 48.5t-72 72.5t-46.5 83t-25 88t-11.5 79t-2 65q0 159 56.5 253.5t178.5 94.5h148q-79 -69 -118.5 -157.5t-39.5 -158.5q0 -235 158 -235h622q52 3 74.5 31.5t22.5 83.5v348h100
q178 0 178 -183v-116q6 -91 50 -127.5t149 -36.5zM653 891v45h49v260v53h43q41 0 58.5 -15.5t17.5 -55.5v-99q62 58 131 58q44 0 77.5 -20t52 -52.5t27.5 -68t9 -70.5q0 -48 -16 -77.5t-45 -29.5h-324q-80 0 -80 72zM936 1010q-56 0 -90 -74h153q-4 74 -63 74z" />
    <glyph glyph-name="uniFB68" unicode="&#x679;" horiz-adv-x="643" arabic-form="initial" 
d="M362 715q179 0 179 -183v-176q0 -154 -91.5 -252t-265.5 -104h-204v252h184q53 4 75.5 32.5t22.5 84.5v346h100zM174 891v45h49v260v53h43q41 0 58.5 -15.5t17.5 -55.5v-99q62 58 131 58q44 0 77.5 -20t52 -52.5t27.5 -68t9 -70.5q0 -48 -16 -77.5t-45 -29.5h-324
q-80 0 -80 72zM457 1010q-56 0 -90 -74h153q-4 74 -63 74z" />
    <glyph glyph-name="uniFB69" unicode="&#x679;" horiz-adv-x="667" arabic-form="medial" 
d="M487 535v-115q5 -89 49.5 -128t151.5 -40v-252h-35q-180 0 -280 82q-92 -76 -244 -82h-129v252h111q53 3 75.5 31t22.5 84v348h98q180 0 180 -180zM121 891v45h49v260v53h43q41 0 58.5 -15.5t17.5 -55.5v-99q62 58 131 58q44 0 77.5 -20t52 -52.5t27.5 -68t9 -70.5
q0 -48 -16.5 -77.5t-45.5 -29.5h-323q-80 0 -80 72zM403 1010q-56 0 -90 -74h154q-4 74 -64 74z" />
    <glyph glyph-name="veh.fina" unicode="&#x6a4;" horiz-adv-x="1800" arabic-form="final" 
d="M1753 252h68v-252h-99q-156 0 -233 55q-89 -55 -232 -55h-727q-80 0 -144.5 19.5t-106 49t-72 72.5t-46.5 82.5t-25 88t-11 79t-2 64.5q0 348 235 348h148q-80 -69 -120 -157.5t-40 -158.5q0 -235 162 -235h338q-35 79 -35 174q0 127 46.5 229t142 164t227.5 62
q186 0 299 -139t110 -353q0 -21 -1 -57.5t-1 -59.5q28 -20 119 -20zM1210 659q-73 0 -112 -56t-39 -150q0 -33 6.5 -60t15.5 -46.5t26 -35t32 -25t39.5 -16.5t41 -10.5t45 -5.5t43.5 -2h44h32v115q0 42 -2 73.5t-8 67.5t-18 61t-30.5 46.5t-48 32.5t-67.5 11zM1073 963
q-57 0 -99 41.5t-42 99.5q0 57 42 100t99 43q55 0 97 -43t42 -100q0 -58 -41.5 -99.5t-97.5 -41.5zM1382 963q-56 0 -97.5 41.5t-41.5 99.5q0 57 42 100t97 43q57 0 100.5 -43t43.5 -100q0 -58 -43 -99.5t-101 -41.5zM1227 1225q-53 0 -91 38.5t-38 90.5q0 54 37.5 92.5
t91.5 38.5q51 0 90 -38.5t39 -92.5q0 -51 -39 -90t-90 -39z" />
    <glyph glyph-name="veh.init" unicode="&#x6a4;" horiz-adv-x="1034" arabic-form="initial" 
d="M952 389v-389h-972v252h178q-33 82 -33 174q0 127 47 229t143 164t228 62q187 0 298 -138.5t111 -353.5zM526 659q-73 0 -112 -56t-39 -150q0 -33 6.5 -60t15.5 -46.5t26 -35t32 -25t39.5 -16.5t41 -10.5t45 -5.5t43.5 -2h44h32v115q0 42 -2 73.5t-8 67.5t-18 61
t-30.5 46.5t-48 32.5t-67.5 11zM389 963q-57 0 -99 41.5t-42 99.5q0 57 42 100t99 43q55 0 97 -43t42 -100q0 -58 -41.5 -99.5t-97.5 -41.5zM698 963q-56 0 -97.5 41.5t-41.5 99.5q0 57 42 100t97 43q57 0 100.5 -43t43.5 -100q0 -58 -43 -99.5t-101 -41.5zM543 1225
q-53 0 -91 38.5t-38 90.5q0 54 37.5 92.5t91.5 38.5q51 0 90 -38.5t39 -92.5q0 -51 -39 -90t-90 -39z" />
    <glyph glyph-name="veh.medi" unicode="&#x6a4;" horiz-adv-x="1122" arabic-form="medial" 
d="M963 252h170v-252h-1143v252h178q-31 78 -31 174q0 127 46.5 229t142 164t227.5 62q187 0 298.5 -138.5t111.5 -353.5v-137zM537 659q-73 0 -112.5 -56.5t-39.5 -149.5q0 -33 6.5 -60t15.5 -46.5t26 -35t32 -25t39.5 -16.5t41 -10.5t45.5 -5.5t44.5 -2h44.5h33v115
q0 50 -3 87.5t-13.5 78t-29 66.5t-51.5 43t-79 17zM399 963q-57 0 -99 41.5t-42 99.5q0 57 42 100t99 43q56 0 98 -43t42 -100q0 -58 -42 -99.5t-98 -41.5zM709 963q-56 0 -98 41.5t-42 99.5q0 57 42 100t98 43q57 0 100 -43t43 -100q0 -58 -42.5 -99.5t-100.5 -41.5z
M553 1225q-53 0 -91 38.5t-38 90.5q0 54 37.5 92.5t91.5 38.5q51 0 90 -38.5t39 -92.5q0 -51 -39 -90t-90 -39z" />
    <glyph glyph-name="tcheh.fina" unicode="&#x686;" horiz-adv-x="1267" arabic-form="final" 
d="M123 -246q0 116 29 204t78.5 143.5t122 90.5t151.5 48.5t176 13.5q84 0 143 -4q-10 54 -38.5 116.5t-69.5 121t-98 97t-115 38.5q-77 0 -146.5 -33t-150.5 -113v144q0 48 5.5 81.5t26 69t56 56.5t99.5 35t153 14q382 0 518 -545l-2 2q17 -44 59.5 -63t120.5 -19h47v-252
h-78q-127 0 -200 51q-82 -51 -232 -51h-98q-178 -4 -252 -76t-74 -209q0 -34 4.5 -65t18.5 -66.5t36 -62t60.5 -46.5t89.5 -26q-21 -33 -43.5 -53.5t-45.5 -27.5t-33 -8t-29 -1q-126 0 -207.5 108t-81.5 287zM553 -98q56 0 96.5 -42t40.5 -102q0 -56 -41 -96.5t-96 -40.5
q-57 0 -99 41t-42 96q0 60 42 102t99 42zM862 -98q58 0 101 -42.5t43 -101.5q0 -55 -43.5 -96t-100.5 -41q-56 0 -97.5 41t-41.5 96q0 59 41.5 101.5t97.5 42.5zM707 -358q52 0 90.5 -39t38.5 -90q0 -54 -38.5 -94t-90.5 -40q-54 0 -91.5 40t-37.5 94q0 52 38 90.5t91 38.5z
" />
    <glyph glyph-name="tcheh.init" unicode="&#x686;" horiz-adv-x="1107" arabic-form="initial" 
d="M315 -100q56 0 97 -42t41 -102q0 -55 -41 -96t-97 -41q-57 0 -99 41t-42 96q0 60 42 102t99 42zM625 -100q58 0 100.5 -42.5t42.5 -101.5q0 -55 -43 -96t-100 -41q-56 0 -98 41t-42 96q0 59 42 101.5t98 42.5zM469 -360q52 0 90.5 -39t38.5 -90q0 -54 -38.5 -94
t-90.5 -40q-54 0 -91.5 40t-37.5 94q0 52 38 90.5t91 38.5zM-20 0v252h722q-13 47 -28 90t-43 97.5t-60.5 93t-81 65.5t-104.5 27q-76 0 -144.5 -33t-152.5 -111v140q0 113 88.5 185.5t253.5 72.5q96 0 178.5 -34.5t140.5 -94.5t102.5 -137.5t71 -167.5t39.5 -179.5
t13 -179.5q0 -129 -33 -270q-42 86 -125.5 131t-187.5 53h-649z" />
    <glyph glyph-name="tcheh.medi" unicode="&#x686;" horiz-adv-x="1136" arabic-form="medial" 
d="M313 -100q56 0 97 -42t41 -102q0 -55 -41 -96t-97 -41q-57 0 -99 41t-42 96q0 60 42 102t99 42zM623 -100q58 0 100.5 -42.5t42.5 -101.5q0 -55 -43 -96t-100 -41q-56 0 -98 41t-42 96q0 59 42 101.5t98 42.5zM467 -360q52 0 90.5 -39t38.5 -90q0 -54 -38.5 -94
t-90.5 -40q-54 0 -91.5 40t-37.5 94q0 52 38 90.5t91 38.5zM-10 0v252h717q-13 48 -28.5 90.5t-44 97t-61.5 93t-81.5 65.5t-104.5 27q-77 0 -145 -32.5t-154 -111.5v140q0 115 85.5 185.5t256.5 70.5q99 0 182.5 -38t141.5 -99t102.5 -144.5t70.5 -167.5t40 -176h180v-252
h-1157z" />
    <glyph glyph-name="ddal.fina" unicode="&#x688;" horiz-adv-x="1089" arabic-form="final" 
d="M223 1034v45h49q1 35 1 82.5t-0.5 102t-0.5 75.5v54h43q41 0 58.5 -16t17.5 -56v-98q60 57 131 57q44 0 77.5 -20t52 -52.5t27.5 -68t9 -70.5q0 -48 -16 -77t-45 -29h-324q-80 0 -80 71zM506 1153q-56 0 -90 -74h153q-4 74 -63 74zM1061 252h49v-252h-41q-87 0 -141 13
t-103 53q-36 -32 -68 -49t-75 -17h-455q-65 0 -100 42.5t-35 102.5v107h533q-7 91 -48 170.5t-117 131.5t-171 52q-27 0 -131 -16l49 115q39 61 85.5 90.5t115.5 29.5q43 0 90 -12q133 -38 224 -145.5t136 -259.5v2q11 -32 15 -43.5t13.5 -34t15 -29t17 -19.5t23 -16
t29.5 -8.5t39.5 -6.5t50.5 -1z" />
    <glyph glyph-name="uniFB8B" unicode="&#x698;" horiz-adv-x="731" arabic-form="final" 
d="M252 821q-57 0 -99 42t-42 100q0 57 42 100t99 43q55 0 97 -43t42 -100q0 -58 -41.5 -100t-97.5 -42zM561 821q-56 0 -97.5 42t-41.5 100q0 57 42 100t97 43q57 0 100.5 -43t43.5 -100q0 -58 -43 -100t-101 -42zM406 1083q-53 0 -91.5 38.5t-38.5 90.5q0 54 38 92.5
t92 38.5q52 0 90.5 -38.5t38.5 -92.5q0 -51 -39 -90t-90 -39zM741 0h-186v-47q0 -118 -83 -204.5t-214 -86.5q-84 0 -135 39t-51 106v111q102 -12 104 -12q71 0 92 38t21 132v639h108q95 0 131.5 -40.5t36.5 -139.5v-283h176v-252z" />
    <glyph glyph-name="uniFB8D" unicode="&#x691;" horiz-adv-x="731" arabic-form="final" 
d="M162 891v45h49v260v53h43q41 0 58.5 -15.5t17.5 -55.5v-99q62 58 131 58q44 0 77.5 -20t52 -52.5t27.5 -68t9 -70.5q0 -48 -16.5 -77.5t-45.5 -29.5h-323q-80 0 -80 72zM444 1010q-56 0 -90 -74h154q-4 74 -64 74zM741 0h-186v-47q0 -118 -83 -204.5t-214 -86.5
q-84 0 -135 39t-51 106v111q102 -12 104 -12q71 0 92 38t21 132v639h108q95 0 131.5 -40.5t36.5 -139.5v-283h176v-252z" />
    <glyph glyph-name="kheh.fina" unicode="&#x6a9;" horiz-adv-x="1658" arabic-form="final" 
d="M1483 252h186v-252h-1141q-79 0 -143.5 19.5t-105.5 49t-71.5 72.5t-46.5 82.5t-25 88t-11 79t-2 64.5q0 160 56 254t179 94h148q-80 -69 -120 -157.5t-40 -158.5q0 -235 160 -235h717q-3 59 -20 111t-38 85t-44.5 58t-37.5 35.5t-18 11.5q-85 53 -176 53q-36 0 -109 -12
l-53 74q-29 40 -29 86q0 71 66 120l752 564l67 -90q29 -36 29 -84q0 -59 -47 -97l-473 -354q69 -28 116 -54.5t97 -70t82 -99.5t57.5 -141t38.5 -196z" />
    <glyph glyph-name="kheh.init" unicode="&#x6a9;" horiz-adv-x="1083" arabic-form="initial" 
d="M965 1348q26 -32 26 -84q0 -63 -45 -97l-473 -354q92 -18 166.5 -77.5t121 -143.5t72 -178.5t29.5 -192.5v-221h-882v252h626q-3 58 -21 110t-39.5 85t-45.5 58.5t-38 36t-18 11.5q-85 53 -176 53q-52 0 -106 -10l-56 72q-30 43 -30 86q0 29 17.5 62t49.5 58l756 564z
" />
    <glyph glyph-name="kheh.medi" unicode="&#x6a9;" horiz-adv-x="1026" arabic-form="medial" 
d="M885 1438l69 -90q27 -30 27 -84q0 -58 -45 -97q-44 -35 -133.5 -100.5t-130.5 -97.5q-40 -29 -112.5 -83t-98.5 -73q8 -1 29 -7.5t57 -24.5t74 -44t79 -71.5t73 -101t54 -137t25 -175.5h184v-252h-1046v252h604q-3 59 -21 111.5t-37.5 84t-45.5 59.5t-35.5 35t-18.5 13
v-2q-85 53 -176 53q-52 0 -106 -10q-3 4 -15.5 18.5t-15.5 18.5q-55 67 -55 121q0 29 17 62t48 58z" />
    <glyph glyph-name="Gaf.fina" unicode="&#x6af;" horiz-adv-x="1658" arabic-form="final" 
d="M1483 252h186v-252h-1141q-79 0 -143.5 19.5t-105.5 49t-71.5 72.5t-46.5 82.5t-25 88t-11 79t-2 64.5q0 160 56 254t179 94h148q-80 -69 -120 -157.5t-40 -158.5q0 -235 160 -235h717q-3 59 -20 111t-38 85t-44.5 58t-37.5 35.5t-18 11.5q-85 53 -176 53q-36 0 -109 -12
l-53 74q-29 40 -29 86q0 71 66 120l752 564l67 -90q29 -36 29 -84q0 -59 -47 -97l-473 -354q69 -28 116 -54.5t97 -70t82 -99.5t57.5 -141t38.5 -196zM1354 1673l53 -71q25 -41 25 -70q0 -57 -48 -105q-383 -287 -770 -581q-3 4 -18 24.5t-18 24.5q-46 57 -46 109
q0 54 35 81q340 263 787 588z" />
    <glyph glyph-name="Gaf.init" unicode="&#x6af;" horiz-adv-x="1054" arabic-form="initial" 
d="M956 1348q27 -34 27 -84q0 -63 -45 -97l-473 -354q92 -18 166.5 -77.5t121 -143.5t72 -178.5t29.5 -192.5v-221h-883v252h627q-3 58 -21 110t-39.5 85t-45.5 58.5t-38 36t-18 11.5q-85 53 -176 53q-52 0 -106 -10l-56 72q-30 43 -30 86q0 29 17.5 62t49.5 58l756 564z
M729 1673l53 -71q25 -41 25 -70q0 -58 -47 -105q-383 -287 -770 -581q-3 4 -18.5 24.5t-18.5 24.5q-45 56 -45 109q0 54 35 81q354 275 786 588z" />
    <glyph glyph-name="Gaf.medi" unicode="&#x6af;" horiz-adv-x="1026" arabic-form="medial" 
d="M729 1673l53 -71q25 -41 25 -70q0 -58 -47 -105q-383 -287 -770 -581q-3 4 -18.5 24.5t-18.5 24.5q-45 56 -45 109q0 54 35 81q354 275 786 588zM885 1438l69 -90q27 -30 27 -84q0 -58 -45 -97q-44 -35 -133.5 -100.5t-130.5 -97.5q-40 -29 -112.5 -83t-98.5 -73
q8 -1 29 -7.5t57 -24.5t74 -44t79 -71.5t73 -101t54 -137t25 -175.5h184v-252h-1046v252h604q-3 59 -21 111.5t-37.5 84t-45.5 59.5t-35.5 35t-18.5 13v-2q-85 53 -176 53q-52 0 -106 -10q-3 4 -15.5 18.5t-15.5 18.5q-55 67 -55 121q0 29 17 62t48 58z" />
    <glyph glyph-name="ghunna.fina" unicode="&#x6ba;" horiz-adv-x="1462" arabic-form="final" 
d="M1436 252h47v-252h-80q-72 0 -119 12q-27 -98 -118 -186.5t-218.5 -142.5t-253.5 -54q-164 0 -295.5 81.5t-203.5 219.5t-72 303q0 146 59.5 234t173.5 88h146q-80 -70 -118 -157.5t-38 -161.5q0 -138 90.5 -245.5t227.5 -107.5q170 0 260 85.5t90 226.5v520h100
q89 0 134.5 -46t45.5 -134v-254q45 -29 142 -29z" />
    <glyph glyph-name="hehhamza.fina" unicode="&#x6c0;" horiz-adv-x="1155" arabic-form="final" 
d="M535 1073h182v-51q0 -22 -17 -39.5t-45 -17.5h-243q-24 0 -40 18t-16 39v51h58q-2 8 -2 35v14q0 70 40.5 116t110.5 46q49 0 85 -23.5t46 -72.5q0 -6 -0.5 -12t-2.5 -12.5t-3.5 -10.5t-5 -11l-5 -10t-7 -10.5t-6.5 -9t-7.5 -10.5t-7.5 -10q-10 35 -23 57t-28 29t-22 8.5
t-19 1.5q-21 0 -30.5 -23t-6.5 -50.5t15 -41.5zM1176 252v-252h-310h-166q-60 1 -110.5 5.5t-112 16.5t-109.5 30.5t-95.5 51t-79 75t-51 105.5t-19.5 140q0 127 47 229t143 164t228 62q105 0 186.5 -43t128.5 -114.5t70.5 -156.5t23.5 -178q0 -27 -1 -68t-1 -67h228z
M373 451q0 -41 11.5 -73.5t27 -53t44 -35t50.5 -22t60 -11t58.5 -4t57.5 -0.5h18v108q0 65 -6 111t-23 92t-54.5 70t-94.5 24q-73 0 -111 -56t-38 -150z" />
    <glyph glyph-name="hehfinaltone" unicode="&#x6c1;" horiz-adv-x="1140" arabic-form="final" 
d="M1161 229v-229h-94q-228 0 -338.5 110.5t-110.5 338.5v28q-192 -58 -348 -305l-188 150q130 194 305.5 304.5t386.5 110.5l105 -6v-248q0 -136 47 -195t155 -59h80z" />
    <glyph glyph-name="hehinitialaltone" unicode="&#x6c1;" horiz-adv-x="643" arabic-form="initial" 
d="M365 717q176 0 176 -182v-179q0 -154 -90.5 -252t-264.5 -104h-206v252h186q98 8 98 117v348h101zM135 -299q0 106 67.5 188t159.5 82h95q-42 -44 -71.5 -98t-29.5 -82q0 -30 25 -59q37 -47 37 -90q0 -54 -39 -91.5t-96 -37.5q-68 0 -108 49t-40 139z" />
    <glyph glyph-name="hehmedialaltone" unicode="&#x6c1;" horiz-adv-x="1390" arabic-form="medial" 
d="M1411 252v-252h-235v-485h-211q-282 0 -423 146t-147 423q-101 -84 -254 -84h-161v252h182q106 0 169.5 81t63.5 218v231h258v-692q0 -153 67.5 -240t192.5 -102v504h498zM59 -299q0 106 67.5 188t158.5 82h94q-42 -44 -71 -98t-29 -82q0 -29 26 -59q13 -18 17.5 -25
t11 -26t6.5 -39q0 -54 -39 -91.5t-96 -37.5q-67 0 -106.5 48.5t-39.5 139.5z" />
    <glyph glyph-name="uniFBAB" unicode="&#x6be;" horiz-adv-x="1159" arabic-form="final" 
d="M-20 0v252h180q2 50 7 92.5t16.5 92t29 89t46 77.5t65.5 63.5t90 41t118 15.5q168 0 263.5 -95.5t95.5 -271.5q0 -61 -14 -104h303v-252h-211q32 -71 32 -160q0 -201 -111 -309.5t-302 -108.5q-77 0 -140 19.5t-106 51t-76 79t-52 96t-31 110t-17 112t-6 110.5h-180z
M612 -328q88 0 129 37t41 113q0 47 -13.5 80.5t-35 52.5t-57.5 29t-70 13t-84 3h-108v-18v-44t2 -45t5 -47.5t10 -44t16.5 -42t24.5 -34.5t34.5 -29t46.5 -17t59 -7zM555 498q-45 0 -77.5 -14t-49.5 -34t-26.5 -51.5t-12 -56.5t-2.5 -59v-31h115q31 0 46 0.5t39.5 2.5
t36.5 6.5t27.5 13t22.5 21.5t12.5 32.5t5.5 44.5q0 64 -31.5 94.5t-105.5 30.5z" />
    <glyph glyph-name="yehbarree.fina" unicode="&#x6d2;" horiz-adv-x="1538" arabic-form="final" 
d="M1360 -592h-1231q-6 52 -6 115q0 144 48.5 274t138.5 232t232.5 162.5t317.5 60.5h699v-252h-719q-103 0 -188 -32t-139 -85t-86 -115.5t-40 -129.5h973v-230z" />
    <glyph glyph-name="uniFBB1" unicode="&#x6d3;" horiz-adv-x="1552" arabic-form="final" 
d="M725 471h182v-51q0 -20 -16.5 -37.5t-42.5 -17.5h-244q-25 0 -41 17.5t-16 37.5v51h59q-2 8 -2 35v14q0 71 40 116.5t110 45.5q49 0 86 -23t45 -71q0 -38 -25 -74q-2 -3 -9 -12.5t-9 -12.5q-11 36 -24.5 58t-28.5 30t-22 9.5t-19 1.5q-21 0 -31 -24t-7 -52t15 -41z
M1348 -592h-1231q-6 52 -6 115q0 144 48.5 274t138.5 232t232.5 162.5t317.5 60.5h698v-252h-719q-103 0 -188 -32t-139 -85t-85.5 -115.5t-39.5 -129.5h973v-230z" />
    <glyph glyph-name="alefmaksura.init" unicode="&#x649;" horiz-adv-x="663" arabic-form="initial" 
d="M383 715q178 0 178 -183v-176q0 -154 -91 -252t-263 -104h-227v252h204q53 4 76 33t23 84v346h100z" />
    <glyph glyph-name="alefmaksura.medi" unicode="&#x649;" horiz-adv-x="667" arabic-form="medial" 
d="M487 535v-115q3 -89 48.5 -128.5t152.5 -39.5v-252h-35q-180 0 -280 82q-92 -76 -244 -82h-129v252h111q53 3 75.5 31t22.5 84v348h98q180 0 180 -180z" />
    <glyph glyph-name="uniFBFD" unicode="&#x6cc;" horiz-adv-x="1452" arabic-form="final" 
d="M678 -279q-274 0 -414.5 136.5t-140.5 396.5q0 164 71 260t193 96l174 -14q-8 -7 -21.5 -19t-48.5 -49t-61.5 -73.5t-48 -88t-21.5 -96.5q0 -57 5 -96t24.5 -82t54 -69t97 -43t151.5 -17q97 0 131 92q18 50 29 196v5q1 13 4 57t6 74q-36 9 -88 12q-51 0 -86 40t-35 87
v123q33 0 52.5 0.5t26.5 1t9 0.5q76 0 143 -15.5t117.5 -40.5t96.5 -62.5t79 -76t66 -87.5q29 -42 45.5 -62.5t42.5 -37.5t55 -17h87v-252h-80q-191 0 -299 131q-6 -52 -13 -90t-21 -84t-32.5 -77.5t-50 -63.5t-72 -51.5t-98 -31.5t-129.5 -12z" />
    <glyph glyph-name="uniFBFE" unicode="&#x6cc;" horiz-adv-x="694" arabic-form="initial" 
d="M383 715q178 0 178 -183v-176q0 -154 -91 -252t-263 -104h-227v252h204q53 4 76 33t23 84v346h100zM158 -381q-59 0 -100.5 41.5t-41.5 99.5t41.5 99t100.5 41q57 0 98 -41t41 -99t-41 -99.5t-98 -41.5zM471 -381q-57 0 -98 41.5t-41 99.5t41 99t98 41t99 -41t42 -99
t-42 -99.5t-99 -41.5z" />
    <glyph glyph-name="uniFBFF" unicode="&#x6cc;" horiz-adv-x="667" arabic-form="medial" 
d="M150 -381q-59 0 -100.5 40t-41.5 101q0 57 42 98.5t100 41.5q57 0 98 -41.5t41 -98.5q0 -61 -40.5 -101t-98.5 -40zM461 -381q-58 0 -98.5 40t-40.5 101q0 57 41 98.5t98 41.5q56 0 98.5 -41.5t42.5 -98.5q0 -60 -42 -100.5t-99 -40.5zM487 535v-115q3 -89 48.5 -128.5
t152.5 -39.5v-252h-35q-180 0 -280 82q-92 -76 -244 -82h-129v252h111q53 3 75.5 31t22.5 84v348h98q180 0 180 -180z" />
    <glyph glyph-name="shadda_dammatan" unicode="&#xfc5e;" arabic-form="isolated" 
d="M14 352q59 0 99.5 -38.5t40.5 -100.5q0 -42 -19.5 -75.5t-48.5 -55t-70.5 -37t-78 -23t-79 -12t-65 -5.5t-45.5 -1q-34 0 -47 20.5t-18 73.5h34q10 5 18.5 23t8.5 37q0 18 -12 28.5t-33 10.5q-16 0 -43 -52q-41 41 -41 80q0 29 26 49.5t68 20.5q66 0 103.5 -41.5
t37.5 -97.5q0 -26 -8 -50q3 1 27 4t33 5q-29 48 -29 84q0 65 41.5 109t99.5 44zM18 154q31 3 31 47q0 25 -11 40t-30 15q-14 0 -22.5 -13.5t-8.5 -33.5q0 -24 11.5 -39.5t29.5 -15.5zM-225 -49l12 -164q3 -35 25 -35q16 0 16 29q0 13 -3 47.5t-3 50.5q0 42 14.5 56t50.5 16
h37l15 -168q4 -31 24 -31q17 0 17 35q-1 11 -5 44t-4 50q0 45 30 59.5t71 -1.5l16 -162q4 -43 -26.5 -84t-90.5 -41q-48 0 -82 24q-23 -20 -67 -20q-56 0 -91.5 35.5t-43.5 97.5q-11 91 -11 102q0 65 99 60z" />
    <glyph glyph-name="shadda_kasratan" unicode="&#xfc5f;" arabic-form="isolated" 
d="M-225 252l12 -164q3 -35 25 -35q16 0 16 29q0 13 -3 47.5t-3 50.5q0 42 14.5 56t50.5 16h37l15 -168q4 -31 24 -31q17 0 17 35q-1 11 -5 44t-4 50q0 45 30 59.5t71 -1.5l16 -162q4 -43 -26.5 -84t-90.5 -41q-48 0 -82 24q-23 -20 -67 -20q-56 0 -91.5 35.5t-43.5 97.5
q-11 91 -11 103q0 64 99 59zM68 -276l2 -56q-59 -2 -162 -8t-154 -8q-20 -1 -32.5 9.5t-17.5 31.5t-6 34.5t-1 34.5q45 1 153.5 7.5t153.5 7.5q60 3 64 -53zM68 -131l2 -55q-58 -2 -161.5 -8.5t-154.5 -8.5q-20 -1 -32.5 9.5t-17.5 32t-6 35t-1 34.5q45 1 153.5 7t153.5 7
q60 3 64 -53z" />
    <glyph glyph-name="shadda_fatha" unicode="&#xfc60;" arabic-form="isolated" 
d="M68 76l2 -56q-59 -2 -162 -8t-154 -8q-20 -1 -32.5 9.5t-17.5 32t-6 35t-1 34.5q45 1 153.5 7t153.5 7q60 3 64 -53zM-225 -49l12 -164q3 -35 25 -35q16 0 16 29q0 13 -3 47.5t-3 50.5q0 42 14.5 56t50.5 16h37l15 -168q4 -31 24 -31q17 0 17 35q-1 11 -5 44t-4 50
q0 45 30 59.5t71 -1.5l16 -162q4 -43 -26.5 -84t-90.5 -41q-48 0 -82 24q-23 -20 -67 -20q-56 0 -91.5 35.5t-43.5 97.5q-11 91 -11 102q0 65 99 60z" />
    <glyph glyph-name="shadda_damma" unicode="&#xfc61;" arabic-form="isolated" 
d="M-25 152q27 5 27 51q0 25 -10.5 40t-26.5 15q-15 0 -23 -14.5t-8 -36.5q0 -26 11.5 -40.5t29.5 -14.5zM-31 352q59 0 99.5 -38t40.5 -99q0 -203 -388 -211q-35 0 -45.5 20t-15.5 74l68 2q86 5 129 13q-25 35 -25 86q0 66 38.5 109.5t98.5 43.5zM-225 -49l12 -164
q3 -35 25 -35q16 0 16 29q0 13 -3 47.5t-3 50.5q0 42 14.5 56t50.5 16h37l15 -168q4 -31 24 -31q17 0 17 35q-1 11 -5 44t-4 50q0 45 30 59.5t71 -1.5l16 -162q4 -43 -26.5 -84t-90.5 -41q-48 0 -82 24q-23 -20 -67 -20q-56 0 -91.5 35.5t-43.5 97.5q-11 91 -11 102
q0 65 99 60z" />
    <glyph glyph-name="shadda_kasra" unicode="&#xfc62;" arabic-form="isolated" 
d="M-225 100l12 -163q3 -35 25 -35q16 0 16 28q0 13 -3 48t-3 51q0 42 14.5 55.5t50.5 15.5h37l15 -168q4 -30 24 -30q17 0 17 35q-1 11 -5 44t-4 50q0 45 30 59t71 -2l16 -162q4 -43 -26.5 -84t-90.5 -41q-46 0 -82 25q-24 -21 -67 -21q-56 0 -91.5 36t-43.5 98
q-11 91 -11 102q0 64 99 59zM68 -276l2 -56q-59 -2 -162 -8t-154 -8q-20 -1 -32.5 9.5t-17.5 31.5t-6 34.5t-1 34.5q45 1 153.5 7.5t153.5 7.5q60 3 64 -53z" />
    <glyph glyph-name="shadda_alefsuperscript" unicode="&#xfc63;" arabic-form="isolated" 
d="M-74 4h-47q-25 0 -41 19t-16 55v186h49q18 0 36.5 -18.5t18.5 -42.5v-199zM-225 -49l12 -164q3 -35 25 -35q16 0 16 29q0 13 -3 47.5t-3 50.5q0 42 14.5 56t50.5 16h37l15 -168q4 -31 24 -31q17 0 17 35q-1 11 -5 44t-4 50q0 45 30 59.5t71 -1.5l16 -162q4 -43 -26.5 -84
t-90.5 -41q-48 0 -82 24q-23 -20 -67 -20q-56 0 -91.5 35.5t-43.5 97.5q-11 91 -11 102q0 65 99 60z" />
    <glyph glyph-name="alah" unicode="&#xfdf2;" horiz-adv-x="2185" arabic-form="isolated" 
d="M1114 252q58 3 82.5 31t24.5 84v862h98q180 0 180 -178v-633q3 -48 9 -75t22 -50t45 -32t76 -9h63q52 3 74 31.5t22 83.5v862h101q182 0 182 -180v-693q0 -155 -92 -252.5t-268 -103.5q-150 -1 -223 17.5t-128 62.5q-67 -54 -190.5 -68t-491.5 -12q-577 0 -577 424
q0 127 47 229t143 164t228 62q78 0 144.5 -26.5t114.5 -73t82 -108.5t50.5 -134.5t15.5 -149.5v-135h166zM373 451q0 -41 11 -73.5t26.5 -53.5t42.5 -35.5t49.5 -22t58 -11.5t56.5 -4.5t57 -0.5h26v108q0 51 -3 89t-13.5 80t-29.5 68.5t-52.5 44t-79.5 17.5q-73 0 -111 -56
t-38 -150z" />
    <glyph glyph-name="alef_madda.fina" unicode="&#x622;" horiz-adv-x="544" arabic-form="final" 
d="M492 1532v-74q0 -44 -28.5 -84.5t-78.5 -40.5h-313v103q0 36 26 66t64 30h330zM510 252h55v-252h-73q-173 6 -265 104t-92 252v873h129q56 0 105 -42.5t49 -101.5v-751q13 -76 92 -82z" />
    <glyph glyph-name="alef_hamza_above.fina" unicode="&#x623;" horiz-adv-x="542" arabic-form="final" 
d="M260 1440h182v-49q0 -22 -16.5 -40t-42.5 -18h-246q-24 0 -39.5 18t-15.5 40v49h61q-6 24 -6 49q0 71 41 116.5t111 45.5q49 0 85 -23t46 -72q0 -17 -4.5 -32t-8.5 -20.5t-14 -20.5q-2 -3 -8 -12.5t-8 -12.5q-11 36 -24.5 58t-28.5 29.5t-22 9t-19 1.5q-35 0 -35 -61
q0 -43 12 -55zM416 334q6 -36 30.5 -58.5t63.5 -23.5h53v-252h-74q-175 6 -264.5 103t-89.5 253v873h127q56 0 105 -41t49 -101v-753z" />
    <glyph glyph-name="waw_hamza.fina" unicode="&#x624;" horiz-adv-x="1081" arabic-form="final" 
d="M477 1092h182v-52q0 -22 -16.5 -39.5t-42.5 -17.5h-244q-25 0 -41 17.5t-16 39.5v52h59q-2 8 -2 34v15q0 70 40 116t110 46q49 0 86 -24t45 -73q0 -15 -2.5 -27t-11 -26.5t-12 -19t-17.5 -23.5q-11 35 -24.5 57t-28.5 29t-22 8.5t-19 1.5q-35 0 -35 -59q0 -43 12 -55z
M641 854q129 -54 193.5 -181t64.5 -284l-2 -137h205v-252h-219q-13 -47 -36.5 -91.5t-66.5 -90.5t-99.5 -79.5t-140 -55t-182.5 -21.5q-74 0 -118.5 34.5t-44.5 86.5v100q147 3 249 37t152 82q-81 4 -147.5 15.5t-139.5 40.5t-122.5 73.5t-82 120t-32.5 174.5
q0 127 46.5 229t142.5 164t228 62q73 0 152 -27zM322 453q0 -66 20 -108.5t57.5 -61.5t73 -25t86.5 -6h86v45q-1 48 -1.5 73t-4 70t-10 70t-19 57.5t-30 49.5t-45 29.5t-62.5 12.5q-73 0 -112 -56.5t-39 -149.5z" />
    <glyph glyph-name="alef_hamza_below.fina" unicode="&#x625;" horiz-adv-x="479" arabic-form="final" 
d="M246 -313h182v-52q0 -20 -16.5 -37.5t-42.5 -17.5h-244q-25 0 -41 17.5t-16 37.5v52h59q-2 8 -2 34v15q0 71 39.5 116.5t109.5 45.5q48 0 85 -23.5t47 -71.5q0 -39 -44 -98q-11 36 -24.5 58t-28.5 29.5t-22 9t-19 1.5q-35 0 -35 -61q0 -42 13 -55zM356 332
q5 -34 29.5 -55.5t65.5 -24.5h49v-252h-70q-173 6 -264.5 103.5t-91.5 252.5v871h129q57 0 105 -41t48 -101v-753z" />
    <glyph glyph-name="yeh_hamza_above.fina" unicode="&#x626;" horiz-adv-x="1826" arabic-form="final" 
d="M297 784h182v-51q0 -22 -16.5 -39.5t-44.5 -17.5h-244q-25 0 -40 17.5t-15 39.5v51h57q-2 8 -2 35v15q0 70 41 115.5t111 45.5q48 0 84.5 -23.5t46.5 -72.5q0 -33 -27 -72q-2 -3 -9 -12t-9 -12q-9 28 -20.5 48t-20 29t-21.5 14t-17 5h-14q-34 0 -34 -59q0 -44 12 -56z
M1423 0v623q-56 -3 -100.5 -18.5t-76 -37t-56 -55.5t-39 -67t-25.5 -80t-16 -85.5t-10 -91.5q-7 -89 -20 -156t-42.5 -133.5t-74 -109t-117 -68.5t-168.5 -26q-274 0 -414.5 135.5t-140.5 396.5q0 163 70.5 260t191.5 97l117 -11q-54 -60 -98 -148t-44 -181q0 -58 5 -96.5
t24 -81.5t53.5 -68t97.5 -42.5t152 -18.5q99 0 132 94q19 52 29 198q1 6 1 9q13 277 100 424q147 217 510 217h209v-627h174v-252h-424z" />
    <glyph glyph-name="yeh_hamza_above.init" unicode="&#x626;" horiz-adv-x="645" arabic-form="initial" 
d="M365 715q178 0 178 -183v-176q0 -154 -91.5 -252t-265.5 -104h-206v252h186q53 4 75.5 32.5t22.5 84.5v346h101zM389 958h182v-47q0 -20 -15.5 -36.5t-41.5 -16.5h-246q-23 0 -38 16.5t-15 36.5v47h61q-4 11 -4 54q0 70 39.5 114.5t108.5 44.5q48 0 83.5 -22t45.5 -70
q0 -15 -4 -28t-7.5 -19.5t-13.5 -20t-14 -20.5q-10 34 -23 54.5t-29 27.5t-23.5 8.5t-20.5 1.5q-39 0 -39 -65q0 -50 14 -60z" />
    <glyph glyph-name="yeh_hamza_above.medi" unicode="&#x626;" horiz-adv-x="667" arabic-form="medial" 
d="M487 535v-115q3 -90 47 -129t154 -39v-252h-35q-180 0 -280 82q-92 -76 -244 -82h-129v252h111q53 3 75.5 31t22.5 84v348h98q180 0 180 -180zM336 958h182v-47q0 -20 -15.5 -36.5t-41.5 -16.5h-246q-23 0 -38 16.5t-15 36.5v47h61q-4 11 -4 54q0 70 39.5 114.5
t108.5 44.5q48 0 83.5 -22t45.5 -70q0 -15 -4 -28t-7.5 -19.5t-13.5 -20t-14 -20.5q-10 34 -23.5 54.5t-29.5 27.5t-23.5 8.5t-20.5 1.5q-38 0 -38 -65q0 -50 14 -60z" />
    <glyph glyph-name="alef.fina" unicode="&#x627;" horiz-adv-x="468" arabic-form="final" 
d="M354 332q13 -74 95 -80h51v-252h-70q-174 6 -266 103.5t-92 252.5v873h131q56 0 103.5 -41t47.5 -101v-755z" />
    <glyph glyph-name="beh.fina" unicode="&#x628;" horiz-adv-x="1617" arabic-form="final" 
d="M743 -375q-59 0 -99 40.5t-40 98.5q0 57 40.5 97.5t98.5 40.5q59 0 100.5 -40.5t41.5 -97.5q0 -58 -41.5 -98.5t-100.5 -40.5zM1591 252h47v-252h-77q-183 0 -283 82q-92 -76 -242 -82h-618q-79 0 -143 19t-105.5 48.5t-72 72.5t-46.5 83t-25.5 88t-11.5 79t-2 65
q0 159 57 253.5t179 94.5h147q-79 -69 -118 -157.5t-39 -158.5q0 -235 157 -235h623q52 3 74 31.5t22 83.5v350h100q179 0 179 -182v-119q6 -91 49.5 -127.5t148.5 -36.5z" />
    <glyph glyph-name="beh.init" unicode="&#x628;" horiz-adv-x="643" arabic-form="initial" 
d="M414 -240q1 -59 -42.5 -100t-99.5 -41t-96.5 40.5t-40.5 100.5q0 56 39.5 97t97.5 41q57 0 99.5 -40.5t42.5 -97.5zM365 717q176 0 176 -182v-179q0 -154 -90.5 -252t-264.5 -104h-206v252h186q98 8 98 117v348h101z" />
    <glyph glyph-name="beh.medi" unicode="&#x628;" horiz-adv-x="667" arabic-form="medial" 
d="M346 -102q56 0 97.5 -40.5t41.5 -99.5t-41 -98t-98 -39q-59 0 -99 39t-40 98q0 60 40 100t99 40zM487 535v-115q3 -89 48.5 -128.5t152.5 -39.5v-254h-35q-177 0 -280 84q-59 -47 -147.5 -65.5t-225.5 -18.5v254h111q53 3 75.5 31t22.5 84v348h98q180 0 180 -180z" />
    <glyph glyph-name="tehmarbuta.fina" unicode="&#x629;" horiz-adv-x="1155" arabic-form="final" 
d="M1176 252v-252h-310h-166q-60 1 -110.5 5.5t-112 16.5t-109.5 30.5t-95.5 51t-79 75t-51 105.5t-19.5 140q0 127 47 229t143 164t228 62q105 0 186.5 -43t128.5 -114.5t70.5 -156.5t23.5 -178q0 -27 -1 -68t-1 -67h228zM373 451q0 -41 11.5 -73.5t27 -53t44 -35t50.5 -22
t60 -11t58.5 -4t57.5 -0.5h18v108q0 65 -6 111t-23 92t-54.5 70t-94.5 24q-73 0 -111 -56t-38 -150zM383 963q-57 0 -99 41.5t-42 99.5q0 57 42 100t99 43q55 0 97 -43t42 -100q0 -58 -41.5 -99.5t-97.5 -41.5zM692 963q-56 0 -97.5 41.5t-41.5 99.5q0 57 42 100t97 43
q57 0 100.5 -43t43.5 -100q0 -58 -43 -99.5t-101 -41.5z" />
    <glyph glyph-name="teh.fina" unicode="&#x62a;" horiz-adv-x="1728" arabic-form="final" 
d="M1702 252h47v-252h-78q-182 0 -282 82q-92 -76 -242 -82h-619q-79 0 -143 19t-105 48.5t-72 72.5t-46.5 83t-25 88t-11.5 79t-2 65q0 159 56.5 253.5t178.5 94.5h148q-79 -69 -118.5 -157.5t-39.5 -158.5q0 -235 158 -235h622q52 3 74.5 31.5t22.5 83.5v348h100
q178 0 178 -183v-116q6 -91 50 -127.5t149 -36.5zM711 821q-57 0 -99.5 42t-42.5 100q0 57 42.5 100t99.5 43q55 0 97 -43t42 -100q0 -58 -41.5 -100t-97.5 -42zM1020 821q-56 0 -97.5 42t-41.5 100q0 57 42 100t97 43q57 0 100 -43t43 -100q0 -58 -43 -100t-100 -42z" />
    <glyph glyph-name="teh.init" unicode="&#x62a;" horiz-adv-x="643" arabic-form="initial" 
d="M362 715q179 0 179 -183v-176q0 -154 -90.5 -252t-264.5 -104h-206v252h184q53 4 75.5 32.5t22.5 84.5v346h100zM246 821q-57 0 -99.5 42t-42.5 100q0 57 42.5 100t99.5 43q55 0 97 -43t42 -100q0 -58 -41.5 -100t-97.5 -42zM555 821q-56 0 -97.5 42t-41.5 100
q0 57 42 100t97 43q57 0 100 -43t43 -100q0 -58 -43 -100t-100 -42z" />
    <glyph glyph-name="teh.medi" unicode="&#x62a;" horiz-adv-x="667" arabic-form="medial" 
d="M487 535v-115q5 -89 49.5 -128t151.5 -40v-252h-35q-180 0 -280 82q-92 -76 -244 -82h-129v252h111q53 3 75.5 31t22.5 84v348h98q180 0 180 -180zM193 819q-57 0 -99.5 42t-42.5 100q0 57 42.5 100t99.5 43q55 0 97 -43t42 -100q0 -58 -41.5 -100t-97.5 -42zM502 819
q-56 0 -98 42t-42 100q0 57 42 100t98 43q57 0 100 -43t43 -100q0 -58 -43 -100t-100 -42z" />
    <glyph glyph-name="theh.fina" unicode="&#x62b;" horiz-adv-x="1728" arabic-form="final" 
d="M1702 252h47v-252h-78q-182 0 -282 82q-92 -76 -242 -82h-619q-79 0 -143 19t-105 48.5t-72 72.5t-46.5 83t-25 88t-11.5 79t-2 65q0 159 56.5 253.5t178.5 94.5h148q-79 -69 -118.5 -157.5t-39.5 -158.5q0 -235 158 -235h622q52 3 74.5 31.5t22.5 83.5v348h100
q178 0 178 -183v-116q6 -91 50 -127.5t149 -36.5zM711 821q-57 0 -99.5 42t-42.5 100q0 57 42.5 100t99.5 43q55 0 97 -43t42 -100q0 -58 -41.5 -100t-97.5 -42zM1020 821q-56 0 -97.5 42t-41.5 100q0 57 42 100t97 43q57 0 100 -43t43 -100q0 -58 -43 -100t-100 -42z
M864 1083q-53 0 -91 38.5t-38 90.5q0 54 37.5 92.5t91.5 38.5q52 0 90.5 -38.5t38.5 -92.5q0 -51 -39 -90t-90 -39z" />
    <glyph glyph-name="theh.init" unicode="&#x62b;" horiz-adv-x="643" arabic-form="initial" 
d="M362 715q179 0 179 -183v-176q0 -154 -90.5 -252t-264.5 -104h-206v252h184q53 4 75.5 32.5t22.5 84.5v346h100zM246 821q-57 0 -99.5 42t-42.5 100q0 57 42.5 100t99.5 43q55 0 97 -43t42 -100q0 -58 -41.5 -100t-97.5 -42zM555 821q-56 0 -97.5 42t-41.5 100
q0 57 42 100t97 43q57 0 100 -43t43 -100q0 -58 -43 -100t-100 -42zM399 1083q-53 0 -91 38.5t-38 90.5q0 54 37.5 92.5t91.5 38.5q51 0 90 -38.5t39 -92.5q0 -51 -39 -90t-90 -39z" />
    <glyph glyph-name="theh.medi" unicode="&#x62b;" horiz-adv-x="667" arabic-form="medial" 
d="M487 535v-115q5 -89 49.5 -128t151.5 -40v-252h-35q-180 0 -280 82q-92 -76 -244 -82h-129v252h111q53 3 75.5 31t22.5 84v348h98q180 0 180 -180zM193 819q-57 0 -99.5 42t-42.5 100q0 57 42.5 100t99.5 43q55 0 97 -43t42 -100q0 -58 -41.5 -100t-97.5 -42zM502 819
q-56 0 -98 42t-42 100q0 57 42 100t98 43q57 0 100 -43t43 -100q0 -58 -43 -100t-100 -42zM346 1081q-53 0 -91 38.5t-38 90.5q0 54 37.5 92.5t91.5 38.5q52 0 90.5 -38.5t38.5 -92.5q0 -51 -39 -90t-90 -39z" />
    <glyph glyph-name="jeem.fina" unicode="&#x62c;" horiz-adv-x="1267" arabic-form="final" 
d="M637 -342q-61 0 -101 40t-40 99t40 99.5t101 40.5q58 0 98.5 -40.5t40.5 -99.5t-40 -99t-99 -40zM1241 252h47v-252h-78q-127 0 -209 53q-99 -55 -256 -55q-49 0 -67 2q-144 -3 -230 -54.5t-86 -138.5q0 -73 15 -112q49 -129 244 -129q76 0 163 38t148 99v-133
q0 -57 -30 -102.5t-80 -71.5t-107.5 -39.5t-118.5 -13.5q-55 0 -115 12.5t-125 43.5t-116 76t-84 117t-33 160q0 116 27 203t75 143t120.5 91t155 49t187.5 14q45 0 135 -4q-7 53 -34.5 116.5t-68.5 122t-99.5 97.5t-118.5 39q-77 0 -146.5 -33t-150.5 -113v144
q0 114 83 185t257 71q382 0 518 -545l-2 2q17 -44 59.5 -63t120.5 -19z" />
    <glyph glyph-name="jeem.init" unicode="&#x62c;" horiz-adv-x="1118" arabic-form="initial" 
d="M512 -381q-61 0 -100 39.5t-39 101.5q0 58 39.5 99t99.5 41q56 0 96.5 -41.5t40.5 -98.5q0 -60 -40.5 -100.5t-96.5 -40.5zM-10 0v252h723q-13 47 -28 90t-43 97t-61 93t-81.5 66t-104.5 27q-76 0 -144.5 -33t-152.5 -111v140q0 113 88.5 185.5t253.5 72.5
q96 0 178.5 -34.5t140.5 -94.5t102.5 -137.5t71 -167.5t39.5 -179.5t13 -179.5q0 -129 -33 -270q-42 86 -125.5 131t-187.5 53h-649z" />
    <glyph glyph-name="jeem.medi" unicode="&#x62c;" horiz-adv-x="1136" arabic-form="medial" 
d="M467 -377q-61 0 -100 40t-39 99q0 58 39.5 99t99.5 41q57 0 98 -41.5t41 -98.5q0 -58 -41 -98.5t-98 -40.5zM-10 0v252h717q-13 48 -28.5 90.5t-44 97t-61.5 93t-81.5 65.5t-104.5 27q-77 0 -145 -32.5t-154 -111.5v140q0 115 85.5 185.5t256.5 70.5q99 0 182.5 -38
t141.5 -99t102.5 -144.5t70.5 -167.5t40 -176h180v-252h-1157z" />
    <glyph glyph-name="hah.fina" unicode="&#x62d;" horiz-adv-x="1267" arabic-form="final" 
d="M1241 252h47v-252h-78q-127 0 -209 53q-99 -55 -256 -55q-49 0 -67 2q-144 -3 -230 -54.5t-86 -138.5q0 -73 15 -112q49 -129 244 -129q76 0 163 38t148 99v-133q0 -57 -30 -102.5t-80 -71.5t-107.5 -39.5t-118.5 -13.5q-55 0 -115 12.5t-125 43.5t-116 76t-84 117
t-33 160q0 116 27 203t75 143t120.5 91t155 49t187.5 14q45 0 135 -4q-7 53 -34.5 116.5t-68.5 122t-99.5 97.5t-118.5 39q-77 0 -146.5 -33t-150.5 -113v144q0 114 83 185t257 71q382 0 518 -545l-2 2q17 -44 59.5 -63t120.5 -19z" />
    <glyph glyph-name="hah.init" unicode="&#x62d;" horiz-adv-x="1118" arabic-form="initial" 
d="M-10 0v252h723q-13 47 -28 90t-43 97t-61 93t-81.5 66t-104.5 27q-76 0 -144.5 -33t-152.5 -111v140q0 113 88.5 185.5t253.5 72.5q96 0 178.5 -34.5t140.5 -94.5t102.5 -137.5t71 -167.5t39.5 -179.5t13 -179.5q0 -129 -33 -270q-42 86 -125.5 131t-187.5 53h-649z" />
    <glyph glyph-name="hah.medi" unicode="&#x62d;" horiz-adv-x="1136" arabic-form="medial" 
d="M-10 0v252h717q-13 48 -28.5 90.5t-44 97t-61.5 93t-81.5 65.5t-104.5 27q-77 0 -145 -32.5t-154 -111.5v140q0 115 85.5 185.5t256.5 70.5q99 0 182.5 -38t141.5 -99t102.5 -144.5t70.5 -167.5t40 -176h180v-252h-1157z" />
    <glyph glyph-name="khah.fina" unicode="&#x62e;" horiz-adv-x="1267" arabic-form="final" 
d="M1241 252h47v-252h-78q-127 0 -209 53q-99 -55 -256 -55q-49 0 -67 2q-144 -3 -230 -54.5t-86 -138.5q0 -73 15 -112q49 -129 244 -129q76 0 163 38t148 99v-133q0 -57 -30 -102.5t-80 -71.5t-107.5 -39.5t-118.5 -13.5q-55 0 -115 12.5t-125 43.5t-116 76t-84 117
t-33 160q0 116 27 203t75 143t120.5 91t155 49t187.5 14q45 0 135 -4q-7 53 -34.5 116.5t-68.5 122t-99.5 97.5t-118.5 39q-77 0 -146.5 -33t-150.5 -113v144q0 114 83 185t257 71q382 0 518 -545l-2 2q17 -44 59.5 -63t120.5 -19zM539 965q-59 0 -98.5 41t-39.5 100
q0 60 39 98.5t99 38.5q58 0 100.5 -39t42.5 -98q0 -58 -42.5 -99.5t-100.5 -41.5z" />
    <glyph glyph-name="khah.init" unicode="&#x62e;" horiz-adv-x="1118" arabic-form="initial" 
d="M-10 0v252h723q-13 47 -28 90t-43 97t-61 93t-81.5 66t-104.5 27q-76 0 -144.5 -33t-152.5 -111v140q0 113 88.5 185.5t253.5 72.5q96 0 178.5 -34.5t140.5 -94.5t102.5 -137.5t71 -167.5t39.5 -179.5t13 -179.5q0 -129 -33 -270q-42 86 -125.5 131t-187.5 53h-649z
M438 965q-59 0 -98 41t-39 100q0 60 38.5 98.5t98.5 38.5q58 0 100 -39t42 -98q0 -58 -42.5 -99.5t-99.5 -41.5z" />
    <glyph glyph-name="khah.medi" unicode="&#x62e;" horiz-adv-x="1136" arabic-form="medial" 
d="M-10 0v252h717q-13 48 -28.5 90.5t-44 97t-61.5 93t-81.5 65.5t-104.5 27q-77 0 -145 -32.5t-154 -111.5v140q0 115 85.5 185.5t256.5 70.5q99 0 182.5 -38t141.5 -99t102.5 -144.5t70.5 -167.5t40 -176h180v-252h-1157zM424 965q-59 0 -98 41t-39 100q0 60 38.5 98.5
t98.5 38.5q58 0 99.5 -39t41.5 -98q0 -58 -42 -99.5t-99 -41.5z" />
    <glyph glyph-name="dal.fina" unicode="&#x62f;" horiz-adv-x="1089" arabic-form="final" 
d="M1061 252h49v-252h-41q-87 0 -141 13t-103 53q-36 -32 -68 -49t-75 -17h-455q-65 0 -100 42.5t-35 102.5v107h533q-7 91 -48 170.5t-117 131.5t-171 52q-27 0 -131 -16l49 115q39 61 85.5 90.5t115.5 29.5q43 0 90 -12q133 -38 224 -145.5t136 -259.5v2q11 -32 15 -43.5
t13.5 -34t15 -29t17 -19.5t23 -16t29.5 -8.5t39.5 -6.5t50.5 -1z" />
    <glyph glyph-name="thal.fina" unicode="&#x630;" horiz-adv-x="1089" arabic-form="final" 
d="M453 965q-58 0 -99 41t-41 100t40.5 98t99.5 39q58 0 98.5 -39t40.5 -98q0 -58 -41 -99.5t-98 -41.5zM1061 252h49v-252h-41q-87 0 -141 13t-103 53q-36 -32 -68 -49t-75 -17h-455q-65 0 -100 42.5t-35 102.5v107h533q-7 91 -48 170.5t-117 131.5t-171 52q-27 0 -131 -16
l49 115q39 61 85.5 90.5t115.5 29.5q43 0 90 -12q133 -38 224 -145.5t136 -259.5v2q11 -32 15 -43.5t13.5 -34t15 -29t17 -19.5t23 -16t29.5 -8.5t39.5 -6.5t50.5 -1z" />
    <glyph glyph-name="reh.fina" unicode="&#x631;" horiz-adv-x="761" arabic-form="final" 
d="M772 0h-186v-47q0 -118 -83 -204.5t-214 -86.5q-84 0 -135.5 39t-51.5 106v111q102 -12 105 -12q71 0 91.5 38t20.5 132v639h109q95 0 131.5 -40.5t36.5 -139.5v-283h176v-252z" />
    <glyph glyph-name="zain.fina" unicode="&#x632;" horiz-adv-x="731" arabic-form="final" 
d="M406 819q-56 0 -97 41.5t-41 100.5q0 56 39.5 96.5t98.5 40.5q57 0 98 -40t41 -97q0 -60 -41 -101t-98 -41zM741 0h-186v-47q0 -118 -83 -204.5t-214 -86.5q-84 0 -135 39t-51 106v111q102 -12 104 -12q71 0 92 38t21 132v639h108q95 0 131.5 -40.5t36.5 -139.5v-283h176
v-252z" />
    <glyph glyph-name="seen.fina" unicode="&#x633;" horiz-adv-x="2516" arabic-form="final" 
d="M2417 252h120v-252h-102q-139 0 -225 74q-86 -70 -246 -74h-16q-171 0 -277 61q-78 -61 -282 -61h-121q-30 -107 -122 -195.5t-212 -137t-238 -48.5q-164 0 -296 82t-204.5 220.5t-72.5 303.5q0 144 60 232t173 88h148q-81 -70 -118.5 -157.5t-37.5 -160.5
q0 -138 90.5 -244t227.5 -106q169 0 259.5 83.5t90.5 225.5v633h127q55 0 103 -41t48 -98v-428h136q54 4 77 32t23 83v452h98q180 0 180 -180v-160q0 -104 -12 -198q16 -18 43 -23.5t82 -5.5h-2q68 4 94.5 32t26.5 83v452h100q182 0 182 -180v-291q5 -96 95 -96z" />
    <glyph glyph-name="seen.init" unicode="&#x633;" horiz-adv-x="1579" arabic-form="initial" 
d="M1315 819q182 0 182 -180v-281q0 -155 -92 -253.5t-266 -104.5h-19q-172 0 -278 63q-101 -63 -281 -63h-581v252h208v567h127q56 0 104 -41t48 -98v-428h135q54 4 77 32.5t23 84.5v450h101q178 0 178 -180v-158q0 -118 -10 -196q15 -19 42 -26t81 -7q67 4 93.5 32.5
t26.5 84.5v450h101z" />
    <glyph glyph-name="seen.medi" unicode="&#x633;" horiz-adv-x="1689" arabic-form="medial" 
d="M1593 252h117v-252h-102q-62 0 -122 19t-102 55q-84 -70 -247 -74h-15q-170 0 -276 61q-78 -61 -285 -61h-581v252h208v567h129q54 0 103 -41t49 -98v-428h135q54 4 77.5 32t23.5 83v452h98q180 0 180 -180v-160q0 -104 -12 -198q14 -18 40 -23.5t81 -5.5q69 4 95.5 32
t26.5 83v452h101q180 0 180 -180q0 -31 1 -115t1 -178q6 -94 96 -94z" />
    <glyph glyph-name="sheen.fina" unicode="&#x634;" horiz-adv-x="2516" arabic-form="final" 
d="M2417 252h120v-252h-102q-139 0 -225 74q-86 -70 -246 -74h-16q-171 0 -277 61q-78 -61 -282 -61h-121q-30 -107 -122 -195.5t-212 -137t-238 -48.5q-164 0 -296 82t-204.5 220.5t-72.5 303.5q0 144 60 232t173 88h148q-81 -70 -118.5 -157.5t-37.5 -160.5
q0 -138 90.5 -244t227.5 -106q169 0 259.5 83.5t90.5 225.5v633h127q55 0 103 -41t48 -98v-428h136q54 4 77 32t23 83v452h98q180 0 180 -180v-160q0 -104 -12 -198q16 -18 43 -23.5t82 -5.5h-2q68 4 94.5 32t26.5 83v452h100q182 0 182 -180v-291q5 -96 95 -96zM1513 965
q-57 0 -99 41.5t-42 99.5q0 57 42 100t99 43q56 0 98 -43t42 -100q0 -58 -42 -99.5t-98 -41.5zM1823 965q-56 0 -98 41.5t-42 99.5q0 57 42 100t98 43q57 0 100 -43t43 -100q0 -58 -42.5 -99.5t-100.5 -41.5zM1667 1227q-53 0 -91 38.5t-38 90.5q0 54 37.5 92.5t91.5 38.5
q51 0 90 -38.5t39 -92.5q0 -51 -39 -90t-90 -39z" />
    <glyph glyph-name="sheen.init" unicode="&#x634;" horiz-adv-x="1579" arabic-form="initial" 
d="M1315 819q182 0 182 -180v-281q0 -155 -92 -253.5t-266 -104.5h-19q-172 0 -278 63q-101 -63 -281 -63h-581v252h208v567h127q56 0 104 -41t48 -98v-428h135q54 4 77 32.5t23 84.5v450h101q178 0 178 -180v-158q0 -118 -10 -196q15 -19 42 -26t81 -7q67 4 93.5 32.5
t26.5 84.5v450h101zM692 965q-57 0 -99 41.5t-42 99.5q0 57 42 100t99 43q55 0 97 -43t42 -100q0 -58 -41.5 -99.5t-97.5 -41.5zM1001 965q-56 0 -97.5 41.5t-41.5 99.5q0 57 42 100t97 43q57 0 100.5 -43t43.5 -100q0 -58 -43 -99.5t-101 -41.5zM846 1227q-53 0 -91 38.5
t-38 90.5q0 54 37.5 92.5t91.5 38.5q52 0 90.5 -38.5t38.5 -92.5q0 -51 -39 -90t-90 -39z" />
    <glyph glyph-name="sheen.medi" unicode="&#x634;" horiz-adv-x="1689" arabic-form="medial" 
d="M1593 252h117v-252h-102q-62 0 -122 19t-102 55q-84 -70 -247 -74h-15q-170 0 -276 61q-78 -61 -285 -61h-581v252h208v567h129q54 0 103 -41t49 -98v-428h135q54 4 77.5 32t23.5 83v452h98q180 0 180 -180v-160q0 -104 -12 -198q14 -18 40 -23.5t81 -5.5q69 4 95.5 32
t26.5 83v452h101q180 0 180 -180q0 -47 1 -99t1 -67v-127q6 -94 96 -94zM688 965q-57 0 -99 41.5t-42 99.5q0 57 42 100t99 43q55 0 97 -43t42 -100q0 -58 -41.5 -99.5t-97.5 -41.5zM997 965q-56 0 -97.5 41.5t-41.5 99.5q0 57 42 100t97 43q57 0 100.5 -43t43.5 -100
q0 -58 -43 -99.5t-101 -41.5zM842 1227q-53 0 -91 38.5t-38 90.5q0 54 37.5 92.5t91.5 38.5q52 0 90.5 -38.5t38.5 -92.5q0 -51 -39 -90t-90 -39z" />
    <glyph glyph-name="sad.fina" unicode="&#x635;" horiz-adv-x="2332" arabic-form="final" 
d="M2304 252h49v-252h-80q-84 0 -159 20q-28 -20 -54 -20h-811q-52 -169 -205 -279t-350 -110q-253 0 -412 155.5t-159 403.5q0 143 60 230t173 87h148q-81 -68 -119.5 -156t-38.5 -159q0 -133 89.5 -220t230.5 -87q168 0 257 85t89 230v514h69q36 0 51.5 -0.5t40 -3.5
t34.5 -9.5t22.5 -18.5t18 -31t7.5 -47q215 293 469 293q97 0 176.5 -38t131.5 -99.5t87.5 -141.5t50.5 -160t15 -159v-13q34 -14 119 -14zM1675 602q-68 -4 -128.5 -34t-106 -80.5t-79 -109t-58.5 -126.5h641q-1 53 -6 95t-22 90t-45 81t-78 56.5t-118 27.5z" />
    <glyph glyph-name="sad.init" unicode="&#x635;" horiz-adv-x="1404" arabic-form="initial" 
d="M-20 0v252h163q0 91 1 208.5t1 233.5h74h38t31.5 -1.5t29 -4t23 -7.5t20.5 -13t13.5 -19t11 -27t5.5 -36q96 134 215 213.5t254 79.5q97 0 177.5 -38.5t132 -100t87.5 -141.5t51 -160.5t15 -159.5q0 -119 -35 -199t-90 -80h-1218zM438 252h633q0 12 1 28t1 23
q0 287 -258 299q-71 -4 -136.5 -39t-112 -89t-79 -110.5t-49.5 -111.5z" />
    <glyph glyph-name="sad.medi" unicode="&#x635;" horiz-adv-x="1525" arabic-form="medial" 
d="M-20 0v252h215v442h73h39.5t32.5 -1.5t29.5 -4t22.5 -7.5t19.5 -13t13.5 -19.5t11.5 -27t5.5 -35.5q94 133 213.5 212t253.5 79q97 0 177 -38t131.5 -99.5t87 -141.5t50.5 -160t15 -159v-27h176v-252h-1566zM860 602q-69 -4 -132.5 -39t-110.5 -89t-80 -110.5t-52 -111.5
h637v37q0 294 -262 313z" />
    <glyph glyph-name="dad.fina" unicode="&#x636;" horiz-adv-x="2332" arabic-form="final" 
d="M1686 963q-59 0 -98.5 41t-39.5 100q0 60 39 98.5t99 38.5q59 0 100 -39t41 -98q0 -58 -41.5 -99.5t-99.5 -41.5zM2304 252h49v-252h-80q-84 0 -159 20q-28 -20 -54 -20h-811q-52 -169 -205 -279t-350 -110q-253 0 -412 155.5t-159 403.5q0 143 60 230t173 87h148
q-81 -68 -119.5 -156t-38.5 -159q0 -133 89.5 -220t230.5 -87q168 0 257 85t89 230v514h69q36 0 51.5 -0.5t40 -3.5t34.5 -9.5t22.5 -18.5t18 -31t7.5 -47q215 293 469 293q97 0 176.5 -38t131.5 -99.5t87.5 -141.5t50.5 -160t15 -159v-13q34 -14 119 -14zM1675 602
q-68 -4 -128 -34.5t-105.5 -80.5t-79.5 -108.5t-59 -126.5h641q-1 53 -6 95t-22 90t-45 81t-78 56.5t-118 27.5z" />
    <glyph glyph-name="dad.init" unicode="&#x636;" horiz-adv-x="1404" arabic-form="initial" 
d="M-20 0v252h163q0 91 1 208.5t1 233.5h74h38t31.5 -1.5t29 -4t23 -7.5t20.5 -13t13.5 -19t11 -27t5.5 -36q96 134 215 213.5t254 79.5q97 0 177.5 -38.5t132 -100t87.5 -141.5t51 -160.5t15 -159.5q0 -119 -35 -199t-90 -80h-1218zM438 252h633q0 12 1 28t1 23
q0 287 -258 299q-71 -4 -136.5 -39t-112 -89t-79 -110.5t-49.5 -111.5zM823 965q-59 0 -98 41t-39 100q0 58 39 97.5t98 39.5q57 0 98.5 -40t41.5 -97q0 -58 -41.5 -99.5t-98.5 -41.5z" />
    <glyph glyph-name="dad.medi" unicode="&#x636;" horiz-adv-x="1525" arabic-form="medial" 
d="M-20 0v252h215v442h73h39.5t32.5 -1.5t29.5 -4t22.5 -7.5t19.5 -13t13.5 -19.5t11.5 -27t5.5 -35.5q94 133 213.5 212t253.5 79q97 0 177 -38t131.5 -99.5t87 -141.5t50.5 -160t15 -159v-27h176v-252h-1566zM860 602q-69 -4 -132.5 -39t-110.5 -89t-80 -110.5t-52 -111.5
h637v37q0 294 -262 313zM877 963q-61 0 -101.5 41t-40.5 100q0 60 40 98.5t102 38.5q58 0 98.5 -39t40.5 -98q0 -58 -41 -99.5t-98 -41.5z" />
    <glyph glyph-name="tah.fina" unicode="&#x637;" horiz-adv-x="1607" arabic-form="final" 
d="M319 0q-105 6 -150.5 45t-45.5 123v84h160q0 32 -1 229t-1 320v428h69q98 0 137 -37t39 -133v-469q96 132 215 210.5t254 78.5q97 0 176.5 -38.5t130.5 -100t86.5 -141.5t50.5 -160.5t15 -159.5q0 -5 -1 -15t-1 -12h166v-252h-1299zM946 602q-70 -4 -134.5 -39.5
t-111 -89.5t-79.5 -110t-52 -111h637v51q0 287 -260 299z" />
    <glyph glyph-name="tah.init" unicode="&#x637;" horiz-adv-x="1374" arabic-form="initial" 
d="M-10 0v252h129q-2 150 -2 977h69q98 0 138.5 -38t40.5 -132v-469q211 289 466 289q97 0 176.5 -38.5t131.5 -100t87.5 -141.5t50.5 -160.5t15 -159.5q0 -120 -35 -199.5t-92 -79.5h-1175zM408 252h636v51q0 287 -260 299q-69 -4 -133.5 -39t-111.5 -89t-80 -110.5
t-51 -111.5z" />
    <glyph glyph-name="tah.medi" unicode="&#x637;" horiz-adv-x="1509" arabic-form="medial" 
d="M-10 0v252h215q-2 152 -2 977h71q95 0 137 -40t42 -132v-467q94 132 212 209.5t253 77.5q97 0 176.5 -38t131 -99.5t87 -141.5t50.5 -160t15 -159q0 -5 -1 -15t-1 -12h144v-252h-1530zM494 252h634v37q0 294 -262 313q-68 -4 -131 -39t-109.5 -89t-79.5 -110.5
t-52 -111.5z" />
    <glyph glyph-name="zah.fina" unicode="&#x638;" horiz-adv-x="1607" arabic-form="final" 
d="M961 963q-58 0 -99 41t-41 100t40.5 98t99.5 39q58 0 97.5 -39t39.5 -98t-40 -100t-97 -41zM319 0q-105 6 -150.5 45t-45.5 123v84h160q0 32 -1 229t-1 320v428h69q98 0 137 -37t39 -133v-469q96 132 215 210.5t254 78.5q97 0 176.5 -38.5t130.5 -100t86.5 -141.5
t50.5 -160.5t15 -159.5q0 -5 -1 -15t-1 -12h166v-252h-1299zM946 602q-70 -4 -134.5 -39.5t-111 -89.5t-79.5 -110t-52 -111h637v51q0 287 -260 299z" />
    <glyph glyph-name="zah.init" unicode="&#x638;" horiz-adv-x="1363" arabic-form="initial" 
d="M784 965q-57 0 -98 41.5t-41 99.5q0 57 41 97t98 40t98.5 -40t41.5 -97q0 -58 -41.5 -99.5t-98.5 -41.5zM-20 0v252h129q-3 225 -3 977h70q98 0 138 -37.5t40 -132.5v-469q211 289 467 289q97 0 176.5 -38.5t131.5 -100t87.5 -141.5t50.5 -160.5t15 -159.5
q0 -120 -35 -199.5t-92 -79.5h-1175zM397 252h637v51q0 287 -260 299q-69 -4 -134 -39t-111.5 -89t-80 -110.5t-51.5 -111.5z" />
    <glyph glyph-name="zah.medi" unicode="&#x638;" horiz-adv-x="1509" arabic-form="medial" 
d="M-10 0v252h215q-2 152 -2 977h71q95 0 137 -40t42 -132v-467q94 132 212 209.5t253 77.5q97 0 176.5 -38t131 -99.5t87 -141.5t50.5 -160t15 -159q0 -5 -1 -15t-1 -12h144v-252h-1530zM494 252h634v37q0 294 -262 313q-68 -4 -131 -39t-109.5 -89t-79.5 -110.5
t-52 -111.5zM881 965q-59 0 -98.5 41t-39.5 100q0 60 39 98.5t99 38.5q58 0 100.5 -39t42.5 -98q0 -58 -42.5 -99.5t-100.5 -41.5z" />
    <glyph glyph-name="ain.fina" unicode="&#x639;" horiz-adv-x="1273" arabic-form="final" 
d="M1284 252v-252h-156q-56 0 -90 1.5t-101 9t-128.5 29.5t-114.5 56q-37 -22 -92 -45h2q-14 -6 -53.5 -20.5t-57.5 -22t-48.5 -26.5t-44.5 -37.5t-26 -49.5t-12 -69q0 -73 15 -112q49 -130 244 -130q73 0 159.5 40t151.5 100v-136q0 -58 -30 -103t-80 -70.5t-107.5 -38.5
t-118.5 -13q-55 0 -115 12.5t-125 43.5t-116 76.5t-84 117.5t-33 160q0 97 21.5 178.5t66 147.5t119 109.5t174.5 57.5q-63 72 -145 127t-146 70q0 42 4 96q6 93 6 113q19 7 39.5 16.5t34.5 17.5t37 21.5t37 20.5h-2q75 41 104 55q28 19 104 44t134 25q80 0 160 -26.5
t125.5 -53.5t103.5 -69q23 -18 92 -61q-36 -89 -113 -204.5t-164 -197.5q25 -8 80 -8h129h160zM614 479q44 -44 103 -86q97 87 190 213q-95 39 -176 39q-109 0 -229 -74q18 -12 36.5 -27t41.5 -35.5t34 -29.5z" />
    <glyph glyph-name="ain.init" unicode="&#x639;" horiz-adv-x="1060" arabic-form="initial" 
d="M465 252h514v-117q0 -49 -39.5 -92t-99.5 -43h-860v252h196q-31 79 -31 174q0 127 47 229t143 164t228 62q122 0 224 -64.5t124 -189.5q0 -64 -20 -105l-60 -137q-21 68 -52.5 119.5t-62 80t-65 46t-59.5 23t-47 5.5q-71 0 -109.5 -56.5t-38.5 -149.5q0 -150 68 -201z
" />
    <glyph glyph-name="ain.medi" unicode="&#x639;" horiz-adv-x="1132" arabic-form="medial" 
d="M1143 252v-252h-139q-54 0 -91 2t-102.5 10t-126.5 30t-113 56q-51 -37 -143.5 -67.5t-191.5 -30.5h-246v252h299q78 0 96 8q-62 79 -142.5 133t-150.5 70q0 38 4 88q6 99 6 119q55 25 160 84h-2q61 34 103 55t106.5 41t118.5 20q59 0 117.5 -14t111.5 -40t87 -46.5
t77 -50.5q60 -41 90 -60q-35 -85 -113 -201t-163 -198q27 -8 77 -8h132h139zM610 643q-109 0 -229 -74q16 -12 35 -27t42 -33.5t36 -29.5q46 -46 102 -86q35 30 69.5 67t56.5 64.5t62 79.5q-95 39 -174 39z" />
    <glyph glyph-name="ghain.fina" unicode="&#x63a;" horiz-adv-x="1273" arabic-form="final" 
d="M1284 252v-252h-156q-56 0 -90 1.5t-101 9t-128.5 29.5t-114.5 56q-37 -22 -92 -45h2q-14 -6 -53.5 -20.5t-57.5 -22t-48.5 -26.5t-44.5 -37.5t-26 -49.5t-12 -69q0 -73 15 -112q49 -130 244 -130q73 0 159.5 40t151.5 100v-136q0 -58 -30 -103t-80 -70.5t-107.5 -38.5
t-118.5 -13q-55 0 -115 12.5t-125 43.5t-116 76.5t-84 117.5t-33 160q0 97 21.5 178.5t66 147.5t119 109.5t174.5 57.5q-63 72 -145 127t-146 70q0 42 4 96q6 93 6 113q19 7 39.5 16.5t34.5 17.5t37 21.5t37 20.5h-2q75 41 104 55q28 19 104 44t134 25q80 0 160 -26.5
t125.5 -53.5t103.5 -69q23 -18 92 -61q-36 -89 -113 -204.5t-164 -197.5q25 -8 80 -8h129h160zM614 479q44 -44 103 -86q97 87 190 213q-95 39 -176 39q-109 0 -229 -74q18 -12 36.5 -27t41.5 -35.5t34 -29.5zM709 965q-61 0 -100.5 41t-39.5 100q0 60 39.5 98.5t100.5 38.5
q58 0 98.5 -39t40.5 -98q0 -58 -41 -99.5t-98 -41.5z" />
    <glyph glyph-name="ghain.init" unicode="&#x63a;" horiz-adv-x="1060" arabic-form="initial" 
d="M563 965q-59 0 -99 41t-40 100q0 60 39.5 98.5t99.5 38.5q59 0 99 -39t40 -98t-40.5 -100t-98.5 -41zM465 252h514v-117q0 -49 -39.5 -92t-99.5 -43h-860v252h196q-31 79 -31 174q0 127 47 229t143 164t228 62q122 0 224 -64.5t124 -189.5q0 -64 -20 -105l-60 -137
q-21 68 -52.5 119.5t-62 80t-65 46t-59.5 23t-47 5.5q-71 0 -109.5 -56.5t-38.5 -149.5q0 -150 68 -201z" />
    <glyph glyph-name="ghain.medi" unicode="&#x63a;" horiz-adv-x="1132" arabic-form="medial" 
d="M592 965q-59 0 -99 41t-40 100q0 60 39.5 98.5t99.5 38.5q59 0 99 -39t40 -98t-40.5 -100t-98.5 -41zM1143 252v-252h-139q-54 0 -91 2t-102.5 10t-126.5 30t-113 56q-51 -37 -143.5 -67.5t-191.5 -30.5h-246v252h299q78 0 96 8q-62 79 -142.5 133t-150.5 70q0 38 4 88
q6 99 6 119q55 25 160 84h-2q61 34 103 55t106.5 41t118.5 20q59 0 117.5 -14t111.5 -40t87 -46.5t77 -50.5q60 -41 90 -60q-35 -85 -113 -201t-163 -198q27 -8 77 -8h132h139zM610 643q-109 0 -229 -74q16 -12 35 -27t42 -33.5t36 -29.5q46 -46 102 -86q35 30 69.5 67
t56.5 64.5t62 79.5q-95 39 -174 39z" />
    <glyph glyph-name="feh.fina" unicode="&#x641;" horiz-adv-x="1800" arabic-form="final" 
d="M1225 963q-57 0 -98.5 41t-41.5 98q0 58 41.5 99.5t98.5 41.5q61 0 101 -40t40 -99q0 -60 -40 -100.5t-101 -40.5zM1753 252h68v-252h-99q-156 0 -233 55q-89 -55 -232 -55h-727q-80 0 -144.5 19.5t-106 49t-72 72.5t-46.5 82.5t-25 88t-11 79t-2 64.5q0 348 235 348h148
q-80 -69 -120 -157.5t-40 -158.5q0 -235 162 -235h338q-35 79 -35 174q0 127 46.5 229t142 164t227.5 62q186 0 299 -139t110 -353q0 -21 -1 -57.5t-1 -59.5q28 -20 119 -20zM1210 659q-73 0 -112 -56t-39 -150q0 -33 6.5 -60t15.5 -46.5t26 -35t32 -25t39.5 -16.5t41 -10.5
t45 -5.5t43.5 -2h44h32v115q0 42 -2 73.5t-8 67.5t-18 61t-30.5 46.5t-48 32.5t-67.5 11z" />
    <glyph glyph-name="feh.init" unicode="&#x641;" horiz-adv-x="1042" arabic-form="initial" 
d="M537 965q-59 0 -99.5 40.5t-40.5 98.5q0 59 41 100t99 41q61 0 101 -40t40 -99q0 -60 -40 -100.5t-101 -40.5zM868 702q80 -122 80 -313v-389h-973v252h179q-33 82 -33 174q0 127 47 229t143 164t228 62q103 0 190 -45t139 -134zM694 252v37q0 14 1 40t1 38q0 42 -2 73.5
t-8 67.5t-18 61t-30.5 46.5t-48 32.5t-67.5 11q-73 0 -112 -56t-39 -150q0 -33 6.5 -60t15.5 -46.5t26 -35t32 -25t39.5 -16.5t41 -10.5t45 -5.5t43.5 -2h44h30z" />
    <glyph glyph-name="feh.medi" unicode="&#x641;" horiz-adv-x="1122" arabic-form="medial" 
d="M553 963q-57 0 -97 41t-40 98q0 59 40 100t97 41q61 0 101 -40t40 -99q0 -60 -40 -100.5t-101 -40.5zM963 252h170v-252h-1143v252h178q-31 78 -31 174q0 127 46.5 229t142 164t227.5 62q187 0 298.5 -138.5t111.5 -353.5v-137zM537 659q-73 0 -112.5 -56.5t-39.5 -149.5
q0 -33 6.5 -60t15.5 -46.5t26 -35t32 -25t39.5 -16.5t41 -10.5t45.5 -5.5t44.5 -2h44.5h33v115q0 50 -3 87.5t-13.5 78t-29 66.5t-51.5 43t-79 17z" />
    <glyph glyph-name="qaf.fina" unicode="&#x642;" horiz-adv-x="1476" arabic-form="final" 
d="M926 870q101 0 179.5 -38.5t126.5 -106.5t73.5 -154t29.5 -188q0 -84 -2 -131h164v-252h-203q-110 -371 -518 -371q-158 0 -283.5 48t-205.5 131.5t-122 192.5t-42 235q0 144 60 231.5t173 87.5h148q-82 -70 -120 -157.5t-38 -159.5q0 -38 12 -81.5t42 -92.5t74 -87.5
t114.5 -64t156.5 -25.5q91 5 160.5 29.5t120.5 83.5q-80 4 -145.5 15t-137.5 39.5t-120.5 72t-80.5 118t-32 173.5v12q2 32 4.5 55.5t13 73t26.5 86t48 81.5t73.5 74.5t106 49.5t144.5 20zM1087 252v104q0 64 -6 109.5t-23 91.5t-54.5 70t-94.5 24q-73 0 -112 -57t-39 -150
q0 -40 12 -71.5t28.5 -51t46.5 -34t52.5 -21t61.5 -10t59 -4t57 -0.5h12zM778 963q-57 0 -98 40.5t-41 98.5q0 57 41 98t98 41q58 0 100 -41t42 -98q0 -58 -41.5 -98.5t-100.5 -40.5zM1079 963q-57 0 -98 40.5t-41 98.5q0 57 41 98t98 41t98.5 -41t41.5 -98
q0 -58 -41.5 -98.5t-98.5 -40.5z" />
    <glyph glyph-name="qaf.init" unicode="&#x642;" horiz-adv-x="1044" arabic-form="initial" 
d="M883 702q80 -122 80 -313v-389h-973v252h178q-33 82 -33 174q0 127 47 229t143 164t228 62q103 0 190.5 -45t139.5 -134zM711 252v115q0 42 -2 73.5t-8 67.5t-18 61t-30.5 46.5t-48 32.5t-67.5 11q-73 0 -112.5 -56.5t-39.5 -149.5q0 -33 6.5 -60t15.5 -46.5t26 -35
t32 -25t39.5 -16.5t41 -10.5t45 -5.5t43.5 -2h44h33zM403 963q-59 0 -100 40.5t-41 98.5t41 98.5t100 40.5t99.5 -40.5t40.5 -98.5t-40.5 -98.5t-99.5 -40.5zM705 963q-60 0 -101 40t-41 99t41 99t101 40q56 0 97.5 -40.5t41.5 -98.5t-41.5 -98.5t-97.5 -40.5z" />
    <glyph glyph-name="qaf.medi" unicode="&#x642;" horiz-adv-x="1122" arabic-form="medial" 
d="M403 963q-59 0 -100 40.5t-41 98.5t41 98.5t100 40.5t99.5 -40.5t40.5 -98.5t-40.5 -98.5t-99.5 -40.5zM705 963q-60 0 -101 40t-41 99t41 99t101 40q56 0 97.5 -40.5t41.5 -98.5t-41.5 -98.5t-97.5 -40.5zM963 252h170v-252h-1143v252h178q-31 78 -31 174
q0 127 46.5 229t142 164t227.5 62q187 0 298.5 -138.5t111.5 -353.5v-137zM537 659q-73 0 -112.5 -56.5t-39.5 -149.5q0 -33 6.5 -60t15.5 -46.5t26 -35t32 -25t39.5 -16.5t41 -10.5t45.5 -5.5t44.5 -2h44.5h33v115q0 50 -3 87.5t-13.5 78t-29 66.5t-51.5 43t-79 17z" />
    <glyph glyph-name="kaf.fina" unicode="&#x643;" horiz-adv-x="1656" arabic-form="final" 
d="M797 754h184v-52q0 -22 -16.5 -38.5t-44.5 -16.5h-244q-25 0 -41.5 17t-16.5 38v52h60q-2 8 -2 34v15q0 71 40 116.5t109 45.5q49 0 86 -23.5t47 -71.5q0 -7 -0.5 -13t-2.5 -12.5t-3 -11t-5 -11.5t-5.5 -9.5t-7 -10.5t-6.5 -9.5t-8 -10.5t-7 -10q-11 36 -24.5 58
t-28.5 29.5t-22 9t-19 1.5q-35 0 -35 -61q0 -42 13 -55zM1651 252h47v-252h-78q-174 0 -285 82q-92 -76 -245 -82h-562q-80 0 -144 19.5t-105.5 49t-72 73t-46 83t-24.5 88t-11 78.5t-2 64q0 348 233 348h148q-81 -68 -119.5 -156t-38.5 -160q0 -30 1 -51.5t10 -59.5
t24.5 -62t47.5 -43t77 -19h571q99 8 99 115v862h98q180 0 180 -182v-635q6 -89 49.5 -124.5t147.5 -35.5z" />
    <glyph glyph-name="kaf.init" unicode="&#x643;" horiz-adv-x="1050" arabic-form="initial" 
d="M950 1348q25 -31 25 -84q0 -62 -43 -97l-473 -354h6q18 -4 47.5 -15t83 -44t90.5 -76q162 -196 162 -457v-221h-883v252h625q-3 59 -21.5 111.5t-37.5 84t-46 59.5t-36.5 35t-18.5 13v-2q-85 53 -176 53q-53 0 -107 -10l-55 72q-31 45 -31 86q0 30 17 62.5t49 57.5
l754 564z" />
    <glyph glyph-name="kaf.medi" unicode="&#x643;" horiz-adv-x="1007" arabic-form="medial" 
d="M862 1438l70 -90q24 -31 24 -84q0 -61 -45 -97q-48 -38 -138.5 -104.5t-125.5 -93.5q-40 -29 -112.5 -83t-98.5 -73q9 -1 30 -7.5t57 -24.5t74 -44.5t79 -71.5t73 -100.5t54.5 -137t25.5 -175.5h183v-252h-1047v252h606q-3 59 -21 111.5t-37.5 84t-46 59.5t-36 35
t-18.5 13v-2q-85 53 -176 53q-54 0 -105 -10q-2 2 -15.5 17t-15.5 20q-57 65 -57 121q0 28 18 61t48 59q663 497 753 564z" />
    <glyph glyph-name="lam.fina" unicode="&#x644;" horiz-adv-x="1464" arabic-form="final" 
d="M1116 1229q180 0 180 -182v-771q39 -24 140 -24h49v-252h-80q-101 0 -154 20q-20 -62 -49 -115.5t-75.5 -106t-105.5 -89.5t-142.5 -59.5t-182.5 -22.5q-164 0 -296 82t-204.5 220.5t-72.5 303.5q0 144 60 232t173 88h148q-80 -70 -118 -157.5t-38 -159.5q0 -90 39 -170
t113 -131.5t166 -51.5q82 0 143.5 24.5t109.5 81t72.5 156.5t24.5 242v842h100z" />
    <glyph glyph-name="lam.init" unicode="&#x644;" horiz-adv-x="509" arabic-form="initial" 
d="M236 1227q182 0 182 -180v-691q0 -155 -92.5 -252.5t-268.5 -103.5h-98v252h80q52 3 74 31.5t22 83.5v860h101z" />
    <glyph glyph-name="lam.medi" unicode="&#x644;" horiz-adv-x="561" arabic-form="medial" 
d="M557 252h47v-252h-78q-89 0 -143.5 18.5t-108.5 63.5q-106 -82 -333 -82v252h71q54 4 77.5 32.5t23.5 84.5v858h98q89 0 134.5 -46t45.5 -134v-627q2 -50 8.5 -78.5t24.5 -50.5t49.5 -30.5t83.5 -8.5z" />
    <glyph glyph-name="meem.fina" unicode="&#x645;" horiz-adv-x="1382" arabic-form="final" 
d="M1311 252h92v-252h-76q-152 0 -233 84q-122 -84 -260 -84q-89 0 -168 33q-6 -9 -11 -19q-14 -29 -22 -43.5t-26.5 -44t-34 -46.5t-42 -40t-54 -35t-65.5 -21t-81 -9l-23 2q-184 3 -184 166v82h166q46 0 77.5 17t46.5 48.5t21 65.5t6 80q0 69 -2 104q-4 54 -4 86
q0 127 46.5 229t142 164t227.5 62q92 0 169 -35.5t127 -95t77.5 -136.5t27.5 -161q0 -117 -30 -189q20 -12 90 -12zM850 219q74 0 112.5 57t38.5 150q0 233 -167 233q-73 0 -112.5 -56.5t-39.5 -149.5q0 -234 168 -234z" />
    <glyph glyph-name="meem.init" unicode="&#x645;" horiz-adv-x="1118" arabic-form="initial" 
d="M-31 252h49q115 0 156 45t43 160q0 112 47.5 207t140.5 155t213 60q99 0 179 -35.5t131.5 -97.5t79.5 -144t28 -176q0 -113 -46.5 -208.5t-139.5 -155.5t-215 -60q-157 0 -279 100q-111 -102 -307 -102h-80v252zM618 221q166 0 166 232q0 92 -38.5 148t-110.5 56
q-168 0 -168 -231q0 -92 39 -148.5t112 -56.5z" />
    <glyph glyph-name="meem.medi" unicode="&#x645;" horiz-adv-x="1247" arabic-form="medial" 
d="M1231 252h47v-252h-80q-102 0 -174 22t-127 74q-119 -96 -262 -96q-164 0 -279 100q-115 -100 -307 -100h-80v252h49q115 0 156 44t43 159q0 112 47 207t140 155t214 60q99 0 178.5 -35.5t131 -97.5t79 -144t27.5 -176q0 -93 45.5 -132.5t151.5 -39.5zM618 219
q166 0 166 232q0 93 -38.5 148.5t-110.5 55.5q-170 0 -170 -231q0 -93 39.5 -149t113.5 -56z" />
    <glyph glyph-name="noon.fina" unicode="&#x646;" horiz-adv-x="1464" arabic-form="final" 
d="M1116 715q89 0 134.5 -46.5t45.5 -136.5v-256q39 -24 140 -24h49v-252h-80q-101 0 -154 20q-20 -62 -49 -115.5t-75.5 -106t-105.5 -89.5t-142.5 -59.5t-182.5 -22.5q-164 0 -296 82t-204.5 220.5t-72.5 303.5q0 144 60 232t173 88h148q-80 -70 -118 -157.5t-38 -159.5
q0 -90 39 -170t113 -131.5t166 -51.5q82 0 143.5 24.5t109.5 81t72.5 156.5t24.5 242v328h100zM719 715q-58 0 -98.5 41t-40.5 100q0 60 40 99.5t99 39.5t100 -40t41 -99q0 -58 -41 -99.5t-100 -41.5z" />
    <glyph glyph-name="noon.init" unicode="&#x646;" horiz-adv-x="643" arabic-form="initial" 
d="M541 963q0 -58 -42 -100t-98 -42q-58 0 -98.5 41.5t-40.5 100.5q0 57 40.5 98t98.5 41q56 0 98 -41t42 -98zM365 715q176 0 176 -183v-176q0 -154 -90.5 -252t-264.5 -104h-206v252h186q98 8 98 117v346h101z" />
    <glyph glyph-name="noon.medi" unicode="&#x646;" horiz-adv-x="667" arabic-form="medial" 
d="M487 963q0 -57 -44 -99.5t-95 -42.5q-57 0 -98 42t-41 100t39.5 98.5t99.5 40.5q56 0 97.5 -41t41.5 -98zM487 535v-115q5 -89 49.5 -128t151.5 -40v-252h-35q-180 0 -280 82q-92 -76 -244 -82h-129v252h111q53 3 75.5 31t22.5 84v348h98q180 0 180 -180z" />
    <glyph glyph-name="heh.fina" unicode="&#x647;" horiz-adv-x="1155" arabic-form="final" 
d="M1176 252v-252h-310h-166q-60 1 -110.5 5.5t-112 16.5t-109.5 30.5t-95.5 51t-79 75t-51 105.5t-19.5 140q0 127 47 229t143 164t228 62q73 0 149 -27q67 -27 118 -76.5t82 -112t46 -132.5t14 -144q0 -27 -1 -68t-1 -67h228zM373 451q0 -41 11.5 -73.5t27 -53t44.5 -35
t51 -22t59.5 -11t58 -4t57.5 -0.5h18v108q0 52 -3 89.5t-13.5 79t-29 67.5t-52 43.5t-80.5 17.5q-73 0 -111 -56t-38 -150z" />
    <glyph glyph-name="heh.init" unicode="&#x647;" horiz-adv-x="1193" arabic-form="initial" 
d="M301 0h-311v252h198q-49 78 -49 168q0 144 88.5 223.5t223.5 79.5q83 0 146.5 -32.5t100 -87.5t54 -119.5t16.5 -135.5q0 -21 -1 -49t-1 -47h86q6 43 6 90q0 62 -11.5 122t-40.5 120t-72 105.5t-111 73.5t-152 28q-78 0 -146.5 -32.5t-152.5 -111.5v141q0 47 6 81
t26.5 69t56.5 56t99.5 34.5t151.5 13.5q95 0 176.5 -22.5t142 -61.5t108.5 -94.5t80 -118.5t53.5 -136t30.5 -145t9 -147q0 -185 -55 -317q-209 0 -269 10q-65 10 -108 39q-55 -27 -132.5 -38t-246.5 -11zM350 393v-10.5t4 -19.5t10.5 -27t21 -27.5t35 -26.5t54 -19.5
t74.5 -10.5v2q0 36 0.5 73t-5.5 72t-16 62.5t-32 44t-54 16.5q-45 0 -68.5 -35t-23.5 -94z" />
    <glyph glyph-name="heh.medi" unicode="&#x647;" horiz-adv-x="1263" arabic-form="medial" 
d="M1110 252h164v-252h-393q-125 0 -201 49q-55 -27 -132 -38t-247 -11h-311v252h198q-49 78 -49 168q0 144 89 223.5t225 79.5q83 0 146.5 -33t99 -88t53 -120t16.5 -136q0 -21 -1 -48t-1 -46h86q6 44 6 90q0 62 -11.5 122t-40.5 120t-72 105.5t-111 73.5t-152 28
q-78 0 -146.5 -32.5t-152.5 -111.5v141q0 47 6.5 81t27 68.5t57 56t100 35t151.5 13.5q131 0 235.5 -43t171 -113.5t111 -166.5t62.5 -195.5t18 -206.5q0 -36 -2 -61v-4zM551 252v4q0 35 0.5 71.5t-6 71.5t-17 62.5t-32.5 44t-54 16.5q-43 0 -66.5 -36t-23.5 -95q0 -8 1 -17
t11.5 -32t29 -40t60 -32.5t97.5 -17.5z" />
    <glyph glyph-name="waw.fina" unicode="&#x648;" horiz-adv-x="1071" arabic-form="final" 
d="M641 854q129 -54 193.5 -181t64.5 -284l-2 -137h205v-252h-219q-13 -47 -36.5 -91.5t-66.5 -90.5t-99.5 -79.5t-140 -55t-182.5 -21.5q-74 0 -118.5 34.5t-44.5 86.5v100q147 3 249 37t152 82q-81 4 -147.5 15.5t-139.5 40.5t-122.5 73.5t-82 120t-32.5 174.5
q0 127 46.5 229t142.5 164t228 62q73 0 152 -27zM322 453q0 -66 20 -108.5t57.5 -61.5t73 -25t86.5 -6h86v45q-1 48 -1.5 73t-4 70t-10 70t-19 57.5t-30 49.5t-45 29.5t-62.5 12.5q-73 0 -112 -56.5t-39 -149.5z" />
    <glyph glyph-name="alefmaksura.fina" unicode="&#x649;" horiz-adv-x="1826" arabic-form="final" 
d="M1423 0v623q-56 -3 -100.5 -18.5t-76 -37t-56 -55.5t-39 -67t-25.5 -80t-16 -85.5t-10 -91.5q-7 -89 -20 -156t-42.5 -133.5t-74 -109t-117 -68.5t-168.5 -26q-274 0 -414.5 135.5t-140.5 396.5q0 163 70.5 260t191.5 97l117 -11q-54 -60 -98 -148t-44 -181
q0 -58 5 -96.5t24 -81.5t53.5 -68t97.5 -42.5t152 -18.5q99 0 132 94q19 52 29 198q1 6 1 9q13 277 100 424q147 217 510 217h209v-627h174v-252h-424z" />
    <glyph glyph-name="yeh.fina" unicode="&#x64a;" horiz-adv-x="1826" arabic-form="final" 
d="M1423 0v623q-56 -3 -100.5 -18.5t-76 -37t-56 -55.5t-39 -67t-25.5 -80t-16 -85.5t-10 -91.5q-7 -89 -20 -156t-42.5 -133.5t-74 -109t-117 -68.5t-168.5 -26q-274 0 -414.5 135.5t-140.5 396.5q0 163 70.5 260t191.5 97l117 -11q-54 -60 -98 -148t-44 -181
q0 -58 5 -96.5t24 -81.5t53.5 -68t97.5 -42.5t152 -18.5q99 0 132 94q19 52 29 198q1 6 1 9q13 277 100 424q147 217 510 217h209v-627h174v-252h-424zM483 -666q-58 0 -98.5 41.5t-40.5 98.5q0 59 40 98t99 39q57 0 98.5 -39t41.5 -98q0 -57 -42 -98.5t-98 -41.5zM795 -666
q-58 0 -100 41.5t-42 98.5q0 59 41.5 98t100.5 39t100 -39t41 -98q0 -57 -41.5 -98.5t-99.5 -41.5z" />
    <glyph glyph-name="yeh.init" unicode="&#x64a;" horiz-adv-x="694" arabic-form="initial" 
d="M383 715q178 0 178 -183v-176q0 -154 -91 -252t-263 -104h-227v252h204q53 4 76 33t23 84v346h100zM158 -381q-59 0 -100.5 41.5t-41.5 99.5t41.5 99t100.5 41q57 0 98 -41t41 -99t-41 -99.5t-98 -41.5zM471 -381q-57 0 -98 41.5t-41 99.5t41 99t98 41t99 -41t42 -99
t-42 -99.5t-99 -41.5z" />
    <glyph glyph-name="yeh.medi" unicode="&#x64a;" horiz-adv-x="667" arabic-form="medial" 
d="M150 -381q-59 0 -100.5 40t-41.5 101q0 57 42 98.5t100 41.5q57 0 98 -41.5t41 -98.5q0 -61 -40.5 -101t-98.5 -40zM461 -381q-58 0 -98.5 40t-40.5 101q0 57 41 98.5t98 41.5q56 0 98.5 -41.5t42.5 -98.5q0 -60 -42 -100.5t-99 -40.5zM487 535v-115q3 -89 48.5 -128.5
t152.5 -39.5v-252h-35q-180 0 -280 82q-92 -76 -244 -82h-129v252h111q53 3 75.5 31t22.5 84v348h98q180 0 180 -180z" />
    <glyph glyph-name=".notdef" horiz-adv-x="1126" 
 />
    <glyph glyph-name=".null" 
 />
    <glyph glyph-name="nonmarkingreturn" horiz-adv-x="682" 
 />
    <glyph glyph-name="space" unicode=" " horiz-adv-x="499" 
 />
    <glyph glyph-name="exclam" unicode="!" horiz-adv-x="706" 
d="M485 1073l-18 -665h-100q-73 0 -117 48.5t-47 127.5q-3 95 -9.5 325.5t-9.5 337.5h133q80 0 124 -45t44 -129zM524 178q0 -72 -52 -125t-124 -53q-73 0 -126.5 53t-53.5 125q0 73 53 125.5t127 52.5q72 0 124 -52.5t52 -125.5z" />
    <glyph glyph-name="quotedbl" unicode="&#x22;" horiz-adv-x="905" 
d="M760 1073l-27 -301h-84q-75 0 -116.5 44t-47.5 128q-3 50 -26 305h137q81 0 122.5 -46t41.5 -130zM432 1073l-26 -301h-84q-75 0 -116.5 44t-47.5 128q-4 45 -13.5 152.5t-13.5 152.5h137q81 0 122.5 -46t41.5 -130z" />
    <glyph glyph-name="numbersign" unicode="#" horiz-adv-x="1173" 
d="M1094 844q0 -67 -41 -104.5t-113 -37.5h-29q-28 -128 -32 -153h137v-84q0 -67 -40 -106.5t-114 -39.5h-26q-57 -291 -62 -319h-96q-127 0 -127 127q0 29 6 53v-2q14 65 27 141h-121q-46 -229 -62 -319h-96q-125 0 -125 127q0 19 4 51l27 141h-148v87q0 66 41 104.5
t113 38.5h41q20 105 29 153h-148v82q0 67 41 105.5t115 38.5h37q44 223 61 319h80q139 0 139 -133q0 -25 -2 -33l-2 -8l-28 -145h122q9 54 31 162t31 157h80q65 0 102 -34.5t37 -96.5q0 -35 -2 -49q-5 -25 -14.5 -66.5t-14.5 -72.5h142v-84zM662 702h-125q-26 -135 -29 -153
h121q29 135 33 153z" />
    <glyph glyph-name="dollar" unicode="$" horiz-adv-x="1124" 
d="M999 385q0 -84 -30 -155t-78 -117t-104 -74t-113 -35v-240h-82q-135 0 -135 127v109q-316 21 -316 268l4 152q72 -72 167 -119t192 -47q112 0 156.5 27t44.5 86q0 52 -47.5 77t-206.5 52h2q-338 54 -338 325q0 151 100 251.5t242 127.5v238h98q119 0 119 -127v-103
q142 -13 217.5 -75.5t75.5 -165.5v-121q-169 108 -342 108q-219 0 -219 -108q0 -32 16.5 -50t69.5 -34.5t165 -36.5q164 -28 253 -116.5t89 -223.5z" />
    <glyph glyph-name="percent" unicode="%" horiz-adv-x="1884" 
d="M793 858q0 -122 -39 -218.5t-119.5 -155t-190.5 -58.5q-101 0 -177 57t-114 147.5t-38 198.5q0 122 39 219t118.5 155.5t188.5 58.5q101 0 178 -57t115.5 -148t38.5 -199zM1264 1063l-504 -1063h-62q-57 0 -91 30.5t-34 88.5q0 51 31 106q88 187 259 547t224 473h80
q46 0 78.5 -27t32.5 -77q0 -46 -14 -78zM1755 414q0 -187 -92.5 -308.5t-255.5 -121.5q-101 0 -178 57t-115.5 147.5t-38.5 198.5q0 186 91 307t255 121q100 0 177.5 -56.5t117 -147t39.5 -197.5zM543 829q0 205 -97 205q-40 0 -59.5 -48t-19.5 -128q0 -205 92 -205
q40 0 62 48t22 128zM1509 391q0 205 -94 205q-40 0 -62 -48.5t-22 -127.5q0 -205 96 -205q40 0 61 47.5t21 128.5z" />
    <glyph glyph-name="ampersand" unicode="&#x26;" horiz-adv-x="1292" 
d="M1217 168l28 -29q0 -162 -145 -162q-121 0 -197 76l-39 39q-125 -112 -323 -112q-206 0 -316 103t-110 271q0 101 61 190.5t154 147.5q-97 121 -97 226q0 65 24.5 124.5t70.5 106.5t118.5 74.5t161.5 27.5q146 0 236 -82.5t90 -220.5q0 -88 -63 -169t-175 -150
q141 -164 168 -193q39 54 66.5 133.5t30.5 155.5h75q56 0 90.5 -36t34.5 -114q0 -65 -39 -148.5t-92 -156.5q14 -14 17 -16q52 -49 89.5 -66.5t80.5 -19.5zM680 942q0 40 -22 62t-62 22q-43 0 -66.5 -25.5t-23.5 -72.5q0 -44 55 -119l4 -4q115 75 115 137zM571 221
q71 0 129 39q-150 150 -223 252q-84 -59 -84 -133q0 -84 45 -121t133 -37z" />
    <glyph glyph-name="quotesingle" unicode="'" horiz-adv-x="749" 
d="M530 1071l-28 -301h-82q-73 0 -115.5 45t-48.5 127l-27 305h138q79 0 121 -45.5t42 -130.5z" />
    <glyph glyph-name="parenleft" unicode="(" horiz-adv-x="716" 
d="M688 -295h-147q-34 0 -79.5 18t-80.5 46q-100 77 -186 284.5t-86 438.5q0 211 62.5 401.5t163.5 303t210 112.5h145q-136 -187 -210 -370t-74 -413q0 -476 282 -821z" />
    <glyph glyph-name="parenright" unicode=")" horiz-adv-x="757" 
d="M18 1307h152q29 0 75.5 -19t80.5 -45q100 -86 186 -292.5t86 -430.5q0 -212 -62.5 -402.5t-163 -302.5t-208.5 -112h-146v49q285 296 285 733q0 258 -80 459t-205 313v50z" />
    <glyph glyph-name="asterisk" unicode="*" horiz-adv-x="1028" 
d="M762 831q-60 0 -78 -2q14 -16 34 -41.5t28 -34.5t26.5 -23.5t42.5 -23.5t62 -20q-41 -89 -78 -131.5t-94 -42.5q-37 0 -65 12.5t-47.5 38t-31.5 49t-28 59.5t-27 56q-60 -96 -60 -231q-235 12 -235 159q0 67 36.5 112.5t102.5 90.5q-57 14 -112 14q-26 0 -150 -38
q22 280 178 280q55 0 91.5 -16t78.5 -49q0 -1 4 -5q-4 135 -88 240q2 1 22.5 10.5t22.5 10.5q74 24 107 24q77 0 126.5 -37.5t49.5 -117.5q0 -27 -14 -88.5t-21 -61.5v-2q111 56 191 176q40 -61 57 -89t32 -64t15 -64q0 -77 -52 -113.5t-126 -36.5z" />
    <glyph glyph-name="plus" unicode="+" horiz-adv-x="1148" 
d="M1053 524q0 -55 -45 -97t-123 -42h-191v-365h-110q-57 0 -100.5 45.5t-43.5 122.5v197h-368v123q0 50 41.5 90.5t101.5 40.5h225v328h127q48 0 87.5 -41t39.5 -101v-186h359v-115z" />
    <glyph glyph-name="comma" unicode="," horiz-adv-x="641" 
d="M504 88q0 -129 -81 -228.5t-192 -99.5h-73v52q33 31 55.5 82t22.5 86q0 14 -5.5 27.5t-9.5 18.5t-16 21q-43 50 -43 111q0 65 47.5 111t118.5 46q81 0 128.5 -59.5t47.5 -167.5z" />
    <glyph glyph-name="hyphen" unicode="-" horiz-adv-x="899" 
d="M735 674v-121q0 -61 -37 -94t-104 -33h-430v119q0 58 37.5 93.5t99.5 35.5h434z" />
    <glyph glyph-name="hyphen" unicode="&#xad;" horiz-adv-x="899" 
d="M735 674v-121q0 -61 -37 -94t-104 -33h-430v119q0 58 37.5 93.5t99.5 35.5h434z" />
    <glyph glyph-name="period" unicode="." horiz-adv-x="612" 
d="M463 178q0 -72 -52.5 -125t-125.5 -53q-72 0 -125.5 53t-53.5 125q0 73 53.5 125.5t125.5 52.5q73 0 125.5 -52t52.5 -126z" />
    <glyph glyph-name="slash" unicode="/" horiz-adv-x="942" 
d="M819 1094l-518 -1094h-61q-47 0 -80 32.5t-33 88.5q0 55 23 100l495 1061h80q46 0 77.5 -27.5t31.5 -78.5q0 -48 -15 -82z" />
    <glyph glyph-name="zero" unicode="0" horiz-adv-x="1136" 
d="M1047 649q0 -170 -36 -300t-101 -209.5t-151 -119.5t-192 -40q-217 0 -348 161t-131 461q0 331 131.5 498.5t364.5 167.5q219 0 341 -166.5t122 -452.5zM381 651q0 -221 50 -313t153 -92q77 0 122.5 86.5t45.5 261.5q0 223 -44.5 315t-140.5 92q-84 0 -135 -85.5
t-51 -264.5z" />
    <glyph glyph-name="one" unicode="1" horiz-adv-x="823" 
d="M618 0h-122q-77 0 -124.5 47.5t-47.5 136.5v748q-16 -5 -42.5 -15.5t-33.5 -13.5q-52 -18 -101 -18q-58 0 -94 29.5t-47 78.5q-11 64 -16 86l237 105q88 37 137 50t99 13q67 0 111 -47t44 -106v-1094z" />
    <glyph glyph-name="two" unicode="2" horiz-adv-x="1134" 
d="M995 145q0 -69 -51 -107t-137 -38h-551q-62 0 -104.5 43t-42.5 104q0 75 48 151.5t185 188.5l276 234q72 57 72 135q0 68 -46.5 106.5t-129.5 38.5q-118 0 -202 -34.5t-187 -118.5v113q0 61 23.5 113.5t72 97t134.5 70.5t200 26q183 0 305.5 -111.5t122.5 -267.5
q0 -92 -27.5 -161.5t-80 -127t-152.5 -135.5q-203 -156 -252 -211h524v-109z" />
    <glyph glyph-name="three" unicode="3" horiz-adv-x="1122" 
d="M977 383q0 -187 -127.5 -295t-370.5 -108q-162 0 -267.5 69.5t-105.5 198.5v123q102 -66 190.5 -97.5t195.5 -31.5q97 0 143.5 36t46.5 97q0 67 -47.5 97.5t-147.5 33.5q-92 1 -133 31t-41 88v102q71 9 158 12q207 8 207 127q0 142 -205 142q-178 0 -356 -127v129
q0 43 26 87.5t73.5 83t125.5 63t172 24.5q207 0 331 -98.5t124 -262.5q0 -202 -156 -278q67 -39 115.5 -107.5t48.5 -138.5z" />
    <glyph glyph-name="four" unicode="4" horiz-adv-x="1124" 
d="M1079 414q0 -62 -32 -96.5t-95 -34.5h-59v-283h-119q-77 0 -122.5 47t-45.5 135v101h-375q-70 0 -115.5 41t-45.5 96q0 71 34 141q84 149 245 370.5t276 315.5h96q79 0 125.5 -49.5t46.5 -144.5v-518h186v-121zM606 535v356q-107 -141 -235 -356h235z" />
    <glyph glyph-name="five" unicode="5" horiz-adv-x="1142" 
d="M1040 416q0 -204 -132 -320t-355 -116q-198 0 -292.5 66.5t-94.5 184.5v119q106 -58 180.5 -81t181.5 -23q111 0 161 39t50 116q0 74 -61 108t-191 34q-123 0 -307 -47v512q0 122 50 180.5t169 58.5h602v-90q0 -80 -49.5 -127t-142.5 -47h-340v-203q58 6 129 6
q188 0 315 -101t127 -269z" />
    <glyph glyph-name="six" unicode="6" horiz-adv-x="1118" 
d="M1032 432q0 -65 -15 -127t-50.5 -121.5t-88.5 -104t-134 -72t-181 -27.5q-97 0 -178 35t-143.5 105t-97.5 185.5t-35 265.5q0 341 152 519t413 178q132 0 215.5 -70t83.5 -174v-100q-43 33 -101.5 54t-121 28t-123.5 -4.5t-109 -39.5t-78 -81.5t-30 -126.5q81 75 215 75
q112 0 203 -44.5t147.5 -136t56.5 -216.5zM410 434q0 -84 44 -140t124 -56q84 0 123.5 43.5t39.5 132.5q0 79 -45 120t-114 41q-82 0 -127 -40.5t-45 -100.5z" />
    <glyph glyph-name="seven" unicode="7" horiz-adv-x="1087" 
d="M963 1102q0 -65 -107 -295q-42 -86 -117 -207q-46 -77 -69 -117.5t-57 -110t-49 -129t-15 -114.5v-129h-125q-150 0 -150 162q0 67 23.5 149.5t56.5 143.5q241 438 287 514q2 3 3.5 6t2.5 4q0 2 2 4h-543v111q0 155 160 155h539q158 0 158 -147z" />
    <glyph glyph-name="eight" unicode="8" horiz-adv-x="1097" 
d="M1016 367q0 -86 -25 -154t-78 -121.5t-145 -82.5t-217 -29q-201 0 -318.5 101.5t-117.5 268.5q0 81 47 158.5t117 120.5q-71 39 -114.5 104t-43.5 156q0 172 127.5 275.5t324.5 103.5q193 0 315 -104t122 -259q0 -184 -156 -264q70 -43 116 -115t46 -159zM557 1004
q-65 0 -102 -33.5t-37 -85.5q0 -57 37.5 -91t115.5 -34q67 0 105.5 33t38.5 84q0 127 -158 127zM725 375q0 62 -44 100.5t-124 38.5q-60 0 -103.5 -37.5t-43.5 -89.5q0 -71 38 -107t123 -36q76 0 115 36t39 95z" />
    <glyph glyph-name="nine" unicode="9" horiz-adv-x="1112" 
d="M1006 653q0 -336 -133 -504.5t-369 -168.5q-160 0 -259.5 66t-99.5 181v115q96 -50 174 -75t175 -25q87 0 137 54.5t69 170.5q-71 -68 -180 -68q-198 0 -318 110t-120 292q0 210 124 338.5t353 128.5q447 0 447 -615zM709 801q0 211 -170 211q-75 0 -117.5 -51.5
t-42.5 -133.5q0 -86 42.5 -129t115.5 -43q80 0 126 40t46 106z" />
    <glyph glyph-name="colon" unicode=":" horiz-adv-x="653" 
d="M504 819q0 -74 -52.5 -127t-127.5 -53q-72 0 -124.5 53.5t-52.5 126.5t52.5 124.5t124.5 51.5q75 0 127.5 -51.5t52.5 -124.5zM504 178q0 -72 -53 -125t-127 -53q-72 0 -124.5 53t-52.5 125q0 73 52.5 125.5t124.5 52.5q75 0 127.5 -52t52.5 -126z" />
    <glyph glyph-name="semicolon" unicode=";" horiz-adv-x="688" 
d="M524 817q-2 -74 -53 -127t-125 -53q-72 0 -124 53t-52 127q0 73 52 124.5t124 51.5q73 0 125.5 -51.5t52.5 -124.5zM510 88q0 -129 -80.5 -228.5t-189.5 -99.5h-76q78 163 78 220q0 30 -31 69v-2q-14 16 -21.5 28t-13.5 33.5t-6 49.5q0 66 46.5 111.5t117.5 45.5
q83 0 129.5 -59t46.5 -168z" />
    <glyph glyph-name="semicolon" unicode="&#x37e;" horiz-adv-x="688" 
d="M524 817q-2 -74 -53 -127t-125 -53q-72 0 -124 53t-52 127q0 73 52 124.5t124 51.5q73 0 125.5 -51.5t52.5 -124.5zM510 88q0 -129 -80.5 -228.5t-189.5 -99.5h-76q78 163 78 220q0 30 -31 69v-2q-14 16 -21.5 28t-13.5 33.5t-6 49.5q0 66 46.5 111.5t117.5 45.5
q83 0 129.5 -59t46.5 -168z" />
    <glyph glyph-name="less" unicode="&#x3c;" horiz-adv-x="1187" 
d="M1012 889q0 -129 -154 -193q-212 -78 -385 -164q231 -118 531 -241v-72q0 -62 -45 -90.5t-109 -28.5q-69 0 -323.5 127t-415.5 242v43q0 53 26.5 88.5t85.5 71.5q109 63 365.5 173.5t423.5 162.5v-119z" />
    <glyph glyph-name="equal" unicode="=" horiz-adv-x="1202" 
d="M903 618h-727v111q0 51 41.5 86t108.5 35h725v-113q0 -43 -44.5 -81t-103.5 -38zM903 285h-727v108q0 51 41.5 86t108.5 35h725v-113q0 -52 -42.5 -84t-105.5 -32z" />
    <glyph glyph-name="greater" unicode="&#x3e;" horiz-adv-x="1187" 
d="M164 889v119q169 -53 425.5 -163t362.5 -173h-2q59 -34 87 -71t28 -89v-43q-160 -114 -415 -241.5t-322 -127.5q-68 0 -113 28t-45 91v72q279 113 530 241q-259 116 -385 164q-151 58 -151 193z" />
    <glyph glyph-name="question" unicode="?" horiz-adv-x="884" 
d="M848 948q0 -77 -28.5 -134t-102.5 -120q-24 -19 -70 -58t-69 -58v2q-49 -42 -56 -53q-10 -15 -10 -50v-90h-111q-51 0 -93 38.5t-42 92.5q0 69 26.5 115t98.5 106q20 17 62 52t63 51q41 41 41 82q0 48 -37 74t-108 26q-87 0 -161.5 -28.5t-162.5 -88.5v111q0 51 22 98
t64 86t112.5 62.5t159.5 23.5q95 0 172.5 -27.5t127 -74.5t76 -108t26.5 -130zM227 178q0 -72 52 -125t124 -53q73 0 127 53t54 125q0 73 -53.5 125.5t-127.5 52.5q-72 0 -124 -52.5t-52 -125.5z" />
    <glyph glyph-name="at" unicode="@" horiz-adv-x="1445" 
d="M1362 735q0 -208 -105.5 -337.5t-269.5 -129.5q-108 0 -160 86q-83 -86 -192 -86q-95 0 -170.5 88.5t-75.5 218.5q0 179 114.5 304t287.5 125q56 0 117 -27.5t102 -71.5t41 -86q0 -52 -17 -135l-6 -25v3q-18 -86 -18 -140q0 -39 8 -39q43 0 82 63t39 183
q0 155 -95.5 252.5t-267.5 97.5q-90 0 -170.5 -34.5t-141.5 -97t-96.5 -155.5t-35.5 -204q0 -188 107 -295t280 -107q174 0 323 74v-102q0 -62 -25.5 -97t-104.5 -55t-226 -20q-117 0 -223 41t-186.5 115t-128.5 186t-48 245q0 140 50 268.5t139 225.5t221 155t285 58
q249 0 408 -154t159 -391zM684 506q55 0 80.5 59t46.5 197q-17 10 -45 10q-46 0 -82.5 -52t-36.5 -128q0 -86 37 -86z" />
    <glyph glyph-name="A" unicode="A" horiz-adv-x="1150" 
d="M1120 0h-131q-82 0 -131 40.5t-55 98.5q-1 6 -3 18.5t-3 18.5q-19 118 -21 125h-424q-36 -151 -59 -301h-117q-73 0 -105 36t-32 107q0 88 63.5 307t165 454t189.5 333h108q72 0 128.5 -35.5t88.5 -89.5q87 -156 194.5 -497t143.5 -615zM563 930q-87 -167 -145 -383h289
q-53 201 -144 383z" />
    <glyph glyph-name="B" unicode="B" horiz-adv-x="1134" 
d="M1051 395q0 -125 -60.5 -217.5t-157.5 -138t-215 -45.5h-129q-358 0 -358 311v875q56 20 163.5 40.5t178.5 20.5h143q184 0 299 -92t115 -248q0 -179 -141 -250q71 -43 116.5 -115t45.5 -141zM735 883q0 55 -43.5 79.5t-107.5 24.5h-88q-16 0 -74 -8v-211h153
q71 0 115.5 28.5t44.5 86.5zM756 387q0 77 -40.5 108t-131.5 31h-160v-213q0 -20 21.5 -32.5t54.5 -12.5h94q80 0 121 31.5t41 87.5z" />
    <glyph glyph-name="C" unicode="C" horiz-adv-x="1105" 
d="M1020 864q-88 66 -184.5 96.5t-178.5 30.5q-146 0 -242 -98t-96 -254q0 -187 95 -287t252 -100q161 0 350 117v-119q0 -66 -34 -117.5t-90 -82t-121.5 -45.5t-135.5 -15q-165 0 -303.5 75.5t-222.5 218t-84 322.5q0 188 78.5 335.5t222 230.5t329.5 83q164 0 264.5 -70
t100.5 -202v-119z" />
    <glyph glyph-name="D" unicode="D" horiz-adv-x="1236" 
d="M1159 637q0 -280 -163 -463.5t-408 -183.5h-99q-169 0 -262.5 71.5t-93.5 219.5v907q52 19 153 36t167 17h122q87 0 170 -22.5t158.5 -71.5t132 -118.5t90 -170.5t33.5 -221zM860 604q0 179 -89 279t-232 100h-50l-61 -8v-651q0 -36 20 -53t68 -17h41q131 0 217 100.5
t86 249.5z" />
    <glyph glyph-name="E" unicode="E" horiz-adv-x="1048" 
d="M1004 287v-121q0 -90 -62.5 -132t-226.5 -42h-125q-230 0 -348.5 124t-118.5 365v217q0 188 22 336q17 110 69 156.5t142 46.5h645v-109q0 -153 -188 -153h-379q-10 -86 -14 -217h454v-113q0 -73 -42 -105t-130 -32h-282v-41q0 -68 11 -109.5t39 -65.5t67.5 -32t103.5 -8
h74q136 0 289 35z" />
    <glyph glyph-name="F" unicode="F" horiz-adv-x="927" 
d="M918 1135q0 -59 -42.5 -106.5t-121.5 -47.5h-334v-231h426v-101q0 -68 -44 -107.5t-100 -39.5h-272v-502h-127q-80 0 -125 42t-45 124v860q0 122 51.5 166.5t175.5 44.5h558v-102z" />
    <glyph glyph-name="G" unicode="G" horiz-adv-x="1212" 
d="M1126 303q0 -156 -98 -241t-323 -85q-123 0 -235 44.5t-197.5 124t-136 199t-50.5 259.5q0 137 47 256t133 207.5t214 139t282 50.5q86 0 154.5 -23t109 -61t61.5 -83t21 -93v-110q-183 98 -375 98q-151 0 -248.5 -98.5t-97.5 -249.5q0 -197 94 -291t250 -94
q64 0 88.5 20.5t24.5 61.5v94q0 39 -6 89.5t-12 80.5l-7 31h158q58 0 103.5 -43t45.5 -92v-191z" />
    <glyph glyph-name="H" unicode="H" horiz-adv-x="1267" 
d="M1135 0h-127q-68 0 -117 50t-49 138v318h-416v-506h-121q-74 0 -123 49.5t-49 138.5v1049h143q61 0 104.5 -45.5t43.5 -108.5v-321h418v475h135q60 0 109 -43.5t49 -110.5v-1083z" />
    <glyph glyph-name="I" unicode="I" horiz-adv-x="573" 
d="M432 0h-121q-67 0 -119.5 49.5t-52.5 136.5v1051h135q60 0 109 -44t49 -110v-1083z" />
    <glyph glyph-name="J" unicode="J" horiz-adv-x="747" 
d="M635 346q0 -166 -96 -267.5t-285 -101.5q-106 0 -176 50t-70 118v136q78 -37 215 -37q62 0 88.5 27t26.5 85v881h111q186 0 186 -188v-703z" />
    <glyph glyph-name="K" unicode="K" horiz-adv-x="1138" 
d="M238 1237q95 0 140.5 -53t45.5 -133v-275q176 257 287 379q53 56 87.5 69t114.5 13h191v-51q-69 -69 -208 -237.5t-230 -293.5l47 -71q120 -176 175 -242q63 -75 126 -127q47 -36 114 -51q-24 -92 -65.5 -131t-124.5 -39q-47 0 -99.5 24.5t-86.5 61.5q-169 194 -328 442
v-522h-109q-94 0 -138 54t-44 136v1047h105z" />
    <glyph glyph-name="L" unicode="L" horiz-adv-x="976" 
d="M967 190q0 -100 -60 -150t-215 -50h-90q-223 0 -341 119.5t-118 345.5v782h125q176 0 176 -201v-565q0 -121 38 -168t149 -47h61q71 0 147.5 18.5t127.5 40.5v-125z" />
    <glyph glyph-name="M" unicode="M" horiz-adv-x="1642" 
d="M1532 0h-117q-83 0 -132.5 47.5t-49.5 138.5q0 89 -9.5 269.5t-21.5 310.5q-2 -5 -6 -15.5t-6 -15.5q-35 -111 -164 -506q-47 -143 -108 -229h-80q-68 0 -125.5 52t-91.5 155l-168 498q-13 40 -25 67q-16 -150 -25.5 -382.5t-9.5 -389.5h-112q-80 0 -129.5 49t-49.5 137
q0 195 32 528.5t67 522.5h75q132 0 223 -57.5t128 -161.5l166 -461q9 -26 16.5 -45t9.5 -23.5t4.5 -12t3.5 -13t4 -23.5q1 3 3.5 7.5t3.5 7.5q7 21 58.5 179t76.5 238q45 136 100.5 232.5t102.5 132.5h36q111 0 179.5 -68t85.5 -200q17 -156 36 -474t19 -495z" />
    <glyph glyph-name="N" unicode="N" horiz-adv-x="1284" 
d="M1151 0h-121q-45 0 -80 10t-81 41t-97 99.5t-106 175.5q-236 458 -238 462v-788h-123q-68 0 -120 49t-52 135v1053h146q120 0 207.5 -64t152.5 -192q30 -59 104.5 -210t116.5 -234v700h133q58 0 108 -49.5t50 -116.5v-1071z" />
    <glyph glyph-name="O" unicode="O" horiz-adv-x="1333" 
d="M1247 637q0 -189 -68.5 -337t-204.5 -235.5t-321 -87.5q-156 0 -285 78t-205.5 221.5t-76.5 323.5q0 294 159 475.5t435 181.5q113 0 215.5 -42.5t181 -120t124.5 -196.5t46 -261zM946 604q0 191 -75 289t-214 98q-120 0 -195 -95t-75 -259q0 -200 71.5 -297.5
t217.5 -97.5q127 0 198.5 92.5t71.5 269.5z" />
    <glyph glyph-name="P" unicode="P" horiz-adv-x="1052" 
d="M1022 850q0 -196 -120.5 -314t-305.5 -118q-98 0 -168 24v-442h-123q-68 0 -120 48.5t-52 148.5v985q63 22 169 42.5t167 20.5h133q189 0 304.5 -104.5t115.5 -290.5zM721 829q0 84 -35.5 121t-112.5 37h-75q-20 0 -70 -12v-287q55 -12 137 -12q76 0 116 40t40 113z" />
    <glyph glyph-name="Q" unicode="Q" horiz-adv-x="1347" 
d="M1133 -164q-130 0 -300 44.5t-286 107.5q-65 13 -128.5 44t-124 84.5t-106.5 122t-74 163t-28 200.5q0 140 36.5 257t108.5 207t189 140.5t268 50.5q109 0 209.5 -42t178.5 -119t124.5 -196t46.5 -263q0 -184 -76 -325t-186 -206q154 -24 305 -24v-105q0 -141 -157 -141z
M946 608q0 190 -70 286.5t-217 96.5q-126 0 -199 -97t-73 -257q0 -197 78.5 -297t222.5 -100q120 0 189 104t69 264z" />
    <glyph glyph-name="R" unicode="R" horiz-adv-x="1107" 
d="M1055 74v-35q-27 -28 -53 -37.5t-82 -9.5q-150 0 -201 121l-88 213q-22 54 -47 83.5t-43.5 36.5t-48.5 11q-35 5 -41 6h-2q-11 2 -18 4t-9.5 2.5t-6 1t-9.5 0.5v-471h-105q-92 0 -141 50.5t-49 137.5v1006q47 19 156 36t177 17h131q188 0 302 -102t114 -264
q0 -113 -54 -202t-144 -124q60 -47 100 -143q51 -115 94 -219q25 -60 57 -101zM547 985h-66q-34 0 -75 -6v-262q43 -4 139 -4q63 0 106 34.5t43 94.5q0 83 -37.5 113t-109.5 30z" />
    <glyph glyph-name="S" unicode="S" horiz-adv-x="1052" 
d="M958 395q0 -191 -124 -304.5t-349 -113.5q-189 0 -289 71.5t-100 191.5l4 172q186 -164 359 -164q111 0 158 32t47 93q0 34 -17 54.5t-72 41.5t-167 45q-164 36 -251 119t-87 213q0 80 32.5 154t92 131.5t150 91.5t198.5 34q107 0 185 -22t119.5 -59t60 -77.5t18.5 -86.5
l-11 -176q-146 155 -331 155q-222 0 -222 -123q0 -43 53 -71t199 -58q171 -36 257.5 -124t86.5 -220z" />
    <glyph glyph-name="T" unicode="T" horiz-adv-x="1017" 
d="M1004 1135q0 -56 -51.5 -109t-118.5 -53h-189v-973h-123q-78 0 -125 48.5t-47 139.5v785h-340v106q0 59 46 108.5t126 49.5h822v-102z" />
    <glyph glyph-name="U" unicode="U" horiz-adv-x="1232" 
d="M1128 561q0 -279 -132 -431.5t-394 -152.5q-230 0 -365 148.5t-135 415.5v696h121q74 0 124 -58.5t50 -187.5v-436q0 -151 55 -224t175 -73q106 0 155 72.5t49 216.5v690h121q82 0 129 -60t47 -180v-436z" />
    <glyph glyph-name="V" unicode="V" horiz-adv-x="1134" 
d="M936 561q-46 -112 -78 -184.5t-88 -181.5t-115 -203h-37q-128 0 -198 108q-137 232 -249.5 545t-152.5 592h170q75 0 122.5 -44t56.5 -110v2q32 -172 78 -327t130 -338q175 398 238 817h156q57 0 94 -35t37 -96q0 -52 -52.5 -229t-111.5 -316z" />
    <glyph glyph-name="W" unicode="W" horiz-adv-x="1708" 
d="M1554 618v-2q-100 -317 -274 -626h-76q-89 0 -137 90q-123 217 -211 538q-92 -354 -258 -628h-72q-18 0 -31.5 2t-35.5 9.5t-41.5 27.5t-36.5 51q-131 233 -227 540.5t-136 616.5h168q68 0 114 -49t58 -111q59 -344 164 -608q65 166 117.5 366.5t81.5 356.5h104
q74 0 133.5 -43.5t79.5 -134.5q57 -280 166 -547q145 381 195 768h147q57 0 94 -36t37 -101q0 -79 -123 -480z" />
    <glyph glyph-name="X" unicode="X" horiz-adv-x="1253" 
d="M1223 70q-37 -42 -78 -63t-115 -21q-85 0 -160 56.5t-165 186.5q-20 30 -61.5 88.5t-65.5 96.5q-177 -224 -226 -414h-139q-56 0 -91.5 36t-35.5 85q0 44 6.5 78t28 85t70.5 117t126 148l95 106q-11 16 -56.5 77.5t-68.5 94.5q-179 251 -226 410h201q54 0 115 -42.5
t147 -170.5l121 -180q124 145 173.5 226.5t72.5 168.5h113q68 0 101.5 -39.5t33.5 -107.5q0 -65 -80.5 -180.5t-249.5 -309.5q22 -34 72 -104.5t73 -104.5q51 -70 145.5 -178t123.5 -145z" />
    <glyph glyph-name="Y" unicode="Y" horiz-adv-x="1060" 
d="M1030 1116q0 -65 -126.5 -274.5t-219.5 -319.5v-522h-129q-68 0 -120 49t-52 135v338q-104 137 -209 337t-164 378h154q73 0 120.5 -30t63.5 -68q88 -208 199 -375q67 100 132 227.5t99 245.5h127q61 0 93 -32.5t32 -88.5z" />
    <glyph glyph-name="Z" unicode="Z" horiz-adv-x="1093" 
d="M1012 152q0 -60 -43.5 -106t-118.5 -46h-590q-78 0 -128 47t-50 131q0 75 48.5 154.5t137.5 177.5q51 60 151.5 173.5t139.5 158.5q79 87 103 131h-580v92q0 87 48.5 129.5t156.5 42.5h536q98 0 142.5 -46.5t44.5 -135.5q0 -55 -42.5 -136t-107.5 -157q-29 -32 -289 -326
q-101 -112 -135 -170h576v-114z" />
    <glyph glyph-name="bracketleft" unicode="[" horiz-adv-x="632" 
d="M610 -289h-448v1571h319q62 0 95.5 -34.5t33.5 -92.5v-84h-217v-1151h96q53 0 87 -33t34 -92v-84z" />
    <glyph glyph-name="backslash" unicode="\" horiz-adv-x="815" 
d="M815 0h-139q-61 0 -127 44.5t-100 123.5l-441 1055h154q52 0 109.5 -39.5t84.5 -98.5q72 -172 229.5 -542.5t229.5 -542.5z" />
    <glyph glyph-name="bracketright" unicode="]" horiz-adv-x="632" 
d="M471 -289h-448v84q0 59 34.5 92t87.5 33h97v1151h-219v84q0 58 34.5 92.5t96.5 34.5h317v-1571z" />
    <glyph glyph-name="asciicircum" unicode="^" horiz-adv-x="956" 
d="M829 750q-37 -48 -75 -48q-53 1 -101 30.5t-67 70.5q-21 61 -115 223q-125 -190 -178 -317h-51q-52 0 -83.5 26t-31.5 68q0 40 100 205t197 274h47q63 0 179 -174.5t179 -357.5z" />
    <glyph glyph-name="underscore" unicode="_" horiz-adv-x="1028" 
d="M1028 -487h-1028v200h1028v-200z" />
    <glyph glyph-name="grave" unicode="`" horiz-adv-x="1060" 
d="M281 1241q0 117 122 117q88 0 172 -85t146 -220h-105q-80 0 -157 25t-127.5 69t-50.5 94z" />
    <glyph glyph-name="a" unicode="a" horiz-adv-x="952" 
d="M868 328q0 -152 -100.5 -248t-259.5 -96h-43q-169 0 -275 87t-106 220q0 140 110 221.5t355 81.5h47q-4 64 -41.5 89.5t-116.5 25.5q-101 0 -190 -32.5t-125 -68.5v99q0 45 19.5 86t58.5 77.5t108.5 58t159.5 21.5q54 0 102 -9t94 -28t82 -52t63.5 -78.5t42.5 -110.5
t15 -144v-200zM598 326v55h-49q-103 0 -142.5 -20t-39.5 -62q0 -37 31 -58.5t89 -21.5q111 0 111 107z" />
    <glyph glyph-name="b" unicode="b" horiz-adv-x="1128" 
d="M1042 485q0 -104 -33 -196t-91.5 -160t-146 -107.5t-191.5 -39.5q-184 0 -313.5 134t-129.5 339v829h105q79 0 125.5 -45.5t46.5 -134.5v-232q89 82 207 82q182 0 301.5 -132t119.5 -337zM760 449q0 137 -45 195t-135 58q-69 0 -116.5 -62.5t-47.5 -152.5
q0 -130 48.5 -193t135.5 -63q70 0 115 62t45 156z" />
    <glyph glyph-name="c" unicode="c" horiz-adv-x="915" 
d="M854 592q-74 46 -135 69t-139 23q-84 0 -146.5 -59.5t-62.5 -143.5q0 -106 57.5 -171.5t153.5 -65.5q21 0 42.5 2t37 4.5t36.5 9t31 9.5t32.5 13t28.5 13t31 15t29 14v-129q0 -93 -79 -152t-210 -59q-127 0 -236 60t-174 168t-65 239q0 99 34 188t96.5 156.5t158 107
t211.5 39.5t192 -63.5t76 -155.5v-131z" />
    <glyph glyph-name="d" unicode="d" horiz-adv-x="1099" 
d="M967 432q0 -214 -109 -332t-342 -118q-184 0 -309 137.5t-125 331.5q0 233 110 368t312 135q105 0 188 -80v410h96q88 0 133.5 -48t45.5 -130v-674zM690 442q0 140 -51 205.5t-133 65.5q-70 0 -112 -62t-42 -159q0 -121 54 -196t137 -75q147 0 147 221z" />
    <glyph glyph-name="e" unicode="e" horiz-adv-x="997" 
d="M920 586q0 -134 -102.5 -188t-338.5 -54h-104q20 -59 75.5 -91t131.5 -32q154 0 305 84v-98q0 -225 -346 -225q-87 0 -169.5 33.5t-147 93t-103.5 149t-39 193.5q0 228 127.5 365.5t329.5 137.5q100 0 186 -44t140.5 -129.5t54.5 -194.5zM655 612q0 50 -36 76.5t-99 26.5
q-65 0 -107.5 -47t-47.5 -113h67q91 0 139.5 6t66 17.5t17.5 33.5z" />
    <glyph glyph-name="f" unicode="f" horiz-adv-x="677" 
d="M698 973q-123 20 -161 20q-127 0 -127 -119v-49h247v-90q0 -67 -56.5 -109t-125.5 -42h-65v-584h-117q-65 0 -112.5 45.5t-47.5 112.5v733q0 43 11.5 88.5t39.5 93t68.5 84.5t105.5 60.5t144 23.5q85 0 140.5 -45.5t55.5 -120.5v-102z" />
    <glyph glyph-name="g" unicode="g" horiz-adv-x="1085" 
d="M946 391q0 -71 2 -112q4 -82 4 -117q0 -90 -29 -169.5t-84.5 -141.5t-144 -98t-198.5 -36q-146 0 -239 64.5t-93 157.5v127q90 -47 162.5 -71t152.5 -24q201 0 201 174v21q-77 -70 -201 -70q-172 0 -281.5 107t-109.5 276q0 132 54.5 238.5t163.5 171.5t255 65
q175 0 280 -114.5t105 -298.5v-150zM537 702q-71 0 -119.5 -55.5t-48.5 -140.5q0 -73 40.5 -121.5t104.5 -48.5q69 0 113.5 51.5t44.5 140.5q0 85 -37 129.5t-98 44.5z" />
    <glyph glyph-name="h" unicode="h" horiz-adv-x="1103" 
d="M971 0h-101q-83 0 -130.5 45.5t-47.5 130.5v354q0 88 -39.5 130t-103.5 42q-50 0 -89.5 -43.5t-39.5 -134.5v-524h-101q-89 0 -132.5 46t-43.5 130v1051h97q89 0 135.5 -46t46.5 -122v-174q76 69 160 69q185 0 287 -107t102 -306v-541z" />
    <glyph glyph-name="i" unicode="i" horiz-adv-x="630" 
d="M457 1094q0 -63 -47.5 -109.5t-112.5 -46.5q-63 0 -108.5 46.5t-45.5 109.5q0 64 45.5 109.5t108.5 45.5q65 0 112.5 -45.5t47.5 -109.5zM610 152q0 -86 -36 -123t-121 -37q-141 0 -216 77t-75 224v622h92q87 0 134.5 -48t47.5 -144v-408q0 -50 24 -69t81 -19h69v-75z
" />
    <glyph glyph-name="j" unicode="j" horiz-adv-x="557" 
d="M424 1098q-2 -65 -46 -111.5t-108 -46.5t-110.5 46.5t-46.5 111.5q0 64 46 109.5t111 45.5q63 0 108.5 -45.5t45.5 -109.5zM403 35q0 -149 -90.5 -234.5t-234.5 -85.5q-74 0 -121 38t-47 91v107q45 0 71.5 1t58 6.5t48 16.5t28 31t11.5 49v860h90q89 0 137.5 -46
t48.5 -136v-698z" />
    <glyph glyph-name="k" unicode="k" horiz-adv-x="1019" 
d="M242 1227q91 0 134.5 -46.5t43.5 -127.5v-441q130 166 191 228q14 15 28 28q41 40 85 53t107 13h154q-27 -45 -90 -123.5t-144.5 -174.5t-113.5 -136q26 -30 37 -45v2q117 -144 164 -193q49 -51 87.5 -72.5t94.5 -39.5q-25 -80 -66.5 -119t-115.5 -39q-41 0 -87 19.5
t-77 52.5v-3q-114 117 -254 306v-367l-98 -2q-91 -3 -135 43.5t-44 140.5v1043h99z" />
    <glyph glyph-name="l" unicode="l" horiz-adv-x="614" 
d="M625 152q0 -84 -44 -122t-132 -38q-149 0 -227.5 76.5t-78.5 224.5v934h90q91 0 138 -49t47 -127v-736q0 -50 27.5 -69t91.5 -19h88v-75z" />
    <glyph glyph-name="m" unicode="m" horiz-adv-x="1597" 
d="M1464 0h-84q-101 0 -146.5 46.5t-45.5 139.5v338q0 90 -35 134t-96 44q-55 0 -87 -39t-32 -112v-551h-88q-86 0 -136 48.5t-50 137.5v338q0 90 -37 134t-97 44q-53 0 -86.5 -42t-33.5 -115v-545h-86q-81 0 -135 50t-54 136v340q0 199 106 313.5t314 114.5q156 0 264 -118
q44 54 111.5 86t142.5 32q110 0 197 -43t140.5 -135t53.5 -221v-555z" />
    <glyph glyph-name="n" unicode="n" horiz-adv-x="1093" 
d="M961 0h-89q-85 0 -136.5 48.5t-51.5 123.5v348q0 182 -147 182q-58 0 -93.5 -44.5t-35.5 -122.5v-535h-95q-81 0 -130.5 48.5t-49.5 123.5v379q0 76 25.5 146.5t75.5 128.5t133 93t188 35q112 0 203 -47.5t147 -143t56 -224.5v-539z" />
    <glyph glyph-name="o" unicode="o" horiz-adv-x="1067" 
d="M82 451q0 141 51.5 253t157.5 181t252 69q103 0 188 -39t139.5 -105t84.5 -151t30 -178q0 -142 -51.5 -253.5t-157.5 -178.5t-252 -67q-137 0 -239 66t-152.5 171.5t-50.5 231.5zM702 451q0 249 -178 249q-77 0 -118 -60t-41 -159q0 -248 178 -248q77 0 118 59.5
t41 158.5z" />
    <glyph glyph-name="p" unicode="p" horiz-adv-x="1107" 
d="M1026 492q0 -229 -111.5 -369.5t-312.5 -140.5q-114 0 -190 73v-331h-97q-74 0 -128 50t-54 130v528q0 118 27 212t82 164.5t145.5 108t210.5 37.5q122 0 221.5 -66.5t153 -172t53.5 -223.5zM743 436q0 139 -43.5 202.5t-134.5 63.5q-74 0 -115.5 -61.5t-41.5 -163.5
q0 -117 50.5 -181.5t135.5 -64.5q66 0 107.5 57t41.5 148z" />
    <glyph glyph-name="q" unicode="q" horiz-adv-x="1103" 
d="M555 954q200 0 308 -125t108 -346v-759l-101 2q-170 3 -170 174v143q-76 -61 -184 -61q-181 0 -307.5 128.5t-126.5 329.5q0 223 131 368.5t342 145.5zM526 702q-69 0 -119.5 -60t-50.5 -161q0 -121 47 -185.5t134 -64.5q163 0 163 226q0 245 -174 245z" />
    <glyph glyph-name="r" unicode="r" horiz-adv-x="714" 
d="M694 664q-26 4 -60.5 11.5t-57 11t-46.5 3.5q-120 0 -120 -160v-530h-91q-87 0 -136.5 43t-49.5 125v403q0 73 20 137.5t60 118t109.5 84.5t160.5 31q108 0 159.5 -51.5t51.5 -120.5v-106z" />
    <glyph glyph-name="s" unicode="s" horiz-adv-x="888" 
d="M809 305q0 -153 -102.5 -238t-290.5 -85q-132 0 -222 60t-90 140v127q184 -84 299 -84q132 0 132 68q0 25 -33 39t-123 26q-299 44 -299 265q0 136 111.5 233.5t287.5 97.5q151 0 230 -66.5t79 -150.5v-112q-167 82 -288 82q-146 0 -146 -68q0 -21 28.5 -32.5
t121.5 -24.5q305 -51 305 -277z" />
    <glyph glyph-name="t" unicode="t" horiz-adv-x="751" 
d="M143 868q0 97 60 179.5t133 82.5h82v-196h303v-119q0 -49 -42.5 -90t-119.5 -41h-141v-315q0 -127 106 -127q74 0 197 30v-106q0 -83 -57 -129.5t-166 -46.5q-177 0 -266 92t-89 262v524z" />
    <glyph glyph-name="u" unicode="u" horiz-adv-x="1091" 
d="M958 420q0 -438 -411 -438q-180 0 -297 113.5t-117 312.5v526h70q207 0 207 -184v-322q0 -100 40.5 -148.5t106.5 -48.5q58 0 90.5 45.5t32.5 137.5v520h70q107 0 157.5 -46t50.5 -138v-330z" />
    <glyph glyph-name="v" unicode="v" horiz-adv-x="907" 
d="M877 801q0 -36 -42 -171t-126 -325t-174 -315h-58q-54 0 -91.5 22.5t-74.5 77.5q-96 143 -187 400.5t-106 443.5h146q62 0 106 -40t54 -87q44 -251 137 -453q120 270 166 580h118q70 0 101 -32.5t31 -100.5z" />
    <glyph glyph-name="w" unicode="w" horiz-adv-x="1384" 
d="M1354 815q0 -32 -28.5 -141t-74.5 -234q-93 -265 -213 -450h-53q-62 0 -121.5 63t-101.5 153.5t-72 201.5q-35 -112 -88.5 -232.5t-99.5 -185.5h-45q-54 0 -102 40t-79 91q-194 336 -258 813h150q60 0 103 -40.5t53 -90.5q36 -227 110 -404q71 175 141 502h95
q63 0 113 -35.5t69 -109.5q67 -256 111 -359q86 209 141 541h115q135 0 135 -123z" />
    <glyph glyph-name="x" unicode="x" horiz-adv-x="976" 
d="M952 125q0 -60 -44.5 -99.5t-127.5 -39.5q-77 0 -136 42.5t-122 139.5l-71 113q-69 -81 -98 -143.5t-38 -141.5h-125q-49 0 -83.5 32t-34.5 76q0 82 41.5 153t136.5 171l55 59q-74 107 -80 115q-86 123 -123 192t-41 140h160q44 0 94 -37.5t123 -140.5l70 -99
q83 98 110.5 149.5t38.5 125.5h107q60 0 89.5 -34.5t29.5 -86.5q0 -103 -230 -360q13 -21 42 -60.5t42 -60.5v2q68 -99 107.5 -137t107.5 -70z" />
    <glyph glyph-name="y" unicode="y" horiz-adv-x="897" 
d="M672 205q-86 -202 -149.5 -304.5t-127.5 -144t-155 -41.5q-75 0 -129 46.5t-54 119.5v68l152 10q46 3 69 27t54 100q-88 134 -187.5 407t-124.5 441h150q57 0 102 -34.5t54 -90.5q50 -257 143 -442q50 122 90 279t55 288h121q67 0 99 -32t32 -99q0 -63 -73.5 -275
t-120.5 -323z" />
    <glyph glyph-name="z" unicode="z" horiz-adv-x="911" 
d="M829 131q0 -51 -44.5 -91t-96.5 -40h-428q-87 0 -132.5 38.5t-45.5 106.5q0 108 141 258l221 240q4 4 20 23.5t25 27.5h-407v97q0 63 44 103t128 40h397q85 0 125.5 -42t40.5 -99q0 -122 -119 -250l-221 -238q-7 -8 -15.5 -16t-12.5 -11.5t-9.5 -11.5t-11.5 -20h401v-115
z" />
    <glyph glyph-name="braceleft" unicode="{" horiz-adv-x="698" 
d="M225 291q0 40 -18 67t-51 31q-12 2 -52 9.5t-55 9.5v90q0 44 25 68.5t82 33.5q65 10 65 98q0 33 -4 99q-4 70 -4 104q0 87 13 151.5t44 118.5t89.5 82.5t144.5 28.5h172v-98q0 -52 -30.5 -83.5t-88.5 -31.5h-29q-20 0 -35 -8t-23.5 -26.5t-14 -33t-7 -45t-2 -44
t-0.5 -46.5q0 -2 5 -75q0 -14 1 -46t1 -49q0 -156 -88 -209q92 -61 92 -202q0 -11 -6 -86q-5 -62 -5 -80q0 -33 0.5 -54t4.5 -51t11.5 -47.5t22 -31t35.5 -13.5h158v-98q0 -53 -40 -83t-89 -30h-45q-88 0 -147 29t-89.5 85t-42.5 120t-12 151q0 58 6 107q6 46 6 88z" />
    <glyph glyph-name="bar" unicode="|" horiz-adv-x="501" 
d="M332 -289h-64q-37 0 -67.5 29t-30.5 76v1466h61q40 0 70.5 -26.5t30.5 -71.5v-1473z" />
    <glyph glyph-name="braceright" unicode="}" horiz-adv-x="696" 
d="M471 291q0 -42 6 -88q8 -66 8 -107q0 -69 -7 -122.5t-26 -104.5t-51 -84.5t-84 -53.5t-122 -20h-45q-50 0 -90 30t-40 83v98h156q26 0 42.5 17.5t23.5 51.5t8.5 60t1.5 68q0 43 -6 80q-6 75 -6 86q0 148 94 204q-40 29 -65 83t-25 124q0 37 4 95q2 29 2 75v11
q0 45 -1.5 69t-8.5 57.5t-25 49.5t-47 16h-29q-56 0 -86 31.5t-30 83.5v98h172q85 0 143.5 -28.5t89.5 -82.5t44 -119t13 -151q0 -16 -1 -33t-2.5 -38t-2.5 -33q-4 -66 -4 -99q0 -36 15.5 -64.5t50.5 -33.5q58 -9 82 -33.5t24 -68.5v-90l-106 -19q-32 -4 -51 -31.5
t-19 -66.5z" />
    <glyph glyph-name="asciitilde" unicode="~" horiz-adv-x="1105" 
d="M965 584q0 -103 -68.5 -171.5t-185.5 -68.5q-38 0 -75.5 11t-58 22t-57.5 33h2q-65 41 -119 41q-27 0 -45 -34t-18 -91h-84q-46 0 -79.5 36t-33.5 103q0 66 24 116.5t62.5 78t80 41.5t83.5 14q55 0 99.5 -17t97.5 -49h-2q77 -47 119 -47q33 0 48 28.5t15 92.5h96
q36 0 67.5 -42t31.5 -97z" />
    <glyph glyph-name="uni00A0" unicode="&#xa0;" horiz-adv-x="245" 
 />
    <glyph glyph-name="exclamdown" unicode="&#xa1;" horiz-adv-x="655" 
d="M453 582l18 -666q0 -84 -44 -129t-124 -45h-133l18 664q3 79 47 127.5t117 48.5h101zM510 811q0 -74 -52 -127t-124 -53q-74 0 -127 53.5t-53 126.5q0 72 53.5 125t126.5 53q72 0 124 -53t52 -125z" />
    <glyph glyph-name="cent" unicode="&#xa2;" horiz-adv-x="1083" 
d="M571 1149q66 0 97.5 -34.5t31.5 -106.5v-76q83 -15 136 -71.5t53 -133.5v-137q-80 49 -137 70.5t-138 21.5q-84 0 -143 -58.5t-59 -142.5q0 -107 57 -171t152 -64q118 0 264 78v-134q0 -66 -49.5 -119t-135.5 -73v-227h-61q-68 0 -104.5 38t-36.5 105v82
q-158 35 -263.5 160t-105.5 293q0 175 97 306.5t272 170.5v223h73z" />
    <glyph glyph-name="sterling" unicode="&#xa3;" horiz-adv-x="1091" 
d="M520 256h449v-104q0 -80 -49 -116t-150 -36h-637v92q0 47 68 141q86 115 86 187q0 33 -6 67h-211v72q0 156 155 156h6q-12 66 -12 125q0 169 123 276t315 107q104 0 179 -59.5t75 -137.5v-115q-155 50 -254 50q-61 0 -100 -38.5t-39 -103.5q0 -49 10 -104h316v-86
q0 -67 -43.5 -104.5t-114.5 -37.5h-127q2 -12 2 -47q0 -100 -41 -184z" />
    <glyph glyph-name="currency" unicode="&#xa4;" horiz-adv-x="1163" 
d="M1014 283l-160 -121l-141 190q-58 -35 -142 -35q-53 0 -106 17q-23 -30 -70 -94.5t-57 -77.5l-166 119l133 159q-61 82 -61 224q0 123 67 213q-15 19 -66 81.5t-73 90.5l164 116l129 -174q55 23 133 23q54 0 125 -23q19 24 135 176l156 -116l-135 -174q49 -77 49 -203
q0 -118 -60 -207q119 -150 146 -184zM729 674q0 166 -149 166q-59 0 -98.5 -46.5t-39.5 -125.5q0 -81 34.5 -130t111.5 -49q59 0 100 50t41 135z" />
    <glyph glyph-name="yen" unicode="&#xa5;" horiz-adv-x="1091" 
d="M1034 1112q0 -48 -80 -165t-186 -245h211v-102q0 -43 -39.5 -74.5t-99.5 -31.5h-156v-80h295v-103q0 -39 -41 -72.5t-98 -33.5h-156v-205h-125q-50 0 -92.5 41.5t-42.5 103.5v60h-287v90q0 52 36 85.5t101 33.5h150v80h-287v92q0 50 36 83t101 33h72q-227 297 -299 521
h150q69 0 114 -25.5t64 -58.5q91 -188 192 -316q58 70 127 184t113 216h113q54 0 84 -32t30 -79z" />
    <glyph glyph-name="brokenbar" unicode="&#xa6;" horiz-adv-x="561" 
d="M354 547h-63q-38 0 -68 29.5t-30 76.5v629h61q40 0 70 -26.5t30 -71.5v-637zM354 -289h-63q-38 0 -68 29t-30 76v630h61q40 0 70 -26.5t30 -71.5v-637z" />
    <glyph glyph-name="section" unicode="&#xa7;" horiz-adv-x="1112" 
d="M961 504q0 -65 -31 -124.5t-78 -92.5q78 -78 78 -185q0 -159 -106 -249.5t-308 -90.5q-153 0 -239.5 66.5t-86.5 161.5v121q191 -115 318 -115q139 0 139 86q0 24 -14.5 39.5t-67 39.5t-162.5 62q-122 44 -185.5 119.5t-63.5 171.5q0 64 36 121t93 92q-93 68 -93 199
q0 136 116 224.5t312 88.5q119 0 194 -59.5t75 -147.5l-8 -147q-131 125 -281 125q-62 0 -97.5 -20.5t-35.5 -43.5q0 -37 32.5 -60.5t147.5 -64.5q71 -26 121 -51.5t98 -63t72.5 -88.5t24.5 -114zM608 565l-4 2q-2 1 -4 1t-4 1q-103 33 -154 56q-34 -27 -34 -70
q0 -20 10 -37.5t22 -29t40 -25.5t46.5 -21t57.5 -22q77 -26 98 -35q25 32 25 82q0 33 -22.5 55.5t-76.5 42.5z" />
    <glyph glyph-name="dieresis" unicode="&#xa8;" horiz-adv-x="968" 
d="M817 1192q0 -62 -45 -107t-106 -45q-62 0 -107 45t-45 107q0 60 45 103.5t107 43.5t106.5 -43.5t44.5 -103.5zM453 1192q0 -61 -45 -106.5t-105 -45.5q-63 0 -107 45t-44 107q0 60 44 103.5t107 43.5q60 0 105 -43.5t45 -103.5z" />
    <glyph glyph-name="copyright" unicode="&#xa9;" horiz-adv-x="1486" 
d="M1356 592q0 -166 -82.5 -307t-224 -223t-306.5 -82q-166 0 -307 82t-223 223t-82 307t82 307.5t223 224t307 82.5q165 0 306.5 -82.5t224 -224t82.5 -307.5zM1186 592q0 184 -130 314t-313 130t-312.5 -130t-129.5 -314q0 -119 59 -220.5t161 -160.5t222 -59t222 59
t161.5 160.5t59.5 220.5zM1022 686q-140 70 -217 70q-70 0 -115 -44t-45 -114q0 -87 42.5 -130.5t117.5 -43.5q68 0 213 63v-94q0 -43 -25 -78t-63 -55t-78 -30.5t-76 -10.5q-41 0 -86 10t-97 36t-92.5 65t-67.5 104t-27 146q0 37 8 80.5t33 98t64 97.5t108 72.5t157 29.5
q105 0 175.5 -47t70.5 -133v-92z" />
    <glyph glyph-name="ordfeminine" unicode="&#xaa;" horiz-adv-x="782" 
d="M645 791q0 -108 -70.5 -177t-181.5 -69h-26q-115 0 -188 62t-73 159q0 101 75 160t241 59h8q-11 41 -80 41q-33 0 -66 -7t-48.5 -12.5t-57 -23.5t-49.5 -22v81q0 72 61.5 126.5t180.5 54.5q57 0 103.5 -14.5t86.5 -47.5t62 -92.5t22 -142.5v-135zM434 788v21h-12
q-59 0 -78.5 -9t-19.5 -28q0 -37 57 -37q53 0 53 53z" />
    <glyph glyph-name="guillemotleft" unicode="&#xab;" horiz-adv-x="862" 
d="M819 123h-88q-78 0 -126 22t-77 72q-20 32 -77 122.5t-84 135.5l161 262q29 43 75.5 65.5t127.5 22.5h88l-203 -350q34 -57 107 -184.5t96 -167.5zM506 123h-92q-78 0 -125 22t-78 72v-2q-96 134 -180 260l180 264q29 43 74 64.5t129 21.5h90l-223 -350q89 -136 225 -352
z" />
    <glyph glyph-name="logicalnot" unicode="&#xac;" horiz-adv-x="1161" 
d="M1038 811v-664h-276v385h-680v279h956z" />
    <glyph glyph-name="registered" unicode="&#xae;" horiz-adv-x="1468" 
d="M1337 592q0 -166 -82.5 -307t-224 -223t-307.5 -82t-307 82t-223 223t-82 307t82 307.5t223 224t307 82.5t307.5 -82.5t224 -224t82.5 -307.5zM1167 592q0 184 -129.5 314t-314.5 130q-183 0 -312.5 -130t-129.5 -314q0 -119 59 -220.5t161 -160.5t222 -59q184 0 314 129
t130 311zM1049 309l-11 -22q-30 -29 -53 -37t-61 -8q-42 0 -72.5 11t-51 36.5t-30 42.5t-25.5 55q-8 21 -10 26.5t-10 22t-14 23t-16.5 15t-22.5 11.5v-243h-97q-69 0 -107 36.5t-38 96.5v553q46 17 115 28t112 11h74q121 0 195.5 -64t74.5 -166q0 -61 -22 -103.5t-74 -72.5
q28 -28 60 -98q16 -44 18 -47q6 -12 39 -56q27 -35 27 -51zM760 719q0 51 -45 51h-39h-2h-2v-84h41q47 0 47 33z" />
    <glyph glyph-name="macron" unicode="&#xaf;" horiz-adv-x="645" 
d="M578 1270v-105q0 -43 -40.5 -78.5t-95.5 -35.5h-374v90q0 56 41 92.5t112 36.5h357z" />
    <glyph glyph-name="macron" unicode="&#x2c9;" horiz-adv-x="645" 
d="M578 1270v-105q0 -43 -40.5 -78.5t-95.5 -35.5h-374v90q0 56 41 92.5t112 36.5h357z" />
    <glyph glyph-name="degree" unicode="&#xb0;" horiz-adv-x="800" 
d="M692 971q0 -121 -80.5 -202t-208.5 -81q-133 0 -213.5 80.5t-80.5 200.5q0 125 78 206.5t216 81.5q136 0 212.5 -79.5t76.5 -206.5zM479 971q0 40 -20 68t-58 28q-36 0 -56.5 -29t-20.5 -69q0 -35 21 -61.5t56 -26.5q37 0 57.5 26.5t20.5 63.5z" />
    <glyph glyph-name="plusminus" unicode="&#xb1;" horiz-adv-x="1052" 
d="M950 662q0 -54 -37 -89.5t-100 -35.5h-164v-269h-100q-54 0 -91.5 40t-37.5 112v117h-311v102q0 48 39.5 85.5t95.5 37.5h176v237h115q44 0 79 -35.5t35 -89.5v-112h301v-100zM922 96q0 -36 -33 -66t-80 -30h-678v96q0 47 33 78t92 31h666v-109z" />
    <glyph glyph-name="twosuperior" unicode="&#xb2;" horiz-adv-x="835" 
d="M578 459h-340q-53 0 -91 33.5t-38 85.5q0 55 35 104t102 104l160 125q32 32 32 58q0 47 -84 47q-62 0 -113 -28t-118 -101v139q0 94 71 154.5t220 60.5q130 0 209 -73.5t79 -176.5q0 -86 -35 -136.5t-137 -123.5q-22 -13 -28 -18q-11 -7 -16 -6t-29 -21h260v-100
q0 -60 -35.5 -93.5t-103.5 -33.5z" />
    <glyph glyph-name="threesuperior" unicode="&#xb3;" horiz-adv-x="716" 
d="M305 449q-66 0 -120 16.5t-92 59.5t-38 108v110q150 -69 246 -69q74 0 74 26q0 23 -17 33.5t-73 14.5q-115 7 -115 108v74l129 12q34 4 50.5 10t19 11t2.5 16q0 41 -90 41q-44 0 -91.5 -16.5t-130.5 -55.5v113q0 76 71.5 129t203.5 53q120 0 204.5 -64.5t84.5 -174.5
q0 -91 -70 -150q74 -63 74 -141q0 -127 -85.5 -195.5t-236.5 -68.5z" />
    <glyph glyph-name="acute" unicode="&#xb4;" horiz-adv-x="987" 
d="M686 1241q0 -75 -106.5 -131.5t-229.5 -56.5h-104q62 136 145.5 220.5t171.5 84.5q123 0 123 -117z" />
    <glyph glyph-name="mu" unicode="&#xb5;" horiz-adv-x="1122" 
d="M1010 451q0 -220 -102 -340.5t-275 -120.5q-122 0 -197 69v-319l-112 -2q-76 -2 -124 45t-48 129v1061h73q105 0 161 -45t56 -146v-325q0 -90 36.5 -148.5t117.5 -58.5q60 0 93.5 47t33.5 145v531h70q113 0 165 -47.5t52 -143.5v-331z" />
    <glyph glyph-name="mu" unicode="&#x3bc;" horiz-adv-x="1122" 
d="M1010 451q0 -220 -102 -340.5t-275 -120.5q-122 0 -197 69v-319l-112 -2q-76 -2 -124 45t-48 129v1061h73q105 0 161 -45t56 -146v-325q0 -90 36.5 -148.5t117.5 -58.5q60 0 93.5 47t33.5 145v531h70q113 0 165 -47.5t52 -143.5v-331z" />
    <glyph glyph-name="paragraph" unicode="&#xb6;" horiz-adv-x="997" 
d="M846 -20h-78q-58 0 -94.5 39t-36.5 124v871q0 17 -7 21.5t-30 4.5h-27v-1060h-65q-64 0 -103.5 39t-39.5 124v338q-45 4 -95 27t-97.5 63.5t-78.5 108t-31 147.5q0 63 13.5 118.5t49.5 111t93 95t151 64.5t216 25q134 0 197 -50t63 -153v-1058z" />
    <glyph glyph-name="periodcentered" unicode="&#xb7;" horiz-adv-x="514" 
d="M256 332q-74 0 -122 49t-48 125q0 78 48.5 129t123.5 51t123.5 -50.5t48.5 -129.5q0 -77 -47.5 -125.5t-124.5 -48.5h-2z" />
    <glyph glyph-name="periodcentered" unicode="&#x2219;" horiz-adv-x="514" 
d="M256 332q-74 0 -122 49t-48 125q0 78 48.5 129t123.5 51t123.5 -50.5t48.5 -129.5q0 -77 -47.5 -125.5t-124.5 -48.5h-2z" />
    <glyph glyph-name="cedilla" unicode="&#xb8;" horiz-adv-x="1091" 
d="M784 -211q0 -57 -24.5 -100.5t-66 -68.5t-90 -37.5t-101.5 -12.5q-38 0 -72.5 5t-74 18.5t-63.5 45t-24 76.5v86h49q62 -49 172 -49q76 0 76 31q0 27 -69 27q-14 0 -152 -15q22 73 29 105q25 84 35 157h174q0 -57 -2 -75q83 -10 143.5 -58.5t60.5 -134.5z" />
    <glyph glyph-name="onesuperior" unicode="&#xb9;" horiz-adv-x="747" 
d="M510 477h-123q-60 0 -99.5 38.5t-39.5 102.5v367q-1 0 -9.5 -3.5t-13.5 -4.5q-24 -8 -45 -8q-44 0 -78 23.5t-41 62.5l-12 75q28 14 80 36.5t91 38.5l38 16q60 22 125 22q48 0 87.5 -33t39.5 -88v-645z" />
    <glyph glyph-name="ordmasculine" unicode="&#xba;" horiz-adv-x="768" 
d="M690 891q0 -149 -82.5 -247.5t-230.5 -98.5q-136 0 -218.5 96t-82.5 229q0 152 82.5 251.5t230.5 99.5q136 0 218.5 -97.5t82.5 -232.5zM473 870q0 150 -96 150q-40 0 -63 -35t-23 -94q0 -146 98 -146q41 0 62.5 33.5t21.5 91.5z" />
    <glyph glyph-name="guillemotright" unicode="&#xbb;" horiz-adv-x="864" 
d="M131 123h-88l203 352q-23 40 -203 350h88q82 0 128 -22t75 -66l164 -262l-164 -258q-29 -50 -77 -72t-126 -22zM451 123h-91l224 352q-151 231 -226 350h93q83 0 128 -21.5t74 -64.5l181 -264l-181 -260q-35 -49 -80.5 -70.5t-121.5 -21.5z" />
    <glyph glyph-name="onequarter" unicode="&#xbc;" horiz-adv-x="1568" 
d="M1094 1176q0 -42 -19 -82h2q-84 -179 -257 -547t-257 -547h-63q-47 0 -81 32.5t-34 88.5q0 45 25 100l495 1061h80q46 0 77.5 -27.5t31.5 -78.5zM508 477h-121q-60 0 -99.5 38.5t-39.5 102.5v367q-5 -1 -13.5 -4.5t-9.5 -3.5q-24 -8 -45 -8q-44 0 -79 23.5t-42 62.5
l-10 75q28 14 80 36.5t91 38.5l38 16q60 22 125 22q48 0 86.5 -33t38.5 -88v-645zM1419 154h-24v-154h-129q-68 0 -102 30t-34 97v27h-157q-55 0 -98.5 33.5t-43.5 82.5q0 60 64.5 168.5t145.5 202t135 129.5h73q65 0 105.5 -39.5t40.5 -107.5v-244h143v-109q0 -52 -32 -84
t-87 -32zM1104 377h26v39q-4 -6 -13 -20t-13 -19z" />
    <glyph glyph-name="onehalf" unicode="&#xbd;" horiz-adv-x="1675" 
d="M1094 1176q0 -42 -19 -82h2q-84 -179 -258 -547t-258 -547h-61q-47 0 -81 32.5t-34 88.5q0 52 25 100l495 1061h80q46 0 77.5 -27.5t31.5 -78.5zM1360 0h-340q-53 0 -90 32.5t-37 86.5q0 96 137 207l160 127q33 20 33 53q0 22 -21 35.5t-63 13.5q-62 0 -114.5 -29.5
t-117.5 -103.5v145q0 93 70.5 154t218.5 61q130 0 210.5 -75.5t80.5 -178.5q0 -83 -36 -134.5t-136 -121.5q-3 -2 -10.5 -6t-10.5 -6v-2q-12 -6 -13.5 -5t-5.5 -2.5t-32 -27.5h258v-100q0 -58 -36 -90.5t-105 -32.5zM387 477q-60 0 -99.5 38.5t-39.5 102.5v367
q-4 -1 -12.5 -4t-12.5 -4q-21 -8 -43 -8q-45 0 -79.5 23.5t-41.5 62.5l-10 75l207 91q60 22 127 22q48 0 86.5 -33t38.5 -88v-645h-121z" />
    <glyph glyph-name="threequarters" unicode="&#xbe;" horiz-adv-x="1603" 
d="M1552 270q0 -52 -31.5 -84t-84.5 -32h-25v-154h-131q-67 0 -101 30t-34 97v27h-156q-55 0 -99 33.5t-44 82.5q0 61 63.5 169t145 202t137.5 129h74q64 0 104.5 -39.5t40.5 -107.5v-244h141v-109zM1137 1118q0 -41 -19 -84l2 2q-80 -170 -243.5 -518t-243.5 -518h-64
q-47 0 -80.5 32.5t-33.5 88.5q0 42 24 100q32 70 207.5 442.5t261.5 561.5h80q46 0 77.5 -28t31.5 -79zM1145 377v39q-14 -27 -23 -39h23zM303 449q-65 0 -118.5 16.5t-91.5 59.5t-38 108v110h56q66 -69 188 -69q76 0 76 26q0 23 -17 33.5t-73 14.5q-115 7 -115 108v74
l129 12q33 4 49.5 9.5t19.5 11t3 16.5q0 41 -90 41q-99 0 -168 -72h-54v113q0 76 71.5 129t203.5 53q120 0 204.5 -64.5t84.5 -174.5q0 -91 -70 -150q74 -63 74 -141q0 -127 -86.5 -195.5t-237.5 -68.5z" />
    <glyph glyph-name="questiondown" unicode="&#xbf;" horiz-adv-x="884" 
d="M324 801q0 71 52 122.5t124 51.5q70 0 122 -51.5t52 -122.5q0 -72 -51.5 -124t-122.5 -52q-72 0 -124 52t-52 124zM457 -297q-180 0 -282.5 93.5t-102.5 232.5q0 69 29 125t98 116l129 113q38 30 49.5 53.5t11.5 59.5v94h111q53 0 94 -39t41 -92q0 -68 -26.5 -119
t-90.5 -109l-119 -104q-39 -36 -39 -76q0 -42 33.5 -65t98.5 -23q81 0 150 26.5t161 84.5v-111q0 -105 -89.5 -182.5t-256.5 -77.5z" />
    <glyph glyph-name="AE" unicode="&#xc6;" horiz-adv-x="1652" 
d="M1591 172q0 -97 -62.5 -141.5t-223.5 -44.5h-80q-106 0 -183.5 15t-141.5 51t-102.5 100t-52.5 157h-380q-44 -121 -93 -309h-116q-62 0 -93.5 29.5t-31.5 81.5q0 19 4 43q13 93 97 306t210 445t229 330h1018v-107q0 -69 -52 -111t-138 -42h-465q23 -127 35 -215h489
v-113q0 -137 -172 -137h-293q1 -7 6.5 -35.5t6.5 -44.5q14 -103 53.5 -143.5t144.5 -40.5h101q152 0 286 53v-127zM653 938q-103 -159 -188 -381h246q-13 180 -58 381z" />
    <glyph glyph-name="Eth" unicode="&#xd0;" horiz-adv-x="1257" 
d="M117 727v461q54 19 154 36t167 17h121q87 0 170.5 -22.5t159 -71.5t132.5 -118.5t90.5 -170.5t33.5 -221q0 -184 -75 -332.5t-206 -231.5t-291 -83h-100q-169 0 -262.5 71.5t-93.5 219.5v227h-127v106q0 51 30 82t86 31h11zM655 727v-104q0 -115 -120 -115h-123v-184
q0 -36 20.5 -53t67.5 -17h41q132 0 217.5 100.5t85.5 249.5q0 179 -88.5 279t-231.5 100h-51l-61 -8v-248h243z" />
    <glyph glyph-name="multiply" unicode="&#xd7;" horiz-adv-x="1101" 
d="M283 84l-84 86q-37 34 -37 82q0 53 49 102l186 189q-30 30 -89 88.5t-106.5 106t-86.5 87.5l82 82q37 37 88 37q52 -4 94 -43l190 -186l271 270l80 -86q38 -45 38 -86q0 -53 -43 -96l-176 -176l301 -301l-84 -84q-37 -37 -84 -37q-53 0 -102 49l-201 201
q-169 -165 -286 -285z" />
    <glyph glyph-name="Thorn" unicode="&#xde;" horiz-adv-x="1132" 
d="M752 625q0 81 -34.5 111t-113.5 30h-76q-32 0 -69 -6v-262q88 -9 137 -9q156 0 156 136zM164 1237h137q59 0 108.5 -44t49.5 -110v-61q14 2 41 2h133q192 0 306 -96.5t114 -282.5q0 -196 -119 -305t-307 -109q-91 0 -168 17v-248h-123q-68 0 -120 48.5t-52 148.5v1040z
" />
    <glyph glyph-name="germandbls" unicode="&#xdf;" horiz-adv-x="1181" 
d="M1090 315q0 -154 -89 -242.5t-268 -88.5q-112 0 -178 52.5t-66 119.5v127q57 -17 84 -24.5t64 -14t68 -6.5q94 0 94 67q0 37 -22 60t-79 55q-94 47 -132 96t-38 131q0 131 154 225q72 41 72 86q0 42 -32 62t-106 20q-80 0 -132 -61t-52 -176v-803h-102
q-100 0 -143.5 46.5t-43.5 148.5v622q0 227 132.5 353t351.5 126q188 0 301.5 -85t113.5 -242q0 -77 -37.5 -132.5t-115.5 -97.5q-62 -34 -81.5 -50t-19.5 -32q0 -13 28 -33t108 -67q75 -44 120.5 -106t45.5 -136z" />
    <glyph glyph-name="ae" unicode="&#xe6;" horiz-adv-x="1552" 
d="M1440 602q0 -141 -90 -192.5t-324 -51.5l-121 4q34 -135 203 -135q168 0 301 115v-131q0 -227 -328 -227q-98 0 -179.5 35.5t-129.5 91.5q-40 -58 -110.5 -93.5t-159.5 -35.5h-45q-157 0 -250.5 81t-93.5 213q0 140 107.5 226t336.5 86h66q-3 65 -41 93t-119 28
q-182 0 -311 -144v146q0 45 18.5 86t57.5 77.5t108 58t160 21.5q95 0 171 -33t117 -94q49 61 127 95t164 34q92 0 173.5 -39.5t136.5 -122.5t55 -192zM1055 719q-64 0 -107 -39.5t-49 -97.5v-2h59q7 0 19 -1t18 -1h29q93 0 123.5 9.5t30.5 37.5q0 44 -33 69t-90 25zM625 324
v51h-52q-101 0 -139.5 -20t-38.5 -64q0 -74 117 -74q45 0 79 31t34 76z" />
    <glyph glyph-name="eth" unicode="&#xf0;" horiz-adv-x="1136" 
d="M1020 481q0 -219 -122 -359t-339 -140q-137 0 -239 66t-152.5 171.5t-50.5 231.5q0 170 73 295.5t211 171.5l-16 12q-16 13 -24.5 21.5t-16.5 24.5t-8 34q0 52 49 88q-70 44 -70 112v97q166 -4 291 -45l150 110l51 -45q24 -24 24 -55q0 -57 -59 -105
q127 -98 187.5 -265.5t60.5 -420.5zM571 1026q-48 -38 -131 -98q52 14 119 14q56 0 109 -16q-49 64 -97 100zM737 451q0 243 -178 243q-78 0 -119 -57.5t-41 -155.5q0 -248 179 -248q77 0 118 59.5t41 158.5z" />
    <glyph glyph-name="divide" unicode="&#xf7;" horiz-adv-x="1036" 
d="M807 485h-727v111q0 51 41 86t108 35h725v-113q0 -43 -44 -81t-103 -38zM692 965q0 -73 -51 -125t-123 -52t-123 52t-51 125q0 71 51 121.5t123 50.5t123 -50.5t51 -121.5zM692 236q0 -72 -51 -124.5t-123 -52.5t-123 52.5t-51 124.5q0 71 51 122.5t123 51.5t123 -51.5
t51 -122.5z" />
    <glyph glyph-name="logo.001" unicode="&#xfb;" horiz-adv-x="3055" 
d="M2884 385q-88 0 -88 -47q0 -14 19 -24t77 -21q68 -14 105.5 -49t37.5 -86q0 -73 -52.5 -114.5t-137.5 -41.5q-65 0 -106.5 28.5t-41.5 75.5l4 68q29 -32 69 -53t77 -21q80 0 80 52q0 20 -20.5 31t-84.5 24q-68 14 -100.5 43.5t-32.5 83.5q0 63 50.5 108t137.5 45
q60 0 104 -25.5t44 -72.5v-47q-92 43 -141 43zM2505 397q41 44 41 78q0 14 -22.5 39t-22.5 49q0 31 19 50.5t54 19.5q32 0 54 -27.5t22 -79.5q0 -59 -30.5 -96t-82.5 -37q-8 0 -32 4zM2314 80v520h49q21 0 39.5 -15.5t18.5 -37.5v-539h-43q-30 0 -47 18.5t-17 53.5zM1982 8
h-49q-78 0 -117.5 35t-39.5 98v445q59 16 139 16h70q110 0 187 -81.5t77 -211.5q0 -136 -74 -218.5t-193 -82.5zM1968 506h-33q-26 0 -53 -6v-338q0 -58 64 -58h32q77 0 120.5 52.5t43.5 140.5q0 209 -174 209zM1595 86q0 162 -24 356q-1 -8 -9 -30.5t-8 -26.5l-6 -18
q-39 -118 -88 -248q-1 -2 -3.5 -11t-5.5 -17t-14 -30t-28 -53h-23q-51 0 -108 160q-17 57 -40 126t-38 110l-14 40q-22 -135 -27 -436h-39q-29 0 -48 21t-19 57q0 108 16.5 257t36.5 257h43q35 0 62 -17t45 -48t27.5 -55.5t19.5 -59.5l26 -88q22 -53 31 -86v2q9 -39 20 -60
q0 1 7 25.5t14 34.5h-2q32 97 76 200.5t77 151.5h29q43 0 64.5 -30t29.5 -87q27 -311 29 -475h-45q-64 0 -64 78zM989 8q-23 0 -37.5 8t-22.5 25t-11.5 32.5t-7.5 42t-9 42.5h-235q-14 -50 -35 -150h-41q-23 0 -36 14t-13 39q0 67 71 265t133 274h33q62 0 143 -181t117 -411
h-49zM874 248q-37 125 -92 237q-54 -99 -92 -237h184zM406 80v188h-250v-260h-45q-24 0 -43 19.5t-19 52.5v520h53q20 0 37 -15.5t17 -37.5v-180h250v233h51q22 0 38.5 -15t16.5 -38v-539h-41q-24 0 -44.5 19.5t-20.5 52.5zM434 709h-59q-174 0 -174 147v424q120 29 164 29
h67q89 0 144 -45.5t55 -120.5q0 -88 -62 -121q30 -21 51 -55.5t21 -65.5q0 -91 -59 -141.5t-148 -50.5zM414 1079q73 0 73 54q0 49 -69 49h-43q-23 -2 -33 -2v-101h72zM418 961h-76v-97q0 -20 33 -20h49q74 0 74 51q0 37 -18.5 51.5t-61.5 14.5zM0 801v504h68
q28 0 51.5 -21.5t23.5 -56.5v-514h-59q-31 0 -57.5 24t-26.5 64zM2908 801q0 152 -14 272q0 -2 -1 -6.5t-1 -5.5q-7 -18 -23.5 -71t-27.5 -79l-27 -92q-10 -38 -57 -106h-37q-71 0 -107 96l-82 250q-4 2 -6 10q-16 -166 -16 -356h-53q-42 0 -65.5 23t-23.5 65q0 85 16 241
t32 263h39q125 0 169 -103l76 -223q18 -45 19 -47q0 4 3.5 13t4.5 13q49 150 83.5 236.5t65.5 110.5h25q51 0 85.5 -34.5t41.5 -94.5q9 -82 19 -231t10 -232h-60q-88 0 -88 88zM2181 801v504h64q30 0 52.5 -21.5t22.5 -56.5v-514h-55q-33 0 -58.5 24t-25.5 64zM1978 803v151
h-194v-241h-58q-38 0 -61 23.5t-23 66.5v502h72q30 0 49 -21.5t19 -54.5v-152h196v228h70q28 0 52 -21.5t24 -54.5v-516h-62q-34 0 -59 24t-25 66zM1479 778q-2 34 -13 76h-198q-29 -96 -29 -141h-55q-36 0 -52 16.5t-16 50.5q0 72 68.5 264t132.5 261h51q71 0 105 -62
q43 -80 94 -241t65 -289h-61q-41 0 -65 18.5t-27 46.5zM1434 973q-15 55 -66 180q-40 -78 -70 -180h136zM1053 909l49 -106l-2 2q7 -16 16 -31.5t13.5 -24t5.5 -14.5q-13 -16 -27 -22t-45 -6q-36 0 -62.5 23t-42 55.5t-29 65.5t-30.5 56t-39 23l-41 6v-223h-49q-92 0 -92 90
v481q16 10 70 18.5t90 8.5h63q90 0 145.5 -51t55.5 -130q0 -49 -26.5 -91.5t-65.5 -63.5q23 -20 43 -66zM954 1112q0 40 -17 55t-50 15h-33q-25 -2 -35 -2v-125q20 -2 66 -2q29 0 49 16t20 43z" />
    <glyph glyph-name="thorn" unicode="&#xfe;" horiz-adv-x="1189" 
d="M432 539v-84q0 -99 55.5 -157t139.5 -58q69 0 113 59.5t44 155.5q0 146 -46 213t-142 67q-72 0 -118 -54.5t-46 -141.5zM145 1282h97q94 0 142 -51.5t48 -132.5v-144q87 41 201 41q126 0 229 -69t159 -178.5t56 -231.5q0 -241 -115.5 -388.5t-324.5 -147.5
q-119 0 -203 71v-340h-100q-76 0 -133.5 51.5t-57.5 135.5v555q0 5 1 15t1 15v799z" />
    <glyph glyph-name="OE" unicode="&#x152;" horiz-adv-x="1679" 
d="M1634 285l-2 -121q-1 -66 -24.5 -102.5t-85 -55t-174.5 -18.5h-60q-252 0 -358 141q-118 -158 -324 -158q-98 0 -190.5 43.5t-166 122t-118.5 199.5t-45 264q0 188 61 337t188 240t304 91q70 0 141 -30t121 -83q26 35 66 57.5t84 22.5h581q0 -38 -1 -64t-5.5 -56t-12 -49
t-21.5 -38.5t-34 -30.5t-48.5 -17.5t-65.5 -6.5h-316q-13 -80 -18 -217h414v-115q0 -72 -42.5 -104.5t-129.5 -32.5h-242q0 -8 1 -19.5t1 -19.5q3 -125 51 -171t156 -46h29q151 0 286 37zM823 604q0 154 -20.5 240t-62 119.5t-113.5 33.5q-111 0 -173.5 -103.5t-62.5 -262.5
q0 -189 69.5 -290t172.5 -101q69 0 108.5 29t60.5 109t21 226z" />
    <glyph glyph-name="oe" unicode="&#x153;" horiz-adv-x="1591" 
d="M1513 602q0 -139 -91.5 -197.5t-319.5 -58.5h-123q20 -57 74.5 -89t128.5 -32q169 0 299 117v-135q0 -103 -82 -164t-258 -61q-78 0 -165.5 36.5t-146.5 96.5q-53 -62 -134 -97.5t-175 -35.5q-192 0 -315 135t-123 336q0 226 125 363.5t332 137.5q67 0 153 -36t144 -93
q113 129 309 129q67 0 132.5 -24.5t118 -68t85 -111.5t32.5 -148zM1120 719q-41 0 -72 -17.5t-46.5 -44t-23 -50t-7.5 -42.5v-8h63q132 0 174.5 13t42.5 51q0 43 -36.5 70.5t-94.5 27.5zM526 698q-77 0 -120.5 -58.5t-43.5 -156.5q0 -124 51 -185.5t134 -61.5q69 0 106 58
t37 173q0 120 -44.5 175.5t-119.5 55.5z" />
    <glyph glyph-name="florin" unicode="&#x192;" horiz-adv-x="1093" 
d="M1016 973q-143 26 -166 26q-44 0 -73.5 -36.5t-41.5 -104.5q-2 -17 -6 -38t-6 -40h227v-92q0 -55 -45 -94t-129 -39h-78q-5 -48 -21.5 -174.5t-23.5 -194.5q-10 -74 -22 -127t-36.5 -108t-59 -89t-90.5 -55.5t-130 -21.5q-92 0 -147 43t-55 104v121q121 -28 170 -28
q36 0 60.5 33t35.5 116q7 68 20.5 191t20.5 190h-195v90q0 56 45.5 93.5t102.5 39.5l78 2q0 10 1 21.5t2.5 25t2.5 21.5q7 51 18.5 95t39.5 101.5t66.5 98t104 68.5t148.5 28q87 0 134.5 -42.5t47.5 -104.5v-119z" />
    <glyph glyph-name="circumflex" unicode="&#x2c6;" horiz-adv-x="1189" 
d="M889 995l-293 138q-133 -59 -295 -136v101q0 71 25 113t88 79l184 103l174 -101q58 -37 87.5 -82.5t29.5 -115.5v-99z" />
    <glyph glyph-name="tilde" unicode="&#x2dc;" horiz-adv-x="786" 
d="M709 1237q0 -83 -53.5 -138t-145.5 -55q-57 0 -150 50q-58 32 -77 32q-16 0 -27.5 -26.5t-11.5 -69.5h-72q-38 0 -66 30t-28 85q0 52 19 92t49.5 62t63 33t64.5 11q64 0 148 -49h-2q59 -34 86 -34q22 0 30.5 21t8.5 71h82q31 0 56.5 -35.5t25.5 -79.5z" />
    <glyph glyph-name="comma.arabic" unicode="&#x60c;" horiz-adv-x="573" 
d="M82 213q0 121 76 215t180 94h72q-74 -158 -74 -207q0 -30 29 -63q30 -41 37 -65q4 -17 4 -37q0 -63 -44.5 -106.5t-111.5 -43.5q-77 0 -122.5 55.5t-45.5 157.5z" />
    <glyph glyph-name="uni0615" unicode="&#x615;" 
d="M-223 72v45h49v260v53h43q41 0 58.5 -16t17.5 -56v-98q60 57 131 57q44 0 77.5 -20t52 -52.5t27.5 -68t9 -70.5q0 -48 -16.5 -77t-45.5 -29h-323q-80 0 -80 72zM59 190q-30 0 -53 -21.5t-37 -51.5h154q-4 73 -64 73z" />
    <glyph glyph-name="semicolon.arabic" unicode="&#x61b;" horiz-adv-x="505" 
d="M123 612q0 106 67 188.5t158 82.5h96q-43 -43 -71.5 -97.5t-28.5 -83.5q0 -34 25 -59q1 -2 6.5 -9.5t8 -11t7 -11t6.5 -12.5t4.5 -13t3.5 -16t1 -17q0 -54 -40 -92.5t-96 -38.5q-69 0 -108 49t-39 141zM270 8q-53 0 -91 38.5t-38 90.5q0 54 37.5 92.5t91.5 38.5
q52 0 90.5 -39t38.5 -92q0 -51 -39 -90t-90 -39z" />
    <glyph glyph-name="questionmark.arabic" unicode="&#x61f;" horiz-adv-x="946" 
d="M88 948q0 144 106.5 242t294.5 98q89 0 159.5 -23.5t113 -62.5t64.5 -86t22 -98v-111q-88 60 -162.5 88.5t-161.5 28.5q-71 0 -108 -26t-37 -74q0 -41 41 -82q21 -16 62.5 -51.5t62.5 -51.5q72 -60 98.5 -106t26.5 -115q0 -54 -42 -92.5t-93 -38.5h-111v90
q0 34 -8.5 47.5t-44.5 44.5q-2 2 -4 3.5t-4.5 3.5t-4.5 4v-2q-23 19 -69 58t-70 58q-74 63 -102.5 120t-28.5 134zM709 178q0 -72 -52.5 -125t-124.5 -53q-73 0 -126.5 53t-53.5 125q0 73 53 125.5t127 52.5q72 0 124.5 -52.5t52.5 -125.5z" />
    <glyph glyph-name="kashida" unicode="&#x640;" horiz-adv-x="235" 
d="M-25 0v252h310v-252h-310z" />
    <glyph glyph-name="madda" unicode="&#x653;" 
d="M201 186v-69q0 -41 -27 -79t-74 -38h-284v96q0 33 23.5 61.5t58.5 28.5h303z" />
    <glyph glyph-name="hamza_above" unicode="&#x654;" 
d="M-2 106h184v-51q0 -22 -16.5 -38.5t-44.5 -16.5h-244q-25 0 -41 17t-16 38v51h59q-2 8 -2 35v15q0 71 40.5 116t109.5 45q49 0 86 -23t47 -71q0 -68 -45 -98q-11 36 -24.5 58t-29 29.5t-22.5 9t-19 1.5q-34 0 -34 -61q0 -44 12 -56z" />
    <glyph glyph-name="hamza_below" unicode="&#x655;" 
d="M10 -211h185v-51q0 -22 -17 -38.5t-45 -16.5h-244q-25 0 -41 17t-16 38v51h59q-2 8 -2 35v14q0 71 40.5 116.5t109.5 45.5q49 0 86 -23t47 -71q0 -69 -45 -99q-11 36 -24.5 58t-28.5 30t-22 9.5t-19 1.5q-35 0 -35 -62q0 -43 12 -55z" />
    <glyph glyph-name="alef_subscript" unicode="&#x656;" 
d="M-94 -369v426h190v-393z" />
    <glyph glyph-name="uni0658" unicode="&#x658;" horiz-adv-x="819" 
d="M492 1825h176q0 -87 -28 -157.5t-92 -116.5t-155 -46q-69 0 -121.5 26.5t-83 72t-46 101.5t-15.5 120h176q0 -57 24 -94t68 -37q45 0 71 34.5t26 96.5z" />
    <glyph glyph-name="zero.indic" unicode="&#x660;" horiz-adv-x="550" 
d="M289 451q-64 0 -110 46t-46 109t46 109.5t110 46.5q66 0 113 -46.5t47 -109.5t-47 -109t-113 -46z" />
    <glyph glyph-name="one.indic" unicode="&#x661;" horiz-adv-x="514" 
d="M381 0h-115q-70 0 -117 45t-47 131v1069q55 0 104 -10t79.5 -24.5t53.5 -30t32.5 -26.5t9.5 -15v-1139z" />
    <glyph glyph-name="two.indic" unicode="&#x662;" horiz-adv-x="1189" 
d="M918 944h-474q-28 0 -42.5 -14.5t-17.5 -30.5t-3 -43v-715q0 -61 -48 -101t-106 -40h-125v866q0 156 91.5 254.5t265.5 104.5h598v-129q0 -56 -39.5 -104t-99.5 -48z" />
    <glyph glyph-name="three.indic" unicode="&#x663;" horiz-adv-x="1468" 
d="M1153 1245q182 0 182 -180v-299q0 -156 -95.5 -254t-281.5 -104q-17 0 -46 2.5t-88.5 19t-104.5 43.5q-52 -37 -117.5 -51t-165.5 -14h-55v-408h-94q-183 0 -183 180l-2 1065h39q18 -1 46.5 1t62.5 -6t63 -20.5t48.5 -42.5t19.5 -73v-447h98q54 6 77.5 35t23.5 84v469h98
q180 0 180 -180v-274q0 -55 -10 -103q31 -31 84 -31q68 6 94.5 35t26.5 84v469h100z" />
    <glyph glyph-name="four.indic" unicode="&#x664;" horiz-adv-x="1071" 
d="M764 0h-236q-201 0 -305 98.5t-104 266.5q0 137 53 249q-70 124 -70 273q0 56 12.5 106t43.5 98t78 83t122 56t170 21h410v-94q0 -85 -40 -122.5t-134 -37.5h-299q-62 -3 -83 -17q-26 -18 -26 -56q0 -36 9.5 -90.5t23.5 -92.5h500v-92q0 -87 -40 -123.5t-132 -36.5h-334
q-27 -53 -27 -102q0 -70 26.5 -102.5t82.5 -32.5h473v-96q0 -81 -39.5 -118.5t-134.5 -37.5z" />
    <glyph glyph-name="five.indic" unicode="&#x665;" horiz-adv-x="1292" 
d="M102 575q0 67 28.5 139.5t70 132t102 122t108.5 104t106.5 84.5t81 57.5t44.5 28.5q22 -14 42.5 -28.5t76.5 -57t102 -82.5t103.5 -99.5t97 -115t67 -122t27.5 -126.5q0 -130 -33.5 -239.5t-98.5 -193.5t-170.5 -131.5t-240.5 -47.5q-125 0 -225 47t-162 127.5
t-94.5 182.5t-32.5 218zM850 573q0 69 -28.5 135t-72.5 115t-75.5 76.5t-59.5 46.5q-16 -10 -45.5 -36.5t-67.5 -69.5t-64.5 -103.5t-26.5 -120.5q0 -177 52.5 -266.5t180.5 -89.5q207 0 207 313z" />
    <glyph glyph-name="six.indic" unicode="&#x666;" horiz-adv-x="1189" 
d="M717 963h-473q-61 0 -101.5 47.5t-40.5 105.5v127h596q175 -6 267 -103.5t92 -252.5v-887h-125q-58 0 -105 40t-47 101v733q0 42 -12 65.5t-51 23.5z" />
    <glyph glyph-name="seven.indic" unicode="&#x667;" horiz-adv-x="1173" 
d="M741 152q-21 -73 -67 -112.5t-101 -39.5q-56 0 -103.5 40.5t-68.5 111.5q-21 73 -81.5 282.5t-92.5 325.5q-48 173 -125 444q134 41 158 41q46 0 92 -35.5t64 -95.5l157 -541q24 89 75.5 270.5t76.5 270.5q18 66 60 98.5t98 32.5q15 0 31.5 -3.5t39 -10t31.5 -8.5
q9 -6 55 -15z" />
    <glyph glyph-name="eight.indic" unicode="&#x668;" horiz-adv-x="1173" 
d="M741 1094l299 -1055l-110 -33q-21 -8 -47 -8q-54 0 -97 32.5t-61 98.5q-30 106 -77.5 271.5t-76.5 271.5q-9 -31 -26.5 -92.5t-22.5 -77.5q-16 -56 -52 -185t-54 -190q-23 -60 -66 -94.5t-90 -34.5q-14 0 -30 3.5t-38.5 10t-31.5 8.5q-4 1 -17.5 5.5t-25 8t-15.5 5.5
q32 109 166 584q122 435 133 471q21 71 68 111t102 40t102 -40t68 -111z" />
    <glyph glyph-name="nine.indic" unicode="&#x669;" horiz-adv-x="1060" 
d="M854 0q-94 0 -135 42.5t-41 129.5v215q-60 1 -110.5 6t-111.5 17t-109.5 31t-95.5 52t-78.5 76t-51 106t-19.5 140q0 94 27.5 175.5t79 143.5t131 98t178.5 36q107 0 188.5 -42.5t128.5 -114t70 -156t23 -177.5l-2 -778h-72zM350 840q0 -41 11.5 -73.5t27.5 -53t44.5 -35
t51 -22t60 -11t58 -4t56.5 -0.5h21v111q0 51 -3 88.5t-13.5 79t-29.5 68t-52.5 44t-79.5 17.5q-73 0 -112.5 -57.5t-39.5 -151.5z" />
    <glyph glyph-name="percentsign.arabic" unicode="&#x66a;" horiz-adv-x="1042" 
d="M864 1063l-504 -1063h-61q-57 0 -91 30.5t-34 88.5q0 42 31 106q161 344 485 1020h78q47 0 79 -27t32 -77q0 -43 -15 -78zM281 944q-59 0 -98.5 41t-39.5 100q0 60 39 99t99 39q58 0 99.5 -39.5t41.5 -98.5q0 -58 -42 -99.5t-99 -41.5zM737 0q-59 0 -98 41t-39 100
q0 60 38.5 99t98.5 39q58 0 100 -39.5t42 -98.5q0 -58 -42.5 -99.5t-99.5 -41.5z" />
    <glyph glyph-name="decimal.arabic" unicode="&#x66b;" horiz-adv-x="471" 
d="M362 92q0 -121 -76 -215t-180 -94h-71v51q31 30 52.5 77t21.5 79q0 9 -1.5 16.5t-5.5 15t-6 11t-8.5 11.5t-7.5 9q-41 48 -41 103q0 63 44.5 106t111.5 43q77 0 122 -55.5t45 -157.5z" />
    <glyph glyph-name="thousands.arabic" unicode="&#x66c;" horiz-adv-x="471" 
d="M362 911q0 -121 -76 -215t-180 -94h-71v51q31 28 52.5 75t21.5 81q0 9 -1.5 16.5t-5.5 15t-6 11t-8.5 11.5t-7.5 9q-41 45 -41 103q0 63 44.5 106t111.5 43q77 0 122 -55.5t45 -157.5z" />
    <glyph glyph-name="fivept_star.arabic" unicode="&#x66d;" horiz-adv-x="1236" 
d="M428 53l-170 131l191 236q-283 75 -295 78l69 204l269 -112v307h215l-21 -307q88 36 281 112l75 -204l-301 -76q161 -199 191 -238l-170 -129l-166 264q-152 -241 -168 -266z" />
    <glyph glyph-name="alef_superscript" unicode="&#x670;" 
d="M78 0h-64q-38 0 -69 29.5t-31 76.5v396h63q38 0 69.5 -27.5t31.5 -71.5v-403z" />
    <glyph glyph-name="uni06C3" unicode="&#x6c3;" horiz-adv-x="1011" 
d="M539 879q92 0 169 -35t127 -94.5t77.5 -136t27.5 -160.5q0 -197 -110.5 -325t-307.5 -128q-123 0 -215.5 60t-138 155.5t-45.5 210.5q0 127 46.5 228.5t142 163t227.5 61.5zM522 657q-73 0 -112 -56t-39 -148q0 -234 168 -234q74 0 112.5 56.5t38.5 150.5q0 231 -168 231
zM682 965q-55 0 -91 37t-36 90q0 54 36 89.5t91 35.5q52 0 88.5 -36t36.5 -89q0 -52 -37 -89.5t-88 -37.5zM399 965q-55 0 -92 37t-37 90q0 54 36.5 89.5t92.5 35.5q52 0 90.5 -36t38.5 -89q0 -52 -38.5 -89.5t-90.5 -37.5z" />
    <glyph glyph-name="arabicae" unicode="&#x6d5;" horiz-adv-x="1011" 
d="M539 879q92 0 169 -35t127 -94.5t77.5 -136t27.5 -160.5q0 -197 -110.5 -325t-307.5 -128q-123 0 -215.5 60t-138 155.5t-45.5 210.5q0 127 46.5 228.5t142 163t227.5 61.5zM522 657q-73 0 -112 -56t-39 -148q0 -234 168 -234q74 0 112.5 56.5t38.5 150.5q0 231 -168 231
z" />
    <glyph glyph-name="zero_ext.indic" unicode="&#x6f0;" horiz-adv-x="548" 
d="M289 449q-64 0 -110 46t-46 109q0 64 45.5 110t110.5 46q66 0 111.5 -45.5t45.5 -110.5q0 -64 -46 -109.5t-111 -45.5z" />
    <glyph glyph-name="one_ext.indic" unicode="&#x6f1;" horiz-adv-x="514" 
d="M381 0h-115q-70 0 -117 45t-47 131v1069q55 0 104 -10t79.5 -24.5t53.5 -30t32.5 -26.5t9.5 -15v-1139z" />
    <glyph glyph-name="two_ext.indic" unicode="&#x6f2;" horiz-adv-x="1189" 
d="M918 965h-474q-40 0 -51.5 -22.5t-11.5 -65.5v-736q0 -61 -48 -101t-106 -40h-125v889q0 155 91.5 252.5t265.5 103.5h598v-127q0 -58 -39.5 -105.5t-99.5 -47.5z" />
    <glyph glyph-name="three_ext.indic" unicode="&#x6f3;" horiz-adv-x="1468" 
d="M1153 1245q182 0 182 -180v-277q0 -159 -96.5 -265.5t-280.5 -112.5q-17 0 -46 2.5t-88.5 19t-104.5 43.5q-52 -37 -117.5 -51t-165.5 -14h-55v-410h-94q-183 0 -183 180l-2 1065h39q18 -1 46.5 1t62.5 -6t63 -20.5t48.5 -42.5t19.5 -73v-445h98q54 6 77.5 35t23.5 84
v467h98q180 0 180 -180v-272q0 -55 -10 -103q31 -31 84 -31q68 6 94.5 35t26.5 84v467h100z" />
    <glyph glyph-name="four_ext.indic" unicode="&#x6f4;" horiz-adv-x="1071" 
d="M764 0h-236q-201 0 -305 98.5t-104 266.5q0 137 53 249q-70 124 -70 273q0 56 12.5 106t43.5 98t78 83t122 56t170 21h410v-94q0 -85 -40 -122.5t-134 -37.5h-299q-62 -3 -83 -17q-26 -18 -26 -56q0 -36 9.5 -90.5t23.5 -92.5h500v-92q0 -87 -40 -123.5t-132 -36.5h-334
q-27 -53 -27 -102q0 -70 26.5 -102.5t82.5 -32.5h473v-96q0 -81 -39.5 -118.5t-134.5 -37.5z" />
    <glyph glyph-name="five_ext.indic" unicode="&#x6f5;" horiz-adv-x="1292" 
d="M102 575q0 67 28.5 139.5t70 132t102 122t108.5 104t106.5 84.5t81 57.5t44.5 28.5q22 -14 42.5 -28.5t76.5 -57t102 -82.5t103.5 -99.5t97 -115t67 -122t27.5 -126.5q0 -130 -33.5 -239.5t-98.5 -193.5t-170.5 -131.5t-240.5 -47.5q-125 0 -225 47t-162 127.5
t-94.5 182.5t-32.5 218zM850 573q0 69 -28.5 135t-72.5 115t-75.5 76.5t-59.5 46.5q-16 -10 -45.5 -36.5t-67.5 -69.5t-64.5 -103.5t-26.5 -120.5q0 -177 52.5 -266.5t180.5 -89.5q207 0 207 313z" />
    <glyph glyph-name="six_ext.indic" unicode="&#x6f6;" horiz-adv-x="1189" 
d="M717 963h-473q-61 0 -101.5 47.5t-40.5 105.5v127h596q175 -6 267 -103.5t92 -252.5v-887h-125q-58 0 -105 40t-47 101v733q0 42 -12 65.5t-51 23.5z" />
    <glyph glyph-name="seven_ext.indic" unicode="&#x6f7;" horiz-adv-x="1173" 
d="M741 152q-21 -73 -67 -112.5t-101 -39.5q-56 0 -103.5 40.5t-68.5 111.5q-21 73 -81.5 282.5t-92.5 325.5q-48 173 -125 444q134 41 158 41q46 0 92 -35.5t64 -95.5l157 -541q24 89 75.5 270.5t76.5 270.5q18 66 60 98.5t98 32.5q23 0 49.5 -6.5t58 -16.5t49.5 -14z" />
    <glyph glyph-name="eight_ext.indic" unicode="&#x6f8;" horiz-adv-x="1173" 
d="M741 1094l299 -1055q-134 -41 -157 -41q-54 0 -97 32.5t-61 98.5q-30 106 -77.5 271.5t-76.5 271.5q-9 -31 -26.5 -92.5t-22.5 -77.5q-16 -56 -52 -185t-54 -190q-23 -60 -66 -94.5t-90 -34.5q-14 0 -30 3.5t-38.5 10t-31.5 8.5q-4 1 -17.5 5.5t-25 8t-15.5 5.5
q32 109 166 584q122 435 133 471q21 71 68 111t102 40t102 -40t68 -111z" />
    <glyph glyph-name="nine_ext.indic" unicode="&#x6f9;" horiz-adv-x="1060" 
d="M854 0q-94 0 -135 42.5t-41 129.5v215q-59 1 -110 5.5t-112 16t-109.5 30.5t-95.5 52t-78.5 76t-51 106t-19.5 140q0 94 27.5 175.5t79 143.5t131 98t178.5 36q107 0 188.5 -42.5t128.5 -114t70 -156t23 -177.5v-776h-74zM350 838q0 -41 11.5 -73.5t27.5 -53t44.5 -35
t51 -22t60 -11t58 -4t56.5 -0.5h21v111q0 51 -3 88.5t-13.5 79t-29.5 68t-52.5 44t-79.5 17.5q-73 0 -112.5 -57.5t-39.5 -151.5z" />
    <glyph glyph-name="endash" unicode="&#x2013;" horiz-adv-x="1091" 
d="M999 659v-118q0 -58 -38 -90.5t-103 -32.5h-770v114q0 57 35.5 92t97.5 35h778z" />
    <glyph glyph-name="emdash" unicode="&#x2014;" horiz-adv-x="1802" 
d="M1718 659v-118q0 -58 -37 -90.5t-102 -32.5h-1487v114q0 56 36 91.5t97 35.5h1493z" />
    <glyph glyph-name="quoteleft" unicode="&#x2018;" horiz-adv-x="530" 
d="M94 997q0 125 80 223.5t188 98.5h72q-76 -163 -76 -215q0 -14 5.5 -27.5t9.5 -20t16 -20.5q43 -49 43 -108q0 -64 -46.5 -109t-117.5 -45q-80 0 -127 58t-47 165z" />
    <glyph glyph-name="quoteright" unicode="&#x2019;" horiz-adv-x="530" 
d="M436 1061q0 -127 -78.5 -224.5t-187.5 -97.5h-74q78 159 78 215q0 29 -31 68v-2q-16 18 -22.5 27.5t-13.5 31t-7 49.5q0 64 46.5 109t117.5 45q79 0 125.5 -57.5t46.5 -163.5z" />
    <glyph glyph-name="quotesinglbase" unicode="&#x201a;" horiz-adv-x="532" 
d="M432 86q0 -126 -79.5 -222.5t-188.5 -96.5h-74q78 159 78 213q0 14 -5.5 27.5t-9.5 18.5t-16 21v-2q-21 24 -31 47t-10 62q0 65 46 110t114 45q81 0 128.5 -58t47.5 -165z" />
    <glyph glyph-name="quotedblleft" unicode="&#x201c;" horiz-adv-x="841" 
d="M420 995q0 126 80 224t186 98h76q-78 -159 -78 -215q0 -31 29 -68q15 -19 21 -27.5t14 -31t8 -47.5q0 -65 -46 -110.5t-114 -45.5q-80 0 -128 59t-48 164zM68 995q0 127 78.5 224.5t187.5 97.5h74q-76 -155 -76 -215q0 -36 28 -68q1 -1 9 -12t10.5 -14.5t8.5 -14.5t8 -19
t4.5 -20.5t2.5 -25.5q0 -65 -45.5 -110.5t-115.5 -45.5q-79 0 -126.5 58.5t-47.5 164.5z" />
    <glyph glyph-name="quotedblright" unicode="&#x201d;" horiz-adv-x="825" 
d="M743 1057q0 -127 -78.5 -224.5t-187.5 -97.5h-76v51q34 29 57 78.5t23 85.5q0 9 -1.5 16.5t-5.5 16t-5.5 11.5t-9.5 13t-8 11q-43 43 -43 108q0 62 47 108t114 46q80 0 127 -58t47 -165zM387 1057q0 -126 -79.5 -224t-188.5 -98h-72v51q31 30 53.5 79.5t22.5 84.5
q0 14 -5.5 27.5t-9.5 20t-16 20.5q-41 47 -41 108q0 63 46.5 108.5t115.5 45.5q81 0 127.5 -58t46.5 -165z" />
    <glyph glyph-name="quotedblbase" unicode="&#x201e;" horiz-adv-x="829" 
d="M848 86q0 -126 -78.5 -222.5t-187.5 -96.5h-76v49q34 31 57 80.5t23 83.5q0 14 -5.5 27.5t-9.5 18.5t-16 21v-2q-15 17 -22.5 28t-14 32.5t-6.5 48.5q0 65 46 110t116 45q80 0 127 -58t47 -165zM440 86q0 -126 -78.5 -222.5t-187.5 -96.5h-74v49q33 31 55.5 80.5
t22.5 83.5q0 14 -5.5 27.5t-9.5 18.5t-16 21v-2q-15 17 -22.5 28t-14 32.5t-6.5 48.5q0 65 46 110t116 45q81 0 127.5 -58t46.5 -165z" />
    <glyph glyph-name="dagger" unicode="&#x2020;" horiz-adv-x="1110" 
d="M946 881q0 -66 -47.5 -115t-132.5 -49h-84v-985h-90q-63 0 -113.5 47.5t-50.5 132.5v805h-264v106q0 55 42 100.5t107 45.5h115v334h107q56 0 101.5 -42t45.5 -106v-186h264v-88z" />
    <glyph glyph-name="daggerdbl" unicode="&#x2021;" horiz-adv-x="1122" 
d="M795 164h-109v-453h-106q-67 0 -105.5 42.5t-38.5 105.5v305h-272v108q0 56 40 102t105 46h127v305h-272v104q0 57 40 102.5t105 45.5h127v305h121q57 0 93 -38.5t36 -94.5v-172h272v-105q0 -66 -45 -106.5t-118 -40.5h-109v-305h272v-107q0 -69 -44.5 -109t-118.5 -40z
" />
    <glyph glyph-name="bullet" unicode="&#x2022;" horiz-adv-x="808" 
d="M406 870q100 0 169.5 -70t69.5 -171q0 -104 -68.5 -173t-170.5 -69q-100 0 -171 69.5t-71 172.5q0 101 71 171t171 70z" />
    <glyph glyph-name="ellipsis" unicode="&#x2026;" horiz-adv-x="1595" 
d="M1432 176q0 -72 -53 -124t-124 -52t-123.5 52t-52.5 124q0 70 52.5 122t123.5 52t124 -52t53 -122zM973 176q0 -72 -52 -124t-124 -52q-71 0 -122.5 52t-51.5 124q0 70 51.5 122t122.5 52q72 0 124 -51.5t52 -122.5zM512 176q0 -72 -51 -124t-123 -52t-123 52t-51 124
q0 71 51 122.5t123 51.5t123 -51.5t51 -122.5z" />
    <glyph glyph-name="perthousand" unicode="&#x2030;" horiz-adv-x="2525" 
d="M766 844q0 -182 -90 -302t-250 -120q-149 0 -237.5 115.5t-88.5 279.5q0 184 90 303t250 119q100 0 175.5 -55t113 -144t37.5 -196zM1225 1040l-492 -1040h-61q-57 0 -90 30.5t-33 88.5q0 29 29 102q28 59 206.5 433t268.5 565h77q46 0 77.5 -26.5t31.5 -76.5
q0 -47 -16 -78zM2421 416q0 -185 -89.5 -304.5t-250.5 -119.5q-99 0 -174 56t-112.5 145.5t-37.5 195.5q0 182 89 301t249 119q99 0 174.5 -55.5t113.5 -144t38 -193.5zM1706 416q0 -184 -90.5 -304t-249.5 -120q-148 0 -238 116.5t-90 280.5q0 182 90 301t250 119
q147 0 237.5 -115.5t90.5 -277.5zM518 817q0 201 -90 201q-40 0 -60 -47t-20 -127q0 -199 90 -199q40 0 60 47t20 125zM2181 393q0 199 -92 199q-38 0 -59 -47t-21 -125q0 -201 92 -201q37 0 58.5 48.5t21.5 125.5zM1464 393q0 199 -92 199q-39 0 -59.5 -46.5t-20.5 -125.5
q0 -201 92 -201q40 0 60 47.5t20 126.5z" />
    <glyph glyph-name="guilsinglleft" unicode="&#x2039;" horiz-adv-x="696" 
d="M592 158h-125q-76 0 -123 21.5t-80 68.5l-180 262l180 264q31 42 75.5 63t127.5 21h123l-221 -348q34 -52 223 -352z" />
    <glyph glyph-name="guilsinglright" unicode="&#x203a;" horiz-adv-x="696" 
d="M229 158h-125l224 352q-131 200 -224 348h125q83 0 127.5 -21t75.5 -63l180 -264l-180 -262q-31 -47 -78.5 -68.5t-124.5 -21.5z" />
    <glyph glyph-name="Euro" unicode="&#x20ac;" horiz-adv-x="1083" 
d="M993 334v-115q0 -39 -20 -80t-56.5 -77t-97 -59t-133.5 -23q-198 0 -325.5 110.5t-161.5 310.5h-150v82q0 49 27.5 78t70.5 29h35v41h-133v88q0 49 29.5 77.5t68.5 28.5h52q41 200 177 308t320 108q129 0 213 -73t84 -177v-106q-85 50 -145.5 75t-120.5 25
q-84 0 -146 -39t-87 -121h358v-80q0 -51 -31 -82.5t-82 -31.5h-266v-41h379v-82q0 -47 -29.5 -77t-83.5 -30h-245q20 -85 75.5 -123t155.5 -38q107 0 268 94z" />
    <glyph glyph-name="trademark" unicode="&#x2122;" horiz-adv-x="1517" 
d="M1415 516h-100q-35 0 -59 9.5t-37.5 24.5t-21 45t-10 57.5t-3.5 76.5q-50 -157 -88 -215h-60q-58 0 -94 54.5t-76 176.5q-2 -80 -2 -231l-98 2q-53 2 -87 33.5t-34 89.5q0 125 15.5 273.5t37.5 256.5h68q74 0 125.5 -32t75.5 -82q11 -29 33.5 -92t31.5 -89
q80 257 164 297h18q74 0 118.5 -43t53.5 -116q29 -224 29 -496zM659 1077q0 -39 -35 -75.5t-87 -36.5h-45v-457h-103q-55 0 -89 28.5t-34 86.5v342h-164v94q0 39 33.5 73.5t91.5 34.5h432v-90z" />
    <glyph glyph-name="minus" unicode="&#x2212;" horiz-adv-x="1169" 
d="M1098 741v-131q0 -65 -40.5 -100t-113.5 -35h-872v127q0 62 39.5 100.5t107.5 38.5h879z" />
    <glyph glyph-name="notequal" unicode="&#x2260;" horiz-adv-x="1038" 
d="M842 928l-39 -78h153v-113q0 -43 -44 -81t-103 -38h-117q-11 -27 -49 -104h313v-113q0 -52 -42 -84t-105 -32h-279q-15 -33 -55.5 -122.5t-62.5 -135.5h-62q-58 0 -92.5 30.5t-34.5 89.5q0 36 33 107q3 5 6 13t8 18h-188v108q0 51 41 86t108 35h150q8 18 15 32.5t16 34
t18 37.5h-348v111q0 51 41 86t108 35h312q21 41 64 131t63 131q1 0 18.5 -3t25 -4t26 -5t28.5 -8t26 -9.5t25 -13t18.5 -16.5t14 -20.5t4.5 -24.5q0 -42 -14 -80z" />
    <glyph glyph-name="parenthesis_left_ornate" unicode="&#xfd3e;" horiz-adv-x="829" 
d="M428 575q0 -283 103 -517.5t262 -383.5q-173 3 -259 20.5t-126 49.5q-109 87 -204 315.5t-95 477.5q0 175 41.5 341t107.5 286.5t153 194t175 73.5h202q-360 -378 -360 -857z" />
    <glyph glyph-name="parenthesis_right_ornate" unicode="&#xfd3f;" horiz-adv-x="831" 
d="M403 530q0 284 -103 519t-263 383q297 -2 387 -68q109 -87 204 -316.5t95 -478.5q0 -140 -26.5 -276.5t-73.5 -246.5t-107 -194.5t-131 -131t-141 -46.5h-203q362 380 362 856z" />
    <glyph glyph-name="CR" horiz-adv-x="1024" 
 />
    <glyph glyph-name="uni00AD" horiz-adv-x="675" 
d="M524 428h-463v186h463v-186z" />
    <glyph glyph-name="zero.basic" horiz-adv-x="1136" 
d="M1047 649q0 -170 -36 -300t-101 -209.5t-151 -119.5t-192 -40q-217 0 -348 161t-131 461q0 331 131.5 498.5t364.5 167.5q219 0 341 -166.5t122 -452.5zM381 651q0 -221 50 -313t153 -92q77 0 122.5 86.5t45.5 261.5q0 223 -44.5 315t-140.5 92q-84 0 -135 -85.5
t-51 -264.5z" />
    <glyph glyph-name="one.basic" horiz-adv-x="823" 
d="M618 0h-122q-77 0 -124.5 47.5t-47.5 136.5v748q-16 -5 -42.5 -15.5t-33.5 -13.5q-52 -18 -101 -18q-25 0 -46 7t-34.5 14t-26 26.5t-18.5 29t-13.5 38.5t-9.5 37t-9 42l237 105q88 37 137 50t99 13q67 0 111 -47t44 -106v-1094z" />
    <glyph glyph-name="two.basic" horiz-adv-x="1134" 
d="M995 145q0 -69 -51 -107t-137 -38h-551q-62 0 -104.5 43t-42.5 104q0 75 48 151.5t185 188.5l276 234q72 57 72 135q0 68 -46.5 106.5t-129.5 38.5q-118 0 -202 -34.5t-187 -118.5v113q0 61 23.5 113.5t72 97t134.5 70.5t200 26q183 0 305.5 -111.5t122.5 -267.5
q0 -92 -27.5 -161.5t-80 -127t-152.5 -135.5q-197 -152 -252 -213h524v-107z" />
    <glyph glyph-name="three.basic" horiz-adv-x="1122" 
d="M977 383q0 -187 -127.5 -295t-370.5 -108q-162 0 -267.5 69.5t-105.5 198.5v123q102 -66 190.5 -97.5t195.5 -31.5q97 0 143.5 36t46.5 97q0 67 -47.5 97.5t-147.5 33.5q-92 1 -133 31t-41 88v102q71 9 158 12q207 8 207 127q0 142 -205 142q-178 0 -356 -127v129
q0 43 26 87.5t73.5 83t125.5 63t172 24.5q207 0 331 -98.5t124 -262.5q0 -202 -156 -278q67 -39 115.5 -107.5t48.5 -138.5z" />
    <glyph glyph-name="four.basic" horiz-adv-x="1124" 
d="M1079 414q0 -62 -32 -96.5t-95 -34.5h-59v-283h-119q-77 0 -122.5 47t-45.5 135v101h-375q-70 0 -115.5 41t-45.5 96q0 71 34 141q84 149 245 370.5t276 315.5h96q79 0 125.5 -49.5t46.5 -144.5v-518h186v-121zM606 535v356q-107 -141 -235 -356h235z" />
    <glyph glyph-name="five.basic" horiz-adv-x="1142" 
d="M1040 416q0 -204 -132 -320t-355 -116q-198 0 -292.5 66.5t-94.5 184.5v119q106 -58 180.5 -81t181.5 -23q111 0 161 39t50 116q0 74 -61 108t-191 34q-123 0 -307 -47v512q0 122 50 180.5t169 58.5h602v-90q0 -80 -49.5 -127t-142.5 -47h-340v-203q58 6 129 6
q188 0 315 -101t127 -269z" />
    <glyph glyph-name="six.basic" horiz-adv-x="1118" 
d="M1032 432q0 -65 -15 -127t-50.5 -121.5t-88.5 -104t-134 -72t-181 -27.5q-97 0 -178 35t-143.5 105t-97.5 185.5t-35 265.5q0 341 152 519t413 178q132 0 215.5 -70t83.5 -174v-100q-43 33 -101.5 54t-121 28t-123.5 -4.5t-109 -39.5t-78 -81.5t-30 -126.5q81 75 215 75
q112 0 203 -44.5t147.5 -136t56.5 -216.5zM410 434q0 -84 44 -140t124 -56q84 0 123.5 43.5t39.5 132.5q0 79 -45 120t-114 41q-82 0 -127 -40.5t-45 -100.5z" />
    <glyph glyph-name="seven.basic" horiz-adv-x="1087" 
d="M963 1098q0 -65 -107 -295q-30 -61 -89.5 -156.5t-101.5 -164.5t-77.5 -166t-38.5 -187v-129h-125q-150 0 -150 162q0 67 23.5 149.5t56.5 143.5q219 403 291 518q2 2 2 6h-541v113q0 153 160 153h539q158 0 158 -147z" />
    <glyph glyph-name="eight.basic" horiz-adv-x="1097" 
d="M1016 367q0 -86 -25 -154t-78 -121.5t-145 -82.5t-217 -29q-201 0 -318.5 101.5t-117.5 268.5q0 81 47 158.5t117 120.5q-71 39 -114.5 104t-43.5 156q0 172 127.5 275.5t324.5 103.5q193 0 315 -104t122 -259q0 -184 -156 -264q70 -43 116 -115t46 -159zM557 1004
q-65 0 -102 -33.5t-37 -85.5q0 -57 37.5 -91t115.5 -34q67 0 105.5 33t38.5 84q0 127 -158 127zM725 375q0 62 -44 100.5t-124 38.5q-60 0 -103.5 -37.5t-43.5 -89.5q0 -71 38 -107t123 -36q76 0 115 36t39 95z" />
    <glyph glyph-name="nine.basic" horiz-adv-x="1112" 
d="M1006 653q0 -336 -133 -504.5t-369 -168.5q-160 0 -259.5 66t-99.5 181v115q96 -50 174 -75t175 -25q87 0 137 54.5t69 170.5q-71 -68 -180 -68q-198 0 -318 110t-120 292q0 210 124 338.5t353 128.5q447 0 447 -615zM709 801q0 211 -170 211q-75 0 -117.5 -51.5
t-42.5 -133.5q0 -86 42.5 -129t115.5 -43q80 0 126 40t46 106z" />
    <glyph glyph-name="Euro.basic" horiz-adv-x="1079" 
d="M1001 334v-115q0 -39 -20 -80t-56.5 -77t-97 -59t-133.5 -23q-198 0 -325.5 110.5t-161.5 310.5h-150v82q0 49 28 78t71 29h34v41h-133v88q0 49 30 77.5t69 28.5h51q41 200 177.5 308t320.5 108q128 0 212 -72.5t84 -177.5v-106q-85 50 -145.5 75t-120.5 25
q-84 0 -146 -39t-87 -121h358v-80q0 -51 -30.5 -82.5t-81.5 -31.5h-267v-41h379v-82q0 -48 -29 -77.5t-83 -29.5h-246q20 -85 75.5 -123t155.5 -38q107 0 268 94z" />
    <glyph glyph-name="dollar.basic" horiz-adv-x="1124" 
d="M999 385q0 -84 -30 -155t-78 -117t-104 -74t-113 -35v-240h-82q-135 0 -135 127v109q-316 21 -316 268l4 152q72 -72 167 -119t192 -47q112 0 156.5 27t44.5 86q0 52 -47.5 77t-206.5 52h2q-338 54 -338 325q0 151 100 251.5t242 127.5v238h98q119 0 119 -127v-103
q142 -13 217.5 -75.5t75.5 -165.5v-121q-169 108 -342 108q-219 0 -219 -108q0 -32 16.5 -50t69.5 -34.5t165 -36.5q164 -28 253 -116.5t89 -223.5z" />
    <glyph glyph-name="cent.basic" horiz-adv-x="1085" 
d="M582 1149q66 0 97.5 -34.5t31.5 -106.5v-76q83 -15 135.5 -71.5t52.5 -133.5v-137q-80 49 -136.5 70.5t-137.5 21.5q-84 0 -143.5 -58.5t-59.5 -142.5q0 -107 57 -171t152 -64q118 0 264 78v-134q0 -66 -49 -119t-135 -73v-227h-62q-68 0 -104.5 38t-36.5 105v82
q-158 35 -263.5 160t-105.5 293q0 175 97 306.5t272 170.5v223h74z" />
    <glyph glyph-name="sterling.basic" horiz-adv-x="1120" 
d="M561 252h449v-100q0 -80 -49 -116t-150 -36h-637v92q0 47 68 141q86 115 86 187q0 33 -6 67h-211v72q0 156 155 156h6q-12 66 -12 125q0 169 123 276t315 107q104 0 179 -59.5t75 -137.5v-115q-155 50 -254 50q-61 0 -100 -38.5t-39 -103.5q0 -49 10 -104h316v-86
q0 -67 -43.5 -104.5t-114.5 -37.5h-127q2 -12 2 -47q0 -104 -41 -188z" />
    <glyph glyph-name="florin.basic" horiz-adv-x="1150" 
d="M1026 973q-143 26 -166 26q-44 0 -73.5 -36.5t-41.5 -104.5q-2 -17 -6 -38t-6 -40h228v-92q0 -55 -45.5 -94t-129.5 -39h-77q-5 -48 -21.5 -174.5t-23.5 -194.5q-10 -74 -22 -127t-36.5 -108t-59 -89t-90.5 -55.5t-130 -21.5q-92 0 -147.5 43t-55.5 104v121
q121 -28 170 -28q36 0 60.5 33t35.5 116q7 68 20.5 191t20.5 190h-194v90q0 56 45 93.5t102 39.5l78 2q0 10 1 21.5t2.5 25t2.5 21.5q7 51 18.5 95t39.5 101.5t66.5 98t104 68.5t148.5 28q87 0 134.5 -42.5t47.5 -104.5v-119z" />
    <glyph glyph-name="yen.basic" horiz-adv-x="1116" 
d="M1044 1112q0 -48 -80 -165t-186 -245h211v-102q0 -43 -39.5 -74.5t-99.5 -31.5h-156v-80h295v-103q0 -39 -41 -72.5t-98 -33.5h-156v-205h-125q-50 0 -92.5 41.5t-42.5 103.5v60h-287v90q0 52 36.5 85.5t101.5 33.5h149v80h-287v92q0 50 36.5 83t101.5 33h71
q-227 297 -299 521h150q69 0 114 -25.5t64 -58.5q89 -185 193 -316q57 70 126 183.5t113 216.5h113q54 0 84 -32t30 -79z" />
    <glyph glyph-name="numbersign.basic" horiz-adv-x="1173" 
d="M1094 844q0 -67 -41 -104.5t-113 -37.5h-29q-28 -128 -32 -153h137v-84q0 -67 -40 -106.5t-114 -39.5h-26q-57 -291 -62 -319h-96q-127 0 -127 127q0 29 6 53v-2q14 65 27 141h-121q-46 -229 -62 -319h-96q-125 0 -125 127q0 19 4 51l27 141h-148v87q0 66 41 104.5
t113 38.5h41q20 105 29 153h-148v82q0 67 41 105.5t115 38.5h37q44 223 61 319h80q139 0 139 -133q0 -25 -2 -33l-2 -8l-28 -145h122q9 54 31 162t31 157h80q65 0 102 -34.5t37 -96.5q0 -35 -2 -49q-5 -25 -14.5 -66.5t-14.5 -72.5h142v-84zM662 702h-125q-26 -135 -29 -153
h121q29 135 33 153z" />
    <glyph glyph-name="percent.basic" horiz-adv-x="1884" 
d="M793 858q0 -122 -39 -218.5t-119.5 -155t-190.5 -58.5q-101 0 -177 57t-114 147.5t-38 198.5q0 122 39 219t118.5 155.5t188.5 58.5q101 0 178 -57t115.5 -148t38.5 -199zM1264 1063l-504 -1063h-62q-57 0 -91 30.5t-34 88.5q0 51 31 106q88 187 259 547t224 473h80
q46 0 78.5 -27t32.5 -77q0 -46 -14 -78zM1755 414q0 -187 -92.5 -308.5t-255.5 -121.5q-101 0 -178 57t-115.5 147.5t-38.5 198.5q0 186 91 307t255 121q100 0 177.5 -56.5t117 -147t39.5 -197.5zM543 829q0 205 -97 205q-40 0 -59.5 -48t-19.5 -128q0 -205 92 -205
q40 0 62 48t22 128zM1509 391q0 205 -94 205q-40 0 -62 -48.5t-22 -127.5q0 -205 96 -205q40 0 61 47.5t21 128.5z" />
    <glyph glyph-name="perthousand.basic" horiz-adv-x="2572" 
d="M784 844q0 -182 -90 -302t-250 -120q-100 0 -175.5 55.5t-112.5 144.5t-37 195q0 184 90 303t250 119q100 0 175 -55t112.5 -144t37.5 -196zM1243 1040l-491 -1040h-62q-57 0 -90 30.5t-33 88.5q0 29 29 102q28 59 206.5 433t268.5 565h78q46 0 77 -26.5t31 -76.5
q0 -47 -16 -78zM2439 416q0 -185 -89.5 -304.5t-250.5 -119.5q-99 0 -174 56t-112 145.5t-37 195.5q0 182 89 301t249 119q99 0 174.5 -55.5t113 -144t37.5 -193.5zM1724 416q0 -184 -90.5 -304t-249.5 -120q-148 0 -237.5 116.5t-89.5 280.5q0 182 90 301t250 119
q98 0 174 -55.5t114.5 -144t38.5 -193.5zM537 817q0 201 -91 201q-40 0 -59.5 -47t-19.5 -127q0 -199 90 -199q40 0 60 47t20 125zM2200 393q0 199 -93 199q-38 0 -58.5 -47t-20.5 -125q0 -201 92 -201q37 0 58.5 48.5t21.5 125.5zM1483 393q0 199 -92 199
q-39 0 -59.5 -46.5t-20.5 -125.5q0 -201 92 -201q40 0 60 47.5t20 126.5z" />
    <glyph glyph-name="zero.onum" horiz-adv-x="1136" 
d="M1047 649q0 -170 -36 -300t-101 -209.5t-151 -119.5t-192 -40q-217 0 -348 161t-131 461q0 331 131.5 498.5t364.5 167.5q219 0 341 -166.5t122 -452.5zM381 651q0 -221 50 -313t153 -92q77 0 122.5 86.5t45.5 261.5q0 223 -44.5 315t-140.5 92q-84 0 -135 -85.5
t-51 -264.5z" />
    <glyph glyph-name="one.onum" horiz-adv-x="704" 
d="M604 0h-123q-77 0 -124.5 47.5t-47.5 136.5v748q-16 -5 -42.5 -15.5t-33.5 -13.5q-53 -18 -100 -18q-29 0 -52 6.5t-39 23.5t-25.5 29.5t-18.5 42.5t-12.5 43t-10.5 49l238 105q88 37 137 50t99 13q67 0 111 -47t44 -106v-1094z" />
    <glyph glyph-name="two.onum" horiz-adv-x="1134" 
d="M995 145q0 -69 -51 -107t-137 -38h-551q-62 0 -104.5 43t-42.5 104q0 75 48 151.5t185 188.5l276 234q72 57 72 135q0 68 -46.5 106.5t-129.5 38.5q-118 0 -202 -34.5t-187 -118.5v113q0 61 23.5 113.5t72 97t134.5 70.5t200 26q183 0 305.5 -111.5t122.5 -267.5
q0 -92 -27.5 -161.5t-80 -127t-152.5 -135.5q-197 -152 -252 -213h524v-107z" />
    <glyph glyph-name="three.onum" horiz-adv-x="1122" 
d="M977 383q0 -187 -127.5 -295t-370.5 -108q-162 0 -267.5 69.5t-105.5 198.5v123q102 -66 190.5 -97.5t195.5 -31.5q97 0 143.5 36t46.5 97q0 67 -47.5 97.5t-147.5 33.5q-92 1 -133 31t-41 88v102q71 9 158 12q207 8 207 127q0 142 -205 142q-178 0 -356 -127v129
q0 43 26 87.5t73.5 83t125.5 63t172 24.5q207 0 331 -98.5t124 -262.5q0 -202 -156 -278q67 -39 115.5 -107.5t48.5 -138.5z" />
    <glyph glyph-name="four.onum" horiz-adv-x="1124" 
d="M1079 414q0 -62 -32 -96.5t-95 -34.5h-59v-283h-119q-77 0 -122.5 47t-45.5 135v101h-375q-70 0 -115.5 41t-45.5 96q0 71 34 141q84 149 245 370.5t276 315.5h96q79 0 125.5 -49.5t46.5 -144.5v-518h186v-121zM606 535v356q-107 -141 -235 -356h235z" />
    <glyph glyph-name="five.onum" horiz-adv-x="1142" 
d="M1040 416q0 -204 -132 -320t-355 -116q-198 0 -292.5 66.5t-94.5 184.5v119q106 -58 180.5 -81t181.5 -23q111 0 161 39t50 116q0 74 -61 108t-191 34q-123 0 -307 -47v512q0 122 50 180.5t169 58.5h602v-90q0 -80 -49.5 -127t-142.5 -47h-340v-203q58 6 129 6
q188 0 315 -101t127 -269z" />
    <glyph glyph-name="six.onum" horiz-adv-x="1118" 
d="M1032 432q0 -65 -15 -127t-50.5 -121.5t-88.5 -104t-134 -72t-181 -27.5q-97 0 -178 35t-143.5 105t-97.5 185.5t-35 265.5q0 341 152 519t413 178q132 0 215.5 -70t83.5 -174v-100q-43 33 -101.5 54t-121 28t-123.5 -4.5t-109 -39.5t-78 -81.5t-30 -126.5q81 75 215 75
q112 0 203 -44.5t147.5 -136t56.5 -216.5zM410 434q0 -84 44 -140t124 -56q84 0 123.5 43.5t39.5 132.5q0 79 -45 120t-114 41q-82 0 -127 -40.5t-45 -100.5z" />
    <glyph glyph-name="seven.onum" horiz-adv-x="1087" 
d="M963 1100q0 -66 -105 -293q-26 -56 -70 -127.5t-81.5 -131t-74 -127t-59 -142.5t-24.5 -150v-129h-125q-150 0 -150 162q0 67 23.5 149.5t56.5 143.5q184 338 291 516v-2l6 12h-545v113q0 153 160 153h539q158 0 158 -147z" />
    <glyph glyph-name="eight.onum" horiz-adv-x="1097" 
d="M1016 367q0 -86 -25 -154t-78 -121.5t-145 -82.5t-217 -29q-201 0 -318.5 101.5t-117.5 268.5q0 81 47 158.5t117 120.5q-71 39 -114.5 104t-43.5 156q0 172 127.5 275.5t324.5 103.5q193 0 315 -104t122 -259q0 -184 -156 -264q70 -43 116 -115t46 -159zM557 1004
q-65 0 -102 -33.5t-37 -85.5q0 -57 37.5 -91t115.5 -34q67 0 105.5 33t38.5 84q0 127 -158 127zM725 375q0 62 -44 100.5t-124 38.5q-60 0 -103.5 -37.5t-43.5 -89.5q0 -71 38 -107t123 -36q76 0 115 36t39 95z" />
    <glyph glyph-name="nine.onum" horiz-adv-x="1112" 
d="M1006 653q0 -336 -133 -504.5t-369 -168.5q-160 0 -259.5 66t-99.5 181v115q96 -50 174 -75t175 -25q87 0 137 54.5t69 170.5q-71 -68 -180 -68q-198 0 -318 110t-120 292q0 210 124 338.5t353 128.5q447 0 447 -615zM709 801q0 211 -170 211q-75 0 -117.5 -51.5
t-42.5 -133.5q0 -86 42.5 -129t115.5 -43q80 0 126 40t46 106z" />
    <glyph glyph-name="wasla" 
d="M-223 72v47h51v157h43q48 0 66 -24q60 67 139 67q44 0 78 -20.5t52 -53t27 -67t9 -69.5q0 -49 -16 -79t-46 -30h-321q-82 0 -82 72zM61 193q-56 0 -90 -74h154q-4 74 -64 74z" />
    <glyph glyph-name="hamza_medial" 
d="M-477 252h121q-33 73 -33 174q0 127 47 229t143 164t228 62q57 0 112 -15t105 -44t86 -79.5t47 -115.5q0 -58 -23 -105l-59 -137q-21 68 -52.5 119.5t-62 80t-65 46t-59 23t-46.5 5.5q-71 0 -110 -57t-39 -149q0 -150 67 -201h516v-117q0 -49 -40.5 -92t-100.5 -43h-641
q-61 0 -101 42.5t-40 92.5v117z" />
    <glyph glyph-name="xx.TahAbove" 
d="M-223 72v45h49v260v53h43q41 0 58.5 -16t17.5 -56v-98q60 57 131 57q44 0 77.5 -20t52 -52.5t27.5 -68t9 -70.5q0 -48 -16.5 -77t-45.5 -29h-323q-80 0 -80 72zM59 190q-30 0 -53 -21.5t-37 -51.5h154q-4 73 -64 73z" />
    <glyph glyph-name="shadda_fathatan" 
d="M-225 299l12 -164q3 -35 25 -35q16 0 16 29q0 13 -3 47.5t-3 50.5q0 42 14.5 56t50.5 16h37l15 -168q4 -31 24 -31q17 0 17 35q-1 11 -5 44t-4 50q0 45 30 59.5t71 -1.5l16 -162q4 -43 -26.5 -84t-90.5 -41q-46 0 -82 25q-24 -21 -67 -21q-56 0 -91.5 35.5t-43.5 97.5
q-11 91 -11 103q0 64 99 59zM68 424l2 -55q-58 -2 -161.5 -8.5t-154.5 -8.5q-20 -1 -32.5 9.5t-17.5 32t-6 35t-1 34.5q45 1 153.5 7t153.5 7q60 3 64 -53zM68 569l2 -55q-59 -2 -162 -8t-154 -8q-20 -1 -32.5 9.5t-17.5 31.5t-6 34.5t-1 34.5q45 1 153.5 7.5t153.5 7.5
q31 1 46.5 -14.5t17.5 -39.5z" />
    <glyph glyph-name="hamza_above_damma" 
d="M-2 106h184v-51q0 -22 -16.5 -38.5t-44.5 -16.5h-244q-25 0 -41 17t-16 38v51h59q-2 8 -2 35v15q0 71 40.5 116t109.5 45q49 0 86 -23t47 -71q0 -68 -45 -98q-11 36 -24.5 58t-29 29.5t-22.5 9t-19 1.5q-34 0 -34 -61q0 -44 12 -56zM23 500q26 5 26 51q0 25 -10.5 40
t-26.5 15q-30 0 -30 -51q0 -26 11.5 -40.5t29.5 -14.5zM16 700q59 0 99.5 -38t40.5 -99q0 -203 -387 -211q-35 0 -46 20t-16 74l68 3q93 5 129 12q-25 35 -25 86q0 66 38.5 109.5t98.5 43.5z" />
    <glyph glyph-name="hamza_above_sukun" 
d="M-2 106h184v-51q0 -22 -16.5 -38.5t-44.5 -16.5h-244q-25 0 -41 17t-16 38v51h59q-2 8 -2 35v15q0 71 40.5 116t109.5 45q49 0 86 -23t47 -71q0 -68 -45 -98q-11 36 -24.5 58t-29 29.5t-22.5 9t-19 1.5q-34 0 -34 -61q0 -44 12 -56zM8 698q75 0 116.5 -51t41.5 -119
q0 -73 -52 -124.5t-122 -51.5q-74 0 -115 53t-41 119q0 78 50 126t122 48zM2 592q-47 -6 -47 -74q0 -61 45 -61q43 0 43 82q0 47 -41 53z" />
    <glyph glyph-name="hamza_above_fathatan" 
d="M-2 106h184v-51q0 -22 -16.5 -38.5t-44.5 -16.5h-244q-25 0 -41 17t-16 38v51h59q-2 8 -2 35v15q0 71 40.5 116t109.5 45q49 0 86 -23t47 -71q0 -68 -45 -98q-11 36 -24.5 58t-29 29.5t-22.5 9t-19 1.5q-34 0 -34 -61q0 -44 12 -56zM184 424l2 -55q-58 -2 -161 -8.5
t-154 -8.5q-20 -1 -32.5 9.5t-17.5 32t-6 35t-1 34.5q45 1 153.5 7t153.5 7q59 3 63 -53zM184 569l2 -55q-59 -2 -161.5 -8t-153.5 -8q-20 -1 -32.5 9.5t-17.5 31.5t-6 34.5t-1 34.5q45 1 153.5 7.5t153.5 7.5q59 3 63 -54z" />
    <glyph glyph-name="hamza_above_dammatan" 
d="M-2 106h184v-51q0 -22 -16.5 -38.5t-44.5 -16.5h-244q-25 0 -41 17t-16 38v51h59q-2 8 -2 35v15q0 71 40.5 116t109.5 45q49 0 86 -23t47 -71q0 -68 -45 -98q-11 36 -24.5 58t-29 29.5t-22.5 9t-19 1.5q-34 0 -34 -61q0 -44 12 -56zM131 700q58 0 98.5 -38.5t40.5 -100.5
q0 -42 -19.5 -75.5t-48 -55t-70 -37t-78 -23t-79 -12t-65.5 -5.5t-45 -1q-34 0 -47.5 20.5t-18.5 73.5h35q10 5 18.5 23t8.5 37q0 18 -12 28.5t-33 10.5q-16 0 -43 -51q-41 41 -41 79q0 29 26 49.5t68 20.5q66 0 103.5 -41.5t37.5 -97.5q0 -25 -8 -49q3 1 26.5 3.5t32.5 4.5
q-28 46 -28 84q0 65 41.5 109t99.5 44zM135 502q31 3 31 47q0 25 -11 40t-30 15q-14 0 -22.5 -13.5t-8.5 -33.5q0 -24 11.5 -39.5t29.5 -15.5z" />
    <glyph glyph-name="hamza_above_fatha" 
d="M-2 106h184v-51q0 -22 -16.5 -38.5t-44.5 -16.5h-244q-25 0 -41 17t-16 38v51h59q-2 8 -2 35v15q0 71 40.5 116t109.5 45q49 0 86 -23t47 -71q0 -68 -45 -98q-11 36 -24.5 58t-29 29.5t-22.5 9t-19 1.5q-34 0 -34 -61q0 -44 12 -56zM184 424l2 -55q-58 -2 -161 -8.5
t-154 -8.5q-20 -1 -32.5 9.5t-17.5 32t-6 35t-1 34.5q45 1 153.5 7t153.5 7q59 3 63 -53z" />
    <glyph glyph-name="hamza_below_kasratan" 
d="M184 -547l2 -55q-59 -2 -161.5 -8t-153.5 -8q-20 -1 -32.5 9.5t-17.5 31.5t-6 34.5t-1 34.5q45 1 153.5 7t153.5 7q59 3 63 -53zM184 -401l2 -56q-59 -2 -161.5 -8t-153.5 -8q-20 -1 -32.5 9.5t-17.5 32t-6 35t-1 34.5q45 1 153.5 7t153.5 7q59 3 63 -53zM-2 -211h184
v-51q0 -22 -16.5 -38.5t-44.5 -16.5h-244q-25 0 -41 17t-16 38v51h59q-2 8 -2 35v14q0 71 40.5 116.5t109.5 45.5q49 0 86 -23t47 -71q0 -69 -45 -99q-11 36 -24.5 58t-29 30t-22.5 9.5t-19 1.5q-34 0 -34 -62q0 -43 12 -55z" />
    <glyph glyph-name="hamza_below_kasra" 
d="M-2 -211h184v-51q0 -22 -16.5 -38.5t-44.5 -16.5h-244q-25 0 -41 17t-16 38v51h59q-2 8 -2 35v14q0 71 40.5 116.5t109.5 45.5q49 0 86 -23t47 -71q0 -69 -45 -99q-11 36 -24.5 58t-29 30t-22.5 9.5t-19 1.5q-34 0 -34 -62q0 -43 12 -55zM184 -401l2 -56
q-59 -2 -161.5 -8t-153.5 -8q-20 -1 -32.5 9.5t-17.5 32t-6 35t-1 34.5q45 1 153.5 7t153.5 7q59 3 63 -53z" />
    <glyph glyph-name="wasle" horiz-adv-x="210" 
d="M-25 0v252h283v-252h-283z" />
    <glyph glyph-name="Kashida.Narrow" horiz-adv-x="387" 
d="M-25 0v254h467v-254h-467z" />
    <glyph glyph-name="kashida.long" horiz-adv-x="428" 
d="M-25 0v252h465v-252h-465z" />
    <glyph glyph-name="tooth.init" horiz-adv-x="622" 
d="M365 715q176 0 176 -183v-176q0 -154 -90.5 -252t-264.5 -104h-206v252h186q98 8 98 117v346h101z" />
    <glyph glyph-name="tooth.init.long" horiz-adv-x="622" 
d="M365 715q176 0 176 -183v-176q0 -154 -90.5 -252t-264.5 -104h-206v252h186q98 8 98 117v346h101z" />
    <glyph glyph-name="logo" horiz-adv-x="2549" 
 />
    </font>
</defs>
</svg>
